<?xml version="1.0" encoding="utf-8" standalone="no"?>
<!DOCTYPE svg PUBLIC "-//W3C//DTD SVG 1.1//EN"
  "http://www.w3.org/Graphics/SVG/1.1/DTD/svg11.dtd">
<svg xmlns:xlink="http://www.w3.org/1999/xlink" width="360pt" height="360pt" viewBox="0 0 360 360" xmlns="http://www.w3.org/2000/svg" version="1.1">
 <metadata>
  <rdf:RDF xmlns:dc="http://purl.org/dc/elements/1.1/" xmlns:cc="http://creativecommons.org/ns#" xmlns:rdf="http://www.w3.org/1999/02/22-rdf-syntax-ns#">
   <cc:Work>
    <dc:type rdf:resource="http://purl.org/dc/dcmitype/StillImage"/>
    <dc:date>2022-07-06T10:29:05.204281</dc:date>
    <dc:format>image/svg+xml</dc:format>
    <dc:creator>
     <cc:Agent>
      <dc:title>Matplotlib v3.5.1, https://matplotlib.org/</dc:title>
     </cc:Agent>
    </dc:creator>
   </cc:Work>
  </rdf:RDF>
 </metadata>
 <defs>
  <style type="text/css">*{stroke-linejoin: round; stroke-linecap: butt}</style>
 </defs>
 <g id="figure_1">
  <g id="patch_1">
   <path d="M 0 360 
L 360 360 
L 360 0 
L 0 0 
L 0 360 
z
" style="fill: none"/>
  </g>
  <g id="axes_1">
   <g id="patch_2">
    <path d="M 58.52 305.584 
L 349.2 305.584 
L 349.2 16.2 
L 58.52 16.2 
L 58.52 305.584 
z
" style="fill: none"/>
   </g>
   <g id="matplotlib.axis_1">
    <g id="xtick_1">
     <g id="line2d_1">
      <defs>
       <path id="mf38d94031c" d="M 0 0 
L 0 3.5 
" style="stroke: #000000; stroke-width: 0.8"/>
      </defs>
      <g>
       <use xlink:href="#mf38d94031c" x="92.06" y="305.584" style="stroke: #000000; stroke-width: 0.8"/>
      </g>
     </g>
     <g id="text_1">
      <!-- 10 -->
      <g transform="translate(83.1525 323.221812)scale(0.14 -0.14)">
       <defs>
        <path id="DejaVuSans-31" d="M 794 531 
L 1825 531 
L 1825 4091 
L 703 3866 
L 703 4441 
L 1819 4666 
L 2450 4666 
L 2450 531 
L 3481 531 
L 3481 0 
L 794 0 
L 794 531 
z
" transform="scale(0.015625)"/>
        <path id="DejaVuSans-30" d="M 2034 4250 
Q 1547 4250 1301 3770 
Q 1056 3291 1056 2328 
Q 1056 1369 1301 889 
Q 1547 409 2034 409 
Q 2525 409 2770 889 
Q 3016 1369 3016 2328 
Q 3016 3291 2770 3770 
Q 2525 4250 2034 4250 
z
M 2034 4750 
Q 2819 4750 3233 4129 
Q 3647 3509 3647 2328 
Q 3647 1150 3233 529 
Q 2819 -91 2034 -91 
Q 1250 -91 836 529 
Q 422 1150 422 2328 
Q 422 3509 836 4129 
Q 1250 4750 2034 4750 
z
" transform="scale(0.015625)"/>
       </defs>
       <use xlink:href="#DejaVuSans-31"/>
       <use xlink:href="#DejaVuSans-30" x="63.623047"/>
      </g>
     </g>
    </g>
    <g id="xtick_2">
     <g id="line2d_2">
      <g>
       <use xlink:href="#mf38d94031c" x="136.78" y="305.584" style="stroke: #000000; stroke-width: 0.8"/>
      </g>
     </g>
     <g id="text_2">
      <!-- 20 -->
      <g transform="translate(127.8725 323.221812)scale(0.14 -0.14)">
       <defs>
        <path id="DejaVuSans-32" d="M 1228 531 
L 3431 531 
L 3431 0 
L 469 0 
L 469 531 
Q 828 903 1448 1529 
Q 2069 2156 2228 2338 
Q 2531 2678 2651 2914 
Q 2772 3150 2772 3378 
Q 2772 3750 2511 3984 
Q 2250 4219 1831 4219 
Q 1534 4219 1204 4116 
Q 875 4013 500 3803 
L 500 4441 
Q 881 4594 1212 4672 
Q 1544 4750 1819 4750 
Q 2544 4750 2975 4387 
Q 3406 4025 3406 3419 
Q 3406 3131 3298 2873 
Q 3191 2616 2906 2266 
Q 2828 2175 2409 1742 
Q 1991 1309 1228 531 
z
" transform="scale(0.015625)"/>
       </defs>
       <use xlink:href="#DejaVuSans-32"/>
       <use xlink:href="#DejaVuSans-30" x="63.623047"/>
      </g>
     </g>
    </g>
    <g id="xtick_3">
     <g id="line2d_3">
      <g>
       <use xlink:href="#mf38d94031c" x="181.5" y="305.584" style="stroke: #000000; stroke-width: 0.8"/>
      </g>
     </g>
     <g id="text_3">
      <!-- 30 -->
      <g transform="translate(172.5925 323.221812)scale(0.14 -0.14)">
       <defs>
        <path id="DejaVuSans-33" d="M 2597 2516 
Q 3050 2419 3304 2112 
Q 3559 1806 3559 1356 
Q 3559 666 3084 287 
Q 2609 -91 1734 -91 
Q 1441 -91 1130 -33 
Q 819 25 488 141 
L 488 750 
Q 750 597 1062 519 
Q 1375 441 1716 441 
Q 2309 441 2620 675 
Q 2931 909 2931 1356 
Q 2931 1769 2642 2001 
Q 2353 2234 1838 2234 
L 1294 2234 
L 1294 2753 
L 1863 2753 
Q 2328 2753 2575 2939 
Q 2822 3125 2822 3475 
Q 2822 3834 2567 4026 
Q 2313 4219 1838 4219 
Q 1578 4219 1281 4162 
Q 984 4106 628 3988 
L 628 4550 
Q 988 4650 1302 4700 
Q 1616 4750 1894 4750 
Q 2613 4750 3031 4423 
Q 3450 4097 3450 3541 
Q 3450 3153 3228 2886 
Q 3006 2619 2597 2516 
z
" transform="scale(0.015625)"/>
       </defs>
       <use xlink:href="#DejaVuSans-33"/>
       <use xlink:href="#DejaVuSans-30" x="63.623047"/>
      </g>
     </g>
    </g>
    <g id="xtick_4">
     <g id="line2d_4">
      <g>
       <use xlink:href="#mf38d94031c" x="226.22" y="305.584" style="stroke: #000000; stroke-width: 0.8"/>
      </g>
     </g>
     <g id="text_4">
      <!-- 60 -->
      <g transform="translate(217.3125 323.221812)scale(0.14 -0.14)">
       <defs>
        <path id="DejaVuSans-36" d="M 2113 2584 
Q 1688 2584 1439 2293 
Q 1191 2003 1191 1497 
Q 1191 994 1439 701 
Q 1688 409 2113 409 
Q 2538 409 2786 701 
Q 3034 994 3034 1497 
Q 3034 2003 2786 2293 
Q 2538 2584 2113 2584 
z
M 3366 4563 
L 3366 3988 
Q 3128 4100 2886 4159 
Q 2644 4219 2406 4219 
Q 1781 4219 1451 3797 
Q 1122 3375 1075 2522 
Q 1259 2794 1537 2939 
Q 1816 3084 2150 3084 
Q 2853 3084 3261 2657 
Q 3669 2231 3669 1497 
Q 3669 778 3244 343 
Q 2819 -91 2113 -91 
Q 1303 -91 875 529 
Q 447 1150 447 2328 
Q 447 3434 972 4092 
Q 1497 4750 2381 4750 
Q 2619 4750 2861 4703 
Q 3103 4656 3366 4563 
z
" transform="scale(0.015625)"/>
       </defs>
       <use xlink:href="#DejaVuSans-36"/>
       <use xlink:href="#DejaVuSans-30" x="63.623047"/>
      </g>
     </g>
    </g>
    <g id="xtick_5">
     <g id="line2d_5">
      <g>
       <use xlink:href="#mf38d94031c" x="270.94" y="305.584" style="stroke: #000000; stroke-width: 0.8"/>
      </g>
     </g>
     <g id="text_5">
      <!-- 136 -->
      <g transform="translate(257.57875 323.221812)scale(0.14 -0.14)">
       <use xlink:href="#DejaVuSans-31"/>
       <use xlink:href="#DejaVuSans-33" x="63.623047"/>
       <use xlink:href="#DejaVuSans-36" x="127.246094"/>
      </g>
     </g>
    </g>
    <g id="xtick_6">
     <g id="line2d_6">
      <g>
       <use xlink:href="#mf38d94031c" x="315.66" y="305.584" style="stroke: #000000; stroke-width: 0.8"/>
      </g>
     </g>
     <g id="text_6">
      <!-- $\bf{10_{3T}}$ -->
      <g transform="translate(298.86 323.221812)scale(0.14 -0.14)">
       <defs>
        <path id="DejaVuSans-Bold-31" d="M 750 831 
L 1813 831 
L 1813 3847 
L 722 3622 
L 722 4441 
L 1806 4666 
L 2950 4666 
L 2950 831 
L 4013 831 
L 4013 0 
L 750 0 
L 750 831 
z
" transform="scale(0.015625)"/>
        <path id="DejaVuSans-Bold-30" d="M 2944 2338 
Q 2944 3213 2780 3570 
Q 2616 3928 2228 3928 
Q 1841 3928 1675 3570 
Q 1509 3213 1509 2338 
Q 1509 1453 1675 1090 
Q 1841 728 2228 728 
Q 2613 728 2778 1090 
Q 2944 1453 2944 2338 
z
M 4147 2328 
Q 4147 1169 3647 539 
Q 3147 -91 2228 -91 
Q 1306 -91 806 539 
Q 306 1169 306 2328 
Q 306 3491 806 4120 
Q 1306 4750 2228 4750 
Q 3147 4750 3647 4120 
Q 4147 3491 4147 2328 
z
" transform="scale(0.015625)"/>
        <path id="DejaVuSans-Bold-33" d="M 2981 2516 
Q 3453 2394 3698 2092 
Q 3944 1791 3944 1325 
Q 3944 631 3412 270 
Q 2881 -91 1863 -91 
Q 1503 -91 1142 -33 
Q 781 25 428 141 
L 428 1069 
Q 766 900 1098 814 
Q 1431 728 1753 728 
Q 2231 728 2486 893 
Q 2741 1059 2741 1369 
Q 2741 1688 2480 1852 
Q 2219 2016 1709 2016 
L 1228 2016 
L 1228 2791 
L 1734 2791 
Q 2188 2791 2409 2933 
Q 2631 3075 2631 3366 
Q 2631 3634 2415 3781 
Q 2200 3928 1806 3928 
Q 1516 3928 1219 3862 
Q 922 3797 628 3669 
L 628 4550 
Q 984 4650 1334 4700 
Q 1684 4750 2022 4750 
Q 2931 4750 3382 4451 
Q 3834 4153 3834 3553 
Q 3834 3144 3618 2883 
Q 3403 2622 2981 2516 
z
" transform="scale(0.015625)"/>
        <path id="DejaVuSans-Bold-54" d="M 31 4666 
L 4331 4666 
L 4331 3756 
L 2784 3756 
L 2784 0 
L 1581 0 
L 1581 3756 
L 31 3756 
L 31 4666 
z
" transform="scale(0.015625)"/>
       </defs>
       <use xlink:href="#DejaVuSans-Bold-31" transform="translate(0 0.78125)"/>
       <use xlink:href="#DejaVuSans-Bold-30" transform="translate(69.580078 0.78125)"/>
       <use xlink:href="#DejaVuSans-Bold-33" transform="translate(140.117188 -15.625)scale(0.7)"/>
       <use xlink:href="#DejaVuSans-Bold-54" transform="translate(188.823242 -15.625)scale(0.7)"/>
      </g>
     </g>
    </g>
    <g id="xtick_7"/>
    <g id="xtick_8"/>
    <g id="xtick_9"/>
    <g id="xtick_10"/>
    <g id="xtick_11"/>
    <g id="xtick_12"/>
    <g id="xtick_13"/>
    <g id="xtick_14"/>
    <g id="xtick_15"/>
    <g id="xtick_16"/>
    <g id="xtick_17"/>
    <g id="xtick_18"/>
    <g id="xtick_19"/>
    <g id="xtick_20"/>
    <g id="xtick_21"/>
    <g id="xtick_22"/>
    <g id="xtick_23"/>
    <g id="xtick_24"/>
    <g id="xtick_25"/>
    <g id="xtick_26"/>
    <g id="xtick_27"/>
    <g id="xtick_28"/>
    <g id="xtick_29"/>
    <g id="xtick_30"/>
    <g id="xtick_31"/>
    <g id="xtick_32"/>
    <g id="text_7">
     <!-- $n_{conf}$ -->
     <g transform="translate(184.33 343.810563)scale(0.18 -0.18)">
      <defs>
       <path id="DejaVuSans-Oblique-6e" d="M 3566 2113 
L 3156 0 
L 2578 0 
L 2988 2091 
Q 3016 2238 3031 2350 
Q 3047 2463 3047 2528 
Q 3047 2791 2881 2937 
Q 2716 3084 2419 3084 
Q 1956 3084 1622 2776 
Q 1288 2469 1184 1941 
L 800 0 
L 225 0 
L 903 3500 
L 1478 3500 
L 1363 2950 
Q 1603 3253 1940 3418 
Q 2278 3584 2650 3584 
Q 3113 3584 3367 3334 
Q 3622 3084 3622 2631 
Q 3622 2519 3608 2391 
Q 3594 2263 3566 2113 
z
" transform="scale(0.015625)"/>
       <path id="DejaVuSans-Oblique-63" d="M 3431 3366 
L 3316 2797 
Q 3109 2947 2876 3022 
Q 2644 3097 2394 3097 
Q 2119 3097 1870 3000 
Q 1622 2903 1453 2725 
Q 1184 2453 1037 2087 
Q 891 1722 891 1331 
Q 891 859 1127 628 
Q 1363 397 1844 397 
Q 2081 397 2348 469 
Q 2616 541 2906 684 
L 2797 116 
Q 2547 13 2283 -39 
Q 2019 -91 1741 -91 
Q 1044 -91 669 257 
Q 294 606 294 1253 
Q 294 1797 489 2255 
Q 684 2713 1069 3078 
Q 1331 3328 1684 3456 
Q 2038 3584 2456 3584 
Q 2700 3584 2940 3529 
Q 3181 3475 3431 3366 
z
" transform="scale(0.015625)"/>
       <path id="DejaVuSans-Oblique-6f" d="M 1625 -91 
Q 1009 -91 651 289 
Q 294 669 294 1325 
Q 294 1706 417 2101 
Q 541 2497 738 2766 
Q 1047 3184 1428 3384 
Q 1809 3584 2291 3584 
Q 2888 3584 3255 3212 
Q 3622 2841 3622 2241 
Q 3622 1825 3500 1412 
Q 3378 1000 3181 728 
Q 2875 309 2494 109 
Q 2113 -91 1625 -91 
z
M 891 1344 
Q 891 869 1089 633 
Q 1288 397 1691 397 
Q 2269 397 2648 901 
Q 3028 1406 3028 2181 
Q 3028 2634 2825 2865 
Q 2622 3097 2228 3097 
Q 1903 3097 1650 2945 
Q 1397 2794 1197 2484 
Q 1050 2253 970 1956 
Q 891 1659 891 1344 
z
" transform="scale(0.015625)"/>
       <path id="DejaVuSans-Oblique-66" d="M 3059 4863 
L 2969 4384 
L 2419 4384 
Q 2106 4384 1964 4261 
Q 1822 4138 1753 3809 
L 1691 3500 
L 2638 3500 
L 2553 3053 
L 1606 3053 
L 1013 0 
L 434 0 
L 1031 3053 
L 481 3053 
L 563 3500 
L 1113 3500 
L 1159 3744 
Q 1278 4363 1576 4613 
Q 1875 4863 2516 4863 
L 3059 4863 
z
" transform="scale(0.015625)"/>
      </defs>
      <use xlink:href="#DejaVuSans-Oblique-6e"/>
      <use xlink:href="#DejaVuSans-Oblique-63" transform="translate(63.378906 -16.40625)scale(0.7)"/>
      <use xlink:href="#DejaVuSans-Oblique-6f" transform="translate(101.865234 -16.40625)scale(0.7)"/>
      <use xlink:href="#DejaVuSans-Oblique-6e" transform="translate(144.692383 -16.40625)scale(0.7)"/>
      <use xlink:href="#DejaVuSans-Oblique-66" transform="translate(189.057617 -16.40625)scale(0.7)"/>
     </g>
    </g>
   </g>
   <g id="matplotlib.axis_2">
    <g id="ytick_1">
     <g id="line2d_7">
      <path d="M 58.52 305.584 
L 349.2 305.584 
" clip-path="url(#p1a2b442369)" style="fill: none; stroke: #666666; stroke-width: 0.8; stroke-linecap: square"/>
     </g>
     <g id="line2d_8">
      <defs>
       <path id="m432b18d3c6" d="M 0 0 
L -3.5 0 
" style="stroke: #000000; stroke-width: 0.8"/>
      </defs>
      <g>
       <use xlink:href="#m432b18d3c6" x="58.52" y="305.584" style="stroke: #000000; stroke-width: 0.8"/>
      </g>
     </g>
     <g id="text_8">
      <!-- 0.5 -->
      <g transform="translate(29.255625 310.902906)scale(0.14 -0.14)">
       <defs>
        <path id="DejaVuSans-2e" d="M 684 794 
L 1344 794 
L 1344 0 
L 684 0 
L 684 794 
z
" transform="scale(0.015625)"/>
        <path id="DejaVuSans-35" d="M 691 4666 
L 3169 4666 
L 3169 4134 
L 1269 4134 
L 1269 2991 
Q 1406 3038 1543 3061 
Q 1681 3084 1819 3084 
Q 2600 3084 3056 2656 
Q 3513 2228 3513 1497 
Q 3513 744 3044 326 
Q 2575 -91 1722 -91 
Q 1428 -91 1123 -41 
Q 819 9 494 109 
L 494 744 
Q 775 591 1075 516 
Q 1375 441 1709 441 
Q 2250 441 2565 725 
Q 2881 1009 2881 1497 
Q 2881 1984 2565 2268 
Q 2250 2553 1709 2553 
Q 1456 2553 1204 2497 
Q 953 2441 691 2322 
L 691 4666 
z
" transform="scale(0.015625)"/>
       </defs>
       <use xlink:href="#DejaVuSans-30"/>
       <use xlink:href="#DejaVuSans-2e" x="63.623047"/>
       <use xlink:href="#DejaVuSans-35" x="95.410156"/>
      </g>
     </g>
    </g>
    <g id="ytick_2">
     <g id="line2d_9">
      <path d="M 58.52 247.7072 
L 349.2 247.7072 
" clip-path="url(#p1a2b442369)" style="fill: none; stroke: #666666; stroke-width: 0.8; stroke-linecap: square"/>
     </g>
     <g id="line2d_10">
      <g>
       <use xlink:href="#m432b18d3c6" x="58.52" y="247.7072" style="stroke: #000000; stroke-width: 0.8"/>
      </g>
     </g>
     <g id="text_9">
      <!-- 0.6 -->
      <g transform="translate(29.255625 253.026106)scale(0.14 -0.14)">
       <use xlink:href="#DejaVuSans-30"/>
       <use xlink:href="#DejaVuSans-2e" x="63.623047"/>
       <use xlink:href="#DejaVuSans-36" x="95.410156"/>
      </g>
     </g>
    </g>
    <g id="ytick_3">
     <g id="line2d_11">
      <path d="M 58.52 189.8304 
L 349.2 189.8304 
" clip-path="url(#p1a2b442369)" style="fill: none; stroke: #666666; stroke-width: 0.8; stroke-linecap: square"/>
     </g>
     <g id="line2d_12">
      <g>
       <use xlink:href="#m432b18d3c6" x="58.52" y="189.8304" style="stroke: #000000; stroke-width: 0.8"/>
      </g>
     </g>
     <g id="text_10">
      <!-- 0.7 -->
      <g transform="translate(29.255625 195.149306)scale(0.14 -0.14)">
       <defs>
        <path id="DejaVuSans-37" d="M 525 4666 
L 3525 4666 
L 3525 4397 
L 1831 0 
L 1172 0 
L 2766 4134 
L 525 4134 
L 525 4666 
z
" transform="scale(0.015625)"/>
       </defs>
       <use xlink:href="#DejaVuSans-30"/>
       <use xlink:href="#DejaVuSans-2e" x="63.623047"/>
       <use xlink:href="#DejaVuSans-37" x="95.410156"/>
      </g>
     </g>
    </g>
    <g id="ytick_4">
     <g id="line2d_13">
      <path d="M 58.52 131.9536 
L 349.2 131.9536 
" clip-path="url(#p1a2b442369)" style="fill: none; stroke: #666666; stroke-width: 0.8; stroke-linecap: square"/>
     </g>
     <g id="line2d_14">
      <g>
       <use xlink:href="#m432b18d3c6" x="58.52" y="131.9536" style="stroke: #000000; stroke-width: 0.8"/>
      </g>
     </g>
     <g id="text_11">
      <!-- 0.8 -->
      <g transform="translate(29.255625 137.272506)scale(0.14 -0.14)">
       <defs>
        <path id="DejaVuSans-38" d="M 2034 2216 
Q 1584 2216 1326 1975 
Q 1069 1734 1069 1313 
Q 1069 891 1326 650 
Q 1584 409 2034 409 
Q 2484 409 2743 651 
Q 3003 894 3003 1313 
Q 3003 1734 2745 1975 
Q 2488 2216 2034 2216 
z
M 1403 2484 
Q 997 2584 770 2862 
Q 544 3141 544 3541 
Q 544 4100 942 4425 
Q 1341 4750 2034 4750 
Q 2731 4750 3128 4425 
Q 3525 4100 3525 3541 
Q 3525 3141 3298 2862 
Q 3072 2584 2669 2484 
Q 3125 2378 3379 2068 
Q 3634 1759 3634 1313 
Q 3634 634 3220 271 
Q 2806 -91 2034 -91 
Q 1263 -91 848 271 
Q 434 634 434 1313 
Q 434 1759 690 2068 
Q 947 2378 1403 2484 
z
M 1172 3481 
Q 1172 3119 1398 2916 
Q 1625 2713 2034 2713 
Q 2441 2713 2670 2916 
Q 2900 3119 2900 3481 
Q 2900 3844 2670 4047 
Q 2441 4250 2034 4250 
Q 1625 4250 1398 4047 
Q 1172 3844 1172 3481 
z
" transform="scale(0.015625)"/>
       </defs>
       <use xlink:href="#DejaVuSans-30"/>
       <use xlink:href="#DejaVuSans-2e" x="63.623047"/>
       <use xlink:href="#DejaVuSans-38" x="95.410156"/>
      </g>
     </g>
    </g>
    <g id="ytick_5">
     <g id="line2d_15">
      <path d="M 58.52 74.0768 
L 349.2 74.0768 
" clip-path="url(#p1a2b442369)" style="fill: none; stroke: #666666; stroke-width: 0.8; stroke-linecap: square"/>
     </g>
     <g id="line2d_16">
      <g>
       <use xlink:href="#m432b18d3c6" x="58.52" y="74.0768" style="stroke: #000000; stroke-width: 0.8"/>
      </g>
     </g>
     <g id="text_12">
      <!-- 0.9 -->
      <g transform="translate(29.255625 79.395706)scale(0.14 -0.14)">
       <defs>
        <path id="DejaVuSans-39" d="M 703 97 
L 703 672 
Q 941 559 1184 500 
Q 1428 441 1663 441 
Q 2288 441 2617 861 
Q 2947 1281 2994 2138 
Q 2813 1869 2534 1725 
Q 2256 1581 1919 1581 
Q 1219 1581 811 2004 
Q 403 2428 403 3163 
Q 403 3881 828 4315 
Q 1253 4750 1959 4750 
Q 2769 4750 3195 4129 
Q 3622 3509 3622 2328 
Q 3622 1225 3098 567 
Q 2575 -91 1691 -91 
Q 1453 -91 1209 -44 
Q 966 3 703 97 
z
M 1959 2075 
Q 2384 2075 2632 2365 
Q 2881 2656 2881 3163 
Q 2881 3666 2632 3958 
Q 2384 4250 1959 4250 
Q 1534 4250 1286 3958 
Q 1038 3666 1038 3163 
Q 1038 2656 1286 2365 
Q 1534 2075 1959 2075 
z
" transform="scale(0.015625)"/>
       </defs>
       <use xlink:href="#DejaVuSans-30"/>
       <use xlink:href="#DejaVuSans-2e" x="63.623047"/>
       <use xlink:href="#DejaVuSans-39" x="95.410156"/>
      </g>
     </g>
    </g>
    <g id="ytick_6">
     <g id="line2d_17">
      <path d="M 58.52 16.2 
L 349.2 16.2 
" clip-path="url(#p1a2b442369)" style="fill: none; stroke: #666666; stroke-width: 0.8; stroke-linecap: square"/>
     </g>
     <g id="line2d_18">
      <g>
       <use xlink:href="#m432b18d3c6" x="58.52" y="16.2" style="stroke: #000000; stroke-width: 0.8"/>
      </g>
     </g>
     <g id="text_13">
      <!-- 1.0 -->
      <g transform="translate(29.255625 21.518906)scale(0.14 -0.14)">
       <use xlink:href="#DejaVuSans-31"/>
       <use xlink:href="#DejaVuSans-2e" x="63.623047"/>
       <use xlink:href="#DejaVuSans-30" x="95.410156"/>
      </g>
     </g>
    </g>
    <g id="ytick_7">
     <g id="line2d_19">
      <path d="M 58.52 294.00864 
L 349.2 294.00864 
" clip-path="url(#p1a2b442369)" style="fill: none; stroke: #999999; stroke-opacity: 0.2; stroke-width: 0.8; stroke-linecap: square"/>
     </g>
     <g id="line2d_20">
      <defs>
       <path id="mc28f7ad907" d="M 0 0 
L -2 0 
" style="stroke: #000000; stroke-width: 0.6"/>
      </defs>
      <g>
       <use xlink:href="#mc28f7ad907" x="58.52" y="294.00864" style="stroke: #000000; stroke-width: 0.6"/>
      </g>
     </g>
    </g>
    <g id="ytick_8">
     <g id="line2d_21">
      <path d="M 58.52 282.43328 
L 349.2 282.43328 
" clip-path="url(#p1a2b442369)" style="fill: none; stroke: #999999; stroke-opacity: 0.2; stroke-width: 0.8; stroke-linecap: square"/>
     </g>
     <g id="line2d_22">
      <g>
       <use xlink:href="#mc28f7ad907" x="58.52" y="282.43328" style="stroke: #000000; stroke-width: 0.6"/>
      </g>
     </g>
    </g>
    <g id="ytick_9">
     <g id="line2d_23">
      <path d="M 58.52 270.85792 
L 349.2 270.85792 
" clip-path="url(#p1a2b442369)" style="fill: none; stroke: #999999; stroke-opacity: 0.2; stroke-width: 0.8; stroke-linecap: square"/>
     </g>
     <g id="line2d_24">
      <g>
       <use xlink:href="#mc28f7ad907" x="58.52" y="270.85792" style="stroke: #000000; stroke-width: 0.6"/>
      </g>
     </g>
    </g>
    <g id="ytick_10">
     <g id="line2d_25">
      <path d="M 58.52 259.28256 
L 349.2 259.28256 
" clip-path="url(#p1a2b442369)" style="fill: none; stroke: #999999; stroke-opacity: 0.2; stroke-width: 0.8; stroke-linecap: square"/>
     </g>
     <g id="line2d_26">
      <g>
       <use xlink:href="#mc28f7ad907" x="58.52" y="259.28256" style="stroke: #000000; stroke-width: 0.6"/>
      </g>
     </g>
    </g>
    <g id="ytick_11">
     <g id="line2d_27">
      <path d="M 58.52 236.13184 
L 349.2 236.13184 
" clip-path="url(#p1a2b442369)" style="fill: none; stroke: #999999; stroke-opacity: 0.2; stroke-width: 0.8; stroke-linecap: square"/>
     </g>
     <g id="line2d_28">
      <g>
       <use xlink:href="#mc28f7ad907" x="58.52" y="236.13184" style="stroke: #000000; stroke-width: 0.6"/>
      </g>
     </g>
    </g>
    <g id="ytick_12">
     <g id="line2d_29">
      <path d="M 58.52 224.55648 
L 349.2 224.55648 
" clip-path="url(#p1a2b442369)" style="fill: none; stroke: #999999; stroke-opacity: 0.2; stroke-width: 0.8; stroke-linecap: square"/>
     </g>
     <g id="line2d_30">
      <g>
       <use xlink:href="#mc28f7ad907" x="58.52" y="224.55648" style="stroke: #000000; stroke-width: 0.6"/>
      </g>
     </g>
    </g>
    <g id="ytick_13">
     <g id="line2d_31">
      <path d="M 58.52 212.98112 
L 349.2 212.98112 
" clip-path="url(#p1a2b442369)" style="fill: none; stroke: #999999; stroke-opacity: 0.2; stroke-width: 0.8; stroke-linecap: square"/>
     </g>
     <g id="line2d_32">
      <g>
       <use xlink:href="#mc28f7ad907" x="58.52" y="212.98112" style="stroke: #000000; stroke-width: 0.6"/>
      </g>
     </g>
    </g>
    <g id="ytick_14">
     <g id="line2d_33">
      <path d="M 58.52 201.40576 
L 349.2 201.40576 
" clip-path="url(#p1a2b442369)" style="fill: none; stroke: #999999; stroke-opacity: 0.2; stroke-width: 0.8; stroke-linecap: square"/>
     </g>
     <g id="line2d_34">
      <g>
       <use xlink:href="#mc28f7ad907" x="58.52" y="201.40576" style="stroke: #000000; stroke-width: 0.6"/>
      </g>
     </g>
    </g>
    <g id="ytick_15">
     <g id="line2d_35">
      <path d="M 58.52 178.25504 
L 349.2 178.25504 
" clip-path="url(#p1a2b442369)" style="fill: none; stroke: #999999; stroke-opacity: 0.2; stroke-width: 0.8; stroke-linecap: square"/>
     </g>
     <g id="line2d_36">
      <g>
       <use xlink:href="#mc28f7ad907" x="58.52" y="178.25504" style="stroke: #000000; stroke-width: 0.6"/>
      </g>
     </g>
    </g>
    <g id="ytick_16">
     <g id="line2d_37">
      <path d="M 58.52 166.67968 
L 349.2 166.67968 
" clip-path="url(#p1a2b442369)" style="fill: none; stroke: #999999; stroke-opacity: 0.2; stroke-width: 0.8; stroke-linecap: square"/>
     </g>
     <g id="line2d_38">
      <g>
       <use xlink:href="#mc28f7ad907" x="58.52" y="166.67968" style="stroke: #000000; stroke-width: 0.6"/>
      </g>
     </g>
    </g>
    <g id="ytick_17">
     <g id="line2d_39">
      <path d="M 58.52 155.10432 
L 349.2 155.10432 
" clip-path="url(#p1a2b442369)" style="fill: none; stroke: #999999; stroke-opacity: 0.2; stroke-width: 0.8; stroke-linecap: square"/>
     </g>
     <g id="line2d_40">
      <g>
       <use xlink:href="#mc28f7ad907" x="58.52" y="155.10432" style="stroke: #000000; stroke-width: 0.6"/>
      </g>
     </g>
    </g>
    <g id="ytick_18">
     <g id="line2d_41">
      <path d="M 58.52 143.52896 
L 349.2 143.52896 
" clip-path="url(#p1a2b442369)" style="fill: none; stroke: #999999; stroke-opacity: 0.2; stroke-width: 0.8; stroke-linecap: square"/>
     </g>
     <g id="line2d_42">
      <g>
       <use xlink:href="#mc28f7ad907" x="58.52" y="143.52896" style="stroke: #000000; stroke-width: 0.6"/>
      </g>
     </g>
    </g>
    <g id="ytick_19">
     <g id="line2d_43">
      <path d="M 58.52 120.37824 
L 349.2 120.37824 
" clip-path="url(#p1a2b442369)" style="fill: none; stroke: #999999; stroke-opacity: 0.2; stroke-width: 0.8; stroke-linecap: square"/>
     </g>
     <g id="line2d_44">
      <g>
       <use xlink:href="#mc28f7ad907" x="58.52" y="120.37824" style="stroke: #000000; stroke-width: 0.6"/>
      </g>
     </g>
    </g>
    <g id="ytick_20">
     <g id="line2d_45">
      <path d="M 58.52 108.80288 
L 349.2 108.80288 
" clip-path="url(#p1a2b442369)" style="fill: none; stroke: #999999; stroke-opacity: 0.2; stroke-width: 0.8; stroke-linecap: square"/>
     </g>
     <g id="line2d_46">
      <g>
       <use xlink:href="#mc28f7ad907" x="58.52" y="108.80288" style="stroke: #000000; stroke-width: 0.6"/>
      </g>
     </g>
    </g>
    <g id="ytick_21">
     <g id="line2d_47">
      <path d="M 58.52 97.22752 
L 349.2 97.22752 
" clip-path="url(#p1a2b442369)" style="fill: none; stroke: #999999; stroke-opacity: 0.2; stroke-width: 0.8; stroke-linecap: square"/>
     </g>
     <g id="line2d_48">
      <g>
       <use xlink:href="#mc28f7ad907" x="58.52" y="97.22752" style="stroke: #000000; stroke-width: 0.6"/>
      </g>
     </g>
    </g>
    <g id="ytick_22">
     <g id="line2d_49">
      <path d="M 58.52 85.65216 
L 349.2 85.65216 
" clip-path="url(#p1a2b442369)" style="fill: none; stroke: #999999; stroke-opacity: 0.2; stroke-width: 0.8; stroke-linecap: square"/>
     </g>
     <g id="line2d_50">
      <g>
       <use xlink:href="#mc28f7ad907" x="58.52" y="85.65216" style="stroke: #000000; stroke-width: 0.6"/>
      </g>
     </g>
    </g>
    <g id="ytick_23">
     <g id="line2d_51">
      <path d="M 58.52 62.50144 
L 349.2 62.50144 
" clip-path="url(#p1a2b442369)" style="fill: none; stroke: #999999; stroke-opacity: 0.2; stroke-width: 0.8; stroke-linecap: square"/>
     </g>
     <g id="line2d_52">
      <g>
       <use xlink:href="#mc28f7ad907" x="58.52" y="62.50144" style="stroke: #000000; stroke-width: 0.6"/>
      </g>
     </g>
    </g>
    <g id="ytick_24">
     <g id="line2d_53">
      <path d="M 58.52 50.92608 
L 349.2 50.92608 
" clip-path="url(#p1a2b442369)" style="fill: none; stroke: #999999; stroke-opacity: 0.2; stroke-width: 0.8; stroke-linecap: square"/>
     </g>
     <g id="line2d_54">
      <g>
       <use xlink:href="#mc28f7ad907" x="58.52" y="50.92608" style="stroke: #000000; stroke-width: 0.6"/>
      </g>
     </g>
    </g>
    <g id="ytick_25">
     <g id="line2d_55">
      <path d="M 58.52 39.35072 
L 349.2 39.35072 
" clip-path="url(#p1a2b442369)" style="fill: none; stroke: #999999; stroke-opacity: 0.2; stroke-width: 0.8; stroke-linecap: square"/>
     </g>
     <g id="line2d_56">
      <g>
       <use xlink:href="#mc28f7ad907" x="58.52" y="39.35072" style="stroke: #000000; stroke-width: 0.6"/>
      </g>
     </g>
    </g>
    <g id="ytick_26">
     <g id="line2d_57">
      <path d="M 58.52 27.77536 
L 349.2 27.77536 
" clip-path="url(#p1a2b442369)" style="fill: none; stroke: #999999; stroke-opacity: 0.2; stroke-width: 0.8; stroke-linecap: square"/>
     </g>
     <g id="line2d_58">
      <g>
       <use xlink:href="#mc28f7ad907" x="58.52" y="27.77536" style="stroke: #000000; stroke-width: 0.6"/>
      </g>
     </g>
    </g>
    <g id="text_14">
     <!-- AUC-ROC -->
     <g transform="translate(21.928125 198.1345)rotate(-90)scale(0.16 -0.16)">
      <defs>
       <path id="DejaVuSans-41" d="M 2188 4044 
L 1331 1722 
L 3047 1722 
L 2188 4044 
z
M 1831 4666 
L 2547 4666 
L 4325 0 
L 3669 0 
L 3244 1197 
L 1141 1197 
L 716 0 
L 50 0 
L 1831 4666 
z
" transform="scale(0.015625)"/>
       <path id="DejaVuSans-55" d="M 556 4666 
L 1191 4666 
L 1191 1831 
Q 1191 1081 1462 751 
Q 1734 422 2344 422 
Q 2950 422 3222 751 
Q 3494 1081 3494 1831 
L 3494 4666 
L 4128 4666 
L 4128 1753 
Q 4128 841 3676 375 
Q 3225 -91 2344 -91 
Q 1459 -91 1007 375 
Q 556 841 556 1753 
L 556 4666 
z
" transform="scale(0.015625)"/>
       <path id="DejaVuSans-43" d="M 4122 4306 
L 4122 3641 
Q 3803 3938 3442 4084 
Q 3081 4231 2675 4231 
Q 1875 4231 1450 3742 
Q 1025 3253 1025 2328 
Q 1025 1406 1450 917 
Q 1875 428 2675 428 
Q 3081 428 3442 575 
Q 3803 722 4122 1019 
L 4122 359 
Q 3791 134 3420 21 
Q 3050 -91 2638 -91 
Q 1578 -91 968 557 
Q 359 1206 359 2328 
Q 359 3453 968 4101 
Q 1578 4750 2638 4750 
Q 3056 4750 3426 4639 
Q 3797 4528 4122 4306 
z
" transform="scale(0.015625)"/>
       <path id="DejaVuSans-2d" d="M 313 2009 
L 1997 2009 
L 1997 1497 
L 313 1497 
L 313 2009 
z
" transform="scale(0.015625)"/>
       <path id="DejaVuSans-52" d="M 2841 2188 
Q 3044 2119 3236 1894 
Q 3428 1669 3622 1275 
L 4263 0 
L 3584 0 
L 2988 1197 
Q 2756 1666 2539 1819 
Q 2322 1972 1947 1972 
L 1259 1972 
L 1259 0 
L 628 0 
L 628 4666 
L 2053 4666 
Q 2853 4666 3247 4331 
Q 3641 3997 3641 3322 
Q 3641 2881 3436 2590 
Q 3231 2300 2841 2188 
z
M 1259 4147 
L 1259 2491 
L 2053 2491 
Q 2509 2491 2742 2702 
Q 2975 2913 2975 3322 
Q 2975 3731 2742 3939 
Q 2509 4147 2053 4147 
L 1259 4147 
z
" transform="scale(0.015625)"/>
       <path id="DejaVuSans-4f" d="M 2522 4238 
Q 1834 4238 1429 3725 
Q 1025 3213 1025 2328 
Q 1025 1447 1429 934 
Q 1834 422 2522 422 
Q 3209 422 3611 934 
Q 4013 1447 4013 2328 
Q 4013 3213 3611 3725 
Q 3209 4238 2522 4238 
z
M 2522 4750 
Q 3503 4750 4090 4092 
Q 4678 3434 4678 2328 
Q 4678 1225 4090 567 
Q 3503 -91 2522 -91 
Q 1538 -91 948 565 
Q 359 1222 359 2328 
Q 359 3434 948 4092 
Q 1538 4750 2522 4750 
z
" transform="scale(0.015625)"/>
      </defs>
      <use xlink:href="#DejaVuSans-41"/>
      <use xlink:href="#DejaVuSans-55" x="68.408203"/>
      <use xlink:href="#DejaVuSans-43" x="141.601562"/>
      <use xlink:href="#DejaVuSans-2d" x="211.425781"/>
      <use xlink:href="#DejaVuSans-52" x="247.509766"/>
      <use xlink:href="#DejaVuSans-4f" x="316.992188"/>
      <use xlink:href="#DejaVuSans-43" x="395.703125"/>
     </g>
    </g>
   </g>
   <g id="PolyCollection_1">
    <defs>
     <path id="mbd05081a84" d="M 93.290886 -158.264342 
L 90.829114 -158.264342 
L 90.690365 -158.976753 
L 90.544158 -159.689164 
L 90.390626 -160.401575 
L 90.229855 -161.113985 
L 90.061884 -161.826396 
L 89.886697 -162.538807 
L 89.704231 -163.251218 
L 89.514368 -163.963629 
L 89.316939 -164.676039 
L 89.111715 -165.38845 
L 88.898402 -166.100861 
L 88.676631 -166.813272 
L 88.445954 -167.525683 
L 88.205841 -168.238093 
L 87.9557 -168.950504 
L 87.694895 -169.662915 
L 87.422801 -170.375326 
L 87.138867 -171.087737 
L 86.842696 -171.800147 
L 86.534148 -172.512558 
L 86.213435 -173.224969 
L 85.881219 -173.93738 
L 85.538685 -174.64979 
L 85.187591 -175.362201 
L 84.830275 -176.074612 
L 84.469623 -176.787023 
L 84.108992 -177.499434 
L 83.752087 -178.211844 
L 83.402813 -178.924255 
L 83.065107 -179.636666 
L 82.74277 -180.349077 
L 82.439311 -181.061488 
L 82.157818 -181.773898 
L 81.900878 -182.486309 
L 81.670538 -183.19872 
L 81.468309 -183.911131 
L 81.295222 -184.623542 
L 81.151903 -185.335952 
L 81.03867 -186.048363 
L 80.955634 -186.760774 
L 80.902774 -187.473185 
L 80.88 -188.185596 
L 80.887169 -188.898006 
L 80.924077 -189.610417 
L 80.990406 -190.322828 
L 81.085655 -191.035239 
L 81.209051 -191.747649 
L 81.359461 -192.46006 
L 81.535312 -193.172471 
L 81.73454 -193.884882 
L 81.954557 -194.597293 
L 82.192265 -195.309703 
L 82.444094 -196.022114 
L 82.706082 -196.734525 
L 82.973978 -197.446936 
L 83.243366 -198.159347 
L 83.509811 -198.871757 
L 83.769007 -199.584168 
L 84.016934 -200.296579 
L 84.250015 -201.00899 
L 84.465258 -201.721401 
L 84.660393 -202.433811 
L 84.83399 -203.146222 
L 84.985537 -203.858633 
L 85.115499 -204.571044 
L 85.225324 -205.283455 
L 85.317394 -205.995865 
L 85.394932 -206.708276 
L 85.46185 -207.420687 
L 85.522545 -208.133098 
L 85.58166 -208.845509 
L 85.643824 -209.557919 
L 85.71338 -210.27033 
L 85.794138 -210.982741 
L 85.889164 -211.695152 
L 86.000618 -212.407562 
L 86.12967 -213.119973 
L 86.276486 -213.832384 
L 86.440288 -214.544795 
L 86.619483 -215.257206 
L 86.811848 -215.969616 
L 87.014738 -216.682027 
L 87.22532 -217.394438 
L 87.440786 -218.106849 
L 87.658549 -218.81926 
L 87.876387 -219.53167 
L 88.092541 -220.244081 
L 88.305749 -220.956492 
L 88.515241 -221.668903 
L 88.720669 -222.381314 
L 88.922018 -223.093724 
L 89.119485 -223.806135 
L 89.313364 -224.518546 
L 89.503921 -225.230957 
L 89.691308 -225.943368 
L 89.875482 -226.655778 
L 90.056175 -227.368189 
L 90.23288 -228.0806 
L 90.404875 -228.793011 
L 93.715125 -228.793011 
L 93.715125 -228.793011 
L 93.88712 -228.0806 
L 94.063825 -227.368189 
L 94.244518 -226.655778 
L 94.428692 -225.943368 
L 94.616079 -225.230957 
L 94.806636 -224.518546 
L 95.000515 -223.806135 
L 95.197982 -223.093724 
L 95.399331 -222.381314 
L 95.604759 -221.668903 
L 95.814251 -220.956492 
L 96.027459 -220.244081 
L 96.243613 -219.53167 
L 96.461451 -218.81926 
L 96.679214 -218.106849 
L 96.89468 -217.394438 
L 97.105262 -216.682027 
L 97.308152 -215.969616 
L 97.500517 -215.257206 
L 97.679712 -214.544795 
L 97.843514 -213.832384 
L 97.99033 -213.119973 
L 98.119382 -212.407562 
L 98.230836 -211.695152 
L 98.325862 -210.982741 
L 98.40662 -210.27033 
L 98.476176 -209.557919 
L 98.53834 -208.845509 
L 98.597455 -208.133098 
L 98.65815 -207.420687 
L 98.725068 -206.708276 
L 98.802606 -205.995865 
L 98.894676 -205.283455 
L 99.004501 -204.571044 
L 99.134463 -203.858633 
L 99.28601 -203.146222 
L 99.459607 -202.433811 
L 99.654742 -201.721401 
L 99.869985 -201.00899 
L 100.103066 -200.296579 
L 100.350993 -199.584168 
L 100.610189 -198.871757 
L 100.876634 -198.159347 
L 101.146022 -197.446936 
L 101.413918 -196.734525 
L 101.675906 -196.022114 
L 101.927735 -195.309703 
L 102.165443 -194.597293 
L 102.38546 -193.884882 
L 102.584688 -193.172471 
L 102.760539 -192.46006 
L 102.910949 -191.747649 
L 103.034345 -191.035239 
L 103.129594 -190.322828 
L 103.195923 -189.610417 
L 103.232831 -188.898006 
L 103.24 -188.185596 
L 103.217226 -187.473185 
L 103.164366 -186.760774 
L 103.08133 -186.048363 
L 102.968097 -185.335952 
L 102.824778 -184.623542 
L 102.651691 -183.911131 
L 102.449462 -183.19872 
L 102.219122 -182.486309 
L 101.962182 -181.773898 
L 101.680689 -181.061488 
L 101.37723 -180.349077 
L 101.054893 -179.636666 
L 100.717187 -178.924255 
L 100.367913 -178.211844 
L 100.011008 -177.499434 
L 99.650377 -176.787023 
L 99.289725 -176.074612 
L 98.932409 -175.362201 
L 98.581315 -174.64979 
L 98.238781 -173.93738 
L 97.906565 -173.224969 
L 97.585852 -172.512558 
L 97.277304 -171.800147 
L 96.981133 -171.087737 
L 96.697199 -170.375326 
L 96.425105 -169.662915 
L 96.1643 -168.950504 
L 95.914159 -168.238093 
L 95.674046 -167.525683 
L 95.443369 -166.813272 
L 95.221598 -166.100861 
L 95.008285 -165.38845 
L 94.803061 -164.676039 
L 94.605632 -163.963629 
L 94.415769 -163.251218 
L 94.233303 -162.538807 
L 94.058116 -161.826396 
L 93.890145 -161.113985 
L 93.729374 -160.401575 
L 93.575842 -159.689164 
L 93.429635 -158.976753 
L 93.290886 -158.264342 
z
" style="stroke: #000000"/>
    </defs>
    <g clip-path="url(#p1a2b442369)">
     <use xlink:href="#mbd05081a84" x="0" y="360" style="fill: #deebf7; stroke: #000000"/>
    </g>
   </g>
   <g id="PolyCollection_2">
    <defs>
     <path id="mb8033f2425" d="M 137.868937 -170.296929 
L 135.691063 -170.296929 
L 135.577646 -171.163327 
L 135.473086 -172.029725 
L 135.381029 -172.896123 
L 135.304386 -173.762522 
L 135.24496 -174.62892 
L 135.203123 -175.495318 
L 135.177609 -176.361716 
L 135.165452 -177.228114 
L 135.162097 -178.094512 
L 135.161681 -178.960911 
L 135.157479 -179.827309 
L 135.142475 -180.693707 
L 135.109988 -181.560105 
L 135.054304 -182.426503 
L 134.971235 -183.292901 
L 134.858533 -184.159299 
L 134.716122 -185.025698 
L 134.546096 -185.892096 
L 134.352501 -186.758494 
L 134.140894 -187.624892 
L 133.917743 -188.49129 
L 133.68973 -189.357688 
L 133.463026 -190.224087 
L 133.242629 -191.090485 
L 133.031841 -191.956883 
L 132.83193 -192.823281 
L 132.642026 -193.689679 
L 132.459249 -194.556077 
L 132.279045 -195.422476 
L 132.095686 -196.288874 
L 131.902869 -197.155272 
L 131.69434 -198.02167 
L 131.464478 -198.888068 
L 131.208779 -199.754466 
L 130.924215 -200.620864 
L 130.609449 -201.487263 
L 130.264913 -202.353661 
L 129.892781 -203.220059 
L 129.496858 -204.086457 
L 129.082421 -204.952855 
L 128.656036 -205.819253 
L 128.225351 -206.685652 
L 127.798889 -207.55205 
L 127.38579 -208.418448 
L 126.995539 -209.284846 
L 126.637622 -210.151244 
L 126.321148 -211.017642 
L 126.054424 -211.884041 
L 125.844523 -212.750439 
L 125.696881 -213.616837 
L 125.614955 -214.483235 
L 125.6 -215.349633 
L 125.650989 -216.216031 
L 125.764685 -217.082429 
L 125.935883 -217.948828 
L 126.157789 -218.815226 
L 126.422498 -219.681624 
L 126.721549 -220.548022 
L 127.046464 -221.41442 
L 127.389268 -222.280818 
L 127.742908 -223.147217 
L 128.101562 -224.013615 
L 128.460818 -224.880013 
L 128.817706 -225.746411 
L 129.17062 -226.612809 
L 129.519127 -227.479207 
L 129.863708 -228.345606 
L 130.205459 -229.212004 
L 130.545784 -230.078402 
L 130.886106 -230.9448 
L 131.22762 -231.811198 
L 131.571108 -232.677596 
L 131.916797 -233.543994 
L 132.264299 -234.410393 
L 132.612585 -235.276791 
L 132.960016 -236.143189 
L 133.304414 -237.009587 
L 133.643153 -237.875985 
L 133.973283 -238.742383 
L 134.291669 -239.608782 
L 134.595142 -240.47518 
L 134.880658 -241.341578 
L 135.145456 -242.207976 
L 135.387207 -243.074374 
L 135.604143 -243.940772 
L 135.795158 -244.807171 
L 135.959875 -245.673569 
L 136.098664 -246.539967 
L 136.212622 -247.406365 
L 136.30351 -248.272763 
L 136.373646 -249.139161 
L 136.425779 -250.005559 
L 136.462932 -250.871958 
L 136.488245 -251.738356 
L 136.504809 -252.604754 
L 136.515523 -253.471152 
L 136.522966 -254.33755 
L 136.529293 -255.203948 
L 136.536179 -256.070347 
L 137.023821 -256.070347 
L 137.023821 -256.070347 
L 137.030707 -255.203948 
L 137.037034 -254.33755 
L 137.044477 -253.471152 
L 137.055191 -252.604754 
L 137.071755 -251.738356 
L 137.097068 -250.871958 
L 137.134221 -250.005559 
L 137.186354 -249.139161 
L 137.25649 -248.272763 
L 137.347378 -247.406365 
L 137.461336 -246.539967 
L 137.600125 -245.673569 
L 137.764842 -244.807171 
L 137.955857 -243.940772 
L 138.172793 -243.074374 
L 138.414544 -242.207976 
L 138.679342 -241.341578 
L 138.964858 -240.47518 
L 139.268331 -239.608782 
L 139.586717 -238.742383 
L 139.916847 -237.875985 
L 140.255586 -237.009587 
L 140.599984 -236.143189 
L 140.947415 -235.276791 
L 141.295701 -234.410393 
L 141.643203 -233.543994 
L 141.988892 -232.677596 
L 142.33238 -231.811198 
L 142.673894 -230.9448 
L 143.014216 -230.078402 
L 143.354541 -229.212004 
L 143.696292 -228.345606 
L 144.040873 -227.479207 
L 144.38938 -226.612809 
L 144.742294 -225.746411 
L 145.099182 -224.880013 
L 145.458438 -224.013615 
L 145.817092 -223.147217 
L 146.170732 -222.280818 
L 146.513536 -221.41442 
L 146.838451 -220.548022 
L 147.137502 -219.681624 
L 147.402211 -218.815226 
L 147.624117 -217.948828 
L 147.795315 -217.082429 
L 147.909011 -216.216031 
L 147.96 -215.349633 
L 147.945045 -214.483235 
L 147.863119 -213.616837 
L 147.715477 -212.750439 
L 147.505576 -211.884041 
L 147.238852 -211.017642 
L 146.922378 -210.151244 
L 146.564461 -209.284846 
L 146.17421 -208.418448 
L 145.761111 -207.55205 
L 145.334649 -206.685652 
L 144.903964 -205.819253 
L 144.477579 -204.952855 
L 144.063142 -204.086457 
L 143.667219 -203.220059 
L 143.295087 -202.353661 
L 142.950551 -201.487263 
L 142.635785 -200.620864 
L 142.351221 -199.754466 
L 142.095522 -198.888068 
L 141.86566 -198.02167 
L 141.657131 -197.155272 
L 141.464314 -196.288874 
L 141.280955 -195.422476 
L 141.100751 -194.556077 
L 140.917974 -193.689679 
L 140.72807 -192.823281 
L 140.528159 -191.956883 
L 140.317371 -191.090485 
L 140.096974 -190.224087 
L 139.87027 -189.357688 
L 139.642257 -188.49129 
L 139.419106 -187.624892 
L 139.207499 -186.758494 
L 139.013904 -185.892096 
L 138.843878 -185.025698 
L 138.701467 -184.159299 
L 138.588765 -183.292901 
L 138.505696 -182.426503 
L 138.450012 -181.560105 
L 138.417525 -180.693707 
L 138.402521 -179.827309 
L 138.398319 -178.960911 
L 138.397903 -178.094512 
L 138.394548 -177.228114 
L 138.382391 -176.361716 
L 138.356877 -175.495318 
L 138.31504 -174.62892 
L 138.255614 -173.762522 
L 138.178971 -172.896123 
L 138.086914 -172.029725 
L 137.982354 -171.163327 
L 137.868937 -170.296929 
z
" style="stroke: #000000"/>
    </defs>
    <g clip-path="url(#p1a2b442369)">
     <use xlink:href="#mb8033f2425" x="0" y="360" style="fill: #deebf7; stroke: #000000"/>
    </g>
   </g>
   <g id="PolyCollection_3">
    <defs>
     <path id="m8a1300bf7a" d="M 183.177102 -195.027686 
L 179.822898 -195.027686 
L 179.695183 -195.61306 
L 179.56696 -196.198434 
L 179.436805 -196.783808 
L 179.302582 -197.369182 
L 179.161514 -197.954556 
L 179.010325 -198.53993 
L 178.845434 -199.125305 
L 178.663203 -199.710679 
L 178.460221 -200.296053 
L 178.233597 -200.881427 
L 177.98124 -201.466801 
L 177.702104 -202.052175 
L 177.396367 -202.637549 
L 177.065539 -203.222924 
L 176.71247 -203.808298 
L 176.341262 -204.393672 
L 175.957092 -204.979046 
L 175.565948 -205.56442 
L 175.174308 -206.149794 
L 174.788773 -206.735168 
L 174.415703 -207.320543 
L 174.06086 -207.905917 
L 173.729108 -208.491291 
L 173.424174 -209.076665 
L 173.148495 -209.662039 
L 172.90316 -210.247413 
L 172.687938 -210.832787 
L 172.501392 -211.418162 
L 172.341063 -212.003536 
L 172.203698 -212.58891 
L 172.085519 -213.174284 
L 171.98248 -213.759658 
L 171.89053 -214.345032 
L 171.805832 -214.930406 
L 171.724951 -215.51578 
L 171.644988 -216.101155 
L 171.563668 -216.686529 
L 171.479386 -217.271903 
L 171.391206 -217.857277 
L 171.298837 -218.442651 
L 171.202573 -219.028025 
L 171.103233 -219.613399 
L 171.002084 -220.198774 
L 170.900752 -220.784148 
L 170.801147 -221.369522 
L 170.705375 -221.954896 
L 170.615647 -222.54027 
L 170.534199 -223.125644 
L 170.463199 -223.711018 
L 170.404659 -224.296393 
L 170.360358 -224.881767 
L 170.331767 -225.467141 
L 170.32 -226.052515 
L 170.325779 -226.637889 
L 170.34944 -227.223263 
L 170.390959 -227.808637 
L 170.450025 -228.394012 
L 170.526129 -228.979386 
L 170.618682 -229.56476 
L 170.727136 -230.150134 
L 170.851105 -230.735508 
L 170.990461 -231.320882 
L 171.145391 -231.906256 
L 171.316409 -232.491631 
L 171.504321 -233.077005 
L 171.710123 -233.662379 
L 171.934864 -234.247753 
L 172.179471 -234.833127 
L 172.444553 -235.418501 
L 172.730222 -236.003875 
L 173.03593 -236.58925 
L 173.360359 -237.174624 
L 173.701368 -237.759998 
L 174.056012 -238.345372 
L 174.420631 -238.930746 
L 174.791002 -239.51612 
L 175.162543 -240.101494 
L 175.530551 -240.686869 
L 175.890452 -241.272243 
L 176.238041 -241.857617 
L 176.569695 -242.442991 
L 176.882542 -243.028365 
L 177.174574 -243.613739 
L 177.444699 -244.199113 
L 177.692733 -244.784487 
L 177.919336 -245.369862 
L 178.125904 -245.955236 
L 178.314418 -246.54061 
L 178.487287 -247.125984 
L 178.647165 -247.711358 
L 178.79678 -248.296732 
L 178.938777 -248.882106 
L 179.07558 -249.467481 
L 179.209275 -250.052855 
L 179.341535 -250.638229 
L 179.473567 -251.223603 
L 179.606094 -251.808977 
L 179.739364 -252.394351 
L 179.873189 -252.979725 
L 183.126811 -252.979725 
L 183.126811 -252.979725 
L 183.260636 -252.394351 
L 183.393906 -251.808977 
L 183.526433 -251.223603 
L 183.658465 -250.638229 
L 183.790725 -250.052855 
L 183.92442 -249.467481 
L 184.061223 -248.882106 
L 184.20322 -248.296732 
L 184.352835 -247.711358 
L 184.512713 -247.125984 
L 184.685582 -246.54061 
L 184.874096 -245.955236 
L 185.080664 -245.369862 
L 185.307267 -244.784487 
L 185.555301 -244.199113 
L 185.825426 -243.613739 
L 186.117458 -243.028365 
L 186.430305 -242.442991 
L 186.761959 -241.857617 
L 187.109548 -241.272243 
L 187.469449 -240.686869 
L 187.837457 -240.101494 
L 188.208998 -239.51612 
L 188.579369 -238.930746 
L 188.943988 -238.345372 
L 189.298632 -237.759998 
L 189.639641 -237.174624 
L 189.96407 -236.58925 
L 190.269778 -236.003875 
L 190.555447 -235.418501 
L 190.820529 -234.833127 
L 191.065136 -234.247753 
L 191.289877 -233.662379 
L 191.495679 -233.077005 
L 191.683591 -232.491631 
L 191.854609 -231.906256 
L 192.009539 -231.320882 
L 192.148895 -230.735508 
L 192.272864 -230.150134 
L 192.381318 -229.56476 
L 192.473871 -228.979386 
L 192.549975 -228.394012 
L 192.609041 -227.808637 
L 192.65056 -227.223263 
L 192.674221 -226.637889 
L 192.68 -226.052515 
L 192.668233 -225.467141 
L 192.639642 -224.881767 
L 192.595341 -224.296393 
L 192.536801 -223.711018 
L 192.465801 -223.125644 
L 192.384353 -222.54027 
L 192.294625 -221.954896 
L 192.198853 -221.369522 
L 192.099248 -220.784148 
L 191.997916 -220.198774 
L 191.896767 -219.613399 
L 191.797427 -219.028025 
L 191.701163 -218.442651 
L 191.608794 -217.857277 
L 191.520614 -217.271903 
L 191.436332 -216.686529 
L 191.355012 -216.101155 
L 191.275049 -215.51578 
L 191.194168 -214.930406 
L 191.10947 -214.345032 
L 191.01752 -213.759658 
L 190.914481 -213.174284 
L 190.796302 -212.58891 
L 190.658937 -212.003536 
L 190.498608 -211.418162 
L 190.312062 -210.832787 
L 190.09684 -210.247413 
L 189.851505 -209.662039 
L 189.575826 -209.076665 
L 189.270892 -208.491291 
L 188.93914 -207.905917 
L 188.584297 -207.320543 
L 188.211227 -206.735168 
L 187.825692 -206.149794 
L 187.434052 -205.56442 
L 187.042908 -204.979046 
L 186.658738 -204.393672 
L 186.28753 -203.808298 
L 185.934461 -203.222924 
L 185.603633 -202.637549 
L 185.297896 -202.052175 
L 185.01876 -201.466801 
L 184.766403 -200.881427 
L 184.539779 -200.296053 
L 184.336797 -199.710679 
L 184.154566 -199.125305 
L 183.989675 -198.53993 
L 183.838486 -197.954556 
L 183.697418 -197.369182 
L 183.563195 -196.783808 
L 183.43304 -196.198434 
L 183.304817 -195.61306 
L 183.177102 -195.027686 
z
" style="stroke: #000000"/>
    </defs>
    <g clip-path="url(#p1a2b442369)">
     <use xlink:href="#m8a1300bf7a" x="0" y="360" style="fill: #deebf7; stroke: #000000"/>
    </g>
   </g>
   <g id="PolyCollection_4">
    <defs>
     <path id="mda6d4aea1f" d="M 226.694455 -201.596702 
L 225.745545 -201.596702 
L 225.708339 -202.288769 
L 225.670556 -202.980835 
L 225.631671 -203.672901 
L 225.590974 -204.364967 
L 225.547603 -205.057034 
L 225.500587 -205.7491 
L 225.448902 -206.441166 
L 225.391528 -207.133232 
L 225.327509 -207.825298 
L 225.256002 -208.517365 
L 225.176313 -209.209431 
L 225.087919 -209.901497 
L 224.990467 -210.593563 
L 224.883761 -211.285629 
L 224.767729 -211.977696 
L 224.64239 -212.669762 
L 224.507817 -213.361828 
L 224.364106 -214.053894 
L 224.211363 -214.745961 
L 224.049701 -215.438027 
L 223.879261 -216.130093 
L 223.700239 -216.822159 
L 223.512919 -217.514225 
L 223.317702 -218.206292 
L 223.115123 -218.898358 
L 222.905842 -219.590424 
L 222.690624 -220.28249 
L 222.470279 -220.974557 
L 222.245598 -221.666623 
L 222.017275 -222.358689 
L 221.785838 -223.050755 
L 221.551588 -223.742821 
L 221.314573 -224.434888 
L 221.074593 -225.126954 
L 220.831232 -225.81902 
L 220.583928 -226.511086 
L 220.332068 -227.203153 
L 220.075087 -227.895219 
L 219.812573 -228.587285 
L 219.544363 -229.279351 
L 219.270618 -229.971417 
L 218.991869 -230.663484 
L 218.709042 -231.35555 
L 218.42345 -232.047616 
L 218.136762 -232.739682 
L 217.850947 -233.431749 
L 217.568212 -234.123815 
L 217.290913 -234.815881 
L 217.021477 -235.507947 
L 216.762311 -236.200013 
L 216.515725 -236.89208 
L 216.283852 -237.584146 
L 216.068589 -238.276212 
L 215.871551 -238.968278 
L 215.694044 -239.660345 
L 215.537053 -240.352411 
L 215.401253 -241.044477 
L 215.287042 -241.736543 
L 215.194575 -242.428609 
L 215.123825 -243.120676 
L 215.074635 -243.812742 
L 215.046777 -244.504808 
L 215.04 -245.196874 
L 215.054067 -245.888941 
L 215.088779 -246.581007 
L 215.143981 -247.273073 
L 215.219545 -247.965139 
L 215.315349 -248.657205 
L 215.431236 -249.349272 
L 215.56697 -250.041338 
L 215.722196 -250.733404 
L 215.896401 -251.42547 
L 216.088886 -252.117537 
L 216.29876 -252.809603 
L 216.524935 -253.501669 
L 216.766147 -254.193735 
L 217.020988 -254.885801 
L 217.287937 -255.577868 
L 217.56541 -256.269934 
L 217.851806 -256.962 
L 218.145549 -257.654066 
L 218.445136 -258.346132 
L 218.749168 -259.038199 
L 219.056389 -259.730265 
L 219.365703 -260.422331 
L 219.67619 -261.114397 
L 219.987108 -261.806464 
L 220.297883 -262.49853 
L 220.608088 -263.190596 
L 220.917403 -263.882662 
L 221.225572 -264.574728 
L 221.532343 -265.266795 
L 221.837409 -265.958861 
L 222.140348 -266.650927 
L 222.44057 -267.342993 
L 222.737275 -268.03506 
L 223.029427 -268.727126 
L 223.31576 -269.419192 
L 223.594794 -270.111258 
L 228.845206 -270.111258 
L 228.845206 -270.111258 
L 229.12424 -269.419192 
L 229.410573 -268.727126 
L 229.702725 -268.03506 
L 229.99943 -267.342993 
L 230.299652 -266.650927 
L 230.602591 -265.958861 
L 230.907657 -265.266795 
L 231.214428 -264.574728 
L 231.522597 -263.882662 
L 231.831912 -263.190596 
L 232.142117 -262.49853 
L 232.452892 -261.806464 
L 232.76381 -261.114397 
L 233.074297 -260.422331 
L 233.383611 -259.730265 
L 233.690832 -259.038199 
L 233.994864 -258.346132 
L 234.294451 -257.654066 
L 234.588194 -256.962 
L 234.87459 -256.269934 
L 235.152063 -255.577868 
L 235.419012 -254.885801 
L 235.673853 -254.193735 
L 235.915065 -253.501669 
L 236.14124 -252.809603 
L 236.351114 -252.117537 
L 236.543599 -251.42547 
L 236.717804 -250.733404 
L 236.87303 -250.041338 
L 237.008764 -249.349272 
L 237.124651 -248.657205 
L 237.220455 -247.965139 
L 237.296019 -247.273073 
L 237.351221 -246.581007 
L 237.385933 -245.888941 
L 237.4 -245.196874 
L 237.393223 -244.504808 
L 237.365365 -243.812742 
L 237.316175 -243.120676 
L 237.245425 -242.428609 
L 237.152958 -241.736543 
L 237.038747 -241.044477 
L 236.902947 -240.352411 
L 236.745956 -239.660345 
L 236.568449 -238.968278 
L 236.371411 -238.276212 
L 236.156148 -237.584146 
L 235.924275 -236.89208 
L 235.677689 -236.200013 
L 235.418523 -235.507947 
L 235.149087 -234.815881 
L 234.871788 -234.123815 
L 234.589053 -233.431749 
L 234.303238 -232.739682 
L 234.01655 -232.047616 
L 233.730958 -231.35555 
L 233.448131 -230.663484 
L 233.169382 -229.971417 
L 232.895637 -229.279351 
L 232.627427 -228.587285 
L 232.364913 -227.895219 
L 232.107932 -227.203153 
L 231.856072 -226.511086 
L 231.608768 -225.81902 
L 231.365407 -225.126954 
L 231.125427 -224.434888 
L 230.888412 -223.742821 
L 230.654162 -223.050755 
L 230.422725 -222.358689 
L 230.194402 -221.666623 
L 229.969721 -220.974557 
L 229.749376 -220.28249 
L 229.534158 -219.590424 
L 229.324877 -218.898358 
L 229.122298 -218.206292 
L 228.927081 -217.514225 
L 228.739761 -216.822159 
L 228.560739 -216.130093 
L 228.390299 -215.438027 
L 228.228637 -214.745961 
L 228.075894 -214.053894 
L 227.932183 -213.361828 
L 227.79761 -212.669762 
L 227.672271 -211.977696 
L 227.556239 -211.285629 
L 227.449533 -210.593563 
L 227.352081 -209.901497 
L 227.263687 -209.209431 
L 227.183998 -208.517365 
L 227.112491 -207.825298 
L 227.048472 -207.133232 
L 226.991098 -206.441166 
L 226.939413 -205.7491 
L 226.892397 -205.057034 
L 226.849026 -204.364967 
L 226.808329 -203.672901 
L 226.769444 -202.980835 
L 226.731661 -202.288769 
L 226.694455 -201.596702 
z
" style="stroke: #000000"/>
    </defs>
    <g clip-path="url(#p1a2b442369)">
     <use xlink:href="#mda6d4aea1f" x="0" y="360" style="fill: #deebf7; stroke: #000000"/>
    </g>
   </g>
   <g id="PolyCollection_5">
    <defs>
     <path id="m72dae9b12b" d="M 271.487928 -227.739653 
L 270.392072 -227.739653 
L 270.325966 -228.386645 
L 270.254575 -229.033638 
L 270.177444 -229.68063 
L 270.094135 -230.327623 
L 270.004258 -230.974615 
L 269.907486 -231.621608 
L 269.803553 -232.2686 
L 269.692223 -232.915593 
L 269.573252 -233.562585 
L 269.446318 -234.209578 
L 269.310958 -234.85657 
L 269.166495 -235.503563 
L 269.011982 -236.150555 
L 268.846172 -236.797548 
L 268.667513 -237.44454 
L 268.474175 -238.091532 
L 268.264119 -238.738525 
L 268.035189 -239.385517 
L 267.785229 -240.03251 
L 267.512225 -240.679502 
L 267.214443 -241.326495 
L 266.890572 -241.973487 
L 266.539861 -242.62048 
L 266.162241 -243.267472 
L 265.758436 -243.914465 
L 265.330064 -244.561457 
L 264.879718 -245.20845 
L 264.411033 -245.855442 
L 263.928732 -246.502435 
L 263.438628 -247.149427 
L 262.947582 -247.79642 
L 262.463394 -248.443412 
L 261.994602 -249.090404 
L 261.5502 -249.737397 
L 261.139257 -250.384389 
L 260.770466 -251.031382 
L 260.45164 -251.678374 
L 260.189201 -252.325367 
L 259.987718 -252.972359 
L 259.849529 -253.619352 
L 259.774508 -254.266344 
L 259.76 -254.913337 
L 259.80095 -255.560329 
L 259.890211 -256.207322 
L 260.019022 -256.854314 
L 260.177597 -257.501307 
L 260.355799 -258.148299 
L 260.543805 -258.795292 
L 260.732736 -259.442284 
L 260.915177 -260.089276 
L 261.085559 -260.736269 
L 261.240372 -261.383261 
L 261.378209 -262.030254 
L 261.49964 -262.677246 
L 261.606954 -263.324239 
L 261.703804 -263.971231 
L 261.794787 -264.618224 
L 261.885017 -265.265216 
L 261.979716 -265.912209 
L 262.083862 -266.559201 
L 262.201898 -267.206194 
L 262.337514 -267.853186 
L 262.493507 -268.500179 
L 262.671691 -269.147171 
L 262.872864 -269.794164 
L 263.096828 -270.441156 
L 263.342441 -271.088148 
L 263.607716 -271.735141 
L 263.889958 -272.382133 
L 264.185947 -273.029126 
L 264.492141 -273.676118 
L 264.8049 -274.323111 
L 265.120708 -274.970103 
L 265.436373 -275.617096 
L 265.749172 -276.264088 
L 266.056937 -276.911081 
L 266.358077 -277.558073 
L 266.651517 -278.205066 
L 266.936588 -278.852058 
L 267.212886 -279.499051 
L 267.480106 -280.146043 
L 267.737903 -280.793036 
L 267.985791 -281.440028 
L 268.223086 -282.08702 
L 268.448921 -282.734013 
L 268.662304 -283.381005 
L 268.862231 -284.027998 
L 269.047815 -284.67499 
L 269.218422 -285.321983 
L 269.37379 -285.968975 
L 269.514103 -286.615968 
L 269.640026 -287.26296 
L 269.752674 -287.909953 
L 269.853535 -288.556945 
L 269.944352 -289.203938 
L 270.026976 -289.85093 
L 270.103209 -290.497923 
L 270.174668 -291.144915 
L 270.242666 -291.791908 
L 271.637334 -291.791908 
L 271.637334 -291.791908 
L 271.705332 -291.144915 
L 271.776791 -290.497923 
L 271.853024 -289.85093 
L 271.935648 -289.203938 
L 272.026465 -288.556945 
L 272.127326 -287.909953 
L 272.239974 -287.26296 
L 272.365897 -286.615968 
L 272.50621 -285.968975 
L 272.661578 -285.321983 
L 272.832185 -284.67499 
L 273.017769 -284.027998 
L 273.217696 -283.381005 
L 273.431079 -282.734013 
L 273.656914 -282.08702 
L 273.894209 -281.440028 
L 274.142097 -280.793036 
L 274.399894 -280.146043 
L 274.667114 -279.499051 
L 274.943412 -278.852058 
L 275.228483 -278.205066 
L 275.521923 -277.558073 
L 275.823063 -276.911081 
L 276.130828 -276.264088 
L 276.443627 -275.617096 
L 276.759292 -274.970103 
L 277.0751 -274.323111 
L 277.387859 -273.676118 
L 277.694053 -273.029126 
L 277.990042 -272.382133 
L 278.272284 -271.735141 
L 278.537559 -271.088148 
L 278.783172 -270.441156 
L 279.007136 -269.794164 
L 279.208309 -269.147171 
L 279.386493 -268.500179 
L 279.542486 -267.853186 
L 279.678102 -267.206194 
L 279.796138 -266.559201 
L 279.900284 -265.912209 
L 279.994983 -265.265216 
L 280.085213 -264.618224 
L 280.176196 -263.971231 
L 280.273046 -263.324239 
L 280.38036 -262.677246 
L 280.501791 -262.030254 
L 280.639628 -261.383261 
L 280.794441 -260.736269 
L 280.964823 -260.089276 
L 281.147264 -259.442284 
L 281.336195 -258.795292 
L 281.524201 -258.148299 
L 281.702403 -257.501307 
L 281.860978 -256.854314 
L 281.989789 -256.207322 
L 282.07905 -255.560329 
L 282.12 -254.913337 
L 282.105492 -254.266344 
L 282.030471 -253.619352 
L 281.892282 -252.972359 
L 281.690799 -252.325367 
L 281.42836 -251.678374 
L 281.109534 -251.031382 
L 280.740743 -250.384389 
L 280.3298 -249.737397 
L 279.885398 -249.090404 
L 279.416606 -248.443412 
L 278.932418 -247.79642 
L 278.441372 -247.149427 
L 277.951268 -246.502435 
L 277.468967 -245.855442 
L 277.000282 -245.20845 
L 276.549936 -244.561457 
L 276.121564 -243.914465 
L 275.717759 -243.267472 
L 275.340139 -242.62048 
L 274.989428 -241.973487 
L 274.665557 -241.326495 
L 274.367775 -240.679502 
L 274.094771 -240.03251 
L 273.844811 -239.385517 
L 273.615881 -238.738525 
L 273.405825 -238.091532 
L 273.212487 -237.44454 
L 273.033828 -236.797548 
L 272.868018 -236.150555 
L 272.713505 -235.503563 
L 272.569042 -234.85657 
L 272.433682 -234.209578 
L 272.306748 -233.562585 
L 272.187777 -232.915593 
L 272.076447 -232.2686 
L 271.972514 -231.621608 
L 271.875742 -230.974615 
L 271.785865 -230.327623 
L 271.702556 -229.68063 
L 271.625425 -229.033638 
L 271.554034 -228.386645 
L 271.487928 -227.739653 
z
" style="stroke: #000000"/>
    </defs>
    <g clip-path="url(#p1a2b442369)">
     <use xlink:href="#m72dae9b12b" x="0" y="360" style="fill: #deebf7; stroke: #000000"/>
    </g>
   </g>
   <g id="PolyCollection_6">
    <defs>
     <path id="m3a3ce74987" d="M 316.192933 -259.114666 
L 315.127067 -259.114666 
L 315.092144 -259.684665 
L 315.062583 -260.254664 
L 315.039073 -260.824663 
L 315.021993 -261.394661 
L 315.011359 -261.96466 
L 315.006785 -262.534659 
L 315.007456 -263.104658 
L 315.012126 -263.674657 
L 315.019123 -264.244655 
L 315.026396 -264.814654 
L 315.031574 -265.384653 
L 315.032066 -265.954652 
L 315.025191 -266.52465 
L 315.008328 -267.094649 
L 314.979086 -267.664648 
L 314.93548 -268.234647 
L 314.876083 -268.804646 
L 314.800151 -269.374644 
L 314.707679 -269.944643 
L 314.599396 -270.514642 
L 314.47667 -271.084641 
L 314.341332 -271.65464 
L 314.19544 -272.224638 
L 314.040992 -272.794637 
L 313.879627 -273.364636 
L 313.712366 -273.934635 
L 313.539399 -274.504634 
L 313.359982 -275.074632 
L 313.172439 -275.644631 
L 312.974278 -276.21463 
L 312.76242 -276.784629 
L 312.533492 -277.354627 
L 312.284176 -277.924626 
L 312.011545 -278.494625 
L 311.713378 -279.064624 
L 311.388396 -279.634623 
L 311.036427 -280.204621 
L 310.658473 -280.77462 
L 310.256699 -281.344619 
L 309.83435 -281.914618 
L 309.395613 -282.484617 
L 308.945452 -283.054615 
L 308.489414 -283.624614 
L 308.033436 -284.194613 
L 307.583656 -284.764612 
L 307.146218 -285.33461 
L 306.727103 -285.904609 
L 306.331964 -286.474608 
L 305.965982 -287.044607 
L 305.633742 -287.614606 
L 305.339141 -288.184604 
L 305.085312 -288.754603 
L 304.874583 -289.324602 
L 304.708454 -289.894601 
L 304.58758 -290.4646 
L 304.511774 -291.034598 
L 304.48 -291.604597 
L 304.490369 -292.174596 
L 304.540141 -292.744595 
L 304.625737 -293.314594 
L 304.742783 -293.884592 
L 304.886183 -294.454591 
L 305.050264 -295.02459 
L 305.228962 -295.594589 
L 305.416085 -296.164587 
L 305.605617 -296.734586 
L 305.79206 -297.304585 
L 305.970779 -297.874584 
L 306.138332 -298.444583 
L 306.29274 -299.014581 
L 306.433683 -299.58458 
L 306.562579 -300.154579 
L 306.682539 -300.724578 
L 306.79819 -301.294577 
L 306.915359 -301.864575 
L 307.040638 -302.434574 
L 307.180863 -303.004573 
L 307.342548 -303.574572 
L 307.531329 -304.14457 
L 307.751462 -304.714569 
L 308.005451 -305.284568 
L 308.293826 -305.854567 
L 308.615112 -306.424566 
L 308.965971 -306.994564 
L 309.341521 -307.564563 
L 309.735762 -308.134562 
L 310.142074 -308.704561 
L 310.553714 -309.27456 
L 310.964265 -309.844558 
L 311.367985 -310.414557 
L 311.760041 -310.984556 
L 312.13661 -311.554555 
L 312.494877 -312.124554 
L 312.832941 -312.694552 
L 313.14966 -313.264551 
L 313.444484 -313.83455 
L 313.717288 -314.404549 
L 313.968233 -314.974547 
L 314.197663 -315.544546 
L 317.122337 -315.544546 
L 317.122337 -315.544546 
L 317.351767 -314.974547 
L 317.602712 -314.404549 
L 317.875516 -313.83455 
L 318.17034 -313.264551 
L 318.487059 -312.694552 
L 318.825123 -312.124554 
L 319.18339 -311.554555 
L 319.559959 -310.984556 
L 319.952015 -310.414557 
L 320.355735 -309.844558 
L 320.766286 -309.27456 
L 321.177926 -308.704561 
L 321.584238 -308.134562 
L 321.978479 -307.564563 
L 322.354029 -306.994564 
L 322.704888 -306.424566 
L 323.026174 -305.854567 
L 323.314549 -305.284568 
L 323.568538 -304.714569 
L 323.788671 -304.14457 
L 323.977452 -303.574572 
L 324.139137 -303.004573 
L 324.279362 -302.434574 
L 324.404641 -301.864575 
L 324.52181 -301.294577 
L 324.637461 -300.724578 
L 324.757421 -300.154579 
L 324.886317 -299.58458 
L 325.02726 -299.014581 
L 325.181668 -298.444583 
L 325.349221 -297.874584 
L 325.52794 -297.304585 
L 325.714383 -296.734586 
L 325.903915 -296.164587 
L 326.091038 -295.594589 
L 326.269736 -295.02459 
L 326.433817 -294.454591 
L 326.577217 -293.884592 
L 326.694263 -293.314594 
L 326.779859 -292.744595 
L 326.829631 -292.174596 
L 326.84 -291.604597 
L 326.808226 -291.034598 
L 326.73242 -290.4646 
L 326.611546 -289.894601 
L 326.445417 -289.324602 
L 326.234688 -288.754603 
L 325.980859 -288.184604 
L 325.686258 -287.614606 
L 325.354018 -287.044607 
L 324.988036 -286.474608 
L 324.592897 -285.904609 
L 324.173782 -285.33461 
L 323.736344 -284.764612 
L 323.286564 -284.194613 
L 322.830586 -283.624614 
L 322.374548 -283.054615 
L 321.924387 -282.484617 
L 321.48565 -281.914618 
L 321.063301 -281.344619 
L 320.661527 -280.77462 
L 320.283573 -280.204621 
L 319.931604 -279.634623 
L 319.606622 -279.064624 
L 319.308455 -278.494625 
L 319.035824 -277.924626 
L 318.786508 -277.354627 
L 318.55758 -276.784629 
L 318.345722 -276.21463 
L 318.147561 -275.644631 
L 317.960018 -275.074632 
L 317.780601 -274.504634 
L 317.607634 -273.934635 
L 317.440373 -273.364636 
L 317.279008 -272.794637 
L 317.12456 -272.224638 
L 316.978668 -271.65464 
L 316.84333 -271.084641 
L 316.720604 -270.514642 
L 316.612321 -269.944643 
L 316.519849 -269.374644 
L 316.443917 -268.804646 
L 316.38452 -268.234647 
L 316.340914 -267.664648 
L 316.311672 -267.094649 
L 316.294809 -266.52465 
L 316.287934 -265.954652 
L 316.288426 -265.384653 
L 316.293604 -264.814654 
L 316.300877 -264.244655 
L 316.307874 -263.674657 
L 316.312544 -263.104658 
L 316.313215 -262.534659 
L 316.308641 -261.96466 
L 316.298007 -261.394661 
L 316.280927 -260.824663 
L 316.257417 -260.254664 
L 316.227856 -259.684665 
L 316.192933 -259.114666 
z
" style="stroke: #000000"/>
    </defs>
    <g clip-path="url(#p1a2b442369)">
     <use xlink:href="#m3a3ce74987" x="0" y="360" style="fill: #f8cbad; stroke: #000000"/>
    </g>
   </g>
   <g id="LineCollection_1">
    <path d="M 92.06 178.013404 
L 92.06 156.636608 
" clip-path="url(#p1a2b442369)" style="fill: none; stroke: #000000; stroke-width: 5"/>
    <path d="M 136.78 155.403832 
L 136.78 137.084378 
" clip-path="url(#p1a2b442369)" style="fill: none; stroke: #000000; stroke-width: 5"/>
    <path d="M 181.5 146.632603 
L 181.5 126.29759 
" clip-path="url(#p1a2b442369)" style="fill: none; stroke: #000000; stroke-width: 5"/>
    <path d="M 226.22 126.67813 
L 226.22 106.45887 
" clip-path="url(#p1a2b442369)" style="fill: none; stroke: #000000; stroke-width: 5"/>
    <path d="M 270.94 107.866723 
L 270.94 91.548359 
" clip-path="url(#p1a2b442369)" style="fill: none; stroke: #000000; stroke-width: 5"/>
    <path d="M 315.66 72.641455 
L 315.66 58.526751 
" clip-path="url(#p1a2b442369)" style="fill: none; stroke: #000000; stroke-width: 5"/>
   </g>
   <g id="LineCollection_2">
    <path d="M 92.06 178.013404 
L 92.06 169.428828 
" clip-path="url(#p1a2b442369)" style="fill: none; stroke: #000000"/>
    <path d="M 136.78 155.403832 
L 136.78 169.486705 
" clip-path="url(#p1a2b442369)" style="fill: none; stroke: #000000"/>
    <path d="M 181.5 146.632603 
L 181.5 149.820168 
" clip-path="url(#p1a2b442369)" style="fill: none; stroke: #000000"/>
    <path d="M 226.22 126.67813 
L 226.22 137.596588 
" clip-path="url(#p1a2b442369)" style="fill: none; stroke: #000000"/>
    <path d="M 270.94 107.866723 
L 270.94 106.360479 
" clip-path="url(#p1a2b442369)" style="fill: none; stroke: #000000"/>
    <path d="M 315.66 72.641455 
L 315.66 84.506199 
" clip-path="url(#p1a2b442369)" style="fill: none; stroke: #000000"/>
   </g>
   <g id="patch_3">
    <path d="M 58.52 305.584 
L 58.52 16.2 
" style="fill: none; stroke: #000000; stroke-width: 0.8; stroke-linejoin: miter; stroke-linecap: square"/>
   </g>
   <g id="patch_4">
    <path d="M 349.2 305.584 
L 349.2 16.2 
" style="fill: none; stroke: #000000; stroke-width: 0.8; stroke-linejoin: miter; stroke-linecap: square"/>
   </g>
   <g id="patch_5">
    <path d="M 58.52 305.584 
L 349.2 305.584 
" style="fill: none; stroke: #000000; stroke-width: 0.8; stroke-linejoin: miter; stroke-linecap: square"/>
   </g>
   <g id="patch_6">
    <path d="M 58.52 16.2 
L 349.2 16.2 
" style="fill: none; stroke: #000000; stroke-width: 0.8; stroke-linejoin: miter; stroke-linecap: square"/>
   </g>
   <g id="PathCollection_1">
    <defs>
     <path id="ma7733e6ef7" d="M 0 2.738613 
C 0.726289 2.738613 1.422928 2.450055 1.936492 1.936492 
C 2.450055 1.422928 2.738613 0.726289 2.738613 0 
C 2.738613 -0.726289 2.450055 -1.422928 1.936492 -1.936492 
C 1.422928 -2.450055 0.726289 -2.738613 0 -2.738613 
C -0.726289 -2.738613 -1.422928 -2.450055 -1.936492 -1.936492 
C -2.450055 -1.422928 -2.738613 -0.726289 -2.738613 0 
C -2.738613 0.726289 -2.450055 1.422928 -1.936492 1.936492 
C -1.422928 2.450055 -0.726289 2.738613 0 2.738613 
z
" style="stroke: #ffffff"/>
    </defs>
    <g clip-path="url(#p1a2b442369)">
     <use xlink:href="#ma7733e6ef7" x="92.06" y="168.175795" style="fill: #ffffff; stroke: #ffffff"/>
     <use xlink:href="#ma7733e6ef7" x="136.78" y="146.13631" style="fill: #ffffff; stroke: #ffffff"/>
     <use xlink:href="#ma7733e6ef7" x="181.5" y="135.978931" style="fill: #ffffff; stroke: #ffffff"/>
     <use xlink:href="#ma7733e6ef7" x="226.22" y="116.295032" style="fill: #ffffff; stroke: #ffffff"/>
     <use xlink:href="#ma7733e6ef7" x="270.94" y="101.6059" style="fill: #ffffff; stroke: #ffffff"/>
     <use xlink:href="#ma7733e6ef7" x="315.66" y="66.159254" style="fill: #ffffff; stroke: #ffffff"/>
    </g>
   </g>
  </g>
 </g>
 <defs>
  <clipPath id="p1a2b442369">
   <rect x="58.52" y="16.2" width="290.68" height="289.384"/>
  </clipPath>
 </defs>
</svg>
