<?xml version="1.0" encoding="utf-8" standalone="no"?>
<!DOCTYPE svg PUBLIC "-//W3C//DTD SVG 1.1//EN"
  "http://www.w3.org/Graphics/SVG/1.1/DTD/svg11.dtd">
<svg xmlns:xlink="http://www.w3.org/1999/xlink" width="360pt" height="360pt" viewBox="0 0 360 360" xmlns="http://www.w3.org/2000/svg" version="1.1">
 <metadata>
  <rdf:RDF xmlns:dc="http://purl.org/dc/elements/1.1/" xmlns:cc="http://creativecommons.org/ns#" xmlns:rdf="http://www.w3.org/1999/02/22-rdf-syntax-ns#">
   <cc:Work>
    <dc:type rdf:resource="http://purl.org/dc/dcmitype/StillImage"/>
    <dc:date>2022-07-06T10:29:05.084639</dc:date>
    <dc:format>image/svg+xml</dc:format>
    <dc:creator>
     <cc:Agent>
      <dc:title>Matplotlib v3.5.1, https://matplotlib.org/</dc:title>
     </cc:Agent>
    </dc:creator>
   </cc:Work>
  </rdf:RDF>
 </metadata>
 <defs>
  <style type="text/css">*{stroke-linejoin: round; stroke-linecap: butt}</style>
 </defs>
 <g id="figure_1">
  <g id="patch_1">
   <path d="M 0 360 
L 360 360 
L 360 0 
L 0 0 
L 0 360 
z
" style="fill: none"/>
  </g>
  <g id="axes_1">
   <g id="patch_2">
    <path d="M 63.2 305.584 
L 349.2 305.584 
L 349.2 16.2 
L 63.2 16.2 
L 63.2 305.584 
z
" style="fill: none"/>
   </g>
   <g id="matplotlib.axis_1">
    <g id="xtick_1">
     <g id="line2d_1">
      <defs>
       <path id="m9ce3f8b2c2" d="M 0 0 
L 0 3.5 
" style="stroke: #000000; stroke-width: 0.8"/>
      </defs>
      <g>
       <use xlink:href="#m9ce3f8b2c2" x="96.2" y="305.584" style="stroke: #000000; stroke-width: 0.8"/>
      </g>
     </g>
     <g id="text_1">
      <!-- 10 -->
      <g transform="translate(87.2925 323.221812)scale(0.14 -0.14)">
       <defs>
        <path id="DejaVuSans-31" d="M 794 531 
L 1825 531 
L 1825 4091 
L 703 3866 
L 703 4441 
L 1819 4666 
L 2450 4666 
L 2450 531 
L 3481 531 
L 3481 0 
L 794 0 
L 794 531 
z
" transform="scale(0.015625)"/>
        <path id="DejaVuSans-30" d="M 2034 4250 
Q 1547 4250 1301 3770 
Q 1056 3291 1056 2328 
Q 1056 1369 1301 889 
Q 1547 409 2034 409 
Q 2525 409 2770 889 
Q 3016 1369 3016 2328 
Q 3016 3291 2770 3770 
Q 2525 4250 2034 4250 
z
M 2034 4750 
Q 2819 4750 3233 4129 
Q 3647 3509 3647 2328 
Q 3647 1150 3233 529 
Q 2819 -91 2034 -91 
Q 1250 -91 836 529 
Q 422 1150 422 2328 
Q 422 3509 836 4129 
Q 1250 4750 2034 4750 
z
" transform="scale(0.015625)"/>
       </defs>
       <use xlink:href="#DejaVuSans-31"/>
       <use xlink:href="#DejaVuSans-30" x="63.623047"/>
      </g>
     </g>
    </g>
    <g id="xtick_2">
     <g id="line2d_2">
      <g>
       <use xlink:href="#m9ce3f8b2c2" x="140.2" y="305.584" style="stroke: #000000; stroke-width: 0.8"/>
      </g>
     </g>
     <g id="text_2">
      <!-- 20 -->
      <g transform="translate(131.2925 323.221812)scale(0.14 -0.14)">
       <defs>
        <path id="DejaVuSans-32" d="M 1228 531 
L 3431 531 
L 3431 0 
L 469 0 
L 469 531 
Q 828 903 1448 1529 
Q 2069 2156 2228 2338 
Q 2531 2678 2651 2914 
Q 2772 3150 2772 3378 
Q 2772 3750 2511 3984 
Q 2250 4219 1831 4219 
Q 1534 4219 1204 4116 
Q 875 4013 500 3803 
L 500 4441 
Q 881 4594 1212 4672 
Q 1544 4750 1819 4750 
Q 2544 4750 2975 4387 
Q 3406 4025 3406 3419 
Q 3406 3131 3298 2873 
Q 3191 2616 2906 2266 
Q 2828 2175 2409 1742 
Q 1991 1309 1228 531 
z
" transform="scale(0.015625)"/>
       </defs>
       <use xlink:href="#DejaVuSans-32"/>
       <use xlink:href="#DejaVuSans-30" x="63.623047"/>
      </g>
     </g>
    </g>
    <g id="xtick_3">
     <g id="line2d_3">
      <g>
       <use xlink:href="#m9ce3f8b2c2" x="184.2" y="305.584" style="stroke: #000000; stroke-width: 0.8"/>
      </g>
     </g>
     <g id="text_3">
      <!-- 30 -->
      <g transform="translate(175.2925 323.221812)scale(0.14 -0.14)">
       <defs>
        <path id="DejaVuSans-33" d="M 2597 2516 
Q 3050 2419 3304 2112 
Q 3559 1806 3559 1356 
Q 3559 666 3084 287 
Q 2609 -91 1734 -91 
Q 1441 -91 1130 -33 
Q 819 25 488 141 
L 488 750 
Q 750 597 1062 519 
Q 1375 441 1716 441 
Q 2309 441 2620 675 
Q 2931 909 2931 1356 
Q 2931 1769 2642 2001 
Q 2353 2234 1838 2234 
L 1294 2234 
L 1294 2753 
L 1863 2753 
Q 2328 2753 2575 2939 
Q 2822 3125 2822 3475 
Q 2822 3834 2567 4026 
Q 2313 4219 1838 4219 
Q 1578 4219 1281 4162 
Q 984 4106 628 3988 
L 628 4550 
Q 988 4650 1302 4700 
Q 1616 4750 1894 4750 
Q 2613 4750 3031 4423 
Q 3450 4097 3450 3541 
Q 3450 3153 3228 2886 
Q 3006 2619 2597 2516 
z
" transform="scale(0.015625)"/>
       </defs>
       <use xlink:href="#DejaVuSans-33"/>
       <use xlink:href="#DejaVuSans-30" x="63.623047"/>
      </g>
     </g>
    </g>
    <g id="xtick_4">
     <g id="line2d_4">
      <g>
       <use xlink:href="#m9ce3f8b2c2" x="228.2" y="305.584" style="stroke: #000000; stroke-width: 0.8"/>
      </g>
     </g>
     <g id="text_4">
      <!-- 60 -->
      <g transform="translate(219.2925 323.221812)scale(0.14 -0.14)">
       <defs>
        <path id="DejaVuSans-36" d="M 2113 2584 
Q 1688 2584 1439 2293 
Q 1191 2003 1191 1497 
Q 1191 994 1439 701 
Q 1688 409 2113 409 
Q 2538 409 2786 701 
Q 3034 994 3034 1497 
Q 3034 2003 2786 2293 
Q 2538 2584 2113 2584 
z
M 3366 4563 
L 3366 3988 
Q 3128 4100 2886 4159 
Q 2644 4219 2406 4219 
Q 1781 4219 1451 3797 
Q 1122 3375 1075 2522 
Q 1259 2794 1537 2939 
Q 1816 3084 2150 3084 
Q 2853 3084 3261 2657 
Q 3669 2231 3669 1497 
Q 3669 778 3244 343 
Q 2819 -91 2113 -91 
Q 1303 -91 875 529 
Q 447 1150 447 2328 
Q 447 3434 972 4092 
Q 1497 4750 2381 4750 
Q 2619 4750 2861 4703 
Q 3103 4656 3366 4563 
z
" transform="scale(0.015625)"/>
       </defs>
       <use xlink:href="#DejaVuSans-36"/>
       <use xlink:href="#DejaVuSans-30" x="63.623047"/>
      </g>
     </g>
    </g>
    <g id="xtick_5">
     <g id="line2d_5">
      <g>
       <use xlink:href="#m9ce3f8b2c2" x="272.2" y="305.584" style="stroke: #000000; stroke-width: 0.8"/>
      </g>
     </g>
     <g id="text_5">
      <!-- 136 -->
      <g transform="translate(258.83875 323.221812)scale(0.14 -0.14)">
       <use xlink:href="#DejaVuSans-31"/>
       <use xlink:href="#DejaVuSans-33" x="63.623047"/>
       <use xlink:href="#DejaVuSans-36" x="127.246094"/>
      </g>
     </g>
    </g>
    <g id="xtick_6">
     <g id="line2d_6">
      <g>
       <use xlink:href="#m9ce3f8b2c2" x="316.2" y="305.584" style="stroke: #000000; stroke-width: 0.8"/>
      </g>
     </g>
     <g id="text_6">
      <!-- $\bf{10_{3T}}$ -->
      <g transform="translate(299.4 323.221812)scale(0.14 -0.14)">
       <defs>
        <path id="DejaVuSans-Bold-31" d="M 750 831 
L 1813 831 
L 1813 3847 
L 722 3622 
L 722 4441 
L 1806 4666 
L 2950 4666 
L 2950 831 
L 4013 831 
L 4013 0 
L 750 0 
L 750 831 
z
" transform="scale(0.015625)"/>
        <path id="DejaVuSans-Bold-30" d="M 2944 2338 
Q 2944 3213 2780 3570 
Q 2616 3928 2228 3928 
Q 1841 3928 1675 3570 
Q 1509 3213 1509 2338 
Q 1509 1453 1675 1090 
Q 1841 728 2228 728 
Q 2613 728 2778 1090 
Q 2944 1453 2944 2338 
z
M 4147 2328 
Q 4147 1169 3647 539 
Q 3147 -91 2228 -91 
Q 1306 -91 806 539 
Q 306 1169 306 2328 
Q 306 3491 806 4120 
Q 1306 4750 2228 4750 
Q 3147 4750 3647 4120 
Q 4147 3491 4147 2328 
z
" transform="scale(0.015625)"/>
        <path id="DejaVuSans-Bold-33" d="M 2981 2516 
Q 3453 2394 3698 2092 
Q 3944 1791 3944 1325 
Q 3944 631 3412 270 
Q 2881 -91 1863 -91 
Q 1503 -91 1142 -33 
Q 781 25 428 141 
L 428 1069 
Q 766 900 1098 814 
Q 1431 728 1753 728 
Q 2231 728 2486 893 
Q 2741 1059 2741 1369 
Q 2741 1688 2480 1852 
Q 2219 2016 1709 2016 
L 1228 2016 
L 1228 2791 
L 1734 2791 
Q 2188 2791 2409 2933 
Q 2631 3075 2631 3366 
Q 2631 3634 2415 3781 
Q 2200 3928 1806 3928 
Q 1516 3928 1219 3862 
Q 922 3797 628 3669 
L 628 4550 
Q 984 4650 1334 4700 
Q 1684 4750 2022 4750 
Q 2931 4750 3382 4451 
Q 3834 4153 3834 3553 
Q 3834 3144 3618 2883 
Q 3403 2622 2981 2516 
z
" transform="scale(0.015625)"/>
        <path id="DejaVuSans-Bold-54" d="M 31 4666 
L 4331 4666 
L 4331 3756 
L 2784 3756 
L 2784 0 
L 1581 0 
L 1581 3756 
L 31 3756 
L 31 4666 
z
" transform="scale(0.015625)"/>
       </defs>
       <use xlink:href="#DejaVuSans-Bold-31" transform="translate(0 0.78125)"/>
       <use xlink:href="#DejaVuSans-Bold-30" transform="translate(69.580078 0.78125)"/>
       <use xlink:href="#DejaVuSans-Bold-33" transform="translate(140.117188 -15.625)scale(0.7)"/>
       <use xlink:href="#DejaVuSans-Bold-54" transform="translate(188.823242 -15.625)scale(0.7)"/>
      </g>
     </g>
    </g>
    <g id="xtick_7"/>
    <g id="xtick_8"/>
    <g id="xtick_9"/>
    <g id="xtick_10"/>
    <g id="xtick_11"/>
    <g id="xtick_12"/>
    <g id="xtick_13"/>
    <g id="xtick_14"/>
    <g id="xtick_15"/>
    <g id="xtick_16"/>
    <g id="xtick_17"/>
    <g id="xtick_18"/>
    <g id="xtick_19"/>
    <g id="xtick_20"/>
    <g id="xtick_21"/>
    <g id="xtick_22"/>
    <g id="xtick_23"/>
    <g id="xtick_24"/>
    <g id="xtick_25"/>
    <g id="xtick_26"/>
    <g id="xtick_27"/>
    <g id="xtick_28"/>
    <g id="xtick_29"/>
    <g id="xtick_30"/>
    <g id="xtick_31"/>
    <g id="xtick_32"/>
    <g id="text_7">
     <!-- $n_{conf}$ -->
     <g transform="translate(186.67 343.810563)scale(0.18 -0.18)">
      <defs>
       <path id="DejaVuSans-Oblique-6e" d="M 3566 2113 
L 3156 0 
L 2578 0 
L 2988 2091 
Q 3016 2238 3031 2350 
Q 3047 2463 3047 2528 
Q 3047 2791 2881 2937 
Q 2716 3084 2419 3084 
Q 1956 3084 1622 2776 
Q 1288 2469 1184 1941 
L 800 0 
L 225 0 
L 903 3500 
L 1478 3500 
L 1363 2950 
Q 1603 3253 1940 3418 
Q 2278 3584 2650 3584 
Q 3113 3584 3367 3334 
Q 3622 3084 3622 2631 
Q 3622 2519 3608 2391 
Q 3594 2263 3566 2113 
z
" transform="scale(0.015625)"/>
       <path id="DejaVuSans-Oblique-63" d="M 3431 3366 
L 3316 2797 
Q 3109 2947 2876 3022 
Q 2644 3097 2394 3097 
Q 2119 3097 1870 3000 
Q 1622 2903 1453 2725 
Q 1184 2453 1037 2087 
Q 891 1722 891 1331 
Q 891 859 1127 628 
Q 1363 397 1844 397 
Q 2081 397 2348 469 
Q 2616 541 2906 684 
L 2797 116 
Q 2547 13 2283 -39 
Q 2019 -91 1741 -91 
Q 1044 -91 669 257 
Q 294 606 294 1253 
Q 294 1797 489 2255 
Q 684 2713 1069 3078 
Q 1331 3328 1684 3456 
Q 2038 3584 2456 3584 
Q 2700 3584 2940 3529 
Q 3181 3475 3431 3366 
z
" transform="scale(0.015625)"/>
       <path id="DejaVuSans-Oblique-6f" d="M 1625 -91 
Q 1009 -91 651 289 
Q 294 669 294 1325 
Q 294 1706 417 2101 
Q 541 2497 738 2766 
Q 1047 3184 1428 3384 
Q 1809 3584 2291 3584 
Q 2888 3584 3255 3212 
Q 3622 2841 3622 2241 
Q 3622 1825 3500 1412 
Q 3378 1000 3181 728 
Q 2875 309 2494 109 
Q 2113 -91 1625 -91 
z
M 891 1344 
Q 891 869 1089 633 
Q 1288 397 1691 397 
Q 2269 397 2648 901 
Q 3028 1406 3028 2181 
Q 3028 2634 2825 2865 
Q 2622 3097 2228 3097 
Q 1903 3097 1650 2945 
Q 1397 2794 1197 2484 
Q 1050 2253 970 1956 
Q 891 1659 891 1344 
z
" transform="scale(0.015625)"/>
       <path id="DejaVuSans-Oblique-66" d="M 3059 4863 
L 2969 4384 
L 2419 4384 
Q 2106 4384 1964 4261 
Q 1822 4138 1753 3809 
L 1691 3500 
L 2638 3500 
L 2553 3053 
L 1606 3053 
L 1013 0 
L 434 0 
L 1031 3053 
L 481 3053 
L 563 3500 
L 1113 3500 
L 1159 3744 
Q 1278 4363 1576 4613 
Q 1875 4863 2516 4863 
L 3059 4863 
z
" transform="scale(0.015625)"/>
      </defs>
      <use xlink:href="#DejaVuSans-Oblique-6e"/>
      <use xlink:href="#DejaVuSans-Oblique-63" transform="translate(63.378906 -16.40625)scale(0.7)"/>
      <use xlink:href="#DejaVuSans-Oblique-6f" transform="translate(101.865234 -16.40625)scale(0.7)"/>
      <use xlink:href="#DejaVuSans-Oblique-6e" transform="translate(144.692383 -16.40625)scale(0.7)"/>
      <use xlink:href="#DejaVuSans-Oblique-66" transform="translate(189.057617 -16.40625)scale(0.7)"/>
     </g>
    </g>
   </g>
   <g id="matplotlib.axis_2">
    <g id="ytick_1">
     <g id="line2d_7">
      <path d="M 63.2 305.584 
L 349.2 305.584 
" clip-path="url(#p0c490cbf6c)" style="fill: none; stroke: #666666; stroke-width: 0.8; stroke-linecap: square"/>
     </g>
     <g id="line2d_8">
      <defs>
       <path id="m953d5ac5e2" d="M 0 0 
L -3.5 0 
" style="stroke: #000000; stroke-width: 0.8"/>
      </defs>
      <g>
       <use xlink:href="#m953d5ac5e2" x="63.2" y="305.584" style="stroke: #000000; stroke-width: 0.8"/>
      </g>
     </g>
     <g id="text_8">
      <!-- 0.1 -->
      <g transform="translate(33.935625 310.902906)scale(0.14 -0.14)">
       <defs>
        <path id="DejaVuSans-2e" d="M 684 794 
L 1344 794 
L 1344 0 
L 684 0 
L 684 794 
z
" transform="scale(0.015625)"/>
       </defs>
       <use xlink:href="#DejaVuSans-30"/>
       <use xlink:href="#DejaVuSans-2e" x="63.623047"/>
       <use xlink:href="#DejaVuSans-31" x="95.410156"/>
      </g>
     </g>
    </g>
    <g id="ytick_2">
     <g id="line2d_9">
      <path d="M 63.2 273.430222 
L 349.2 273.430222 
" clip-path="url(#p0c490cbf6c)" style="fill: none; stroke: #666666; stroke-width: 0.8; stroke-linecap: square"/>
     </g>
     <g id="line2d_10">
      <g>
       <use xlink:href="#m953d5ac5e2" x="63.2" y="273.430222" style="stroke: #000000; stroke-width: 0.8"/>
      </g>
     </g>
     <g id="text_9">
      <!-- 0.2 -->
      <g transform="translate(33.935625 278.749128)scale(0.14 -0.14)">
       <use xlink:href="#DejaVuSans-30"/>
       <use xlink:href="#DejaVuSans-2e" x="63.623047"/>
       <use xlink:href="#DejaVuSans-32" x="95.410156"/>
      </g>
     </g>
    </g>
    <g id="ytick_3">
     <g id="line2d_11">
      <path d="M 63.2 241.276444 
L 349.2 241.276444 
" clip-path="url(#p0c490cbf6c)" style="fill: none; stroke: #666666; stroke-width: 0.8; stroke-linecap: square"/>
     </g>
     <g id="line2d_12">
      <g>
       <use xlink:href="#m953d5ac5e2" x="63.2" y="241.276444" style="stroke: #000000; stroke-width: 0.8"/>
      </g>
     </g>
     <g id="text_10">
      <!-- 0.3 -->
      <g transform="translate(33.935625 246.595351)scale(0.14 -0.14)">
       <use xlink:href="#DejaVuSans-30"/>
       <use xlink:href="#DejaVuSans-2e" x="63.623047"/>
       <use xlink:href="#DejaVuSans-33" x="95.410156"/>
      </g>
     </g>
    </g>
    <g id="ytick_4">
     <g id="line2d_13">
      <path d="M 63.2 209.122667 
L 349.2 209.122667 
" clip-path="url(#p0c490cbf6c)" style="fill: none; stroke: #666666; stroke-width: 0.8; stroke-linecap: square"/>
     </g>
     <g id="line2d_14">
      <g>
       <use xlink:href="#m953d5ac5e2" x="63.2" y="209.122667" style="stroke: #000000; stroke-width: 0.8"/>
      </g>
     </g>
     <g id="text_11">
      <!-- 0.4 -->
      <g transform="translate(33.935625 214.441573)scale(0.14 -0.14)">
       <defs>
        <path id="DejaVuSans-34" d="M 2419 4116 
L 825 1625 
L 2419 1625 
L 2419 4116 
z
M 2253 4666 
L 3047 4666 
L 3047 1625 
L 3713 1625 
L 3713 1100 
L 3047 1100 
L 3047 0 
L 2419 0 
L 2419 1100 
L 313 1100 
L 313 1709 
L 2253 4666 
z
" transform="scale(0.015625)"/>
       </defs>
       <use xlink:href="#DejaVuSans-30"/>
       <use xlink:href="#DejaVuSans-2e" x="63.623047"/>
       <use xlink:href="#DejaVuSans-34" x="95.410156"/>
      </g>
     </g>
    </g>
    <g id="ytick_5">
     <g id="line2d_15">
      <path d="M 63.2 176.968889 
L 349.2 176.968889 
" clip-path="url(#p0c490cbf6c)" style="fill: none; stroke: #666666; stroke-width: 0.8; stroke-linecap: square"/>
     </g>
     <g id="line2d_16">
      <g>
       <use xlink:href="#m953d5ac5e2" x="63.2" y="176.968889" style="stroke: #000000; stroke-width: 0.8"/>
      </g>
     </g>
     <g id="text_12">
      <!-- 0.5 -->
      <g transform="translate(33.935625 182.287795)scale(0.14 -0.14)">
       <defs>
        <path id="DejaVuSans-35" d="M 691 4666 
L 3169 4666 
L 3169 4134 
L 1269 4134 
L 1269 2991 
Q 1406 3038 1543 3061 
Q 1681 3084 1819 3084 
Q 2600 3084 3056 2656 
Q 3513 2228 3513 1497 
Q 3513 744 3044 326 
Q 2575 -91 1722 -91 
Q 1428 -91 1123 -41 
Q 819 9 494 109 
L 494 744 
Q 775 591 1075 516 
Q 1375 441 1709 441 
Q 2250 441 2565 725 
Q 2881 1009 2881 1497 
Q 2881 1984 2565 2268 
Q 2250 2553 1709 2553 
Q 1456 2553 1204 2497 
Q 953 2441 691 2322 
L 691 4666 
z
" transform="scale(0.015625)"/>
       </defs>
       <use xlink:href="#DejaVuSans-30"/>
       <use xlink:href="#DejaVuSans-2e" x="63.623047"/>
       <use xlink:href="#DejaVuSans-35" x="95.410156"/>
      </g>
     </g>
    </g>
    <g id="ytick_6">
     <g id="line2d_17">
      <path d="M 63.2 144.815111 
L 349.2 144.815111 
" clip-path="url(#p0c490cbf6c)" style="fill: none; stroke: #666666; stroke-width: 0.8; stroke-linecap: square"/>
     </g>
     <g id="line2d_18">
      <g>
       <use xlink:href="#m953d5ac5e2" x="63.2" y="144.815111" style="stroke: #000000; stroke-width: 0.8"/>
      </g>
     </g>
     <g id="text_13">
      <!-- 0.6 -->
      <g transform="translate(33.935625 150.134017)scale(0.14 -0.14)">
       <use xlink:href="#DejaVuSans-30"/>
       <use xlink:href="#DejaVuSans-2e" x="63.623047"/>
       <use xlink:href="#DejaVuSans-36" x="95.410156"/>
      </g>
     </g>
    </g>
    <g id="ytick_7">
     <g id="line2d_19">
      <path d="M 63.2 112.661333 
L 349.2 112.661333 
" clip-path="url(#p0c490cbf6c)" style="fill: none; stroke: #666666; stroke-width: 0.8; stroke-linecap: square"/>
     </g>
     <g id="line2d_20">
      <g>
       <use xlink:href="#m953d5ac5e2" x="63.2" y="112.661333" style="stroke: #000000; stroke-width: 0.8"/>
      </g>
     </g>
     <g id="text_14">
      <!-- 0.7 -->
      <g transform="translate(33.935625 117.98024)scale(0.14 -0.14)">
       <defs>
        <path id="DejaVuSans-37" d="M 525 4666 
L 3525 4666 
L 3525 4397 
L 1831 0 
L 1172 0 
L 2766 4134 
L 525 4134 
L 525 4666 
z
" transform="scale(0.015625)"/>
       </defs>
       <use xlink:href="#DejaVuSans-30"/>
       <use xlink:href="#DejaVuSans-2e" x="63.623047"/>
       <use xlink:href="#DejaVuSans-37" x="95.410156"/>
      </g>
     </g>
    </g>
    <g id="ytick_8">
     <g id="line2d_21">
      <path d="M 63.2 80.507556 
L 349.2 80.507556 
" clip-path="url(#p0c490cbf6c)" style="fill: none; stroke: #666666; stroke-width: 0.8; stroke-linecap: square"/>
     </g>
     <g id="line2d_22">
      <g>
       <use xlink:href="#m953d5ac5e2" x="63.2" y="80.507556" style="stroke: #000000; stroke-width: 0.8"/>
      </g>
     </g>
     <g id="text_15">
      <!-- 0.8 -->
      <g transform="translate(33.935625 85.826462)scale(0.14 -0.14)">
       <defs>
        <path id="DejaVuSans-38" d="M 2034 2216 
Q 1584 2216 1326 1975 
Q 1069 1734 1069 1313 
Q 1069 891 1326 650 
Q 1584 409 2034 409 
Q 2484 409 2743 651 
Q 3003 894 3003 1313 
Q 3003 1734 2745 1975 
Q 2488 2216 2034 2216 
z
M 1403 2484 
Q 997 2584 770 2862 
Q 544 3141 544 3541 
Q 544 4100 942 4425 
Q 1341 4750 2034 4750 
Q 2731 4750 3128 4425 
Q 3525 4100 3525 3541 
Q 3525 3141 3298 2862 
Q 3072 2584 2669 2484 
Q 3125 2378 3379 2068 
Q 3634 1759 3634 1313 
Q 3634 634 3220 271 
Q 2806 -91 2034 -91 
Q 1263 -91 848 271 
Q 434 634 434 1313 
Q 434 1759 690 2068 
Q 947 2378 1403 2484 
z
M 1172 3481 
Q 1172 3119 1398 2916 
Q 1625 2713 2034 2713 
Q 2441 2713 2670 2916 
Q 2900 3119 2900 3481 
Q 2900 3844 2670 4047 
Q 2441 4250 2034 4250 
Q 1625 4250 1398 4047 
Q 1172 3844 1172 3481 
z
" transform="scale(0.015625)"/>
       </defs>
       <use xlink:href="#DejaVuSans-30"/>
       <use xlink:href="#DejaVuSans-2e" x="63.623047"/>
       <use xlink:href="#DejaVuSans-38" x="95.410156"/>
      </g>
     </g>
    </g>
    <g id="ytick_9">
     <g id="line2d_23">
      <path d="M 63.2 48.353778 
L 349.2 48.353778 
" clip-path="url(#p0c490cbf6c)" style="fill: none; stroke: #666666; stroke-width: 0.8; stroke-linecap: square"/>
     </g>
     <g id="line2d_24">
      <g>
       <use xlink:href="#m953d5ac5e2" x="63.2" y="48.353778" style="stroke: #000000; stroke-width: 0.8"/>
      </g>
     </g>
     <g id="text_16">
      <!-- 0.9 -->
      <g transform="translate(33.935625 53.672684)scale(0.14 -0.14)">
       <defs>
        <path id="DejaVuSans-39" d="M 703 97 
L 703 672 
Q 941 559 1184 500 
Q 1428 441 1663 441 
Q 2288 441 2617 861 
Q 2947 1281 2994 2138 
Q 2813 1869 2534 1725 
Q 2256 1581 1919 1581 
Q 1219 1581 811 2004 
Q 403 2428 403 3163 
Q 403 3881 828 4315 
Q 1253 4750 1959 4750 
Q 2769 4750 3195 4129 
Q 3622 3509 3622 2328 
Q 3622 1225 3098 567 
Q 2575 -91 1691 -91 
Q 1453 -91 1209 -44 
Q 966 3 703 97 
z
M 1959 2075 
Q 2384 2075 2632 2365 
Q 2881 2656 2881 3163 
Q 2881 3666 2632 3958 
Q 2384 4250 1959 4250 
Q 1534 4250 1286 3958 
Q 1038 3666 1038 3163 
Q 1038 2656 1286 2365 
Q 1534 2075 1959 2075 
z
" transform="scale(0.015625)"/>
       </defs>
       <use xlink:href="#DejaVuSans-30"/>
       <use xlink:href="#DejaVuSans-2e" x="63.623047"/>
       <use xlink:href="#DejaVuSans-39" x="95.410156"/>
      </g>
     </g>
    </g>
    <g id="ytick_10">
     <g id="line2d_25">
      <path d="M 63.2 16.2 
L 349.2 16.2 
" clip-path="url(#p0c490cbf6c)" style="fill: none; stroke: #666666; stroke-width: 0.8; stroke-linecap: square"/>
     </g>
     <g id="line2d_26">
      <g>
       <use xlink:href="#m953d5ac5e2" x="63.2" y="16.2" style="stroke: #000000; stroke-width: 0.8"/>
      </g>
     </g>
     <g id="text_17">
      <!-- 1.0 -->
      <g transform="translate(33.935625 21.518906)scale(0.14 -0.14)">
       <use xlink:href="#DejaVuSans-31"/>
       <use xlink:href="#DejaVuSans-2e" x="63.623047"/>
       <use xlink:href="#DejaVuSans-30" x="95.410156"/>
      </g>
     </g>
    </g>
    <g id="ytick_11">
     <g id="line2d_27">
      <path d="M 63.2 299.153244 
L 349.2 299.153244 
" clip-path="url(#p0c490cbf6c)" style="fill: none; stroke: #999999; stroke-opacity: 0.2; stroke-width: 0.8; stroke-linecap: square"/>
     </g>
     <g id="line2d_28">
      <defs>
       <path id="m29d80e4bc7" d="M 0 0 
L -2 0 
" style="stroke: #000000; stroke-width: 0.6"/>
      </defs>
      <g>
       <use xlink:href="#m29d80e4bc7" x="63.2" y="299.153244" style="stroke: #000000; stroke-width: 0.6"/>
      </g>
     </g>
    </g>
    <g id="ytick_12">
     <g id="line2d_29">
      <path d="M 63.2 292.722489 
L 349.2 292.722489 
" clip-path="url(#p0c490cbf6c)" style="fill: none; stroke: #999999; stroke-opacity: 0.2; stroke-width: 0.8; stroke-linecap: square"/>
     </g>
     <g id="line2d_30">
      <g>
       <use xlink:href="#m29d80e4bc7" x="63.2" y="292.722489" style="stroke: #000000; stroke-width: 0.6"/>
      </g>
     </g>
    </g>
    <g id="ytick_13">
     <g id="line2d_31">
      <path d="M 63.2 286.291733 
L 349.2 286.291733 
" clip-path="url(#p0c490cbf6c)" style="fill: none; stroke: #999999; stroke-opacity: 0.2; stroke-width: 0.8; stroke-linecap: square"/>
     </g>
     <g id="line2d_32">
      <g>
       <use xlink:href="#m29d80e4bc7" x="63.2" y="286.291733" style="stroke: #000000; stroke-width: 0.6"/>
      </g>
     </g>
    </g>
    <g id="ytick_14">
     <g id="line2d_33">
      <path d="M 63.2 279.860978 
L 349.2 279.860978 
" clip-path="url(#p0c490cbf6c)" style="fill: none; stroke: #999999; stroke-opacity: 0.2; stroke-width: 0.8; stroke-linecap: square"/>
     </g>
     <g id="line2d_34">
      <g>
       <use xlink:href="#m29d80e4bc7" x="63.2" y="279.860978" style="stroke: #000000; stroke-width: 0.6"/>
      </g>
     </g>
    </g>
    <g id="ytick_15">
     <g id="line2d_35">
      <path d="M 63.2 266.999467 
L 349.2 266.999467 
" clip-path="url(#p0c490cbf6c)" style="fill: none; stroke: #999999; stroke-opacity: 0.2; stroke-width: 0.8; stroke-linecap: square"/>
     </g>
     <g id="line2d_36">
      <g>
       <use xlink:href="#m29d80e4bc7" x="63.2" y="266.999467" style="stroke: #000000; stroke-width: 0.6"/>
      </g>
     </g>
    </g>
    <g id="ytick_16">
     <g id="line2d_37">
      <path d="M 63.2 260.568711 
L 349.2 260.568711 
" clip-path="url(#p0c490cbf6c)" style="fill: none; stroke: #999999; stroke-opacity: 0.2; stroke-width: 0.8; stroke-linecap: square"/>
     </g>
     <g id="line2d_38">
      <g>
       <use xlink:href="#m29d80e4bc7" x="63.2" y="260.568711" style="stroke: #000000; stroke-width: 0.6"/>
      </g>
     </g>
    </g>
    <g id="ytick_17">
     <g id="line2d_39">
      <path d="M 63.2 254.137956 
L 349.2 254.137956 
" clip-path="url(#p0c490cbf6c)" style="fill: none; stroke: #999999; stroke-opacity: 0.2; stroke-width: 0.8; stroke-linecap: square"/>
     </g>
     <g id="line2d_40">
      <g>
       <use xlink:href="#m29d80e4bc7" x="63.2" y="254.137956" style="stroke: #000000; stroke-width: 0.6"/>
      </g>
     </g>
    </g>
    <g id="ytick_18">
     <g id="line2d_41">
      <path d="M 63.2 247.7072 
L 349.2 247.7072 
" clip-path="url(#p0c490cbf6c)" style="fill: none; stroke: #999999; stroke-opacity: 0.2; stroke-width: 0.8; stroke-linecap: square"/>
     </g>
     <g id="line2d_42">
      <g>
       <use xlink:href="#m29d80e4bc7" x="63.2" y="247.7072" style="stroke: #000000; stroke-width: 0.6"/>
      </g>
     </g>
    </g>
    <g id="ytick_19">
     <g id="line2d_43">
      <path d="M 63.2 234.845689 
L 349.2 234.845689 
" clip-path="url(#p0c490cbf6c)" style="fill: none; stroke: #999999; stroke-opacity: 0.2; stroke-width: 0.8; stroke-linecap: square"/>
     </g>
     <g id="line2d_44">
      <g>
       <use xlink:href="#m29d80e4bc7" x="63.2" y="234.845689" style="stroke: #000000; stroke-width: 0.6"/>
      </g>
     </g>
    </g>
    <g id="ytick_20">
     <g id="line2d_45">
      <path d="M 63.2 228.414933 
L 349.2 228.414933 
" clip-path="url(#p0c490cbf6c)" style="fill: none; stroke: #999999; stroke-opacity: 0.2; stroke-width: 0.8; stroke-linecap: square"/>
     </g>
     <g id="line2d_46">
      <g>
       <use xlink:href="#m29d80e4bc7" x="63.2" y="228.414933" style="stroke: #000000; stroke-width: 0.6"/>
      </g>
     </g>
    </g>
    <g id="ytick_21">
     <g id="line2d_47">
      <path d="M 63.2 221.984178 
L 349.2 221.984178 
" clip-path="url(#p0c490cbf6c)" style="fill: none; stroke: #999999; stroke-opacity: 0.2; stroke-width: 0.8; stroke-linecap: square"/>
     </g>
     <g id="line2d_48">
      <g>
       <use xlink:href="#m29d80e4bc7" x="63.2" y="221.984178" style="stroke: #000000; stroke-width: 0.6"/>
      </g>
     </g>
    </g>
    <g id="ytick_22">
     <g id="line2d_49">
      <path d="M 63.2 215.553422 
L 349.2 215.553422 
" clip-path="url(#p0c490cbf6c)" style="fill: none; stroke: #999999; stroke-opacity: 0.2; stroke-width: 0.8; stroke-linecap: square"/>
     </g>
     <g id="line2d_50">
      <g>
       <use xlink:href="#m29d80e4bc7" x="63.2" y="215.553422" style="stroke: #000000; stroke-width: 0.6"/>
      </g>
     </g>
    </g>
    <g id="ytick_23">
     <g id="line2d_51">
      <path d="M 63.2 202.691911 
L 349.2 202.691911 
" clip-path="url(#p0c490cbf6c)" style="fill: none; stroke: #999999; stroke-opacity: 0.2; stroke-width: 0.8; stroke-linecap: square"/>
     </g>
     <g id="line2d_52">
      <g>
       <use xlink:href="#m29d80e4bc7" x="63.2" y="202.691911" style="stroke: #000000; stroke-width: 0.6"/>
      </g>
     </g>
    </g>
    <g id="ytick_24">
     <g id="line2d_53">
      <path d="M 63.2 196.261156 
L 349.2 196.261156 
" clip-path="url(#p0c490cbf6c)" style="fill: none; stroke: #999999; stroke-opacity: 0.2; stroke-width: 0.8; stroke-linecap: square"/>
     </g>
     <g id="line2d_54">
      <g>
       <use xlink:href="#m29d80e4bc7" x="63.2" y="196.261156" style="stroke: #000000; stroke-width: 0.6"/>
      </g>
     </g>
    </g>
    <g id="ytick_25">
     <g id="line2d_55">
      <path d="M 63.2 189.8304 
L 349.2 189.8304 
" clip-path="url(#p0c490cbf6c)" style="fill: none; stroke: #999999; stroke-opacity: 0.2; stroke-width: 0.8; stroke-linecap: square"/>
     </g>
     <g id="line2d_56">
      <g>
       <use xlink:href="#m29d80e4bc7" x="63.2" y="189.8304" style="stroke: #000000; stroke-width: 0.6"/>
      </g>
     </g>
    </g>
    <g id="ytick_26">
     <g id="line2d_57">
      <path d="M 63.2 183.399644 
L 349.2 183.399644 
" clip-path="url(#p0c490cbf6c)" style="fill: none; stroke: #999999; stroke-opacity: 0.2; stroke-width: 0.8; stroke-linecap: square"/>
     </g>
     <g id="line2d_58">
      <g>
       <use xlink:href="#m29d80e4bc7" x="63.2" y="183.399644" style="stroke: #000000; stroke-width: 0.6"/>
      </g>
     </g>
    </g>
    <g id="ytick_27">
     <g id="line2d_59">
      <path d="M 63.2 170.538133 
L 349.2 170.538133 
" clip-path="url(#p0c490cbf6c)" style="fill: none; stroke: #999999; stroke-opacity: 0.2; stroke-width: 0.8; stroke-linecap: square"/>
     </g>
     <g id="line2d_60">
      <g>
       <use xlink:href="#m29d80e4bc7" x="63.2" y="170.538133" style="stroke: #000000; stroke-width: 0.6"/>
      </g>
     </g>
    </g>
    <g id="ytick_28">
     <g id="line2d_61">
      <path d="M 63.2 164.107378 
L 349.2 164.107378 
" clip-path="url(#p0c490cbf6c)" style="fill: none; stroke: #999999; stroke-opacity: 0.2; stroke-width: 0.8; stroke-linecap: square"/>
     </g>
     <g id="line2d_62">
      <g>
       <use xlink:href="#m29d80e4bc7" x="63.2" y="164.107378" style="stroke: #000000; stroke-width: 0.6"/>
      </g>
     </g>
    </g>
    <g id="ytick_29">
     <g id="line2d_63">
      <path d="M 63.2 157.676622 
L 349.2 157.676622 
" clip-path="url(#p0c490cbf6c)" style="fill: none; stroke: #999999; stroke-opacity: 0.2; stroke-width: 0.8; stroke-linecap: square"/>
     </g>
     <g id="line2d_64">
      <g>
       <use xlink:href="#m29d80e4bc7" x="63.2" y="157.676622" style="stroke: #000000; stroke-width: 0.6"/>
      </g>
     </g>
    </g>
    <g id="ytick_30">
     <g id="line2d_65">
      <path d="M 63.2 151.245867 
L 349.2 151.245867 
" clip-path="url(#p0c490cbf6c)" style="fill: none; stroke: #999999; stroke-opacity: 0.2; stroke-width: 0.8; stroke-linecap: square"/>
     </g>
     <g id="line2d_66">
      <g>
       <use xlink:href="#m29d80e4bc7" x="63.2" y="151.245867" style="stroke: #000000; stroke-width: 0.6"/>
      </g>
     </g>
    </g>
    <g id="ytick_31">
     <g id="line2d_67">
      <path d="M 63.2 138.384356 
L 349.2 138.384356 
" clip-path="url(#p0c490cbf6c)" style="fill: none; stroke: #999999; stroke-opacity: 0.2; stroke-width: 0.8; stroke-linecap: square"/>
     </g>
     <g id="line2d_68">
      <g>
       <use xlink:href="#m29d80e4bc7" x="63.2" y="138.384356" style="stroke: #000000; stroke-width: 0.6"/>
      </g>
     </g>
    </g>
    <g id="ytick_32">
     <g id="line2d_69">
      <path d="M 63.2 131.9536 
L 349.2 131.9536 
" clip-path="url(#p0c490cbf6c)" style="fill: none; stroke: #999999; stroke-opacity: 0.2; stroke-width: 0.8; stroke-linecap: square"/>
     </g>
     <g id="line2d_70">
      <g>
       <use xlink:href="#m29d80e4bc7" x="63.2" y="131.9536" style="stroke: #000000; stroke-width: 0.6"/>
      </g>
     </g>
    </g>
    <g id="ytick_33">
     <g id="line2d_71">
      <path d="M 63.2 125.522844 
L 349.2 125.522844 
" clip-path="url(#p0c490cbf6c)" style="fill: none; stroke: #999999; stroke-opacity: 0.2; stroke-width: 0.8; stroke-linecap: square"/>
     </g>
     <g id="line2d_72">
      <g>
       <use xlink:href="#m29d80e4bc7" x="63.2" y="125.522844" style="stroke: #000000; stroke-width: 0.6"/>
      </g>
     </g>
    </g>
    <g id="ytick_34">
     <g id="line2d_73">
      <path d="M 63.2 119.092089 
L 349.2 119.092089 
" clip-path="url(#p0c490cbf6c)" style="fill: none; stroke: #999999; stroke-opacity: 0.2; stroke-width: 0.8; stroke-linecap: square"/>
     </g>
     <g id="line2d_74">
      <g>
       <use xlink:href="#m29d80e4bc7" x="63.2" y="119.092089" style="stroke: #000000; stroke-width: 0.6"/>
      </g>
     </g>
    </g>
    <g id="ytick_35">
     <g id="line2d_75">
      <path d="M 63.2 106.230578 
L 349.2 106.230578 
" clip-path="url(#p0c490cbf6c)" style="fill: none; stroke: #999999; stroke-opacity: 0.2; stroke-width: 0.8; stroke-linecap: square"/>
     </g>
     <g id="line2d_76">
      <g>
       <use xlink:href="#m29d80e4bc7" x="63.2" y="106.230578" style="stroke: #000000; stroke-width: 0.6"/>
      </g>
     </g>
    </g>
    <g id="ytick_36">
     <g id="line2d_77">
      <path d="M 63.2 99.799822 
L 349.2 99.799822 
" clip-path="url(#p0c490cbf6c)" style="fill: none; stroke: #999999; stroke-opacity: 0.2; stroke-width: 0.8; stroke-linecap: square"/>
     </g>
     <g id="line2d_78">
      <g>
       <use xlink:href="#m29d80e4bc7" x="63.2" y="99.799822" style="stroke: #000000; stroke-width: 0.6"/>
      </g>
     </g>
    </g>
    <g id="ytick_37">
     <g id="line2d_79">
      <path d="M 63.2 93.369067 
L 349.2 93.369067 
" clip-path="url(#p0c490cbf6c)" style="fill: none; stroke: #999999; stroke-opacity: 0.2; stroke-width: 0.8; stroke-linecap: square"/>
     </g>
     <g id="line2d_80">
      <g>
       <use xlink:href="#m29d80e4bc7" x="63.2" y="93.369067" style="stroke: #000000; stroke-width: 0.6"/>
      </g>
     </g>
    </g>
    <g id="ytick_38">
     <g id="line2d_81">
      <path d="M 63.2 86.938311 
L 349.2 86.938311 
" clip-path="url(#p0c490cbf6c)" style="fill: none; stroke: #999999; stroke-opacity: 0.2; stroke-width: 0.8; stroke-linecap: square"/>
     </g>
     <g id="line2d_82">
      <g>
       <use xlink:href="#m29d80e4bc7" x="63.2" y="86.938311" style="stroke: #000000; stroke-width: 0.6"/>
      </g>
     </g>
    </g>
    <g id="ytick_39">
     <g id="line2d_83">
      <path d="M 63.2 74.0768 
L 349.2 74.0768 
" clip-path="url(#p0c490cbf6c)" style="fill: none; stroke: #999999; stroke-opacity: 0.2; stroke-width: 0.8; stroke-linecap: square"/>
     </g>
     <g id="line2d_84">
      <g>
       <use xlink:href="#m29d80e4bc7" x="63.2" y="74.0768" style="stroke: #000000; stroke-width: 0.6"/>
      </g>
     </g>
    </g>
    <g id="ytick_40">
     <g id="line2d_85">
      <path d="M 63.2 67.646044 
L 349.2 67.646044 
" clip-path="url(#p0c490cbf6c)" style="fill: none; stroke: #999999; stroke-opacity: 0.2; stroke-width: 0.8; stroke-linecap: square"/>
     </g>
     <g id="line2d_86">
      <g>
       <use xlink:href="#m29d80e4bc7" x="63.2" y="67.646044" style="stroke: #000000; stroke-width: 0.6"/>
      </g>
     </g>
    </g>
    <g id="ytick_41">
     <g id="line2d_87">
      <path d="M 63.2 61.215289 
L 349.2 61.215289 
" clip-path="url(#p0c490cbf6c)" style="fill: none; stroke: #999999; stroke-opacity: 0.2; stroke-width: 0.8; stroke-linecap: square"/>
     </g>
     <g id="line2d_88">
      <g>
       <use xlink:href="#m29d80e4bc7" x="63.2" y="61.215289" style="stroke: #000000; stroke-width: 0.6"/>
      </g>
     </g>
    </g>
    <g id="ytick_42">
     <g id="line2d_89">
      <path d="M 63.2 54.784533 
L 349.2 54.784533 
" clip-path="url(#p0c490cbf6c)" style="fill: none; stroke: #999999; stroke-opacity: 0.2; stroke-width: 0.8; stroke-linecap: square"/>
     </g>
     <g id="line2d_90">
      <g>
       <use xlink:href="#m29d80e4bc7" x="63.2" y="54.784533" style="stroke: #000000; stroke-width: 0.6"/>
      </g>
     </g>
    </g>
    <g id="ytick_43">
     <g id="line2d_91">
      <path d="M 63.2 41.923022 
L 349.2 41.923022 
" clip-path="url(#p0c490cbf6c)" style="fill: none; stroke: #999999; stroke-opacity: 0.2; stroke-width: 0.8; stroke-linecap: square"/>
     </g>
     <g id="line2d_92">
      <g>
       <use xlink:href="#m29d80e4bc7" x="63.2" y="41.923022" style="stroke: #000000; stroke-width: 0.6"/>
      </g>
     </g>
    </g>
    <g id="ytick_44">
     <g id="line2d_93">
      <path d="M 63.2 35.492267 
L 349.2 35.492267 
" clip-path="url(#p0c490cbf6c)" style="fill: none; stroke: #999999; stroke-opacity: 0.2; stroke-width: 0.8; stroke-linecap: square"/>
     </g>
     <g id="line2d_94">
      <g>
       <use xlink:href="#m29d80e4bc7" x="63.2" y="35.492267" style="stroke: #000000; stroke-width: 0.6"/>
      </g>
     </g>
    </g>
    <g id="ytick_45">
     <g id="line2d_95">
      <path d="M 63.2 29.061511 
L 349.2 29.061511 
" clip-path="url(#p0c490cbf6c)" style="fill: none; stroke: #999999; stroke-opacity: 0.2; stroke-width: 0.8; stroke-linecap: square"/>
     </g>
     <g id="line2d_96">
      <g>
       <use xlink:href="#m29d80e4bc7" x="63.2" y="29.061511" style="stroke: #000000; stroke-width: 0.6"/>
      </g>
     </g>
    </g>
    <g id="ytick_46">
     <g id="line2d_97">
      <path d="M 63.2 22.630756 
L 349.2 22.630756 
" clip-path="url(#p0c490cbf6c)" style="fill: none; stroke: #999999; stroke-opacity: 0.2; stroke-width: 0.8; stroke-linecap: square"/>
     </g>
     <g id="line2d_98">
      <g>
       <use xlink:href="#m29d80e4bc7" x="63.2" y="22.630756" style="stroke: #000000; stroke-width: 0.6"/>
      </g>
     </g>
    </g>
    <g id="text_18">
     <!-- NEF$_{(Ra)}$ -->
     <g transform="translate(25.775625 188.572)rotate(-90)scale(0.16 -0.16)">
      <defs>
       <path id="DejaVuSans-4e" d="M 628 4666 
L 1478 4666 
L 3547 763 
L 3547 4666 
L 4159 4666 
L 4159 0 
L 3309 0 
L 1241 3903 
L 1241 0 
L 628 0 
L 628 4666 
z
" transform="scale(0.015625)"/>
       <path id="DejaVuSans-45" d="M 628 4666 
L 3578 4666 
L 3578 4134 
L 1259 4134 
L 1259 2753 
L 3481 2753 
L 3481 2222 
L 1259 2222 
L 1259 531 
L 3634 531 
L 3634 0 
L 628 0 
L 628 4666 
z
" transform="scale(0.015625)"/>
       <path id="DejaVuSans-46" d="M 628 4666 
L 3309 4666 
L 3309 4134 
L 1259 4134 
L 1259 2759 
L 3109 2759 
L 3109 2228 
L 1259 2228 
L 1259 0 
L 628 0 
L 628 4666 
z
" transform="scale(0.015625)"/>
       <path id="DejaVuSans-28" d="M 1984 4856 
Q 1566 4138 1362 3434 
Q 1159 2731 1159 2009 
Q 1159 1288 1364 580 
Q 1569 -128 1984 -844 
L 1484 -844 
Q 1016 -109 783 600 
Q 550 1309 550 2009 
Q 550 2706 781 3412 
Q 1013 4119 1484 4856 
L 1984 4856 
z
" transform="scale(0.015625)"/>
       <path id="DejaVuSans-Oblique-52" d="M 1613 4147 
L 1294 2491 
L 2106 2491 
Q 2584 2491 2879 2755 
Q 3175 3019 3175 3444 
Q 3175 3784 2976 3965 
Q 2778 4147 2406 4147 
L 1613 4147 
z
M 2772 2241 
Q 2972 2194 3105 2009 
Q 3238 1825 3413 1275 
L 3809 0 
L 3144 0 
L 2778 1197 
Q 2638 1659 2453 1815 
Q 2269 1972 1888 1972 
L 1191 1972 
L 806 0 
L 172 0 
L 1081 4666 
L 2503 4666 
Q 3150 4666 3495 4373 
Q 3841 4081 3841 3531 
Q 3841 3044 3547 2687 
Q 3253 2331 2772 2241 
z
" transform="scale(0.015625)"/>
       <path id="DejaVuSans-Oblique-61" d="M 3438 1997 
L 3047 0 
L 2472 0 
L 2578 531 
Q 2325 219 2001 64 
Q 1678 -91 1281 -91 
Q 834 -91 548 182 
Q 263 456 263 884 
Q 263 1497 752 1853 
Q 1241 2209 2100 2209 
L 2900 2209 
L 2931 2363 
Q 2938 2388 2941 2417 
Q 2944 2447 2944 2509 
Q 2944 2788 2717 2942 
Q 2491 3097 2081 3097 
Q 1800 3097 1504 3025 
Q 1209 2953 897 2809 
L 997 3341 
Q 1322 3463 1633 3523 
Q 1944 3584 2234 3584 
Q 2853 3584 3176 3315 
Q 3500 3047 3500 2534 
Q 3500 2431 3484 2292 
Q 3469 2153 3438 1997 
z
M 2816 1759 
L 2241 1759 
Q 1534 1759 1195 1570 
Q 856 1381 856 984 
Q 856 709 1029 553 
Q 1203 397 1509 397 
Q 1978 397 2328 733 
Q 2678 1069 2791 1631 
L 2816 1759 
z
" transform="scale(0.015625)"/>
       <path id="DejaVuSans-29" d="M 513 4856 
L 1013 4856 
Q 1481 4119 1714 3412 
Q 1947 2706 1947 2009 
Q 1947 1309 1714 600 
Q 1481 -109 1013 -844 
L 513 -844 
Q 928 -128 1133 580 
Q 1338 1288 1338 2009 
Q 1338 2731 1133 3434 
Q 928 4138 513 4856 
z
" transform="scale(0.015625)"/>
      </defs>
      <use xlink:href="#DejaVuSans-4e" transform="translate(0 0.09375)"/>
      <use xlink:href="#DejaVuSans-45" transform="translate(74.804688 0.09375)"/>
      <use xlink:href="#DejaVuSans-46" transform="translate(137.988281 0.09375)"/>
      <use xlink:href="#DejaVuSans-28" transform="translate(196.464844 -16.3125)scale(0.7)"/>
      <use xlink:href="#DejaVuSans-Oblique-52" transform="translate(223.774414 -16.3125)scale(0.7)"/>
      <use xlink:href="#DejaVuSans-Oblique-61" transform="translate(272.412109 -16.3125)scale(0.7)"/>
      <use xlink:href="#DejaVuSans-29" transform="translate(315.307617 -16.3125)scale(0.7)"/>
     </g>
    </g>
   </g>
   <g id="PolyCollection_1">
    <defs>
     <path id="m96df16820a" d="M 96.442415 -77.994365 
L 95.957585 -77.994365 
L 95.958652 -78.903765 
L 95.964508 -79.813165 
L 95.973898 -80.722565 
L 95.984995 -81.631964 
L 95.995481 -82.541364 
L 96.002649 -83.450764 
L 96.003507 -84.360164 
L 95.994874 -85.269563 
L 95.973459 -86.178963 
L 95.935922 -87.088363 
L 95.878934 -87.997763 
L 95.799237 -88.907163 
L 95.693718 -89.816562 
L 95.559516 -90.725962 
L 95.394151 -91.635362 
L 95.195678 -92.544762 
L 94.962856 -93.454161 
L 94.69531 -94.363561 
L 94.393668 -95.272961 
L 94.059653 -96.182361 
L 93.696104 -97.091761 
L 93.306929 -98.00116 
L 92.896967 -98.91056 
L 92.471778 -99.81996 
L 92.037362 -100.72936 
L 91.599847 -101.638759 
L 91.165155 -102.548159 
L 90.738691 -103.457559 
L 90.325083 -104.366959 
L 89.92799 -105.276359 
L 89.550001 -106.185758 
L 89.192616 -107.095158 
L 88.85631 -108.004558 
L 88.54065 -108.913958 
L 88.244448 -109.823357 
L 87.965924 -110.732757 
L 87.702869 -111.642157 
L 87.452795 -112.551557 
L 87.2131 -113.460956 
L 86.98126 -114.370356 
L 86.755068 -115.279756 
L 86.532952 -116.189156 
L 86.31435 -117.098556 
L 86.100123 -118.007955 
L 85.892948 -118.917355 
L 85.697594 -119.826755 
L 85.521024 -120.736155 
L 85.37221 -121.645554 
L 85.261652 -122.554954 
L 85.200596 -123.464354 
L 85.2 -124.373754 
L 85.269386 -125.283154 
L 85.415698 -126.192553 
L 85.642331 -127.101953 
L 85.948471 -128.011353 
L 86.32883 -128.920753 
L 86.773845 -129.830152 
L 87.270288 -130.739552 
L 87.802253 -131.648952 
L 88.352371 -132.558352 
L 88.903139 -133.467752 
L 89.438206 -134.377151 
L 89.94349 -135.286551 
L 90.408032 -136.195951 
L 90.824512 -137.105351 
L 91.189428 -138.01475 
L 91.502925 -138.92415 
L 91.768352 -139.83355 
L 91.991602 -140.74295 
L 92.180322 -141.65235 
L 92.343091 -142.561749 
L 92.488624 -143.471149 
L 92.6251 -144.380549 
L 92.759623 -145.289949 
L 92.897873 -146.199348 
L 93.04393 -147.108748 
L 93.200253 -148.018148 
L 93.367793 -148.927548 
L 93.546192 -149.836948 
L 93.734023 -150.746347 
L 93.929039 -151.655747 
L 94.128412 -152.565147 
L 94.328932 -153.474547 
L 94.527187 -154.383946 
L 94.719714 -155.293346 
L 94.903153 -156.202746 
L 95.074396 -157.112146 
L 95.230749 -158.021545 
L 95.3701 -158.930945 
L 95.491064 -159.840345 
L 95.593102 -160.749745 
L 95.67658 -161.659145 
L 95.742748 -162.568544 
L 95.79364 -163.477944 
L 95.831888 -164.387344 
L 95.860477 -165.296744 
L 95.882469 -166.206143 
L 95.900721 -167.115543 
L 95.917658 -168.024943 
L 96.482342 -168.024943 
L 96.482342 -168.024943 
L 96.499279 -167.115543 
L 96.517531 -166.206143 
L 96.539523 -165.296744 
L 96.568112 -164.387344 
L 96.60636 -163.477944 
L 96.657252 -162.568544 
L 96.72342 -161.659145 
L 96.806898 -160.749745 
L 96.908936 -159.840345 
L 97.0299 -158.930945 
L 97.169251 -158.021545 
L 97.325604 -157.112146 
L 97.496847 -156.202746 
L 97.680286 -155.293346 
L 97.872813 -154.383946 
L 98.071068 -153.474547 
L 98.271588 -152.565147 
L 98.470961 -151.655747 
L 98.665977 -150.746347 
L 98.853808 -149.836948 
L 99.032207 -148.927548 
L 99.199747 -148.018148 
L 99.35607 -147.108748 
L 99.502127 -146.199348 
L 99.640377 -145.289949 
L 99.7749 -144.380549 
L 99.911376 -143.471149 
L 100.056909 -142.561749 
L 100.219678 -141.65235 
L 100.408398 -140.74295 
L 100.631648 -139.83355 
L 100.897075 -138.92415 
L 101.210572 -138.01475 
L 101.575488 -137.105351 
L 101.991968 -136.195951 
L 102.45651 -135.286551 
L 102.961794 -134.377151 
L 103.496861 -133.467752 
L 104.047629 -132.558352 
L 104.597747 -131.648952 
L 105.129712 -130.739552 
L 105.626155 -129.830152 
L 106.07117 -128.920753 
L 106.451529 -128.011353 
L 106.757669 -127.101953 
L 106.984302 -126.192553 
L 107.130614 -125.283154 
L 107.2 -124.373754 
L 107.199404 -123.464354 
L 107.138348 -122.554954 
L 107.02779 -121.645554 
L 106.878976 -120.736155 
L 106.702406 -119.826755 
L 106.507052 -118.917355 
L 106.299877 -118.007955 
L 106.08565 -117.098556 
L 105.867048 -116.189156 
L 105.644932 -115.279756 
L 105.41874 -114.370356 
L 105.1869 -113.460956 
L 104.947205 -112.551557 
L 104.697131 -111.642157 
L 104.434076 -110.732757 
L 104.155552 -109.823357 
L 103.85935 -108.913958 
L 103.54369 -108.004558 
L 103.207384 -107.095158 
L 102.849999 -106.185758 
L 102.47201 -105.276359 
L 102.074917 -104.366959 
L 101.661309 -103.457559 
L 101.234845 -102.548159 
L 100.800153 -101.638759 
L 100.362638 -100.72936 
L 99.928222 -99.81996 
L 99.503033 -98.91056 
L 99.093071 -98.00116 
L 98.703896 -97.091761 
L 98.340347 -96.182361 
L 98.006332 -95.272961 
L 97.70469 -94.363561 
L 97.437144 -93.454161 
L 97.204322 -92.544762 
L 97.005849 -91.635362 
L 96.840484 -90.725962 
L 96.706282 -89.816562 
L 96.600763 -88.907163 
L 96.521066 -87.997763 
L 96.464078 -87.088363 
L 96.426541 -86.178963 
L 96.405126 -85.269563 
L 96.396493 -84.360164 
L 96.397351 -83.450764 
L 96.404519 -82.541364 
L 96.415005 -81.631964 
L 96.426102 -80.722565 
L 96.435492 -79.813165 
L 96.441348 -78.903765 
L 96.442415 -77.994365 
z
" style="stroke: #000000"/>
    </defs>
    <g clip-path="url(#p0c490cbf6c)">
     <use xlink:href="#m96df16820a" x="0" y="360" style="fill: #deebf7; stroke: #000000"/>
    </g>
   </g>
   <g id="PolyCollection_2">
    <defs>
     <path id="m4230e1e33f" d="M 140.860184 -90.855876 
L 139.539816 -90.855876 
L 139.511316 -91.548774 
L 139.484859 -92.241672 
L 139.459493 -92.934569 
L 139.434047 -93.627467 
L 139.407208 -94.320365 
L 139.377611 -95.013262 
L 139.343931 -95.70616 
L 139.304963 -96.399058 
L 139.25969 -97.091955 
L 139.207322 -97.784853 
L 139.147317 -98.477751 
L 139.079361 -99.170648 
L 139.003335 -99.863546 
L 138.919243 -100.556444 
L 138.827139 -101.249341 
L 138.727035 -101.942239 
L 138.618814 -102.635137 
L 138.502154 -103.328034 
L 138.376471 -104.020932 
L 138.240895 -104.71383 
L 138.094273 -105.406727 
L 137.935215 -106.099625 
L 137.76217 -106.792523 
L 137.573538 -107.48542 
L 137.367801 -108.178318 
L 137.143661 -108.871216 
L 136.900175 -109.564113 
L 136.63687 -110.257011 
L 136.353821 -110.949909 
L 136.051689 -111.642807 
L 135.731703 -112.335704 
L 135.395609 -113.028602 
L 135.045569 -113.7215 
L 134.684043 -114.414397 
L 134.313665 -115.107295 
L 133.937135 -115.800193 
L 133.557132 -116.49309 
L 133.176284 -117.185988 
L 132.797163 -117.878886 
L 132.422333 -118.571783 
L 132.054419 -119.264681 
L 131.696175 -119.957579 
L 131.350544 -120.650476 
L 131.020678 -121.343374 
L 130.709897 -122.036272 
L 130.421597 -122.729169 
L 130.159092 -123.422067 
L 129.925415 -124.114965 
L 129.723091 -124.807862 
L 129.553921 -125.50076 
L 129.418794 -126.193658 
L 129.317564 -126.886555 
L 129.249005 -127.579453 
L 129.210865 -128.272351 
L 129.2 -128.965248 
L 129.212594 -129.658146 
L 129.244436 -130.351044 
L 129.291223 -131.043941 
L 129.348861 -131.736839 
L 129.413738 -132.429737 
L 129.482932 -133.122634 
L 129.55435 -133.815532 
L 129.626787 -134.50843 
L 129.699893 -135.201327 
L 129.774085 -135.894225 
L 129.850391 -136.587123 
L 129.930279 -137.28002 
L 130.015461 -137.972918 
L 130.107722 -138.665816 
L 130.208769 -139.358713 
L 130.320121 -140.051611 
L 130.443033 -140.744509 
L 130.578463 -141.437406 
L 130.72707 -142.130304 
L 130.889222 -142.823202 
L 131.065025 -143.516099 
L 131.25435 -144.208997 
L 131.456844 -144.901895 
L 131.671955 -145.594792 
L 131.898933 -146.28769 
L 132.136841 -146.980588 
L 132.384568 -147.673485 
L 132.640855 -148.366383 
L 132.904331 -149.059281 
L 133.173571 -149.752178 
L 133.447155 -150.445076 
L 133.723749 -151.137974 
L 134.002172 -151.830871 
L 134.281458 -152.523769 
L 134.560894 -153.216667 
L 134.840034 -153.909564 
L 135.118677 -154.602462 
L 135.396818 -155.29536 
L 135.674565 -155.988258 
L 135.95204 -156.681155 
L 136.229271 -157.374053 
L 136.506088 -158.066951 
L 136.782034 -158.759848 
L 137.056307 -159.452746 
L 143.343693 -159.452746 
L 143.343693 -159.452746 
L 143.617966 -158.759848 
L 143.893912 -158.066951 
L 144.170729 -157.374053 
L 144.44796 -156.681155 
L 144.725435 -155.988258 
L 145.003182 -155.29536 
L 145.281323 -154.602462 
L 145.559966 -153.909564 
L 145.839106 -153.216667 
L 146.118542 -152.523769 
L 146.397828 -151.830871 
L 146.676251 -151.137974 
L 146.952845 -150.445076 
L 147.226429 -149.752178 
L 147.495669 -149.059281 
L 147.759145 -148.366383 
L 148.015432 -147.673485 
L 148.263159 -146.980588 
L 148.501067 -146.28769 
L 148.728045 -145.594792 
L 148.943156 -144.901895 
L 149.14565 -144.208997 
L 149.334975 -143.516099 
L 149.510778 -142.823202 
L 149.67293 -142.130304 
L 149.821537 -141.437406 
L 149.956967 -140.744509 
L 150.079879 -140.051611 
L 150.191231 -139.358713 
L 150.292278 -138.665816 
L 150.384539 -137.972918 
L 150.469721 -137.28002 
L 150.549609 -136.587123 
L 150.625915 -135.894225 
L 150.700107 -135.201327 
L 150.773213 -134.50843 
L 150.84565 -133.815532 
L 150.917068 -133.122634 
L 150.986262 -132.429737 
L 151.051139 -131.736839 
L 151.108777 -131.043941 
L 151.155564 -130.351044 
L 151.187406 -129.658146 
L 151.2 -128.965248 
L 151.189135 -128.272351 
L 151.150995 -127.579453 
L 151.082436 -126.886555 
L 150.981206 -126.193658 
L 150.846079 -125.50076 
L 150.676909 -124.807862 
L 150.474585 -124.114965 
L 150.240908 -123.422067 
L 149.978403 -122.729169 
L 149.690103 -122.036272 
L 149.379322 -121.343374 
L 149.049456 -120.650476 
L 148.703825 -119.957579 
L 148.345581 -119.264681 
L 147.977667 -118.571783 
L 147.602837 -117.878886 
L 147.223716 -117.185988 
L 146.842868 -116.49309 
L 146.462865 -115.800193 
L 146.086335 -115.107295 
L 145.715957 -114.414397 
L 145.354431 -113.7215 
L 145.004391 -113.028602 
L 144.668297 -112.335704 
L 144.348311 -111.642807 
L 144.046179 -110.949909 
L 143.76313 -110.257011 
L 143.499825 -109.564113 
L 143.256339 -108.871216 
L 143.032199 -108.178318 
L 142.826462 -107.48542 
L 142.63783 -106.792523 
L 142.464785 -106.099625 
L 142.305727 -105.406727 
L 142.159105 -104.71383 
L 142.023529 -104.020932 
L 141.897846 -103.328034 
L 141.781186 -102.635137 
L 141.672965 -101.942239 
L 141.572861 -101.249341 
L 141.480757 -100.556444 
L 141.396665 -99.863546 
L 141.320639 -99.170648 
L 141.252683 -98.477751 
L 141.192678 -97.784853 
L 141.14031 -97.091955 
L 141.095037 -96.399058 
L 141.056069 -95.70616 
L 141.022389 -95.013262 
L 140.992792 -94.320365 
L 140.965953 -93.627467 
L 140.940507 -92.934569 
L 140.915141 -92.241672 
L 140.888684 -91.548774 
L 140.860184 -90.855876 
z
" style="stroke: #000000"/>
    </defs>
    <g clip-path="url(#p0c490cbf6c)">
     <use xlink:href="#m4230e1e33f" x="0" y="360" style="fill: #deebf7; stroke: #000000"/>
    </g>
   </g>
   <g id="PolyCollection_3">
    <defs>
     <path id="m33308ecdaa" d="M 184.881975 -95.14519 
L 183.518025 -95.14519 
L 183.472373 -95.924676 
L 183.427132 -96.704161 
L 183.380724 -97.483647 
L 183.331218 -98.263132 
L 183.276447 -99.042618 
L 183.214111 -99.822103 
L 183.141864 -100.601589 
L 183.057341 -101.381074 
L 182.95816 -102.16056 
L 182.841872 -102.940046 
L 182.705912 -103.719531 
L 182.547554 -104.499017 
L 182.363915 -105.278502 
L 182.152024 -106.057988 
L 181.908965 -106.837473 
L 181.63211 -107.616959 
L 181.31941 -108.396444 
L 180.969727 -109.17593 
L 180.583155 -109.955415 
L 180.161302 -110.734901 
L 179.707466 -111.514386 
L 179.226682 -112.293872 
L 178.725608 -113.073357 
L 178.212248 -113.852843 
L 177.69552 -114.632328 
L 177.184707 -115.411814 
L 176.688855 -116.191299 
L 176.21616 -116.970785 
L 175.773446 -117.75027 
L 175.365776 -118.529756 
L 174.996256 -119.309241 
L 174.666065 -120.088727 
L 174.374698 -120.868213 
L 174.120398 -121.647698 
L 173.900705 -122.427184 
L 173.713039 -123.206669 
L 173.555238 -123.986155 
L 173.425952 -124.76564 
L 173.324833 -125.545126 
L 173.252508 -126.324611 
L 173.210335 -127.104097 
L 173.2 -127.883582 
L 173.223031 -128.663068 
L 173.280327 -129.442553 
L 173.371788 -130.222039 
L 173.496099 -131.001524 
L 173.650712 -131.78101 
L 173.831998 -132.560495 
L 174.035542 -133.339981 
L 174.256501 -134.119466 
L 174.489971 -134.898952 
L 174.731294 -135.678437 
L 174.97628 -136.457923 
L 175.221337 -137.237408 
L 175.463521 -138.016894 
L 175.700548 -138.79638 
L 175.930801 -139.575865 
L 176.153349 -140.355351 
L 176.367998 -141.134836 
L 176.575357 -141.914322 
L 176.776887 -142.693807 
L 176.974904 -143.473293 
L 177.172502 -144.252778 
L 177.373379 -145.032264 
L 177.581564 -145.811749 
L 177.801066 -146.591235 
L 178.035486 -147.37072 
L 178.287631 -148.150206 
L 178.559181 -148.929691 
L 178.850456 -149.709177 
L 179.160294 -150.488662 
L 179.486073 -151.268148 
L 179.823853 -152.047633 
L 180.168634 -152.827119 
L 180.514696 -153.606604 
L 180.855993 -154.38609 
L 181.18656 -155.165575 
L 181.500904 -155.945061 
L 181.794344 -156.724547 
L 182.063279 -157.504032 
L 182.305354 -158.283518 
L 182.519525 -159.063003 
L 182.706013 -159.842489 
L 182.866155 -160.621974 
L 183.002183 -161.40146 
L 183.116947 -162.180945 
L 183.213616 -162.960431 
L 183.295407 -163.739916 
L 183.365345 -164.519402 
L 183.426099 -165.298887 
L 183.479893 -166.078373 
L 183.528486 -166.857858 
L 183.573209 -167.637344 
L 183.615046 -168.416829 
L 183.654721 -169.196315 
L 183.69278 -169.9758 
L 183.729653 -170.755286 
L 183.765685 -171.534771 
L 183.801138 -172.314257 
L 184.598862 -172.314257 
L 184.598862 -172.314257 
L 184.634315 -171.534771 
L 184.670347 -170.755286 
L 184.70722 -169.9758 
L 184.745279 -169.196315 
L 184.784954 -168.416829 
L 184.826791 -167.637344 
L 184.871514 -166.857858 
L 184.920107 -166.078373 
L 184.973901 -165.298887 
L 185.034655 -164.519402 
L 185.104593 -163.739916 
L 185.186384 -162.960431 
L 185.283053 -162.180945 
L 185.397817 -161.40146 
L 185.533845 -160.621974 
L 185.693987 -159.842489 
L 185.880475 -159.063003 
L 186.094646 -158.283518 
L 186.336721 -157.504032 
L 186.605656 -156.724547 
L 186.899096 -155.945061 
L 187.21344 -155.165575 
L 187.544007 -154.38609 
L 187.885304 -153.606604 
L 188.231366 -152.827119 
L 188.576147 -152.047633 
L 188.913927 -151.268148 
L 189.239706 -150.488662 
L 189.549544 -149.709177 
L 189.840819 -148.929691 
L 190.112369 -148.150206 
L 190.364514 -147.37072 
L 190.598934 -146.591235 
L 190.818436 -145.811749 
L 191.026621 -145.032264 
L 191.227498 -144.252778 
L 191.425096 -143.473293 
L 191.623113 -142.693807 
L 191.824643 -141.914322 
L 192.032002 -141.134836 
L 192.246651 -140.355351 
L 192.469199 -139.575865 
L 192.699452 -138.79638 
L 192.936479 -138.016894 
L 193.178663 -137.237408 
L 193.42372 -136.457923 
L 193.668706 -135.678437 
L 193.910029 -134.898952 
L 194.143499 -134.119466 
L 194.364458 -133.339981 
L 194.568002 -132.560495 
L 194.749288 -131.78101 
L 194.903901 -131.001524 
L 195.028212 -130.222039 
L 195.119673 -129.442553 
L 195.176969 -128.663068 
L 195.2 -127.883582 
L 195.189665 -127.104097 
L 195.147492 -126.324611 
L 195.075167 -125.545126 
L 194.974048 -124.76564 
L 194.844762 -123.986155 
L 194.686961 -123.206669 
L 194.499295 -122.427184 
L 194.279602 -121.647698 
L 194.025302 -120.868213 
L 193.733935 -120.088727 
L 193.403744 -119.309241 
L 193.034224 -118.529756 
L 192.626554 -117.75027 
L 192.18384 -116.970785 
L 191.711145 -116.191299 
L 191.215293 -115.411814 
L 190.70448 -114.632328 
L 190.187752 -113.852843 
L 189.674392 -113.073357 
L 189.173318 -112.293872 
L 188.692534 -111.514386 
L 188.238698 -110.734901 
L 187.816845 -109.955415 
L 187.430273 -109.17593 
L 187.08059 -108.396444 
L 186.76789 -107.616959 
L 186.491035 -106.837473 
L 186.247976 -106.057988 
L 186.036085 -105.278502 
L 185.852446 -104.499017 
L 185.694088 -103.719531 
L 185.558128 -102.940046 
L 185.44184 -102.16056 
L 185.342659 -101.381074 
L 185.258136 -100.601589 
L 185.185889 -99.822103 
L 185.123553 -99.042618 
L 185.068782 -98.263132 
L 185.019276 -97.483647 
L 184.972868 -96.704161 
L 184.927627 -95.924676 
L 184.881975 -95.14519 
z
" style="stroke: #000000"/>
    </defs>
    <g clip-path="url(#p0c490cbf6c)">
     <use xlink:href="#m33308ecdaa" x="0" y="360" style="fill: #deebf7; stroke: #000000"/>
    </g>
   </g>
   <g id="PolyCollection_4">
    <defs>
     <path id="m288b2460ea" d="M 228.997764 -120.868213 
L 227.402236 -120.868213 
L 227.324522 -121.561078 
L 227.24792 -122.253943 
L 227.173648 -122.946808 
L 227.102832 -123.639673 
L 227.036439 -124.332538 
L 226.975204 -125.025404 
L 226.919569 -125.718269 
L 226.869633 -126.411134 
L 226.825125 -127.103999 
L 226.785396 -127.796864 
L 226.749449 -128.48973 
L 226.715979 -129.182595 
L 226.683452 -129.87546 
L 226.650186 -130.568325 
L 226.614445 -131.26119 
L 226.574522 -131.954056 
L 226.528807 -132.646921 
L 226.475828 -133.339786 
L 226.41426 -134.032651 
L 226.342903 -134.725516 
L 226.260636 -135.418382 
L 226.166359 -136.111247 
L 226.058935 -136.804112 
L 225.937153 -137.496977 
L 225.799724 -138.189842 
L 225.645318 -138.882708 
L 225.472662 -139.575573 
L 225.280669 -140.268438 
L 225.068607 -140.961303 
L 224.836285 -141.654168 
L 224.584221 -142.347034 
L 224.313777 -143.039899 
L 224.027239 -143.732764 
L 223.727805 -144.425629 
L 223.419501 -145.118494 
L 223.106992 -145.811359 
L 222.795321 -146.504225 
L 222.489588 -147.19709 
L 222.194587 -147.889955 
L 221.914453 -148.58282 
L 221.652333 -149.275685 
L 221.410122 -149.968551 
L 221.188298 -150.661416 
L 220.98586 -151.354281 
L 220.800391 -152.047146 
L 220.628248 -152.740011 
L 220.464851 -153.432877 
L 220.305075 -154.125742 
L 220.143686 -154.818607 
L 219.975814 -155.511472 
L 219.797398 -156.204337 
L 219.605584 -156.897203 
L 219.399032 -157.590068 
L 219.178104 -158.282933 
L 218.944921 -158.975798 
L 218.703284 -159.668663 
L 218.458458 -160.361529 
L 218.216852 -161.054394 
L 217.985615 -161.747259 
L 217.772187 -162.440124 
L 217.583849 -163.132989 
L 217.427304 -163.825855 
L 217.308323 -164.51872 
L 217.231481 -165.211585 
L 217.2 -165.90445 
L 217.215689 -166.597315 
L 217.278983 -167.29018 
L 217.389054 -167.983046 
L 217.543986 -168.675911 
L 217.740972 -169.368776 
L 217.976524 -170.061641 
L 218.246675 -170.754506 
L 218.547154 -171.447372 
L 218.873536 -172.140237 
L 219.221363 -172.833102 
L 219.586228 -173.525967 
L 219.963845 -174.218832 
L 220.350099 -174.911698 
L 220.741082 -175.604563 
L 221.133121 -176.297428 
L 221.52281 -176.990293 
L 221.907029 -177.683158 
L 222.282973 -178.376024 
L 222.648172 -179.068889 
L 223.000519 -179.761754 
L 223.338289 -180.454619 
L 223.660169 -181.147484 
L 223.965269 -181.84035 
L 224.253139 -182.533215 
L 224.52377 -183.22608 
L 224.77758 -183.918945 
L 225.015383 -184.61181 
L 225.238333 -185.304676 
L 225.447849 -185.997541 
L 225.64552 -186.690406 
L 225.83299 -187.383271 
L 226.011847 -188.076136 
L 226.183502 -188.769001 
L 226.349097 -189.461867 
L 230.050903 -189.461867 
L 230.050903 -189.461867 
L 230.216498 -188.769001 
L 230.388153 -188.076136 
L 230.56701 -187.383271 
L 230.75448 -186.690406 
L 230.952151 -185.997541 
L 231.161667 -185.304676 
L 231.384617 -184.61181 
L 231.62242 -183.918945 
L 231.87623 -183.22608 
L 232.146861 -182.533215 
L 232.434731 -181.84035 
L 232.739831 -181.147484 
L 233.061711 -180.454619 
L 233.399481 -179.761754 
L 233.751828 -179.068889 
L 234.117027 -178.376024 
L 234.492971 -177.683158 
L 234.87719 -176.990293 
L 235.266879 -176.297428 
L 235.658918 -175.604563 
L 236.049901 -174.911698 
L 236.436155 -174.218832 
L 236.813772 -173.525967 
L 237.178637 -172.833102 
L 237.526464 -172.140237 
L 237.852846 -171.447372 
L 238.153325 -170.754506 
L 238.423476 -170.061641 
L 238.659028 -169.368776 
L 238.856014 -168.675911 
L 239.010946 -167.983046 
L 239.121017 -167.29018 
L 239.184311 -166.597315 
L 239.2 -165.90445 
L 239.168519 -165.211585 
L 239.091677 -164.51872 
L 238.972696 -163.825855 
L 238.816151 -163.132989 
L 238.627813 -162.440124 
L 238.414385 -161.747259 
L 238.183148 -161.054394 
L 237.941542 -160.361529 
L 237.696716 -159.668663 
L 237.455079 -158.975798 
L 237.221896 -158.282933 
L 237.000968 -157.590068 
L 236.794416 -156.897203 
L 236.602602 -156.204337 
L 236.424186 -155.511472 
L 236.256314 -154.818607 
L 236.094925 -154.125742 
L 235.935149 -153.432877 
L 235.771752 -152.740011 
L 235.599609 -152.047146 
L 235.41414 -151.354281 
L 235.211702 -150.661416 
L 234.989878 -149.968551 
L 234.747667 -149.275685 
L 234.485547 -148.58282 
L 234.205413 -147.889955 
L 233.910412 -147.19709 
L 233.604679 -146.504225 
L 233.293008 -145.811359 
L 232.980499 -145.118494 
L 232.672195 -144.425629 
L 232.372761 -143.732764 
L 232.086223 -143.039899 
L 231.815779 -142.347034 
L 231.563715 -141.654168 
L 231.331393 -140.961303 
L 231.119331 -140.268438 
L 230.927338 -139.575573 
L 230.754682 -138.882708 
L 230.600276 -138.189842 
L 230.462847 -137.496977 
L 230.341065 -136.804112 
L 230.233641 -136.111247 
L 230.139364 -135.418382 
L 230.057097 -134.725516 
L 229.98574 -134.032651 
L 229.924172 -133.339786 
L 229.871193 -132.646921 
L 229.825478 -131.954056 
L 229.785555 -131.26119 
L 229.749814 -130.568325 
L 229.716548 -129.87546 
L 229.684021 -129.182595 
L 229.650551 -128.48973 
L 229.614604 -127.796864 
L 229.574875 -127.103999 
L 229.530367 -126.411134 
L 229.480431 -125.718269 
L 229.424796 -125.025404 
L 229.363561 -124.332538 
L 229.297168 -123.639673 
L 229.226352 -122.946808 
L 229.15208 -122.253943 
L 229.075478 -121.561078 
L 228.997764 -120.868213 
z
" style="stroke: #000000"/>
    </defs>
    <g clip-path="url(#p0c490cbf6c)">
     <use xlink:href="#m288b2460ea" x="0" y="360" style="fill: #deebf7; stroke: #000000"/>
    </g>
   </g>
   <g id="PolyCollection_5">
    <defs>
     <path id="m2d883f5bf3" d="M 273.820603 -138.015822 
L 270.579397 -138.015822 
L 270.349199 -138.752014 
L 270.106918 -139.488205 
L 269.855015 -140.224397 
L 269.59606 -140.960589 
L 269.332531 -141.69678 
L 269.066595 -142.432972 
L 268.799895 -143.169163 
L 268.533354 -143.905355 
L 268.267038 -144.641547 
L 268.000083 -145.377738 
L 267.730713 -146.11393 
L 267.456356 -146.850121 
L 267.173865 -147.586313 
L 266.879816 -148.322505 
L 266.570889 -149.058696 
L 266.244267 -149.794888 
L 265.898051 -150.531079 
L 265.531622 -151.267271 
L 265.145933 -152.003463 
L 264.743679 -152.739654 
L 264.329349 -153.475846 
L 263.909123 -154.212037 
L 263.490635 -154.948229 
L 263.082608 -155.684421 
L 262.694382 -156.420612 
L 262.335389 -157.156804 
L 262.014584 -157.892995 
L 261.739897 -158.629187 
L 261.517738 -159.365379 
L 261.352585 -160.10157 
L 261.246705 -160.837762 
L 261.2 -161.573953 
L 261.210026 -162.310145 
L 261.272156 -163.046337 
L 261.379896 -163.782528 
L 261.525318 -164.51872 
L 261.699589 -165.254911 
L 261.893541 -165.991103 
L 262.098253 -166.727294 
L 262.305582 -167.463486 
L 262.50861 -168.199678 
L 262.701976 -168.935869 
L 262.882061 -169.672061 
L 263.04703 -170.408252 
L 263.196728 -171.144444 
L 263.332457 -171.880636 
L 263.456664 -172.616827 
L 263.572569 -173.353019 
L 263.683782 -174.08921 
L 263.793942 -174.825402 
L 263.906408 -175.561594 
L 264.024021 -176.297785 
L 264.148963 -177.033977 
L 264.282701 -177.770168 
L 264.426021 -178.50636 
L 264.579135 -179.242552 
L 264.741834 -179.978743 
L 264.913682 -180.714935 
L 265.094198 -181.451126 
L 265.283031 -182.187318 
L 265.480076 -182.92351 
L 265.685542 -183.659701 
L 265.899942 -184.395893 
L 266.124015 -185.132084 
L 266.358585 -185.868276 
L 266.604378 -186.604468 
L 266.861822 -187.340659 
L 267.130854 -188.076851 
L 267.410772 -188.813042 
L 267.700145 -189.549234 
L 267.996808 -190.285426 
L 268.297943 -191.021617 
L 268.600225 -191.757809 
L 268.900045 -192.494 
L 269.193744 -193.230192 
L 269.477858 -193.966384 
L 269.74933 -194.702575 
L 270.00566 -195.438767 
L 270.244999 -196.174958 
L 270.466156 -196.91115 
L 270.668552 -197.647342 
L 270.852121 -198.383533 
L 271.017192 -199.119725 
L 271.164358 -199.855916 
L 271.294375 -200.592108 
L 271.40808 -201.3283 
L 271.506358 -202.064491 
L 271.59013 -202.800683 
L 271.660375 -203.536874 
L 271.718166 -204.273066 
L 271.764702 -205.009258 
L 271.801326 -205.745449 
L 271.829526 -206.481641 
L 271.850903 -207.217832 
L 271.867122 -207.954024 
L 271.879835 -208.690216 
L 271.890603 -209.426407 
L 271.900808 -210.162599 
L 271.911587 -210.89879 
L 272.488413 -210.89879 
L 272.488413 -210.89879 
L 272.499192 -210.162599 
L 272.509397 -209.426407 
L 272.520165 -208.690216 
L 272.532878 -207.954024 
L 272.549097 -207.217832 
L 272.570474 -206.481641 
L 272.598674 -205.745449 
L 272.635298 -205.009258 
L 272.681834 -204.273066 
L 272.739625 -203.536874 
L 272.80987 -202.800683 
L 272.893642 -202.064491 
L 272.99192 -201.3283 
L 273.105625 -200.592108 
L 273.235642 -199.855916 
L 273.382808 -199.119725 
L 273.547879 -198.383533 
L 273.731448 -197.647342 
L 273.933844 -196.91115 
L 274.155001 -196.174958 
L 274.39434 -195.438767 
L 274.65067 -194.702575 
L 274.922142 -193.966384 
L 275.206256 -193.230192 
L 275.499955 -192.494 
L 275.799775 -191.757809 
L 276.102057 -191.021617 
L 276.403192 -190.285426 
L 276.699855 -189.549234 
L 276.989228 -188.813042 
L 277.269146 -188.076851 
L 277.538178 -187.340659 
L 277.795622 -186.604468 
L 278.041415 -185.868276 
L 278.275985 -185.132084 
L 278.500058 -184.395893 
L 278.714458 -183.659701 
L 278.919924 -182.92351 
L 279.116969 -182.187318 
L 279.305802 -181.451126 
L 279.486318 -180.714935 
L 279.658166 -179.978743 
L 279.820865 -179.242552 
L 279.973979 -178.50636 
L 280.117299 -177.770168 
L 280.251037 -177.033977 
L 280.375979 -176.297785 
L 280.493592 -175.561594 
L 280.606058 -174.825402 
L 280.716218 -174.08921 
L 280.827431 -173.353019 
L 280.943336 -172.616827 
L 281.067543 -171.880636 
L 281.203272 -171.144444 
L 281.35297 -170.408252 
L 281.517939 -169.672061 
L 281.698024 -168.935869 
L 281.89139 -168.199678 
L 282.094418 -167.463486 
L 282.301747 -166.727294 
L 282.506459 -165.991103 
L 282.700411 -165.254911 
L 282.874682 -164.51872 
L 283.020104 -163.782528 
L 283.127844 -163.046337 
L 283.189974 -162.310145 
L 283.2 -161.573953 
L 283.153295 -160.837762 
L 283.047415 -160.10157 
L 282.882262 -159.365379 
L 282.660103 -158.629187 
L 282.385416 -157.892995 
L 282.064611 -157.156804 
L 281.705618 -156.420612 
L 281.317392 -155.684421 
L 280.909365 -154.948229 
L 280.490877 -154.212037 
L 280.070651 -153.475846 
L 279.656321 -152.739654 
L 279.254067 -152.003463 
L 278.868378 -151.267271 
L 278.501949 -150.531079 
L 278.155733 -149.794888 
L 277.829111 -149.058696 
L 277.520184 -148.322505 
L 277.226135 -147.586313 
L 276.943644 -146.850121 
L 276.669287 -146.11393 
L 276.399917 -145.377738 
L 276.132962 -144.641547 
L 275.866646 -143.905355 
L 275.600105 -143.169163 
L 275.333405 -142.432972 
L 275.067469 -141.69678 
L 274.80394 -140.960589 
L 274.544985 -140.224397 
L 274.293082 -139.488205 
L 274.050801 -138.752014 
L 273.820603 -138.015822 
z
" style="stroke: #000000"/>
    </defs>
    <g clip-path="url(#p0c490cbf6c)">
     <use xlink:href="#m2d883f5bf3" x="0" y="360" style="fill: #deebf7; stroke: #000000"/>
    </g>
   </g>
   <g id="PolyCollection_6">
    <defs>
     <path id="meebd5d9ad5" d="M 317.391322 -178.564951 
L 315.008678 -178.564951 
L 314.861139 -179.196497 
L 314.705577 -179.828043 
L 314.542856 -180.459588 
L 314.373935 -181.091134 
L 314.199842 -181.72268 
L 314.021638 -182.354225 
L 313.840382 -182.985771 
L 313.657099 -183.617317 
L 313.472752 -184.248862 
L 313.28821 -184.880408 
L 313.104231 -185.511954 
L 312.921434 -186.143499 
L 312.740285 -186.775045 
L 312.561085 -187.406591 
L 312.383951 -188.038136 
L 312.208811 -188.669682 
L 312.035395 -189.301228 
L 311.863235 -189.932773 
L 311.691665 -190.564319 
L 311.519834 -191.195865 
L 311.346726 -191.82741 
L 311.171186 -192.458956 
L 310.991958 -193.090502 
L 310.807732 -193.722047 
L 310.617191 -194.353593 
L 310.419073 -194.985139 
L 310.212223 -195.616684 
L 309.995653 -196.24823 
L 309.768598 -196.879776 
L 309.530568 -197.511321 
L 309.281398 -198.142867 
L 309.021298 -198.774413 
L 308.750889 -199.405958 
L 308.471251 -200.037504 
L 308.183945 -200.66905 
L 307.891042 -201.300595 
L 307.595128 -201.932141 
L 307.299291 -202.563687 
L 307.007092 -203.195232 
L 306.722495 -203.826778 
L 306.449781 -204.458324 
L 306.193423 -205.089869 
L 305.95794 -205.721415 
L 305.747732 -206.352961 
L 305.566904 -206.984506 
L 305.419094 -207.616052 
L 305.307314 -208.247598 
L 305.233816 -208.879143 
L 305.2 -209.510689 
L 305.206357 -210.142235 
L 305.252467 -210.77378 
L 305.337039 -211.405326 
L 305.457993 -212.036872 
L 305.61258 -212.668417 
L 305.797523 -213.299963 
L 306.009169 -213.931509 
L 306.243651 -214.563054 
L 306.497029 -215.1946 
L 306.765421 -215.826146 
L 307.045105 -216.457691 
L 307.332598 -217.089237 
L 307.6247 -217.720783 
L 307.918516 -218.352328 
L 308.211456 -218.983874 
L 308.50122 -219.61542 
L 308.785763 -220.246965 
L 309.063276 -220.878511 
L 309.33215 -221.510057 
L 309.59097 -222.141602 
L 309.8385 -222.773148 
L 310.073704 -223.404694 
L 310.295767 -224.036239 
L 310.504135 -224.667785 
L 310.698562 -225.299331 
L 310.879156 -225.930876 
L 311.04642 -226.562422 
L 311.201286 -227.193968 
L 311.345114 -227.825513 
L 311.479681 -228.457059 
L 311.607126 -229.088605 
L 311.729874 -229.72015 
L 311.850526 -230.351696 
L 311.971736 -230.983242 
L 312.096061 -231.614787 
L 312.225822 -232.246333 
L 312.362972 -232.877879 
L 312.508974 -233.509424 
L 312.664726 -234.14097 
L 312.830509 -234.772516 
L 313.005979 -235.404061 
L 313.190204 -236.035607 
L 313.381727 -236.667153 
L 313.578668 -237.298698 
L 313.778837 -237.930244 
L 313.979859 -238.56179 
L 314.179309 -239.193335 
L 314.374821 -239.824881 
L 314.564195 -240.456427 
L 314.745478 -241.087972 
L 317.654522 -241.087972 
L 317.654522 -241.087972 
L 317.835805 -240.456427 
L 318.025179 -239.824881 
L 318.220691 -239.193335 
L 318.420141 -238.56179 
L 318.621163 -237.930244 
L 318.821332 -237.298698 
L 319.018273 -236.667153 
L 319.209796 -236.035607 
L 319.394021 -235.404061 
L 319.569491 -234.772516 
L 319.735274 -234.14097 
L 319.891026 -233.509424 
L 320.037028 -232.877879 
L 320.174178 -232.246333 
L 320.303939 -231.614787 
L 320.428264 -230.983242 
L 320.549474 -230.351696 
L 320.670126 -229.72015 
L 320.792874 -229.088605 
L 320.920319 -228.457059 
L 321.054886 -227.825513 
L 321.198714 -227.193968 
L 321.35358 -226.562422 
L 321.520844 -225.930876 
L 321.701438 -225.299331 
L 321.895865 -224.667785 
L 322.104233 -224.036239 
L 322.326296 -223.404694 
L 322.5615 -222.773148 
L 322.80903 -222.141602 
L 323.06785 -221.510057 
L 323.336724 -220.878511 
L 323.614237 -220.246965 
L 323.89878 -219.61542 
L 324.188544 -218.983874 
L 324.481484 -218.352328 
L 324.7753 -217.720783 
L 325.067402 -217.089237 
L 325.354895 -216.457691 
L 325.634579 -215.826146 
L 325.902971 -215.1946 
L 326.156349 -214.563054 
L 326.390831 -213.931509 
L 326.602477 -213.299963 
L 326.78742 -212.668417 
L 326.942007 -212.036872 
L 327.062961 -211.405326 
L 327.147533 -210.77378 
L 327.193643 -210.142235 
L 327.2 -209.510689 
L 327.166184 -208.879143 
L 327.092686 -208.247598 
L 326.980906 -207.616052 
L 326.833096 -206.984506 
L 326.652268 -206.352961 
L 326.44206 -205.721415 
L 326.206577 -205.089869 
L 325.950219 -204.458324 
L 325.677505 -203.826778 
L 325.392908 -203.195232 
L 325.100709 -202.563687 
L 324.804872 -201.932141 
L 324.508958 -201.300595 
L 324.216055 -200.66905 
L 323.928749 -200.037504 
L 323.649111 -199.405958 
L 323.378702 -198.774413 
L 323.118602 -198.142867 
L 322.869432 -197.511321 
L 322.631402 -196.879776 
L 322.404347 -196.24823 
L 322.187777 -195.616684 
L 321.980927 -194.985139 
L 321.782809 -194.353593 
L 321.592268 -193.722047 
L 321.408042 -193.090502 
L 321.228814 -192.458956 
L 321.053274 -191.82741 
L 320.880166 -191.195865 
L 320.708335 -190.564319 
L 320.536765 -189.932773 
L 320.364605 -189.301228 
L 320.191189 -188.669682 
L 320.016049 -188.038136 
L 319.838915 -187.406591 
L 319.659715 -186.775045 
L 319.478566 -186.143499 
L 319.295769 -185.511954 
L 319.11179 -184.880408 
L 318.927248 -184.248862 
L 318.742901 -183.617317 
L 318.559618 -182.985771 
L 318.378362 -182.354225 
L 318.200158 -181.72268 
L 318.026065 -181.091134 
L 317.857144 -180.459588 
L 317.694423 -179.828043 
L 317.538861 -179.196497 
L 317.391322 -178.564951 
z
" style="stroke: #000000"/>
    </defs>
    <g clip-path="url(#p0c490cbf6c)">
     <use xlink:href="#meebd5d9ad5" x="0" y="360" style="fill: #f8cbad; stroke: #000000"/>
    </g>
   </g>
   <g id="LineCollection_1">
    <path d="M 96.2 247.7072 
L 96.2 230.55959 
" clip-path="url(#p0c490cbf6c)" style="fill: none; stroke: #000000; stroke-width: 5"/>
    <path d="M 140.2 234.845689 
L 140.2 217.698079 
" clip-path="url(#p0c490cbf6c)" style="fill: none; stroke: #000000; stroke-width: 5"/>
    <path d="M 184.2 239.131787 
L 184.2 220.912653 
" clip-path="url(#p0c490cbf6c)" style="fill: none; stroke: #000000; stroke-width: 5"/>
    <path d="M 228.2 209.122667 
L 228.2 187.685743 
" clip-path="url(#p0c490cbf6c)" style="fill: none; stroke: #000000; stroke-width: 5"/>
    <path d="M 272.2 200.547254 
L 272.2 183.399644 
" clip-path="url(#p0c490cbf6c)" style="fill: none; stroke: #000000; stroke-width: 5"/>
    <path d="M 316.2 159.10425 
L 316.2 141.242826 
" clip-path="url(#p0c490cbf6c)" style="fill: none; stroke: #000000; stroke-width: 5"/>
   </g>
   <g id="LineCollection_2">
    <path d="M 96.2 247.7072 
L 96.2 239.131787 
" clip-path="url(#p0c490cbf6c)" style="fill: none; stroke: #000000"/>
    <path d="M 140.2 234.845689 
L 140.2 256.282613 
" clip-path="url(#p0c490cbf6c)" style="fill: none; stroke: #000000"/>
    <path d="M 184.2 239.131787 
L 184.2 230.55959 
" clip-path="url(#p0c490cbf6c)" style="fill: none; stroke: #000000"/>
    <path d="M 228.2 209.122667 
L 228.2 239.131787 
" clip-path="url(#p0c490cbf6c)" style="fill: none; stroke: #000000"/>
    <path d="M 272.2 200.547254 
L 272.2 200.547254 
" clip-path="url(#p0c490cbf6c)" style="fill: none; stroke: #000000"/>
    <path d="M 316.2 159.10425 
L 316.2 168.036569 
" clip-path="url(#p0c490cbf6c)" style="fill: none; stroke: #000000"/>
   </g>
   <g id="patch_3">
    <path d="M 63.2 305.584 
L 63.2 16.2 
" style="fill: none; stroke: #000000; stroke-width: 0.8; stroke-linejoin: miter; stroke-linecap: square"/>
   </g>
   <g id="patch_4">
    <path d="M 349.2 305.584 
L 349.2 16.2 
" style="fill: none; stroke: #000000; stroke-width: 0.8; stroke-linejoin: miter; stroke-linecap: square"/>
   </g>
   <g id="patch_5">
    <path d="M 63.2 305.584 
L 349.2 305.584 
" style="fill: none; stroke: #000000; stroke-width: 0.8; stroke-linejoin: miter; stroke-linecap: square"/>
   </g>
   <g id="patch_6">
    <path d="M 63.2 16.2 
L 349.2 16.2 
" style="fill: none; stroke: #000000; stroke-width: 0.8; stroke-linejoin: miter; stroke-linecap: square"/>
   </g>
   <g id="PathCollection_1">
    <defs>
     <path id="m5041ccf598" d="M 0 2.738613 
C 0.726289 2.738613 1.422928 2.450055 1.936492 1.936492 
C 2.450055 1.422928 2.738613 0.726289 2.738613 0 
C 2.738613 -0.726289 2.450055 -1.422928 1.936492 -1.936492 
C 1.422928 -2.450055 0.726289 -2.738613 0 -2.738613 
C -0.726289 -2.738613 -1.422928 -2.450055 -1.936492 -1.936492 
C -2.450055 -1.422928 -2.738613 -0.726289 -2.738613 0 
C -2.738613 0.726289 -2.450055 1.422928 -1.936492 1.936492 
C -1.422928 2.450055 -0.726289 2.738613 0 2.738613 
z
" style="stroke: #ffffff"/>
    </defs>
    <g clip-path="url(#p0c490cbf6c)">
     <use xlink:href="#m5041ccf598" x="96.2" y="236.988738" style="fill: #ffffff; stroke: #ffffff"/>
     <use xlink:href="#m5041ccf598" x="140.2" y="226.270276" style="fill: #ffffff; stroke: #ffffff"/>
     <use xlink:href="#m5041ccf598" x="184.2" y="230.55959" style="fill: #ffffff; stroke: #ffffff"/>
     <use xlink:href="#m5041ccf598" x="228.2" y="196.261156" style="fill: #ffffff; stroke: #ffffff"/>
     <use xlink:href="#m5041ccf598" x="272.2" y="196.261156" style="fill: #ffffff; stroke: #ffffff"/>
     <use xlink:href="#m5041ccf598" x="316.2" y="150.175146" style="fill: #ffffff; stroke: #ffffff"/>
    </g>
   </g>
  </g>
 </g>
 <defs>
  <clipPath id="p0c490cbf6c">
   <rect x="63.2" y="16.2" width="286" height="289.384"/>
  </clipPath>
 </defs>
</svg>
