<?xml version="1.0" encoding="utf-8" standalone="no"?>
<!DOCTYPE svg PUBLIC "-//W3C//DTD SVG 1.1//EN"
  "http://www.w3.org/Graphics/SVG/1.1/DTD/svg11.dtd">
<svg xmlns:xlink="http://www.w3.org/1999/xlink" width="360pt" height="360pt" viewBox="0 0 360 360" xmlns="http://www.w3.org/2000/svg" version="1.1">
 <metadata>
  <rdf:RDF xmlns:dc="http://purl.org/dc/elements/1.1/" xmlns:cc="http://creativecommons.org/ns#" xmlns:rdf="http://www.w3.org/1999/02/22-rdf-syntax-ns#">
   <cc:Work>
    <dc:type rdf:resource="http://purl.org/dc/dcmitype/StillImage"/>
    <dc:date>2022-07-06T10:29:08.828202</dc:date>
    <dc:format>image/svg+xml</dc:format>
    <dc:creator>
     <cc:Agent>
      <dc:title>Matplotlib v3.5.1, https://matplotlib.org/</dc:title>
     </cc:Agent>
    </dc:creator>
   </cc:Work>
  </rdf:RDF>
 </metadata>
 <defs>
  <style type="text/css">*{stroke-linejoin: round; stroke-linecap: butt}</style>
 </defs>
 <g id="figure_1">
  <g id="patch_1">
   <path d="M 0 360 
L 360 360 
L 360 0 
L 0 0 
L 0 360 
z
" style="fill: none"/>
  </g>
  <g id="axes_1">
   <g id="patch_2">
    <path d="M 58.52 305.584 
L 349.2 305.584 
L 349.2 16.2 
L 58.52 16.2 
L 58.52 305.584 
z
" style="fill: none"/>
   </g>
   <g id="matplotlib.axis_1">
    <g id="xtick_1">
     <g id="line2d_1">
      <defs>
       <path id="m5a2d3d34e1" d="M 0 0 
L 0 3.5 
" style="stroke: #000000; stroke-width: 0.8"/>
      </defs>
      <g>
       <use xlink:href="#m5a2d3d34e1" x="92.06" y="305.584" style="stroke: #000000; stroke-width: 0.8"/>
      </g>
     </g>
     <g id="text_1">
      <!-- 10 -->
      <g transform="translate(83.1525 323.221812)scale(0.14 -0.14)">
       <defs>
        <path id="DejaVuSans-31" d="M 794 531 
L 1825 531 
L 1825 4091 
L 703 3866 
L 703 4441 
L 1819 4666 
L 2450 4666 
L 2450 531 
L 3481 531 
L 3481 0 
L 794 0 
L 794 531 
z
" transform="scale(0.015625)"/>
        <path id="DejaVuSans-30" d="M 2034 4250 
Q 1547 4250 1301 3770 
Q 1056 3291 1056 2328 
Q 1056 1369 1301 889 
Q 1547 409 2034 409 
Q 2525 409 2770 889 
Q 3016 1369 3016 2328 
Q 3016 3291 2770 3770 
Q 2525 4250 2034 4250 
z
M 2034 4750 
Q 2819 4750 3233 4129 
Q 3647 3509 3647 2328 
Q 3647 1150 3233 529 
Q 2819 -91 2034 -91 
Q 1250 -91 836 529 
Q 422 1150 422 2328 
Q 422 3509 836 4129 
Q 1250 4750 2034 4750 
z
" transform="scale(0.015625)"/>
       </defs>
       <use xlink:href="#DejaVuSans-31"/>
       <use xlink:href="#DejaVuSans-30" x="63.623047"/>
      </g>
     </g>
    </g>
    <g id="xtick_2">
     <g id="line2d_2">
      <g>
       <use xlink:href="#m5a2d3d34e1" x="136.78" y="305.584" style="stroke: #000000; stroke-width: 0.8"/>
      </g>
     </g>
     <g id="text_2">
      <!-- 20 -->
      <g transform="translate(127.8725 323.221812)scale(0.14 -0.14)">
       <defs>
        <path id="DejaVuSans-32" d="M 1228 531 
L 3431 531 
L 3431 0 
L 469 0 
L 469 531 
Q 828 903 1448 1529 
Q 2069 2156 2228 2338 
Q 2531 2678 2651 2914 
Q 2772 3150 2772 3378 
Q 2772 3750 2511 3984 
Q 2250 4219 1831 4219 
Q 1534 4219 1204 4116 
Q 875 4013 500 3803 
L 500 4441 
Q 881 4594 1212 4672 
Q 1544 4750 1819 4750 
Q 2544 4750 2975 4387 
Q 3406 4025 3406 3419 
Q 3406 3131 3298 2873 
Q 3191 2616 2906 2266 
Q 2828 2175 2409 1742 
Q 1991 1309 1228 531 
z
" transform="scale(0.015625)"/>
       </defs>
       <use xlink:href="#DejaVuSans-32"/>
       <use xlink:href="#DejaVuSans-30" x="63.623047"/>
      </g>
     </g>
    </g>
    <g id="xtick_3">
     <g id="line2d_3">
      <g>
       <use xlink:href="#m5a2d3d34e1" x="181.5" y="305.584" style="stroke: #000000; stroke-width: 0.8"/>
      </g>
     </g>
     <g id="text_3">
      <!-- 30 -->
      <g transform="translate(172.5925 323.221812)scale(0.14 -0.14)">
       <defs>
        <path id="DejaVuSans-33" d="M 2597 2516 
Q 3050 2419 3304 2112 
Q 3559 1806 3559 1356 
Q 3559 666 3084 287 
Q 2609 -91 1734 -91 
Q 1441 -91 1130 -33 
Q 819 25 488 141 
L 488 750 
Q 750 597 1062 519 
Q 1375 441 1716 441 
Q 2309 441 2620 675 
Q 2931 909 2931 1356 
Q 2931 1769 2642 2001 
Q 2353 2234 1838 2234 
L 1294 2234 
L 1294 2753 
L 1863 2753 
Q 2328 2753 2575 2939 
Q 2822 3125 2822 3475 
Q 2822 3834 2567 4026 
Q 2313 4219 1838 4219 
Q 1578 4219 1281 4162 
Q 984 4106 628 3988 
L 628 4550 
Q 988 4650 1302 4700 
Q 1616 4750 1894 4750 
Q 2613 4750 3031 4423 
Q 3450 4097 3450 3541 
Q 3450 3153 3228 2886 
Q 3006 2619 2597 2516 
z
" transform="scale(0.015625)"/>
       </defs>
       <use xlink:href="#DejaVuSans-33"/>
       <use xlink:href="#DejaVuSans-30" x="63.623047"/>
      </g>
     </g>
    </g>
    <g id="xtick_4">
     <g id="line2d_4">
      <g>
       <use xlink:href="#m5a2d3d34e1" x="226.22" y="305.584" style="stroke: #000000; stroke-width: 0.8"/>
      </g>
     </g>
     <g id="text_4">
      <!-- 50 -->
      <g transform="translate(217.3125 323.221812)scale(0.14 -0.14)">
       <defs>
        <path id="DejaVuSans-35" d="M 691 4666 
L 3169 4666 
L 3169 4134 
L 1269 4134 
L 1269 2991 
Q 1406 3038 1543 3061 
Q 1681 3084 1819 3084 
Q 2600 3084 3056 2656 
Q 3513 2228 3513 1497 
Q 3513 744 3044 326 
Q 2575 -91 1722 -91 
Q 1428 -91 1123 -41 
Q 819 9 494 109 
L 494 744 
Q 775 591 1075 516 
Q 1375 441 1709 441 
Q 2250 441 2565 725 
Q 2881 1009 2881 1497 
Q 2881 1984 2565 2268 
Q 2250 2553 1709 2553 
Q 1456 2553 1204 2497 
Q 953 2441 691 2322 
L 691 4666 
z
" transform="scale(0.015625)"/>
       </defs>
       <use xlink:href="#DejaVuSans-35"/>
       <use xlink:href="#DejaVuSans-30" x="63.623047"/>
      </g>
     </g>
    </g>
    <g id="xtick_5">
     <g id="line2d_5">
      <g>
       <use xlink:href="#m5a2d3d34e1" x="270.94" y="305.584" style="stroke: #000000; stroke-width: 0.8"/>
      </g>
     </g>
     <g id="text_5">
      <!-- 64 -->
      <g transform="translate(262.0325 323.221812)scale(0.14 -0.14)">
       <defs>
        <path id="DejaVuSans-36" d="M 2113 2584 
Q 1688 2584 1439 2293 
Q 1191 2003 1191 1497 
Q 1191 994 1439 701 
Q 1688 409 2113 409 
Q 2538 409 2786 701 
Q 3034 994 3034 1497 
Q 3034 2003 2786 2293 
Q 2538 2584 2113 2584 
z
M 3366 4563 
L 3366 3988 
Q 3128 4100 2886 4159 
Q 2644 4219 2406 4219 
Q 1781 4219 1451 3797 
Q 1122 3375 1075 2522 
Q 1259 2794 1537 2939 
Q 1816 3084 2150 3084 
Q 2853 3084 3261 2657 
Q 3669 2231 3669 1497 
Q 3669 778 3244 343 
Q 2819 -91 2113 -91 
Q 1303 -91 875 529 
Q 447 1150 447 2328 
Q 447 3434 972 4092 
Q 1497 4750 2381 4750 
Q 2619 4750 2861 4703 
Q 3103 4656 3366 4563 
z
" transform="scale(0.015625)"/>
        <path id="DejaVuSans-34" d="M 2419 4116 
L 825 1625 
L 2419 1625 
L 2419 4116 
z
M 2253 4666 
L 3047 4666 
L 3047 1625 
L 3713 1625 
L 3713 1100 
L 3047 1100 
L 3047 0 
L 2419 0 
L 2419 1100 
L 313 1100 
L 313 1709 
L 2253 4666 
z
" transform="scale(0.015625)"/>
       </defs>
       <use xlink:href="#DejaVuSans-36"/>
       <use xlink:href="#DejaVuSans-34" x="63.623047"/>
      </g>
     </g>
    </g>
    <g id="xtick_6">
     <g id="line2d_6">
      <g>
       <use xlink:href="#m5a2d3d34e1" x="315.66" y="305.584" style="stroke: #000000; stroke-width: 0.8"/>
      </g>
     </g>
     <g id="text_6">
      <!-- $\bf{10_{3T}}$ -->
      <g transform="translate(298.86 323.221812)scale(0.14 -0.14)">
       <defs>
        <path id="DejaVuSans-Bold-31" d="M 750 831 
L 1813 831 
L 1813 3847 
L 722 3622 
L 722 4441 
L 1806 4666 
L 2950 4666 
L 2950 831 
L 4013 831 
L 4013 0 
L 750 0 
L 750 831 
z
" transform="scale(0.015625)"/>
        <path id="DejaVuSans-Bold-30" d="M 2944 2338 
Q 2944 3213 2780 3570 
Q 2616 3928 2228 3928 
Q 1841 3928 1675 3570 
Q 1509 3213 1509 2338 
Q 1509 1453 1675 1090 
Q 1841 728 2228 728 
Q 2613 728 2778 1090 
Q 2944 1453 2944 2338 
z
M 4147 2328 
Q 4147 1169 3647 539 
Q 3147 -91 2228 -91 
Q 1306 -91 806 539 
Q 306 1169 306 2328 
Q 306 3491 806 4120 
Q 1306 4750 2228 4750 
Q 3147 4750 3647 4120 
Q 4147 3491 4147 2328 
z
" transform="scale(0.015625)"/>
        <path id="DejaVuSans-Bold-33" d="M 2981 2516 
Q 3453 2394 3698 2092 
Q 3944 1791 3944 1325 
Q 3944 631 3412 270 
Q 2881 -91 1863 -91 
Q 1503 -91 1142 -33 
Q 781 25 428 141 
L 428 1069 
Q 766 900 1098 814 
Q 1431 728 1753 728 
Q 2231 728 2486 893 
Q 2741 1059 2741 1369 
Q 2741 1688 2480 1852 
Q 2219 2016 1709 2016 
L 1228 2016 
L 1228 2791 
L 1734 2791 
Q 2188 2791 2409 2933 
Q 2631 3075 2631 3366 
Q 2631 3634 2415 3781 
Q 2200 3928 1806 3928 
Q 1516 3928 1219 3862 
Q 922 3797 628 3669 
L 628 4550 
Q 984 4650 1334 4700 
Q 1684 4750 2022 4750 
Q 2931 4750 3382 4451 
Q 3834 4153 3834 3553 
Q 3834 3144 3618 2883 
Q 3403 2622 2981 2516 
z
" transform="scale(0.015625)"/>
        <path id="DejaVuSans-Bold-54" d="M 31 4666 
L 4331 4666 
L 4331 3756 
L 2784 3756 
L 2784 0 
L 1581 0 
L 1581 3756 
L 31 3756 
L 31 4666 
z
" transform="scale(0.015625)"/>
       </defs>
       <use xlink:href="#DejaVuSans-Bold-31" transform="translate(0 0.78125)"/>
       <use xlink:href="#DejaVuSans-Bold-30" transform="translate(69.580078 0.78125)"/>
       <use xlink:href="#DejaVuSans-Bold-33" transform="translate(140.117188 -15.625)scale(0.7)"/>
       <use xlink:href="#DejaVuSans-Bold-54" transform="translate(188.823242 -15.625)scale(0.7)"/>
      </g>
     </g>
    </g>
    <g id="xtick_7"/>
    <g id="xtick_8"/>
    <g id="xtick_9"/>
    <g id="xtick_10"/>
    <g id="xtick_11"/>
    <g id="xtick_12"/>
    <g id="xtick_13"/>
    <g id="xtick_14"/>
    <g id="xtick_15"/>
    <g id="xtick_16"/>
    <g id="xtick_17"/>
    <g id="xtick_18"/>
    <g id="xtick_19"/>
    <g id="xtick_20"/>
    <g id="xtick_21"/>
    <g id="xtick_22"/>
    <g id="xtick_23"/>
    <g id="xtick_24"/>
    <g id="xtick_25"/>
    <g id="xtick_26"/>
    <g id="xtick_27"/>
    <g id="xtick_28"/>
    <g id="xtick_29"/>
    <g id="xtick_30"/>
    <g id="xtick_31"/>
    <g id="xtick_32"/>
    <g id="text_7">
     <!-- $n_{conf}$ -->
     <g transform="translate(184.33 343.810563)scale(0.18 -0.18)">
      <defs>
       <path id="DejaVuSans-Oblique-6e" d="M 3566 2113 
L 3156 0 
L 2578 0 
L 2988 2091 
Q 3016 2238 3031 2350 
Q 3047 2463 3047 2528 
Q 3047 2791 2881 2937 
Q 2716 3084 2419 3084 
Q 1956 3084 1622 2776 
Q 1288 2469 1184 1941 
L 800 0 
L 225 0 
L 903 3500 
L 1478 3500 
L 1363 2950 
Q 1603 3253 1940 3418 
Q 2278 3584 2650 3584 
Q 3113 3584 3367 3334 
Q 3622 3084 3622 2631 
Q 3622 2519 3608 2391 
Q 3594 2263 3566 2113 
z
" transform="scale(0.015625)"/>
       <path id="DejaVuSans-Oblique-63" d="M 3431 3366 
L 3316 2797 
Q 3109 2947 2876 3022 
Q 2644 3097 2394 3097 
Q 2119 3097 1870 3000 
Q 1622 2903 1453 2725 
Q 1184 2453 1037 2087 
Q 891 1722 891 1331 
Q 891 859 1127 628 
Q 1363 397 1844 397 
Q 2081 397 2348 469 
Q 2616 541 2906 684 
L 2797 116 
Q 2547 13 2283 -39 
Q 2019 -91 1741 -91 
Q 1044 -91 669 257 
Q 294 606 294 1253 
Q 294 1797 489 2255 
Q 684 2713 1069 3078 
Q 1331 3328 1684 3456 
Q 2038 3584 2456 3584 
Q 2700 3584 2940 3529 
Q 3181 3475 3431 3366 
z
" transform="scale(0.015625)"/>
       <path id="DejaVuSans-Oblique-6f" d="M 1625 -91 
Q 1009 -91 651 289 
Q 294 669 294 1325 
Q 294 1706 417 2101 
Q 541 2497 738 2766 
Q 1047 3184 1428 3384 
Q 1809 3584 2291 3584 
Q 2888 3584 3255 3212 
Q 3622 2841 3622 2241 
Q 3622 1825 3500 1412 
Q 3378 1000 3181 728 
Q 2875 309 2494 109 
Q 2113 -91 1625 -91 
z
M 891 1344 
Q 891 869 1089 633 
Q 1288 397 1691 397 
Q 2269 397 2648 901 
Q 3028 1406 3028 2181 
Q 3028 2634 2825 2865 
Q 2622 3097 2228 3097 
Q 1903 3097 1650 2945 
Q 1397 2794 1197 2484 
Q 1050 2253 970 1956 
Q 891 1659 891 1344 
z
" transform="scale(0.015625)"/>
       <path id="DejaVuSans-Oblique-66" d="M 3059 4863 
L 2969 4384 
L 2419 4384 
Q 2106 4384 1964 4261 
Q 1822 4138 1753 3809 
L 1691 3500 
L 2638 3500 
L 2553 3053 
L 1606 3053 
L 1013 0 
L 434 0 
L 1031 3053 
L 481 3053 
L 563 3500 
L 1113 3500 
L 1159 3744 
Q 1278 4363 1576 4613 
Q 1875 4863 2516 4863 
L 3059 4863 
z
" transform="scale(0.015625)"/>
      </defs>
      <use xlink:href="#DejaVuSans-Oblique-6e"/>
      <use xlink:href="#DejaVuSans-Oblique-63" transform="translate(63.378906 -16.40625)scale(0.7)"/>
      <use xlink:href="#DejaVuSans-Oblique-6f" transform="translate(101.865234 -16.40625)scale(0.7)"/>
      <use xlink:href="#DejaVuSans-Oblique-6e" transform="translate(144.692383 -16.40625)scale(0.7)"/>
      <use xlink:href="#DejaVuSans-Oblique-66" transform="translate(189.057617 -16.40625)scale(0.7)"/>
     </g>
    </g>
   </g>
   <g id="matplotlib.axis_2">
    <g id="ytick_1">
     <g id="line2d_7">
      <path d="M 58.52 305.584 
L 349.2 305.584 
" clip-path="url(#p1e44e5c0aa)" style="fill: none; stroke: #666666; stroke-width: 0.8; stroke-linecap: square"/>
     </g>
     <g id="line2d_8">
      <defs>
       <path id="m2a8168f0f0" d="M 0 0 
L -3.5 0 
" style="stroke: #000000; stroke-width: 0.8"/>
      </defs>
      <g>
       <use xlink:href="#m2a8168f0f0" x="58.52" y="305.584" style="stroke: #000000; stroke-width: 0.8"/>
      </g>
     </g>
     <g id="text_8">
      <!-- 0.5 -->
      <g transform="translate(29.255625 310.902906)scale(0.14 -0.14)">
       <defs>
        <path id="DejaVuSans-2e" d="M 684 794 
L 1344 794 
L 1344 0 
L 684 0 
L 684 794 
z
" transform="scale(0.015625)"/>
       </defs>
       <use xlink:href="#DejaVuSans-30"/>
       <use xlink:href="#DejaVuSans-2e" x="63.623047"/>
       <use xlink:href="#DejaVuSans-35" x="95.410156"/>
      </g>
     </g>
    </g>
    <g id="ytick_2">
     <g id="line2d_9">
      <path d="M 58.52 247.7072 
L 349.2 247.7072 
" clip-path="url(#p1e44e5c0aa)" style="fill: none; stroke: #666666; stroke-width: 0.8; stroke-linecap: square"/>
     </g>
     <g id="line2d_10">
      <g>
       <use xlink:href="#m2a8168f0f0" x="58.52" y="247.7072" style="stroke: #000000; stroke-width: 0.8"/>
      </g>
     </g>
     <g id="text_9">
      <!-- 0.6 -->
      <g transform="translate(29.255625 253.026106)scale(0.14 -0.14)">
       <use xlink:href="#DejaVuSans-30"/>
       <use xlink:href="#DejaVuSans-2e" x="63.623047"/>
       <use xlink:href="#DejaVuSans-36" x="95.410156"/>
      </g>
     </g>
    </g>
    <g id="ytick_3">
     <g id="line2d_11">
      <path d="M 58.52 189.8304 
L 349.2 189.8304 
" clip-path="url(#p1e44e5c0aa)" style="fill: none; stroke: #666666; stroke-width: 0.8; stroke-linecap: square"/>
     </g>
     <g id="line2d_12">
      <g>
       <use xlink:href="#m2a8168f0f0" x="58.52" y="189.8304" style="stroke: #000000; stroke-width: 0.8"/>
      </g>
     </g>
     <g id="text_10">
      <!-- 0.7 -->
      <g transform="translate(29.255625 195.149306)scale(0.14 -0.14)">
       <defs>
        <path id="DejaVuSans-37" d="M 525 4666 
L 3525 4666 
L 3525 4397 
L 1831 0 
L 1172 0 
L 2766 4134 
L 525 4134 
L 525 4666 
z
" transform="scale(0.015625)"/>
       </defs>
       <use xlink:href="#DejaVuSans-30"/>
       <use xlink:href="#DejaVuSans-2e" x="63.623047"/>
       <use xlink:href="#DejaVuSans-37" x="95.410156"/>
      </g>
     </g>
    </g>
    <g id="ytick_4">
     <g id="line2d_13">
      <path d="M 58.52 131.9536 
L 349.2 131.9536 
" clip-path="url(#p1e44e5c0aa)" style="fill: none; stroke: #666666; stroke-width: 0.8; stroke-linecap: square"/>
     </g>
     <g id="line2d_14">
      <g>
       <use xlink:href="#m2a8168f0f0" x="58.52" y="131.9536" style="stroke: #000000; stroke-width: 0.8"/>
      </g>
     </g>
     <g id="text_11">
      <!-- 0.8 -->
      <g transform="translate(29.255625 137.272506)scale(0.14 -0.14)">
       <defs>
        <path id="DejaVuSans-38" d="M 2034 2216 
Q 1584 2216 1326 1975 
Q 1069 1734 1069 1313 
Q 1069 891 1326 650 
Q 1584 409 2034 409 
Q 2484 409 2743 651 
Q 3003 894 3003 1313 
Q 3003 1734 2745 1975 
Q 2488 2216 2034 2216 
z
M 1403 2484 
Q 997 2584 770 2862 
Q 544 3141 544 3541 
Q 544 4100 942 4425 
Q 1341 4750 2034 4750 
Q 2731 4750 3128 4425 
Q 3525 4100 3525 3541 
Q 3525 3141 3298 2862 
Q 3072 2584 2669 2484 
Q 3125 2378 3379 2068 
Q 3634 1759 3634 1313 
Q 3634 634 3220 271 
Q 2806 -91 2034 -91 
Q 1263 -91 848 271 
Q 434 634 434 1313 
Q 434 1759 690 2068 
Q 947 2378 1403 2484 
z
M 1172 3481 
Q 1172 3119 1398 2916 
Q 1625 2713 2034 2713 
Q 2441 2713 2670 2916 
Q 2900 3119 2900 3481 
Q 2900 3844 2670 4047 
Q 2441 4250 2034 4250 
Q 1625 4250 1398 4047 
Q 1172 3844 1172 3481 
z
" transform="scale(0.015625)"/>
       </defs>
       <use xlink:href="#DejaVuSans-30"/>
       <use xlink:href="#DejaVuSans-2e" x="63.623047"/>
       <use xlink:href="#DejaVuSans-38" x="95.410156"/>
      </g>
     </g>
    </g>
    <g id="ytick_5">
     <g id="line2d_15">
      <path d="M 58.52 74.0768 
L 349.2 74.0768 
" clip-path="url(#p1e44e5c0aa)" style="fill: none; stroke: #666666; stroke-width: 0.8; stroke-linecap: square"/>
     </g>
     <g id="line2d_16">
      <g>
       <use xlink:href="#m2a8168f0f0" x="58.52" y="74.0768" style="stroke: #000000; stroke-width: 0.8"/>
      </g>
     </g>
     <g id="text_12">
      <!-- 0.9 -->
      <g transform="translate(29.255625 79.395706)scale(0.14 -0.14)">
       <defs>
        <path id="DejaVuSans-39" d="M 703 97 
L 703 672 
Q 941 559 1184 500 
Q 1428 441 1663 441 
Q 2288 441 2617 861 
Q 2947 1281 2994 2138 
Q 2813 1869 2534 1725 
Q 2256 1581 1919 1581 
Q 1219 1581 811 2004 
Q 403 2428 403 3163 
Q 403 3881 828 4315 
Q 1253 4750 1959 4750 
Q 2769 4750 3195 4129 
Q 3622 3509 3622 2328 
Q 3622 1225 3098 567 
Q 2575 -91 1691 -91 
Q 1453 -91 1209 -44 
Q 966 3 703 97 
z
M 1959 2075 
Q 2384 2075 2632 2365 
Q 2881 2656 2881 3163 
Q 2881 3666 2632 3958 
Q 2384 4250 1959 4250 
Q 1534 4250 1286 3958 
Q 1038 3666 1038 3163 
Q 1038 2656 1286 2365 
Q 1534 2075 1959 2075 
z
" transform="scale(0.015625)"/>
       </defs>
       <use xlink:href="#DejaVuSans-30"/>
       <use xlink:href="#DejaVuSans-2e" x="63.623047"/>
       <use xlink:href="#DejaVuSans-39" x="95.410156"/>
      </g>
     </g>
    </g>
    <g id="ytick_6">
     <g id="line2d_17">
      <path d="M 58.52 16.2 
L 349.2 16.2 
" clip-path="url(#p1e44e5c0aa)" style="fill: none; stroke: #666666; stroke-width: 0.8; stroke-linecap: square"/>
     </g>
     <g id="line2d_18">
      <g>
       <use xlink:href="#m2a8168f0f0" x="58.52" y="16.2" style="stroke: #000000; stroke-width: 0.8"/>
      </g>
     </g>
     <g id="text_13">
      <!-- 1.0 -->
      <g transform="translate(29.255625 21.518906)scale(0.14 -0.14)">
       <use xlink:href="#DejaVuSans-31"/>
       <use xlink:href="#DejaVuSans-2e" x="63.623047"/>
       <use xlink:href="#DejaVuSans-30" x="95.410156"/>
      </g>
     </g>
    </g>
    <g id="ytick_7">
     <g id="line2d_19">
      <path d="M 58.52 294.00864 
L 349.2 294.00864 
" clip-path="url(#p1e44e5c0aa)" style="fill: none; stroke: #999999; stroke-opacity: 0.2; stroke-width: 0.8; stroke-linecap: square"/>
     </g>
     <g id="line2d_20">
      <defs>
       <path id="md1bfbd56b3" d="M 0 0 
L -2 0 
" style="stroke: #000000; stroke-width: 0.6"/>
      </defs>
      <g>
       <use xlink:href="#md1bfbd56b3" x="58.52" y="294.00864" style="stroke: #000000; stroke-width: 0.6"/>
      </g>
     </g>
    </g>
    <g id="ytick_8">
     <g id="line2d_21">
      <path d="M 58.52 282.43328 
L 349.2 282.43328 
" clip-path="url(#p1e44e5c0aa)" style="fill: none; stroke: #999999; stroke-opacity: 0.2; stroke-width: 0.8; stroke-linecap: square"/>
     </g>
     <g id="line2d_22">
      <g>
       <use xlink:href="#md1bfbd56b3" x="58.52" y="282.43328" style="stroke: #000000; stroke-width: 0.6"/>
      </g>
     </g>
    </g>
    <g id="ytick_9">
     <g id="line2d_23">
      <path d="M 58.52 270.85792 
L 349.2 270.85792 
" clip-path="url(#p1e44e5c0aa)" style="fill: none; stroke: #999999; stroke-opacity: 0.2; stroke-width: 0.8; stroke-linecap: square"/>
     </g>
     <g id="line2d_24">
      <g>
       <use xlink:href="#md1bfbd56b3" x="58.52" y="270.85792" style="stroke: #000000; stroke-width: 0.6"/>
      </g>
     </g>
    </g>
    <g id="ytick_10">
     <g id="line2d_25">
      <path d="M 58.52 259.28256 
L 349.2 259.28256 
" clip-path="url(#p1e44e5c0aa)" style="fill: none; stroke: #999999; stroke-opacity: 0.2; stroke-width: 0.8; stroke-linecap: square"/>
     </g>
     <g id="line2d_26">
      <g>
       <use xlink:href="#md1bfbd56b3" x="58.52" y="259.28256" style="stroke: #000000; stroke-width: 0.6"/>
      </g>
     </g>
    </g>
    <g id="ytick_11">
     <g id="line2d_27">
      <path d="M 58.52 236.13184 
L 349.2 236.13184 
" clip-path="url(#p1e44e5c0aa)" style="fill: none; stroke: #999999; stroke-opacity: 0.2; stroke-width: 0.8; stroke-linecap: square"/>
     </g>
     <g id="line2d_28">
      <g>
       <use xlink:href="#md1bfbd56b3" x="58.52" y="236.13184" style="stroke: #000000; stroke-width: 0.6"/>
      </g>
     </g>
    </g>
    <g id="ytick_12">
     <g id="line2d_29">
      <path d="M 58.52 224.55648 
L 349.2 224.55648 
" clip-path="url(#p1e44e5c0aa)" style="fill: none; stroke: #999999; stroke-opacity: 0.2; stroke-width: 0.8; stroke-linecap: square"/>
     </g>
     <g id="line2d_30">
      <g>
       <use xlink:href="#md1bfbd56b3" x="58.52" y="224.55648" style="stroke: #000000; stroke-width: 0.6"/>
      </g>
     </g>
    </g>
    <g id="ytick_13">
     <g id="line2d_31">
      <path d="M 58.52 212.98112 
L 349.2 212.98112 
" clip-path="url(#p1e44e5c0aa)" style="fill: none; stroke: #999999; stroke-opacity: 0.2; stroke-width: 0.8; stroke-linecap: square"/>
     </g>
     <g id="line2d_32">
      <g>
       <use xlink:href="#md1bfbd56b3" x="58.52" y="212.98112" style="stroke: #000000; stroke-width: 0.6"/>
      </g>
     </g>
    </g>
    <g id="ytick_14">
     <g id="line2d_33">
      <path d="M 58.52 201.40576 
L 349.2 201.40576 
" clip-path="url(#p1e44e5c0aa)" style="fill: none; stroke: #999999; stroke-opacity: 0.2; stroke-width: 0.8; stroke-linecap: square"/>
     </g>
     <g id="line2d_34">
      <g>
       <use xlink:href="#md1bfbd56b3" x="58.52" y="201.40576" style="stroke: #000000; stroke-width: 0.6"/>
      </g>
     </g>
    </g>
    <g id="ytick_15">
     <g id="line2d_35">
      <path d="M 58.52 178.25504 
L 349.2 178.25504 
" clip-path="url(#p1e44e5c0aa)" style="fill: none; stroke: #999999; stroke-opacity: 0.2; stroke-width: 0.8; stroke-linecap: square"/>
     </g>
     <g id="line2d_36">
      <g>
       <use xlink:href="#md1bfbd56b3" x="58.52" y="178.25504" style="stroke: #000000; stroke-width: 0.6"/>
      </g>
     </g>
    </g>
    <g id="ytick_16">
     <g id="line2d_37">
      <path d="M 58.52 166.67968 
L 349.2 166.67968 
" clip-path="url(#p1e44e5c0aa)" style="fill: none; stroke: #999999; stroke-opacity: 0.2; stroke-width: 0.8; stroke-linecap: square"/>
     </g>
     <g id="line2d_38">
      <g>
       <use xlink:href="#md1bfbd56b3" x="58.52" y="166.67968" style="stroke: #000000; stroke-width: 0.6"/>
      </g>
     </g>
    </g>
    <g id="ytick_17">
     <g id="line2d_39">
      <path d="M 58.52 155.10432 
L 349.2 155.10432 
" clip-path="url(#p1e44e5c0aa)" style="fill: none; stroke: #999999; stroke-opacity: 0.2; stroke-width: 0.8; stroke-linecap: square"/>
     </g>
     <g id="line2d_40">
      <g>
       <use xlink:href="#md1bfbd56b3" x="58.52" y="155.10432" style="stroke: #000000; stroke-width: 0.6"/>
      </g>
     </g>
    </g>
    <g id="ytick_18">
     <g id="line2d_41">
      <path d="M 58.52 143.52896 
L 349.2 143.52896 
" clip-path="url(#p1e44e5c0aa)" style="fill: none; stroke: #999999; stroke-opacity: 0.2; stroke-width: 0.8; stroke-linecap: square"/>
     </g>
     <g id="line2d_42">
      <g>
       <use xlink:href="#md1bfbd56b3" x="58.52" y="143.52896" style="stroke: #000000; stroke-width: 0.6"/>
      </g>
     </g>
    </g>
    <g id="ytick_19">
     <g id="line2d_43">
      <path d="M 58.52 120.37824 
L 349.2 120.37824 
" clip-path="url(#p1e44e5c0aa)" style="fill: none; stroke: #999999; stroke-opacity: 0.2; stroke-width: 0.8; stroke-linecap: square"/>
     </g>
     <g id="line2d_44">
      <g>
       <use xlink:href="#md1bfbd56b3" x="58.52" y="120.37824" style="stroke: #000000; stroke-width: 0.6"/>
      </g>
     </g>
    </g>
    <g id="ytick_20">
     <g id="line2d_45">
      <path d="M 58.52 108.80288 
L 349.2 108.80288 
" clip-path="url(#p1e44e5c0aa)" style="fill: none; stroke: #999999; stroke-opacity: 0.2; stroke-width: 0.8; stroke-linecap: square"/>
     </g>
     <g id="line2d_46">
      <g>
       <use xlink:href="#md1bfbd56b3" x="58.52" y="108.80288" style="stroke: #000000; stroke-width: 0.6"/>
      </g>
     </g>
    </g>
    <g id="ytick_21">
     <g id="line2d_47">
      <path d="M 58.52 97.22752 
L 349.2 97.22752 
" clip-path="url(#p1e44e5c0aa)" style="fill: none; stroke: #999999; stroke-opacity: 0.2; stroke-width: 0.8; stroke-linecap: square"/>
     </g>
     <g id="line2d_48">
      <g>
       <use xlink:href="#md1bfbd56b3" x="58.52" y="97.22752" style="stroke: #000000; stroke-width: 0.6"/>
      </g>
     </g>
    </g>
    <g id="ytick_22">
     <g id="line2d_49">
      <path d="M 58.52 85.65216 
L 349.2 85.65216 
" clip-path="url(#p1e44e5c0aa)" style="fill: none; stroke: #999999; stroke-opacity: 0.2; stroke-width: 0.8; stroke-linecap: square"/>
     </g>
     <g id="line2d_50">
      <g>
       <use xlink:href="#md1bfbd56b3" x="58.52" y="85.65216" style="stroke: #000000; stroke-width: 0.6"/>
      </g>
     </g>
    </g>
    <g id="ytick_23">
     <g id="line2d_51">
      <path d="M 58.52 62.50144 
L 349.2 62.50144 
" clip-path="url(#p1e44e5c0aa)" style="fill: none; stroke: #999999; stroke-opacity: 0.2; stroke-width: 0.8; stroke-linecap: square"/>
     </g>
     <g id="line2d_52">
      <g>
       <use xlink:href="#md1bfbd56b3" x="58.52" y="62.50144" style="stroke: #000000; stroke-width: 0.6"/>
      </g>
     </g>
    </g>
    <g id="ytick_24">
     <g id="line2d_53">
      <path d="M 58.52 50.92608 
L 349.2 50.92608 
" clip-path="url(#p1e44e5c0aa)" style="fill: none; stroke: #999999; stroke-opacity: 0.2; stroke-width: 0.8; stroke-linecap: square"/>
     </g>
     <g id="line2d_54">
      <g>
       <use xlink:href="#md1bfbd56b3" x="58.52" y="50.92608" style="stroke: #000000; stroke-width: 0.6"/>
      </g>
     </g>
    </g>
    <g id="ytick_25">
     <g id="line2d_55">
      <path d="M 58.52 39.35072 
L 349.2 39.35072 
" clip-path="url(#p1e44e5c0aa)" style="fill: none; stroke: #999999; stroke-opacity: 0.2; stroke-width: 0.8; stroke-linecap: square"/>
     </g>
     <g id="line2d_56">
      <g>
       <use xlink:href="#md1bfbd56b3" x="58.52" y="39.35072" style="stroke: #000000; stroke-width: 0.6"/>
      </g>
     </g>
    </g>
    <g id="ytick_26">
     <g id="line2d_57">
      <path d="M 58.52 27.77536 
L 349.2 27.77536 
" clip-path="url(#p1e44e5c0aa)" style="fill: none; stroke: #999999; stroke-opacity: 0.2; stroke-width: 0.8; stroke-linecap: square"/>
     </g>
     <g id="line2d_58">
      <g>
       <use xlink:href="#md1bfbd56b3" x="58.52" y="27.77536" style="stroke: #000000; stroke-width: 0.6"/>
      </g>
     </g>
    </g>
    <g id="text_14">
     <!-- AUC-ROC -->
     <g transform="translate(21.928125 198.1345)rotate(-90)scale(0.16 -0.16)">
      <defs>
       <path id="DejaVuSans-41" d="M 2188 4044 
L 1331 1722 
L 3047 1722 
L 2188 4044 
z
M 1831 4666 
L 2547 4666 
L 4325 0 
L 3669 0 
L 3244 1197 
L 1141 1197 
L 716 0 
L 50 0 
L 1831 4666 
z
" transform="scale(0.015625)"/>
       <path id="DejaVuSans-55" d="M 556 4666 
L 1191 4666 
L 1191 1831 
Q 1191 1081 1462 751 
Q 1734 422 2344 422 
Q 2950 422 3222 751 
Q 3494 1081 3494 1831 
L 3494 4666 
L 4128 4666 
L 4128 1753 
Q 4128 841 3676 375 
Q 3225 -91 2344 -91 
Q 1459 -91 1007 375 
Q 556 841 556 1753 
L 556 4666 
z
" transform="scale(0.015625)"/>
       <path id="DejaVuSans-43" d="M 4122 4306 
L 4122 3641 
Q 3803 3938 3442 4084 
Q 3081 4231 2675 4231 
Q 1875 4231 1450 3742 
Q 1025 3253 1025 2328 
Q 1025 1406 1450 917 
Q 1875 428 2675 428 
Q 3081 428 3442 575 
Q 3803 722 4122 1019 
L 4122 359 
Q 3791 134 3420 21 
Q 3050 -91 2638 -91 
Q 1578 -91 968 557 
Q 359 1206 359 2328 
Q 359 3453 968 4101 
Q 1578 4750 2638 4750 
Q 3056 4750 3426 4639 
Q 3797 4528 4122 4306 
z
" transform="scale(0.015625)"/>
       <path id="DejaVuSans-2d" d="M 313 2009 
L 1997 2009 
L 1997 1497 
L 313 1497 
L 313 2009 
z
" transform="scale(0.015625)"/>
       <path id="DejaVuSans-52" d="M 2841 2188 
Q 3044 2119 3236 1894 
Q 3428 1669 3622 1275 
L 4263 0 
L 3584 0 
L 2988 1197 
Q 2756 1666 2539 1819 
Q 2322 1972 1947 1972 
L 1259 1972 
L 1259 0 
L 628 0 
L 628 4666 
L 2053 4666 
Q 2853 4666 3247 4331 
Q 3641 3997 3641 3322 
Q 3641 2881 3436 2590 
Q 3231 2300 2841 2188 
z
M 1259 4147 
L 1259 2491 
L 2053 2491 
Q 2509 2491 2742 2702 
Q 2975 2913 2975 3322 
Q 2975 3731 2742 3939 
Q 2509 4147 2053 4147 
L 1259 4147 
z
" transform="scale(0.015625)"/>
       <path id="DejaVuSans-4f" d="M 2522 4238 
Q 1834 4238 1429 3725 
Q 1025 3213 1025 2328 
Q 1025 1447 1429 934 
Q 1834 422 2522 422 
Q 3209 422 3611 934 
Q 4013 1447 4013 2328 
Q 4013 3213 3611 3725 
Q 3209 4238 2522 4238 
z
M 2522 4750 
Q 3503 4750 4090 4092 
Q 4678 3434 4678 2328 
Q 4678 1225 4090 567 
Q 3503 -91 2522 -91 
Q 1538 -91 948 565 
Q 359 1222 359 2328 
Q 359 3434 948 4092 
Q 1538 4750 2522 4750 
z
" transform="scale(0.015625)"/>
      </defs>
      <use xlink:href="#DejaVuSans-41"/>
      <use xlink:href="#DejaVuSans-55" x="68.408203"/>
      <use xlink:href="#DejaVuSans-43" x="141.601562"/>
      <use xlink:href="#DejaVuSans-2d" x="211.425781"/>
      <use xlink:href="#DejaVuSans-52" x="247.509766"/>
      <use xlink:href="#DejaVuSans-4f" x="316.992188"/>
      <use xlink:href="#DejaVuSans-43" x="395.703125"/>
     </g>
    </g>
   </g>
   <g id="PolyCollection_1">
    <defs>
     <path id="m5cd665c2cb" d="M 93.125206 -100.092371 
L 90.994794 -100.092371 
L 90.927276 -100.93024 
L 90.862647 -101.768109 
L 90.800276 -102.605978 
L 90.739155 -103.443847 
L 90.677965 -104.281715 
L 90.615185 -105.119584 
L 90.549201 -105.957453 
L 90.478443 -106.795322 
L 90.401506 -107.633191 
L 90.31726 -108.47106 
L 90.224936 -109.308929 
L 90.124173 -110.146798 
L 90.015033 -110.984667 
L 89.897978 -111.822536 
L 89.773801 -112.660405 
L 89.643545 -113.498274 
L 89.508383 -114.336143 
L 89.369498 -115.174012 
L 89.22795 -116.011881 
L 89.084556 -116.84975 
L 88.939779 -117.687619 
L 88.793644 -118.525488 
L 88.645678 -119.363357 
L 88.494884 -120.201226 
L 88.339755 -121.039095 
L 88.178327 -121.876964 
L 88.008269 -122.714833 
L 87.827019 -123.552702 
L 87.631943 -124.390571 
L 87.420529 -125.22844 
L 87.190591 -126.066309 
L 86.940473 -126.904178 
L 86.669239 -127.742047 
L 86.376838 -128.579916 
L 86.064219 -129.417785 
L 85.73339 -130.255654 
L 85.387415 -131.093523 
L 85.030331 -131.931392 
L 84.667009 -132.769261 
L 84.30294 -133.60713 
L 83.943973 -134.444999 
L 83.596022 -135.282868 
L 83.264744 -136.120737 
L 82.955236 -136.958606 
L 82.67175 -137.796475 
L 82.417459 -138.634344 
L 82.194292 -139.472213 
L 82.002846 -140.310082 
L 81.842392 -141.147951 
L 81.710962 -141.98582 
L 81.605522 -142.823689 
L 81.522213 -143.661558 
L 81.456637 -144.499427 
L 81.404172 -145.337296 
L 81.36029 -146.175165 
L 81.320848 -147.013034 
L 81.28235 -147.850903 
L 81.242152 -148.688772 
L 81.19861 -149.526641 
L 81.151166 -150.36451 
L 81.100375 -151.202379 
L 81.047876 -152.040248 
L 80.996318 -152.878117 
L 80.949236 -153.715986 
L 80.910898 -154.553855 
L 80.88611 -155.391724 
L 80.88 -156.229593 
L 80.897776 -157.067462 
L 80.94447 -157.905331 
L 81.024674 -158.7432 
L 81.14229 -159.581069 
L 81.300296 -160.418938 
L 81.500554 -161.256807 
L 81.743663 -162.094676 
L 82.028886 -162.932545 
L 82.354142 -163.770414 
L 82.716077 -164.608283 
L 83.110203 -165.446152 
L 83.531105 -166.284021 
L 83.972698 -167.12189 
L 84.428512 -167.959759 
L 84.89199 -168.797628 
L 85.356777 -169.635497 
L 85.816984 -170.473366 
L 86.2674 -171.311234 
L 86.703653 -172.149103 
L 87.122305 -172.986972 
L 87.520878 -173.824841 
L 87.897827 -174.66271 
L 88.252453 -175.500579 
L 88.584773 -176.338448 
L 88.895371 -177.176317 
L 89.18523 -178.014186 
L 89.45557 -178.852055 
L 89.707699 -179.689924 
L 89.942892 -180.527793 
L 90.162294 -181.365662 
L 90.366868 -182.203531 
L 90.557368 -183.0414 
L 93.562632 -183.0414 
L 93.562632 -183.0414 
L 93.753132 -182.203531 
L 93.957706 -181.365662 
L 94.177108 -180.527793 
L 94.412301 -179.689924 
L 94.66443 -178.852055 
L 94.93477 -178.014186 
L 95.224629 -177.176317 
L 95.535227 -176.338448 
L 95.867547 -175.500579 
L 96.222173 -174.66271 
L 96.599122 -173.824841 
L 96.997695 -172.986972 
L 97.416347 -172.149103 
L 97.8526 -171.311234 
L 98.303016 -170.473366 
L 98.763223 -169.635497 
L 99.22801 -168.797628 
L 99.691488 -167.959759 
L 100.147302 -167.12189 
L 100.588895 -166.284021 
L 101.009797 -165.446152 
L 101.403923 -164.608283 
L 101.765858 -163.770414 
L 102.091114 -162.932545 
L 102.376337 -162.094676 
L 102.619446 -161.256807 
L 102.819704 -160.418938 
L 102.97771 -159.581069 
L 103.095326 -158.7432 
L 103.17553 -157.905331 
L 103.222224 -157.067462 
L 103.24 -156.229593 
L 103.23389 -155.391724 
L 103.209102 -154.553855 
L 103.170764 -153.715986 
L 103.123682 -152.878117 
L 103.072124 -152.040248 
L 103.019625 -151.202379 
L 102.968834 -150.36451 
L 102.92139 -149.526641 
L 102.877848 -148.688772 
L 102.83765 -147.850903 
L 102.799152 -147.013034 
L 102.75971 -146.175165 
L 102.715828 -145.337296 
L 102.663363 -144.499427 
L 102.597787 -143.661558 
L 102.514478 -142.823689 
L 102.409038 -141.98582 
L 102.277608 -141.147951 
L 102.117154 -140.310082 
L 101.925708 -139.472213 
L 101.702541 -138.634344 
L 101.44825 -137.796475 
L 101.164764 -136.958606 
L 100.855256 -136.120737 
L 100.523978 -135.282868 
L 100.176027 -134.444999 
L 99.81706 -133.60713 
L 99.452991 -132.769261 
L 99.089669 -131.931392 
L 98.732585 -131.093523 
L 98.38661 -130.255654 
L 98.055781 -129.417785 
L 97.743162 -128.579916 
L 97.450761 -127.742047 
L 97.179527 -126.904178 
L 96.929409 -126.066309 
L 96.699471 -125.22844 
L 96.488057 -124.390571 
L 96.292981 -123.552702 
L 96.111731 -122.714833 
L 95.941673 -121.876964 
L 95.780245 -121.039095 
L 95.625116 -120.201226 
L 95.474322 -119.363357 
L 95.326356 -118.525488 
L 95.180221 -117.687619 
L 95.035444 -116.84975 
L 94.89205 -116.011881 
L 94.750502 -115.174012 
L 94.611617 -114.336143 
L 94.476455 -113.498274 
L 94.346199 -112.660405 
L 94.222022 -111.822536 
L 94.104967 -110.984667 
L 93.995827 -110.146798 
L 93.895064 -109.308929 
L 93.80274 -108.47106 
L 93.718494 -107.633191 
L 93.641557 -106.795322 
L 93.570799 -105.957453 
L 93.504815 -105.119584 
L 93.442035 -104.281715 
L 93.380845 -103.443847 
L 93.319724 -102.605978 
L 93.257353 -101.768109 
L 93.192724 -100.93024 
L 93.125206 -100.092371 
z
" style="stroke: #000000"/>
    </defs>
    <g clip-path="url(#p1e44e5c0aa)">
     <use xlink:href="#m5cd665c2cb" x="0" y="360" style="fill: #deebf7; stroke: #000000"/>
    </g>
   </g>
   <g id="PolyCollection_2">
    <defs>
     <path id="mc0d1e2f25c" d="M 137.103688 -177.734098 
L 136.456312 -177.734098 
L 136.433774 -178.615637 
L 136.41066 -179.497177 
L 136.386284 -180.378717 
L 136.359928 -181.260256 
L 136.330932 -182.141796 
L 136.298769 -183.023336 
L 136.263098 -183.904875 
L 136.223783 -184.786415 
L 136.180861 -185.667955 
L 136.134478 -186.549494 
L 136.084773 -187.431034 
L 136.031753 -188.312574 
L 135.975163 -189.194113 
L 135.914371 -190.075653 
L 135.8483 -190.957193 
L 135.775425 -191.838732 
L 135.693828 -192.720272 
L 135.601336 -193.601812 
L 135.495709 -194.483351 
L 135.374875 -195.364891 
L 135.237171 -196.246431 
L 135.081559 -197.12797 
L 134.90779 -198.00951 
L 134.716476 -198.89105 
L 134.509056 -199.772589 
L 134.287655 -200.654129 
L 134.054836 -201.535669 
L 133.813282 -202.417208 
L 133.565444 -203.298748 
L 133.313202 -204.180288 
L 133.057595 -205.061827 
L 132.798655 -205.943367 
L 132.535386 -206.824907 
L 132.265896 -207.706446 
L 131.987661 -208.587986 
L 131.697909 -209.469526 
L 131.39406 -210.351065 
L 131.074174 -211.232605 
L 130.73733 -212.114145 
L 130.383915 -212.995684 
L 130.015746 -213.877224 
L 129.636038 -214.758764 
L 129.249206 -215.640303 
L 128.860539 -216.521843 
L 128.475777 -217.403383 
L 128.100674 -218.284922 
L 127.740577 -219.166462 
L 127.400109 -220.048002 
L 127.08298 -220.929541 
L 126.79196 -221.811081 
L 126.529003 -222.692621 
L 126.295507 -223.57416 
L 126.092649 -224.4557 
L 125.921727 -225.33724 
L 125.784452 -226.218779 
L 125.683109 -227.100319 
L 125.62055 -227.981859 
L 125.6 -228.863398 
L 125.624696 -229.744938 
L 125.697395 -230.626478 
L 125.819842 -231.508017 
L 125.992267 -232.389557 
L 126.213007 -233.271097 
L 126.47832 -234.152636 
L 126.782422 -235.034176 
L 127.117766 -235.915716 
L 127.475518 -236.797255 
L 127.846184 -237.678795 
L 128.220292 -238.560335 
L 128.589063 -239.441874 
L 128.944982 -240.323414 
L 129.282222 -241.204954 
L 129.596884 -242.086493 
L 129.887055 -242.968033 
L 130.152689 -243.849573 
L 130.395369 -244.731112 
L 130.617964 -245.612652 
L 130.824257 -246.494192 
L 131.018547 -247.375731 
L 131.205292 -248.257271 
L 131.38878 -249.138811 
L 131.572872 -250.02035 
L 131.760798 -250.90189 
L 131.955022 -251.78343 
L 132.157169 -252.664969 
L 132.368019 -253.546509 
L 132.587546 -254.428049 
L 132.815013 -255.309588 
L 133.049098 -256.191128 
L 133.288042 -257.072668 
L 133.529807 -257.954207 
L 133.772223 -258.835747 
L 134.013121 -259.717286 
L 134.250433 -260.598826 
L 134.482255 -261.480366 
L 134.706891 -262.361905 
L 134.922853 -263.243445 
L 135.128861 -264.124985 
L 135.323817 -265.006524 
L 138.236183 -265.006524 
L 138.236183 -265.006524 
L 138.431139 -264.124985 
L 138.637147 -263.243445 
L 138.853109 -262.361905 
L 139.077745 -261.480366 
L 139.309567 -260.598826 
L 139.546879 -259.717286 
L 139.787777 -258.835747 
L 140.030193 -257.954207 
L 140.271958 -257.072668 
L 140.510902 -256.191128 
L 140.744987 -255.309588 
L 140.972454 -254.428049 
L 141.191981 -253.546509 
L 141.402831 -252.664969 
L 141.604978 -251.78343 
L 141.799202 -250.90189 
L 141.987128 -250.02035 
L 142.17122 -249.138811 
L 142.354708 -248.257271 
L 142.541453 -247.375731 
L 142.735743 -246.494192 
L 142.942036 -245.612652 
L 143.164631 -244.731112 
L 143.407311 -243.849573 
L 143.672945 -242.968033 
L 143.963116 -242.086493 
L 144.277778 -241.204954 
L 144.615018 -240.323414 
L 144.970937 -239.441874 
L 145.339708 -238.560335 
L 145.713816 -237.678795 
L 146.084482 -236.797255 
L 146.442234 -235.915716 
L 146.777578 -235.034176 
L 147.08168 -234.152636 
L 147.346993 -233.271097 
L 147.567733 -232.389557 
L 147.740158 -231.508017 
L 147.862605 -230.626478 
L 147.935304 -229.744938 
L 147.96 -228.863398 
L 147.93945 -227.981859 
L 147.876891 -227.100319 
L 147.775548 -226.218779 
L 147.638273 -225.33724 
L 147.467351 -224.4557 
L 147.264493 -223.57416 
L 147.030997 -222.692621 
L 146.76804 -221.811081 
L 146.47702 -220.929541 
L 146.159891 -220.048002 
L 145.819423 -219.166462 
L 145.459326 -218.284922 
L 145.084223 -217.403383 
L 144.699461 -216.521843 
L 144.310794 -215.640303 
L 143.923962 -214.758764 
L 143.544254 -213.877224 
L 143.176085 -212.995684 
L 142.82267 -212.114145 
L 142.485826 -211.232605 
L 142.16594 -210.351065 
L 141.862091 -209.469526 
L 141.572339 -208.587986 
L 141.294104 -207.706446 
L 141.024614 -206.824907 
L 140.761345 -205.943367 
L 140.502405 -205.061827 
L 140.246798 -204.180288 
L 139.994556 -203.298748 
L 139.746718 -202.417208 
L 139.505164 -201.535669 
L 139.272345 -200.654129 
L 139.050944 -199.772589 
L 138.843524 -198.89105 
L 138.65221 -198.00951 
L 138.478441 -197.12797 
L 138.322829 -196.246431 
L 138.185125 -195.364891 
L 138.064291 -194.483351 
L 137.958664 -193.601812 
L 137.866172 -192.720272 
L 137.784575 -191.838732 
L 137.7117 -190.957193 
L 137.645629 -190.075653 
L 137.584837 -189.194113 
L 137.528247 -188.312574 
L 137.475227 -187.431034 
L 137.425522 -186.549494 
L 137.379139 -185.667955 
L 137.336217 -184.786415 
L 137.296902 -183.904875 
L 137.261231 -183.023336 
L 137.229068 -182.141796 
L 137.200072 -181.260256 
L 137.173716 -180.378717 
L 137.14934 -179.497177 
L 137.126226 -178.615637 
L 137.103688 -177.734098 
z
" style="stroke: #000000"/>
    </defs>
    <g clip-path="url(#p1e44e5c0aa)">
     <use xlink:href="#mc0d1e2f25c" x="0" y="360" style="fill: #deebf7; stroke: #000000"/>
    </g>
   </g>
   <g id="PolyCollection_3">
    <defs>
     <path id="ma7957ab56f" d="M 182.576872 -205.46866 
L 180.423128 -205.46866 
L 180.325055 -206.211179 
L 180.230637 -206.953697 
L 180.141198 -207.696216 
L 180.057748 -208.438734 
L 179.980914 -209.181252 
L 179.910896 -209.923771 
L 179.847437 -210.666289 
L 179.789817 -211.408808 
L 179.736856 -212.151326 
L 179.68694 -212.893845 
L 179.638052 -213.636363 
L 179.587826 -214.378881 
L 179.533603 -215.1214 
L 179.472512 -215.863918 
L 179.401561 -216.606437 
L 179.317751 -217.348955 
L 179.218193 -218.091473 
L 179.100252 -218.833992 
L 178.961677 -219.57651 
L 178.80074 -220.319029 
L 178.616349 -221.061547 
L 178.408133 -221.804066 
L 178.176491 -222.546584 
L 177.922587 -223.289102 
L 177.648286 -224.031621 
L 177.356044 -224.774139 
L 177.048743 -225.516658 
L 176.729493 -226.259176 
L 176.401418 -227.001695 
L 176.067456 -227.744213 
L 175.730177 -228.486731 
L 175.391667 -229.22925 
L 175.053477 -229.971768 
L 174.716649 -230.714287 
L 174.381819 -231.456805 
L 174.049384 -232.199323 
L 173.719702 -232.941842 
L 173.393305 -233.68436 
L 173.071094 -234.426879 
L 172.754469 -235.169397 
L 172.445402 -235.911916 
L 172.146409 -236.654434 
L 171.860448 -237.396952 
L 171.590756 -238.139471 
L 171.340628 -238.881989 
L 171.113207 -239.624508 
L 170.911273 -240.367026 
L 170.737096 -241.109545 
L 170.592342 -241.852063 
L 170.47805 -242.594581 
L 170.39467 -243.3371 
L 170.342142 -244.079618 
L 170.32 -244.822137 
L 170.327479 -245.564655 
L 170.36361 -246.307173 
L 170.427287 -247.049692 
L 170.517313 -247.79221 
L 170.632435 -248.534729 
L 170.771361 -249.277247 
L 170.932785 -250.019766 
L 171.115428 -250.762284 
L 171.318078 -251.504802 
L 171.539636 -252.247321 
L 171.779162 -252.989839 
L 172.035885 -253.732358 
L 172.309182 -254.474876 
L 172.598516 -255.217395 
L 172.903331 -255.959913 
L 173.222906 -256.702431 
L 173.556212 -257.44495 
L 173.901768 -258.187468 
L 174.257545 -258.929987 
L 174.620924 -259.672505 
L 174.98874 -260.415023 
L 175.357396 -261.157542 
L 175.723054 -261.90006 
L 176.081875 -262.642579 
L 176.430271 -263.385097 
L 176.765154 -264.127616 
L 177.084137 -264.870134 
L 177.385657 -265.612652 
L 177.669023 -266.355171 
L 177.934369 -267.097689 
L 178.182531 -267.840208 
L 178.414864 -268.582726 
L 178.633036 -269.325245 
L 178.838806 -270.067763 
L 179.033839 -270.810281 
L 179.219555 -271.5528 
L 179.397046 -272.295318 
L 179.567037 -273.037837 
L 179.729909 -273.780355 
L 179.885758 -274.522873 
L 180.034473 -275.265392 
L 180.175824 -276.00791 
L 180.309546 -276.750429 
L 180.435398 -277.492947 
L 180.553204 -278.235466 
L 180.662875 -278.977984 
L 182.337125 -278.977984 
L 182.337125 -278.977984 
L 182.446796 -278.235466 
L 182.564602 -277.492947 
L 182.690454 -276.750429 
L 182.824176 -276.00791 
L 182.965527 -275.265392 
L 183.114242 -274.522873 
L 183.270091 -273.780355 
L 183.432963 -273.037837 
L 183.602954 -272.295318 
L 183.780445 -271.5528 
L 183.966161 -270.810281 
L 184.161194 -270.067763 
L 184.366964 -269.325245 
L 184.585136 -268.582726 
L 184.817469 -267.840208 
L 185.065631 -267.097689 
L 185.330977 -266.355171 
L 185.614343 -265.612652 
L 185.915863 -264.870134 
L 186.234846 -264.127616 
L 186.569729 -263.385097 
L 186.918125 -262.642579 
L 187.276946 -261.90006 
L 187.642604 -261.157542 
L 188.01126 -260.415023 
L 188.379076 -259.672505 
L 188.742455 -258.929987 
L 189.098232 -258.187468 
L 189.443788 -257.44495 
L 189.777094 -256.702431 
L 190.096669 -255.959913 
L 190.401484 -255.217395 
L 190.690818 -254.474876 
L 190.964115 -253.732358 
L 191.220838 -252.989839 
L 191.460364 -252.247321 
L 191.681922 -251.504802 
L 191.884572 -250.762284 
L 192.067215 -250.019766 
L 192.228639 -249.277247 
L 192.367565 -248.534729 
L 192.482687 -247.79221 
L 192.572713 -247.049692 
L 192.63639 -246.307173 
L 192.672521 -245.564655 
L 192.68 -244.822137 
L 192.657858 -244.079618 
L 192.60533 -243.3371 
L 192.52195 -242.594581 
L 192.407658 -241.852063 
L 192.262904 -241.109545 
L 192.088727 -240.367026 
L 191.886793 -239.624508 
L 191.659372 -238.881989 
L 191.409244 -238.139471 
L 191.139552 -237.396952 
L 190.853591 -236.654434 
L 190.554598 -235.911916 
L 190.245531 -235.169397 
L 189.928906 -234.426879 
L 189.606695 -233.68436 
L 189.280298 -232.941842 
L 188.950616 -232.199323 
L 188.618181 -231.456805 
L 188.283351 -230.714287 
L 187.946523 -229.971768 
L 187.608333 -229.22925 
L 187.269823 -228.486731 
L 186.932544 -227.744213 
L 186.598582 -227.001695 
L 186.270507 -226.259176 
L 185.951257 -225.516658 
L 185.643956 -224.774139 
L 185.351714 -224.031621 
L 185.077413 -223.289102 
L 184.823509 -222.546584 
L 184.591867 -221.804066 
L 184.383651 -221.061547 
L 184.19926 -220.319029 
L 184.038323 -219.57651 
L 183.899748 -218.833992 
L 183.781807 -218.091473 
L 183.682249 -217.348955 
L 183.598439 -216.606437 
L 183.527488 -215.863918 
L 183.466397 -215.1214 
L 183.412174 -214.378881 
L 183.361948 -213.636363 
L 183.31306 -212.893845 
L 183.263144 -212.151326 
L 183.210183 -211.408808 
L 183.152563 -210.666289 
L 183.089104 -209.923771 
L 183.019086 -209.181252 
L 182.942252 -208.438734 
L 182.858802 -207.696216 
L 182.769363 -206.953697 
L 182.674945 -206.211179 
L 182.576872 -205.46866 
z
" style="stroke: #000000"/>
    </defs>
    <g clip-path="url(#p1e44e5c0aa)">
     <use xlink:href="#ma7957ab56f" x="0" y="360" style="fill: #deebf7; stroke: #000000"/>
    </g>
   </g>
   <g id="PolyCollection_4">
    <defs>
     <path id="m6772f760dd" d="M 227.283589 -199.918275 
L 225.156411 -199.918275 
L 225.035801 -200.707212 
L 224.909182 -201.496149 
L 224.775734 -202.285086 
L 224.63427 -203.074022 
L 224.483286 -203.862959 
L 224.321049 -204.651896 
L 224.145711 -205.440833 
L 223.955449 -206.229769 
L 223.748608 -207.018706 
L 223.523851 -207.807643 
L 223.280292 -208.59658 
L 223.017604 -209.385517 
L 222.736092 -210.174453 
L 222.436719 -210.96339 
L 222.121078 -211.752327 
L 221.791318 -212.541264 
L 221.450004 -213.330201 
L 221.099954 -214.119137 
L 220.744044 -214.908074 
L 220.385016 -215.697011 
L 220.025311 -216.485948 
L 219.666951 -217.274884 
L 219.31149 -218.063821 
L 218.960048 -218.852758 
L 218.613413 -219.641695 
L 218.272222 -220.430632 
L 217.937167 -221.219568 
L 217.609215 -222.008505 
L 217.289789 -222.797442 
L 216.980886 -223.586379 
L 216.685098 -224.375315 
L 216.405521 -225.164252 
L 216.145567 -225.953189 
L 215.908686 -226.742126 
L 215.698041 -227.531063 
L 215.516172 -228.319999 
L 215.364706 -229.108936 
L 215.244147 -229.897873 
L 215.153776 -230.68681 
L 215.091694 -231.475747 
L 215.054985 -232.264683 
L 215.04 -233.05362 
L 215.042719 -233.842557 
L 215.059155 -234.631494 
L 215.085747 -235.42043 
L 215.119702 -236.209367 
L 215.159246 -236.998304 
L 215.20376 -237.787241 
L 215.253792 -238.576178 
L 215.310939 -239.365114 
L 215.377637 -240.154051 
L 215.456866 -240.942988 
L 215.551823 -241.731925 
L 215.66559 -242.520862 
L 215.800843 -243.309798 
L 215.959619 -244.098735 
L 216.143168 -244.887672 
L 216.3519 -245.676609 
L 216.585408 -246.465545 
L 216.842579 -247.254482 
L 217.121742 -248.043419 
L 217.420853 -248.832356 
L 217.737676 -249.621293 
L 218.069941 -250.410229 
L 218.415463 -251.199166 
L 218.772223 -251.988103 
L 219.138384 -252.77704 
L 219.512271 -253.565977 
L 219.892314 -254.354913 
L 220.27696 -255.14385 
L 220.66458 -255.932787 
L 221.053377 -256.721724 
L 221.441305 -257.51066 
L 221.826019 -258.299597 
L 222.204865 -259.088534 
L 222.574904 -259.877471 
L 222.93299 -260.666408 
L 223.275885 -261.455344 
L 223.600417 -262.244281 
L 223.903647 -263.033218 
L 224.183055 -263.822155 
L 224.436693 -264.611091 
L 224.66332 -265.400028 
L 224.862481 -266.188965 
L 225.034521 -266.977902 
L 225.180552 -267.766839 
L 225.302359 -268.555775 
L 225.402264 -269.344712 
L 225.482967 -270.133649 
L 225.547382 -270.922586 
L 225.598477 -271.711523 
L 225.639139 -272.500459 
L 225.672057 -273.289396 
L 225.69965 -274.078333 
L 225.724004 -274.86727 
L 225.74685 -275.656206 
L 225.769544 -276.445143 
L 225.793074 -277.23408 
L 225.818072 -278.023017 
L 226.621928 -278.023017 
L 226.621928 -278.023017 
L 226.646926 -277.23408 
L 226.670456 -276.445143 
L 226.69315 -275.656206 
L 226.715996 -274.86727 
L 226.74035 -274.078333 
L 226.767943 -273.289396 
L 226.800861 -272.500459 
L 226.841523 -271.711523 
L 226.892618 -270.922586 
L 226.957033 -270.133649 
L 227.037736 -269.344712 
L 227.137641 -268.555775 
L 227.259448 -267.766839 
L 227.405479 -266.977902 
L 227.577519 -266.188965 
L 227.77668 -265.400028 
L 228.003307 -264.611091 
L 228.256945 -263.822155 
L 228.536353 -263.033218 
L 228.839583 -262.244281 
L 229.164115 -261.455344 
L 229.50701 -260.666408 
L 229.865096 -259.877471 
L 230.235135 -259.088534 
L 230.613981 -258.299597 
L 230.998695 -257.51066 
L 231.386623 -256.721724 
L 231.77542 -255.932787 
L 232.16304 -255.14385 
L 232.547686 -254.354913 
L 232.927729 -253.565977 
L 233.301616 -252.77704 
L 233.667777 -251.988103 
L 234.024537 -251.199166 
L 234.370059 -250.410229 
L 234.702324 -249.621293 
L 235.019147 -248.832356 
L 235.318258 -248.043419 
L 235.597421 -247.254482 
L 235.854592 -246.465545 
L 236.0881 -245.676609 
L 236.296832 -244.887672 
L 236.480381 -244.098735 
L 236.639157 -243.309798 
L 236.77441 -242.520862 
L 236.888177 -241.731925 
L 236.983134 -240.942988 
L 237.062363 -240.154051 
L 237.129061 -239.365114 
L 237.186208 -238.576178 
L 237.23624 -237.787241 
L 237.280754 -236.998304 
L 237.320298 -236.209367 
L 237.354253 -235.42043 
L 237.380845 -234.631494 
L 237.397281 -233.842557 
L 237.4 -233.05362 
L 237.385015 -232.264683 
L 237.348306 -231.475747 
L 237.286224 -230.68681 
L 237.195853 -229.897873 
L 237.075294 -229.108936 
L 236.923828 -228.319999 
L 236.741959 -227.531063 
L 236.531314 -226.742126 
L 236.294433 -225.953189 
L 236.034479 -225.164252 
L 235.754902 -224.375315 
L 235.459114 -223.586379 
L 235.150211 -222.797442 
L 234.830785 -222.008505 
L 234.502833 -221.219568 
L 234.167778 -220.430632 
L 233.826587 -219.641695 
L 233.479952 -218.852758 
L 233.12851 -218.063821 
L 232.773049 -217.274884 
L 232.414689 -216.485948 
L 232.054984 -215.697011 
L 231.695956 -214.908074 
L 231.340046 -214.119137 
L 230.989996 -213.330201 
L 230.648682 -212.541264 
L 230.318922 -211.752327 
L 230.003281 -210.96339 
L 229.703908 -210.174453 
L 229.422396 -209.385517 
L 229.159708 -208.59658 
L 228.916149 -207.807643 
L 228.691392 -207.018706 
L 228.484551 -206.229769 
L 228.294289 -205.440833 
L 228.118951 -204.651896 
L 227.956714 -203.862959 
L 227.80573 -203.074022 
L 227.664266 -202.285086 
L 227.530818 -201.496149 
L 227.404199 -200.707212 
L 227.283589 -199.918275 
z
" style="stroke: #000000"/>
    </defs>
    <g clip-path="url(#p1e44e5c0aa)">
     <use xlink:href="#m6772f760dd" x="0" y="360" style="fill: #deebf7; stroke: #000000"/>
    </g>
   </g>
   <g id="PolyCollection_5">
    <defs>
     <path id="m4b3d536c79" d="M 271.548342 -202.198621 
L 270.331658 -202.198621 
L 270.308785 -203.027546 
L 270.296897 -203.85647 
L 270.296044 -204.685394 
L 270.305491 -205.514319 
L 270.323765 -206.343243 
L 270.348758 -207.172167 
L 270.377888 -208.001092 
L 270.40828 -208.830016 
L 270.436971 -209.658941 
L 270.461087 -210.487865 
L 270.477999 -211.316789 
L 270.485438 -212.145714 
L 270.481556 -212.974638 
L 270.464949 -213.803563 
L 270.434634 -214.632487 
L 270.390003 -215.461411 
L 270.330763 -216.290336 
L 270.25687 -217.11926 
L 270.16848 -217.948185 
L 270.0659 -218.777109 
L 269.949551 -219.606033 
L 269.819921 -220.434958 
L 269.677506 -221.263882 
L 269.522733 -222.092807 
L 269.355858 -222.921731 
L 269.176855 -223.750655 
L 268.985321 -224.57958 
L 268.780415 -225.408504 
L 268.560867 -226.237428 
L 268.325073 -227.066353 
L 268.071273 -227.895277 
L 267.797808 -228.724202 
L 267.503407 -229.553126 
L 267.18747 -230.38205 
L 266.850285 -231.210975 
L 266.493143 -232.039899 
L 266.118329 -232.868824 
L 265.728985 -233.697748 
L 265.32888 -234.526672 
L 264.92211 -235.355597 
L 264.512799 -236.184521 
L 264.10483 -237.013446 
L 263.701645 -237.84237 
L 263.306136 -238.671294 
L 262.920624 -239.500219 
L 262.546924 -240.329143 
L 262.186488 -241.158068 
L 261.840597 -241.986992 
L 261.5106 -242.815916 
L 261.198166 -243.644841 
L 260.905532 -244.473765 
L 260.635693 -245.302689 
L 260.392524 -246.131614 
L 260.180766 -246.960538 
L 260.005867 -247.789463 
L 259.873675 -248.618387 
L 259.789984 -249.447311 
L 259.76 -250.276236 
L 259.787765 -251.10516 
L 259.875636 -251.934085 
L 260.02387 -252.763009 
L 260.2304 -253.591933 
L 260.49081 -254.420858 
L 260.79856 -255.249782 
L 261.145419 -256.078707 
L 261.522079 -256.907631 
L 261.91889 -257.736555 
L 262.32663 -258.56548 
L 262.737218 -259.394404 
L 263.144289 -260.223328 
L 263.543551 -261.052253 
L 263.932874 -261.881177 
L 264.312104 -262.710102 
L 264.682629 -263.539026 
L 265.046764 -264.36795 
L 265.40706 -265.196875 
L 265.765638 -266.025799 
L 266.123654 -266.854724 
L 266.48097 -267.683648 
L 266.836067 -268.512572 
L 267.186201 -269.341497 
L 267.527747 -270.170421 
L 267.856658 -270.999346 
L 268.168964 -271.82827 
L 268.46122 -272.657194 
L 268.730834 -273.486119 
L 268.976265 -274.315043 
L 269.197055 -275.143968 
L 269.393742 -275.972892 
L 269.567668 -276.801816 
L 269.720751 -277.630741 
L 269.855245 -278.459665 
L 269.973526 -279.288589 
L 270.077926 -280.117514 
L 270.170616 -280.946438 
L 270.253532 -281.775363 
L 270.328343 -282.604287 
L 270.396432 -283.433211 
L 270.458899 -284.262136 
L 271.421101 -284.262136 
L 271.421101 -284.262136 
L 271.483568 -283.433211 
L 271.551657 -282.604287 
L 271.626468 -281.775363 
L 271.709384 -280.946438 
L 271.802074 -280.117514 
L 271.906474 -279.288589 
L 272.024755 -278.459665 
L 272.159249 -277.630741 
L 272.312332 -276.801816 
L 272.486258 -275.972892 
L 272.682945 -275.143968 
L 272.903735 -274.315043 
L 273.149166 -273.486119 
L 273.41878 -272.657194 
L 273.711036 -271.82827 
L 274.023342 -270.999346 
L 274.352253 -270.170421 
L 274.693799 -269.341497 
L 275.043933 -268.512572 
L 275.39903 -267.683648 
L 275.756346 -266.854724 
L 276.114362 -266.025799 
L 276.47294 -265.196875 
L 276.833236 -264.36795 
L 277.197371 -263.539026 
L 277.567896 -262.710102 
L 277.947126 -261.881177 
L 278.336449 -261.052253 
L 278.735711 -260.223328 
L 279.142782 -259.394404 
L 279.55337 -258.56548 
L 279.96111 -257.736555 
L 280.357921 -256.907631 
L 280.734581 -256.078707 
L 281.08144 -255.249782 
L 281.38919 -254.420858 
L 281.6496 -253.591933 
L 281.85613 -252.763009 
L 282.004364 -251.934085 
L 282.092235 -251.10516 
L 282.12 -250.276236 
L 282.090016 -249.447311 
L 282.006325 -248.618387 
L 281.874133 -247.789463 
L 281.699234 -246.960538 
L 281.487476 -246.131614 
L 281.244307 -245.302689 
L 280.974468 -244.473765 
L 280.681834 -243.644841 
L 280.3694 -242.815916 
L 280.039403 -241.986992 
L 279.693512 -241.158068 
L 279.333076 -240.329143 
L 278.959376 -239.500219 
L 278.573864 -238.671294 
L 278.178355 -237.84237 
L 277.77517 -237.013446 
L 277.367201 -236.184521 
L 276.95789 -235.355597 
L 276.55112 -234.526672 
L 276.151015 -233.697748 
L 275.761671 -232.868824 
L 275.386857 -232.039899 
L 275.029715 -231.210975 
L 274.69253 -230.38205 
L 274.376593 -229.553126 
L 274.082192 -228.724202 
L 273.808727 -227.895277 
L 273.554927 -227.066353 
L 273.319133 -226.237428 
L 273.099585 -225.408504 
L 272.894679 -224.57958 
L 272.703145 -223.750655 
L 272.524142 -222.921731 
L 272.357267 -222.092807 
L 272.202494 -221.263882 
L 272.060079 -220.434958 
L 271.930449 -219.606033 
L 271.8141 -218.777109 
L 271.71152 -217.948185 
L 271.62313 -217.11926 
L 271.549237 -216.290336 
L 271.489997 -215.461411 
L 271.445366 -214.632487 
L 271.415051 -213.803563 
L 271.398444 -212.974638 
L 271.394562 -212.145714 
L 271.402001 -211.316789 
L 271.418913 -210.487865 
L 271.443029 -209.658941 
L 271.47172 -208.830016 
L 271.502112 -208.001092 
L 271.531242 -207.172167 
L 271.556235 -206.343243 
L 271.574509 -205.514319 
L 271.583956 -204.685394 
L 271.583103 -203.85647 
L 271.571215 -203.027546 
L 271.548342 -202.198621 
z
" style="stroke: #000000"/>
    </defs>
    <g clip-path="url(#p1e44e5c0aa)">
     <use xlink:href="#m4b3d536c79" x="0" y="360" style="fill: #deebf7; stroke: #000000"/>
    </g>
   </g>
   <g id="PolyCollection_6">
    <defs>
     <path id="m7ac1367652" d="M 316.003659 -206.967669 
L 315.316341 -206.967669 
L 315.284786 -207.718256 
L 315.247645 -208.468842 
L 315.20228 -209.219428 
L 315.145663 -209.970014 
L 315.07453 -210.7206 
L 314.985572 -211.471186 
L 314.875667 -212.221772 
L 314.742116 -212.972358 
L 314.582883 -213.722944 
L 314.396814 -214.47353 
L 314.18381 -215.224116 
L 313.944947 -215.974703 
L 313.682522 -216.725289 
L 313.400023 -217.475875 
L 313.102008 -218.226461 
L 312.793915 -218.977047 
L 312.481791 -219.727633 
L 312.171976 -220.478219 
L 311.870754 -221.228805 
L 311.583983 -221.979391 
L 311.316751 -222.729977 
L 311.073066 -223.480564 
L 310.855594 -224.23115 
L 310.665474 -224.981736 
L 310.502215 -225.732322 
L 310.363679 -226.482908 
L 310.246153 -227.233494 
L 310.144518 -227.98408 
L 310.052504 -228.734666 
L 309.963026 -229.485252 
L 309.86859 -230.235838 
L 309.76175 -230.986425 
L 309.635595 -231.737011 
L 309.484219 -232.487597 
L 309.303167 -233.238183 
L 309.089783 -233.988769 
L 308.843455 -234.739355 
L 308.565702 -235.489941 
L 308.260111 -236.240527 
L 307.932095 -236.991113 
L 307.588515 -237.741699 
L 307.23718 -238.492285 
L 306.88628 -239.242872 
L 306.543815 -239.993458 
L 306.217065 -240.744044 
L 305.912162 -241.49463 
L 305.63381 -242.245216 
L 305.385165 -242.995802 
L 305.167883 -243.746388 
L 304.982323 -244.496974 
L 304.827861 -245.24756 
L 304.703276 -245.998146 
L 304.607161 -246.748733 
L 304.53829 -247.499319 
L 304.495922 -248.249905 
L 304.48 -249.000491 
L 304.491226 -249.751077 
L 304.53102 -250.501663 
L 304.601373 -251.252249 
L 304.704609 -252.002835 
L 304.843099 -252.753421 
L 305.018946 -253.504007 
L 305.233682 -254.254593 
L 305.488005 -255.00518 
L 305.781568 -255.755766 
L 306.112857 -256.506352 
L 306.479148 -257.256938 
L 306.876548 -258.007524 
L 307.300129 -258.75811 
L 307.744121 -259.508696 
L 308.202162 -260.259282 
L 308.667584 -261.009868 
L 309.133708 -261.760454 
L 309.594137 -262.511041 
L 310.043016 -263.261627 
L 310.475258 -264.012213 
L 310.886711 -264.762799 
L 311.274264 -265.513385 
L 311.635891 -266.263971 
L 311.970626 -267.014557 
L 312.278486 -267.765143 
L 312.56033 -268.515729 
L 312.8177 -269.266315 
L 313.052616 -270.016902 
L 313.267378 -270.767488 
L 313.464373 -271.518074 
L 313.645896 -272.26866 
L 313.81402 -273.019246 
L 313.9705 -273.769832 
L 314.116729 -274.520418 
L 314.253742 -275.271004 
L 314.382251 -276.02159 
L 314.502721 -276.772176 
L 314.615446 -277.522762 
L 314.720631 -278.273349 
L 314.818463 -279.023935 
L 314.909157 -279.774521 
L 314.992978 -280.525107 
L 315.070243 -281.275693 
L 316.249757 -281.275693 
L 316.249757 -281.275693 
L 316.327022 -280.525107 
L 316.410843 -279.774521 
L 316.501537 -279.023935 
L 316.599369 -278.273349 
L 316.704554 -277.522762 
L 316.817279 -276.772176 
L 316.937749 -276.02159 
L 317.066258 -275.271004 
L 317.203271 -274.520418 
L 317.3495 -273.769832 
L 317.50598 -273.019246 
L 317.674104 -272.26866 
L 317.855627 -271.518074 
L 318.052622 -270.767488 
L 318.267384 -270.016902 
L 318.5023 -269.266315 
L 318.75967 -268.515729 
L 319.041514 -267.765143 
L 319.349374 -267.014557 
L 319.684109 -266.263971 
L 320.045736 -265.513385 
L 320.433289 -264.762799 
L 320.844742 -264.012213 
L 321.276984 -263.261627 
L 321.725863 -262.511041 
L 322.186292 -261.760454 
L 322.652416 -261.009868 
L 323.117838 -260.259282 
L 323.575879 -259.508696 
L 324.019871 -258.75811 
L 324.443452 -258.007524 
L 324.840852 -257.256938 
L 325.207143 -256.506352 
L 325.538432 -255.755766 
L 325.831995 -255.00518 
L 326.086318 -254.254593 
L 326.301054 -253.504007 
L 326.476901 -252.753421 
L 326.615391 -252.002835 
L 326.718627 -251.252249 
L 326.78898 -250.501663 
L 326.828774 -249.751077 
L 326.84 -249.000491 
L 326.824078 -248.249905 
L 326.78171 -247.499319 
L 326.712839 -246.748733 
L 326.616724 -245.998146 
L 326.492139 -245.24756 
L 326.337677 -244.496974 
L 326.152117 -243.746388 
L 325.934835 -242.995802 
L 325.68619 -242.245216 
L 325.407838 -241.49463 
L 325.102935 -240.744044 
L 324.776185 -239.993458 
L 324.43372 -239.242872 
L 324.08282 -238.492285 
L 323.731485 -237.741699 
L 323.387905 -236.991113 
L 323.059889 -236.240527 
L 322.754298 -235.489941 
L 322.476545 -234.739355 
L 322.230217 -233.988769 
L 322.016833 -233.238183 
L 321.835781 -232.487597 
L 321.684405 -231.737011 
L 321.55825 -230.986425 
L 321.45141 -230.235838 
L 321.356974 -229.485252 
L 321.267496 -228.734666 
L 321.175482 -227.98408 
L 321.073847 -227.233494 
L 320.956321 -226.482908 
L 320.817785 -225.732322 
L 320.654526 -224.981736 
L 320.464406 -224.23115 
L 320.246934 -223.480564 
L 320.003249 -222.729977 
L 319.736017 -221.979391 
L 319.449246 -221.228805 
L 319.148024 -220.478219 
L 318.838209 -219.727633 
L 318.526085 -218.977047 
L 318.217992 -218.226461 
L 317.919977 -217.475875 
L 317.637478 -216.725289 
L 317.375053 -215.974703 
L 317.13619 -215.224116 
L 316.923186 -214.47353 
L 316.737117 -213.722944 
L 316.577884 -212.972358 
L 316.444333 -212.221772 
L 316.334428 -211.471186 
L 316.24547 -210.7206 
L 316.174337 -209.970014 
L 316.11772 -209.219428 
L 316.072355 -208.468842 
L 316.035214 -207.718256 
L 316.003659 -206.967669 
z
" style="stroke: #000000"/>
    </defs>
    <g clip-path="url(#p1e44e5c0aa)">
     <use xlink:href="#m7ac1367652" x="0" y="360" style="fill: #f8cbad; stroke: #000000"/>
    </g>
   </g>
   <g id="LineCollection_1">
    <path d="M 92.06 223.164543 
L 92.06 199.694054 
" clip-path="url(#p1e44e5c0aa)" style="fill: none; stroke: #000000; stroke-width: 5"/>
    <path d="M 136.78 140.341395 
L 136.78 120.071493 
" clip-path="url(#p1e44e5c0aa)" style="fill: none; stroke: #000000; stroke-width: 5"/>
    <path d="M 181.5 125.338282 
L 181.5 106.005984 
" clip-path="url(#p1e44e5c0aa)" style="fill: none; stroke: #000000; stroke-width: 5"/>
    <path d="M 226.22 134.287482 
L 226.22 114.392332 
" clip-path="url(#p1e44e5c0aa)" style="fill: none; stroke: #000000; stroke-width: 5"/>
    <path d="M 270.94 118.32072 
L 270.94 103.039798 
" clip-path="url(#p1e44e5c0aa)" style="fill: none; stroke: #000000; stroke-width: 5"/>
    <path d="M 315.66 123.630916 
L 315.66 104.923687 
" clip-path="url(#p1e44e5c0aa)" style="fill: none; stroke: #000000; stroke-width: 5"/>
   </g>
   <g id="LineCollection_2">
    <path d="M 92.06 223.164543 
L 92.06 228.24902 
" clip-path="url(#p1e44e5c0aa)" style="fill: none; stroke: #000000"/>
    <path d="M 136.78 140.341395 
L 136.78 108.276201 
" clip-path="url(#p1e44e5c0aa)" style="fill: none; stroke: #000000"/>
    <path d="M 181.5 125.338282 
L 181.5 119.197553 
" clip-path="url(#p1e44e5c0aa)" style="fill: none; stroke: #000000"/>
    <path d="M 226.22 134.287482 
L 226.22 117.623304 
" clip-path="url(#p1e44e5c0aa)" style="fill: none; stroke: #000000"/>
    <path d="M 270.94 118.32072 
L 270.94 122.456017 
" clip-path="url(#p1e44e5c0aa)" style="fill: none; stroke: #000000"/>
    <path d="M 315.66 123.630916 
L 315.66 93.413439 
" clip-path="url(#p1e44e5c0aa)" style="fill: none; stroke: #000000"/>
   </g>
   <g id="patch_3">
    <path d="M 58.52 305.584 
L 58.52 16.2 
" style="fill: none; stroke: #000000; stroke-width: 0.8; stroke-linejoin: miter; stroke-linecap: square"/>
   </g>
   <g id="patch_4">
    <path d="M 349.2 305.584 
L 349.2 16.2 
" style="fill: none; stroke: #000000; stroke-width: 0.8; stroke-linejoin: miter; stroke-linecap: square"/>
   </g>
   <g id="patch_5">
    <path d="M 58.52 305.584 
L 349.2 305.584 
" style="fill: none; stroke: #000000; stroke-width: 0.8; stroke-linejoin: miter; stroke-linecap: square"/>
   </g>
   <g id="patch_6">
    <path d="M 58.52 16.2 
L 349.2 16.2 
" style="fill: none; stroke: #000000; stroke-width: 0.8; stroke-linejoin: miter; stroke-linecap: square"/>
   </g>
   <g id="PathCollection_1">
    <defs>
     <path id="m438efc7b19" d="M 0 2.738613 
C 0.726289 2.738613 1.422928 2.450055 1.936492 1.936492 
C 2.450055 1.422928 2.738613 0.726289 2.738613 0 
C 2.738613 -0.726289 2.450055 -1.422928 1.936492 -1.936492 
C 1.422928 -2.450055 0.726289 -2.738613 0 -2.738613 
C -0.726289 -2.738613 -1.422928 -2.450055 -1.936492 -1.936492 
C -2.450055 -1.422928 -2.738613 -0.726289 -2.738613 0 
C -2.738613 0.726289 -2.450055 1.422928 -1.936492 1.936492 
C -1.422928 2.450055 -0.726289 2.738613 0 2.738613 
z
" style="stroke: #ffffff"/>
    </defs>
    <g clip-path="url(#p1e44e5c0aa)">
     <use xlink:href="#m438efc7b19" x="92.06" y="209.887605" style="fill: #ffffff; stroke: #ffffff"/>
     <use xlink:href="#m438efc7b19" x="136.78" y="129.872929" style="fill: #ffffff; stroke: #ffffff"/>
     <use xlink:href="#m438efc7b19" x="181.5" y="115.120133" style="fill: #ffffff; stroke: #ffffff"/>
     <use xlink:href="#m438efc7b19" x="226.22" y="125.346963" style="fill: #ffffff; stroke: #ffffff"/>
     <use xlink:href="#m438efc7b19" x="270.94" y="110.110896" style="fill: #ffffff; stroke: #ffffff"/>
     <use xlink:href="#m438efc7b19" x="315.66" y="113.158109" style="fill: #ffffff; stroke: #ffffff"/>
    </g>
   </g>
  </g>
 </g>
 <defs>
  <clipPath id="p1e44e5c0aa">
   <rect x="58.52" y="16.2" width="290.68" height="289.384"/>
  </clipPath>
 </defs>
</svg>
