<?xml version="1.0" encoding="utf-8" standalone="no"?>
<!DOCTYPE svg PUBLIC "-//W3C//DTD SVG 1.1//EN"
  "http://www.w3.org/Graphics/SVG/1.1/DTD/svg11.dtd">
<svg xmlns:xlink="http://www.w3.org/1999/xlink" width="360pt" height="360pt" viewBox="0 0 360 360" xmlns="http://www.w3.org/2000/svg" version="1.1">
 <metadata>
  <rdf:RDF xmlns:dc="http://purl.org/dc/elements/1.1/" xmlns:cc="http://creativecommons.org/ns#" xmlns:rdf="http://www.w3.org/1999/02/22-rdf-syntax-ns#">
   <cc:Work>
    <dc:type rdf:resource="http://purl.org/dc/dcmitype/StillImage"/>
    <dc:date>2022-07-06T10:29:01.893402</dc:date>
    <dc:format>image/svg+xml</dc:format>
    <dc:creator>
     <cc:Agent>
      <dc:title>Matplotlib v3.5.1, https://matplotlib.org/</dc:title>
     </cc:Agent>
    </dc:creator>
   </cc:Work>
  </rdf:RDF>
 </metadata>
 <defs>
  <style type="text/css">*{stroke-linejoin: round; stroke-linecap: butt}</style>
 </defs>
 <g id="figure_1">
  <g id="patch_1">
   <path d="M 0 360 
L 360 360 
L 360 0 
L 0 0 
L 0 360 
z
" style="fill: none"/>
  </g>
  <g id="axes_1">
   <g id="patch_2">
    <path d="M 58.52 305.584 
L 349.2 305.584 
L 349.2 16.2 
L 58.52 16.2 
L 58.52 305.584 
z
" style="fill: none"/>
   </g>
   <g id="matplotlib.axis_1">
    <g id="xtick_1">
     <g id="line2d_1">
      <defs>
       <path id="m1f700280a7" d="M 0 0 
L 0 3.5 
" style="stroke: #000000; stroke-width: 0.8"/>
      </defs>
      <g>
       <use xlink:href="#m1f700280a7" x="87.588" y="305.584" style="stroke: #000000; stroke-width: 0.8"/>
      </g>
     </g>
     <g id="text_1">
      <!-- 10 -->
      <g transform="translate(78.6805 323.221812)scale(0.14 -0.14)">
       <defs>
        <path id="DejaVuSans-31" d="M 794 531 
L 1825 531 
L 1825 4091 
L 703 3866 
L 703 4441 
L 1819 4666 
L 2450 4666 
L 2450 531 
L 3481 531 
L 3481 0 
L 794 0 
L 794 531 
z
" transform="scale(0.015625)"/>
        <path id="DejaVuSans-30" d="M 2034 4250 
Q 1547 4250 1301 3770 
Q 1056 3291 1056 2328 
Q 1056 1369 1301 889 
Q 1547 409 2034 409 
Q 2525 409 2770 889 
Q 3016 1369 3016 2328 
Q 3016 3291 2770 3770 
Q 2525 4250 2034 4250 
z
M 2034 4750 
Q 2819 4750 3233 4129 
Q 3647 3509 3647 2328 
Q 3647 1150 3233 529 
Q 2819 -91 2034 -91 
Q 1250 -91 836 529 
Q 422 1150 422 2328 
Q 422 3509 836 4129 
Q 1250 4750 2034 4750 
z
" transform="scale(0.015625)"/>
       </defs>
       <use xlink:href="#DejaVuSans-31"/>
       <use xlink:href="#DejaVuSans-30" x="63.623047"/>
      </g>
     </g>
    </g>
    <g id="xtick_2">
     <g id="line2d_2">
      <g>
       <use xlink:href="#m1f700280a7" x="126.345333" y="305.584" style="stroke: #000000; stroke-width: 0.8"/>
      </g>
     </g>
     <g id="text_2">
      <!-- 20 -->
      <g transform="translate(117.437833 323.221812)scale(0.14 -0.14)">
       <defs>
        <path id="DejaVuSans-32" d="M 1228 531 
L 3431 531 
L 3431 0 
L 469 0 
L 469 531 
Q 828 903 1448 1529 
Q 2069 2156 2228 2338 
Q 2531 2678 2651 2914 
Q 2772 3150 2772 3378 
Q 2772 3750 2511 3984 
Q 2250 4219 1831 4219 
Q 1534 4219 1204 4116 
Q 875 4013 500 3803 
L 500 4441 
Q 881 4594 1212 4672 
Q 1544 4750 1819 4750 
Q 2544 4750 2975 4387 
Q 3406 4025 3406 3419 
Q 3406 3131 3298 2873 
Q 3191 2616 2906 2266 
Q 2828 2175 2409 1742 
Q 1991 1309 1228 531 
z
" transform="scale(0.015625)"/>
       </defs>
       <use xlink:href="#DejaVuSans-32"/>
       <use xlink:href="#DejaVuSans-30" x="63.623047"/>
      </g>
     </g>
    </g>
    <g id="xtick_3">
     <g id="line2d_3">
      <g>
       <use xlink:href="#m1f700280a7" x="165.102667" y="305.584" style="stroke: #000000; stroke-width: 0.8"/>
      </g>
     </g>
     <g id="text_3">
      <!-- $\bf{10_{3T}}$ -->
      <g transform="translate(148.302667 323.221812)scale(0.14 -0.14)">
       <defs>
        <path id="DejaVuSans-Bold-31" d="M 750 831 
L 1813 831 
L 1813 3847 
L 722 3622 
L 722 4441 
L 1806 4666 
L 2950 4666 
L 2950 831 
L 4013 831 
L 4013 0 
L 750 0 
L 750 831 
z
" transform="scale(0.015625)"/>
        <path id="DejaVuSans-Bold-30" d="M 2944 2338 
Q 2944 3213 2780 3570 
Q 2616 3928 2228 3928 
Q 1841 3928 1675 3570 
Q 1509 3213 1509 2338 
Q 1509 1453 1675 1090 
Q 1841 728 2228 728 
Q 2613 728 2778 1090 
Q 2944 1453 2944 2338 
z
M 4147 2328 
Q 4147 1169 3647 539 
Q 3147 -91 2228 -91 
Q 1306 -91 806 539 
Q 306 1169 306 2328 
Q 306 3491 806 4120 
Q 1306 4750 2228 4750 
Q 3147 4750 3647 4120 
Q 4147 3491 4147 2328 
z
" transform="scale(0.015625)"/>
        <path id="DejaVuSans-Bold-33" d="M 2981 2516 
Q 3453 2394 3698 2092 
Q 3944 1791 3944 1325 
Q 3944 631 3412 270 
Q 2881 -91 1863 -91 
Q 1503 -91 1142 -33 
Q 781 25 428 141 
L 428 1069 
Q 766 900 1098 814 
Q 1431 728 1753 728 
Q 2231 728 2486 893 
Q 2741 1059 2741 1369 
Q 2741 1688 2480 1852 
Q 2219 2016 1709 2016 
L 1228 2016 
L 1228 2791 
L 1734 2791 
Q 2188 2791 2409 2933 
Q 2631 3075 2631 3366 
Q 2631 3634 2415 3781 
Q 2200 3928 1806 3928 
Q 1516 3928 1219 3862 
Q 922 3797 628 3669 
L 628 4550 
Q 984 4650 1334 4700 
Q 1684 4750 2022 4750 
Q 2931 4750 3382 4451 
Q 3834 4153 3834 3553 
Q 3834 3144 3618 2883 
Q 3403 2622 2981 2516 
z
" transform="scale(0.015625)"/>
        <path id="DejaVuSans-Bold-54" d="M 31 4666 
L 4331 4666 
L 4331 3756 
L 2784 3756 
L 2784 0 
L 1581 0 
L 1581 3756 
L 31 3756 
L 31 4666 
z
" transform="scale(0.015625)"/>
       </defs>
       <use xlink:href="#DejaVuSans-Bold-31" transform="translate(0 0.78125)"/>
       <use xlink:href="#DejaVuSans-Bold-30" transform="translate(69.580078 0.78125)"/>
       <use xlink:href="#DejaVuSans-Bold-33" transform="translate(140.117188 -15.625)scale(0.7)"/>
       <use xlink:href="#DejaVuSans-Bold-54" transform="translate(188.823242 -15.625)scale(0.7)"/>
      </g>
     </g>
    </g>
    <g id="xtick_4">
     <g id="line2d_4">
      <g>
       <use xlink:href="#m1f700280a7" x="203.86" y="305.584" style="stroke: #000000; stroke-width: 0.8"/>
      </g>
     </g>
     <g id="text_4">
      <!-- 50 -->
      <g transform="translate(194.9525 323.221812)scale(0.14 -0.14)">
       <defs>
        <path id="DejaVuSans-35" d="M 691 4666 
L 3169 4666 
L 3169 4134 
L 1269 4134 
L 1269 2991 
Q 1406 3038 1543 3061 
Q 1681 3084 1819 3084 
Q 2600 3084 3056 2656 
Q 3513 2228 3513 1497 
Q 3513 744 3044 326 
Q 2575 -91 1722 -91 
Q 1428 -91 1123 -41 
Q 819 9 494 109 
L 494 744 
Q 775 591 1075 516 
Q 1375 441 1709 441 
Q 2250 441 2565 725 
Q 2881 1009 2881 1497 
Q 2881 1984 2565 2268 
Q 2250 2553 1709 2553 
Q 1456 2553 1204 2497 
Q 953 2441 691 2322 
L 691 4666 
z
" transform="scale(0.015625)"/>
       </defs>
       <use xlink:href="#DejaVuSans-35"/>
       <use xlink:href="#DejaVuSans-30" x="63.623047"/>
      </g>
     </g>
    </g>
    <g id="xtick_5">
     <g id="line2d_5">
      <g>
       <use xlink:href="#m1f700280a7" x="242.617333" y="305.584" style="stroke: #000000; stroke-width: 0.8"/>
      </g>
     </g>
     <g id="text_5">
      <!-- 100 -->
      <g transform="translate(229.256083 323.221812)scale(0.14 -0.14)">
       <use xlink:href="#DejaVuSans-31"/>
       <use xlink:href="#DejaVuSans-30" x="63.623047"/>
       <use xlink:href="#DejaVuSans-30" x="127.246094"/>
      </g>
     </g>
    </g>
    <g id="xtick_6">
     <g id="line2d_6">
      <g>
       <use xlink:href="#m1f700280a7" x="281.374667" y="305.584" style="stroke: #000000; stroke-width: 0.8"/>
      </g>
     </g>
     <g id="text_6">
      <!-- 200 -->
      <g transform="translate(268.013417 323.221812)scale(0.14 -0.14)">
       <use xlink:href="#DejaVuSans-32"/>
       <use xlink:href="#DejaVuSans-30" x="63.623047"/>
       <use xlink:href="#DejaVuSans-30" x="127.246094"/>
      </g>
     </g>
    </g>
    <g id="xtick_7">
     <g id="line2d_7">
      <g>
       <use xlink:href="#m1f700280a7" x="320.132" y="305.584" style="stroke: #000000; stroke-width: 0.8"/>
      </g>
     </g>
     <g id="text_7">
      <!-- 402 -->
      <g transform="translate(306.77075 323.221812)scale(0.14 -0.14)">
       <defs>
        <path id="DejaVuSans-34" d="M 2419 4116 
L 825 1625 
L 2419 1625 
L 2419 4116 
z
M 2253 4666 
L 3047 4666 
L 3047 1625 
L 3713 1625 
L 3713 1100 
L 3047 1100 
L 3047 0 
L 2419 0 
L 2419 1100 
L 313 1100 
L 313 1709 
L 2253 4666 
z
" transform="scale(0.015625)"/>
       </defs>
       <use xlink:href="#DejaVuSans-34"/>
       <use xlink:href="#DejaVuSans-30" x="63.623047"/>
       <use xlink:href="#DejaVuSans-32" x="127.246094"/>
      </g>
     </g>
    </g>
    <g id="xtick_8"/>
    <g id="xtick_9"/>
    <g id="xtick_10"/>
    <g id="xtick_11"/>
    <g id="xtick_12"/>
    <g id="xtick_13"/>
    <g id="xtick_14"/>
    <g id="xtick_15"/>
    <g id="xtick_16"/>
    <g id="xtick_17"/>
    <g id="xtick_18"/>
    <g id="xtick_19"/>
    <g id="xtick_20"/>
    <g id="xtick_21"/>
    <g id="xtick_22"/>
    <g id="xtick_23"/>
    <g id="xtick_24"/>
    <g id="xtick_25"/>
    <g id="xtick_26"/>
    <g id="xtick_27"/>
    <g id="xtick_28"/>
    <g id="xtick_29"/>
    <g id="xtick_30"/>
    <g id="xtick_31"/>
    <g id="xtick_32"/>
    <g id="xtick_33"/>
    <g id="xtick_34"/>
    <g id="xtick_35"/>
    <g id="xtick_36"/>
    <g id="xtick_37"/>
    <g id="text_8">
     <!-- $n_{conf}$ -->
     <g transform="translate(184.33 343.810563)scale(0.18 -0.18)">
      <defs>
       <path id="DejaVuSans-Oblique-6e" d="M 3566 2113 
L 3156 0 
L 2578 0 
L 2988 2091 
Q 3016 2238 3031 2350 
Q 3047 2463 3047 2528 
Q 3047 2791 2881 2937 
Q 2716 3084 2419 3084 
Q 1956 3084 1622 2776 
Q 1288 2469 1184 1941 
L 800 0 
L 225 0 
L 903 3500 
L 1478 3500 
L 1363 2950 
Q 1603 3253 1940 3418 
Q 2278 3584 2650 3584 
Q 3113 3584 3367 3334 
Q 3622 3084 3622 2631 
Q 3622 2519 3608 2391 
Q 3594 2263 3566 2113 
z
" transform="scale(0.015625)"/>
       <path id="DejaVuSans-Oblique-63" d="M 3431 3366 
L 3316 2797 
Q 3109 2947 2876 3022 
Q 2644 3097 2394 3097 
Q 2119 3097 1870 3000 
Q 1622 2903 1453 2725 
Q 1184 2453 1037 2087 
Q 891 1722 891 1331 
Q 891 859 1127 628 
Q 1363 397 1844 397 
Q 2081 397 2348 469 
Q 2616 541 2906 684 
L 2797 116 
Q 2547 13 2283 -39 
Q 2019 -91 1741 -91 
Q 1044 -91 669 257 
Q 294 606 294 1253 
Q 294 1797 489 2255 
Q 684 2713 1069 3078 
Q 1331 3328 1684 3456 
Q 2038 3584 2456 3584 
Q 2700 3584 2940 3529 
Q 3181 3475 3431 3366 
z
" transform="scale(0.015625)"/>
       <path id="DejaVuSans-Oblique-6f" d="M 1625 -91 
Q 1009 -91 651 289 
Q 294 669 294 1325 
Q 294 1706 417 2101 
Q 541 2497 738 2766 
Q 1047 3184 1428 3384 
Q 1809 3584 2291 3584 
Q 2888 3584 3255 3212 
Q 3622 2841 3622 2241 
Q 3622 1825 3500 1412 
Q 3378 1000 3181 728 
Q 2875 309 2494 109 
Q 2113 -91 1625 -91 
z
M 891 1344 
Q 891 869 1089 633 
Q 1288 397 1691 397 
Q 2269 397 2648 901 
Q 3028 1406 3028 2181 
Q 3028 2634 2825 2865 
Q 2622 3097 2228 3097 
Q 1903 3097 1650 2945 
Q 1397 2794 1197 2484 
Q 1050 2253 970 1956 
Q 891 1659 891 1344 
z
" transform="scale(0.015625)"/>
       <path id="DejaVuSans-Oblique-66" d="M 3059 4863 
L 2969 4384 
L 2419 4384 
Q 2106 4384 1964 4261 
Q 1822 4138 1753 3809 
L 1691 3500 
L 2638 3500 
L 2553 3053 
L 1606 3053 
L 1013 0 
L 434 0 
L 1031 3053 
L 481 3053 
L 563 3500 
L 1113 3500 
L 1159 3744 
Q 1278 4363 1576 4613 
Q 1875 4863 2516 4863 
L 3059 4863 
z
" transform="scale(0.015625)"/>
      </defs>
      <use xlink:href="#DejaVuSans-Oblique-6e"/>
      <use xlink:href="#DejaVuSans-Oblique-63" transform="translate(63.378906 -16.40625)scale(0.7)"/>
      <use xlink:href="#DejaVuSans-Oblique-6f" transform="translate(101.865234 -16.40625)scale(0.7)"/>
      <use xlink:href="#DejaVuSans-Oblique-6e" transform="translate(144.692383 -16.40625)scale(0.7)"/>
      <use xlink:href="#DejaVuSans-Oblique-66" transform="translate(189.057617 -16.40625)scale(0.7)"/>
     </g>
    </g>
   </g>
   <g id="matplotlib.axis_2">
    <g id="ytick_1">
     <g id="line2d_8">
      <path d="M 58.52 305.584 
L 349.2 305.584 
" clip-path="url(#p33f93230ed)" style="fill: none; stroke: #666666; stroke-width: 0.8; stroke-linecap: square"/>
     </g>
     <g id="line2d_9">
      <defs>
       <path id="mc2433fb7e2" d="M 0 0 
L -3.5 0 
" style="stroke: #000000; stroke-width: 0.8"/>
      </defs>
      <g>
       <use xlink:href="#mc2433fb7e2" x="58.52" y="305.584" style="stroke: #000000; stroke-width: 0.8"/>
      </g>
     </g>
     <g id="text_9">
      <!-- 0.5 -->
      <g transform="translate(29.255625 310.902906)scale(0.14 -0.14)">
       <defs>
        <path id="DejaVuSans-2e" d="M 684 794 
L 1344 794 
L 1344 0 
L 684 0 
L 684 794 
z
" transform="scale(0.015625)"/>
       </defs>
       <use xlink:href="#DejaVuSans-30"/>
       <use xlink:href="#DejaVuSans-2e" x="63.623047"/>
       <use xlink:href="#DejaVuSans-35" x="95.410156"/>
      </g>
     </g>
    </g>
    <g id="ytick_2">
     <g id="line2d_10">
      <path d="M 58.52 247.7072 
L 349.2 247.7072 
" clip-path="url(#p33f93230ed)" style="fill: none; stroke: #666666; stroke-width: 0.8; stroke-linecap: square"/>
     </g>
     <g id="line2d_11">
      <g>
       <use xlink:href="#mc2433fb7e2" x="58.52" y="247.7072" style="stroke: #000000; stroke-width: 0.8"/>
      </g>
     </g>
     <g id="text_10">
      <!-- 0.6 -->
      <g transform="translate(29.255625 253.026106)scale(0.14 -0.14)">
       <defs>
        <path id="DejaVuSans-36" d="M 2113 2584 
Q 1688 2584 1439 2293 
Q 1191 2003 1191 1497 
Q 1191 994 1439 701 
Q 1688 409 2113 409 
Q 2538 409 2786 701 
Q 3034 994 3034 1497 
Q 3034 2003 2786 2293 
Q 2538 2584 2113 2584 
z
M 3366 4563 
L 3366 3988 
Q 3128 4100 2886 4159 
Q 2644 4219 2406 4219 
Q 1781 4219 1451 3797 
Q 1122 3375 1075 2522 
Q 1259 2794 1537 2939 
Q 1816 3084 2150 3084 
Q 2853 3084 3261 2657 
Q 3669 2231 3669 1497 
Q 3669 778 3244 343 
Q 2819 -91 2113 -91 
Q 1303 -91 875 529 
Q 447 1150 447 2328 
Q 447 3434 972 4092 
Q 1497 4750 2381 4750 
Q 2619 4750 2861 4703 
Q 3103 4656 3366 4563 
z
" transform="scale(0.015625)"/>
       </defs>
       <use xlink:href="#DejaVuSans-30"/>
       <use xlink:href="#DejaVuSans-2e" x="63.623047"/>
       <use xlink:href="#DejaVuSans-36" x="95.410156"/>
      </g>
     </g>
    </g>
    <g id="ytick_3">
     <g id="line2d_12">
      <path d="M 58.52 189.8304 
L 349.2 189.8304 
" clip-path="url(#p33f93230ed)" style="fill: none; stroke: #666666; stroke-width: 0.8; stroke-linecap: square"/>
     </g>
     <g id="line2d_13">
      <g>
       <use xlink:href="#mc2433fb7e2" x="58.52" y="189.8304" style="stroke: #000000; stroke-width: 0.8"/>
      </g>
     </g>
     <g id="text_11">
      <!-- 0.7 -->
      <g transform="translate(29.255625 195.149306)scale(0.14 -0.14)">
       <defs>
        <path id="DejaVuSans-37" d="M 525 4666 
L 3525 4666 
L 3525 4397 
L 1831 0 
L 1172 0 
L 2766 4134 
L 525 4134 
L 525 4666 
z
" transform="scale(0.015625)"/>
       </defs>
       <use xlink:href="#DejaVuSans-30"/>
       <use xlink:href="#DejaVuSans-2e" x="63.623047"/>
       <use xlink:href="#DejaVuSans-37" x="95.410156"/>
      </g>
     </g>
    </g>
    <g id="ytick_4">
     <g id="line2d_14">
      <path d="M 58.52 131.9536 
L 349.2 131.9536 
" clip-path="url(#p33f93230ed)" style="fill: none; stroke: #666666; stroke-width: 0.8; stroke-linecap: square"/>
     </g>
     <g id="line2d_15">
      <g>
       <use xlink:href="#mc2433fb7e2" x="58.52" y="131.9536" style="stroke: #000000; stroke-width: 0.8"/>
      </g>
     </g>
     <g id="text_12">
      <!-- 0.8 -->
      <g transform="translate(29.255625 137.272506)scale(0.14 -0.14)">
       <defs>
        <path id="DejaVuSans-38" d="M 2034 2216 
Q 1584 2216 1326 1975 
Q 1069 1734 1069 1313 
Q 1069 891 1326 650 
Q 1584 409 2034 409 
Q 2484 409 2743 651 
Q 3003 894 3003 1313 
Q 3003 1734 2745 1975 
Q 2488 2216 2034 2216 
z
M 1403 2484 
Q 997 2584 770 2862 
Q 544 3141 544 3541 
Q 544 4100 942 4425 
Q 1341 4750 2034 4750 
Q 2731 4750 3128 4425 
Q 3525 4100 3525 3541 
Q 3525 3141 3298 2862 
Q 3072 2584 2669 2484 
Q 3125 2378 3379 2068 
Q 3634 1759 3634 1313 
Q 3634 634 3220 271 
Q 2806 -91 2034 -91 
Q 1263 -91 848 271 
Q 434 634 434 1313 
Q 434 1759 690 2068 
Q 947 2378 1403 2484 
z
M 1172 3481 
Q 1172 3119 1398 2916 
Q 1625 2713 2034 2713 
Q 2441 2713 2670 2916 
Q 2900 3119 2900 3481 
Q 2900 3844 2670 4047 
Q 2441 4250 2034 4250 
Q 1625 4250 1398 4047 
Q 1172 3844 1172 3481 
z
" transform="scale(0.015625)"/>
       </defs>
       <use xlink:href="#DejaVuSans-30"/>
       <use xlink:href="#DejaVuSans-2e" x="63.623047"/>
       <use xlink:href="#DejaVuSans-38" x="95.410156"/>
      </g>
     </g>
    </g>
    <g id="ytick_5">
     <g id="line2d_16">
      <path d="M 58.52 74.0768 
L 349.2 74.0768 
" clip-path="url(#p33f93230ed)" style="fill: none; stroke: #666666; stroke-width: 0.8; stroke-linecap: square"/>
     </g>
     <g id="line2d_17">
      <g>
       <use xlink:href="#mc2433fb7e2" x="58.52" y="74.0768" style="stroke: #000000; stroke-width: 0.8"/>
      </g>
     </g>
     <g id="text_13">
      <!-- 0.9 -->
      <g transform="translate(29.255625 79.395706)scale(0.14 -0.14)">
       <defs>
        <path id="DejaVuSans-39" d="M 703 97 
L 703 672 
Q 941 559 1184 500 
Q 1428 441 1663 441 
Q 2288 441 2617 861 
Q 2947 1281 2994 2138 
Q 2813 1869 2534 1725 
Q 2256 1581 1919 1581 
Q 1219 1581 811 2004 
Q 403 2428 403 3163 
Q 403 3881 828 4315 
Q 1253 4750 1959 4750 
Q 2769 4750 3195 4129 
Q 3622 3509 3622 2328 
Q 3622 1225 3098 567 
Q 2575 -91 1691 -91 
Q 1453 -91 1209 -44 
Q 966 3 703 97 
z
M 1959 2075 
Q 2384 2075 2632 2365 
Q 2881 2656 2881 3163 
Q 2881 3666 2632 3958 
Q 2384 4250 1959 4250 
Q 1534 4250 1286 3958 
Q 1038 3666 1038 3163 
Q 1038 2656 1286 2365 
Q 1534 2075 1959 2075 
z
" transform="scale(0.015625)"/>
       </defs>
       <use xlink:href="#DejaVuSans-30"/>
       <use xlink:href="#DejaVuSans-2e" x="63.623047"/>
       <use xlink:href="#DejaVuSans-39" x="95.410156"/>
      </g>
     </g>
    </g>
    <g id="ytick_6">
     <g id="line2d_18">
      <path d="M 58.52 16.2 
L 349.2 16.2 
" clip-path="url(#p33f93230ed)" style="fill: none; stroke: #666666; stroke-width: 0.8; stroke-linecap: square"/>
     </g>
     <g id="line2d_19">
      <g>
       <use xlink:href="#mc2433fb7e2" x="58.52" y="16.2" style="stroke: #000000; stroke-width: 0.8"/>
      </g>
     </g>
     <g id="text_14">
      <!-- 1.0 -->
      <g transform="translate(29.255625 21.518906)scale(0.14 -0.14)">
       <use xlink:href="#DejaVuSans-31"/>
       <use xlink:href="#DejaVuSans-2e" x="63.623047"/>
       <use xlink:href="#DejaVuSans-30" x="95.410156"/>
      </g>
     </g>
    </g>
    <g id="ytick_7">
     <g id="line2d_20">
      <path d="M 58.52 294.00864 
L 349.2 294.00864 
" clip-path="url(#p33f93230ed)" style="fill: none; stroke: #999999; stroke-opacity: 0.2; stroke-width: 0.8; stroke-linecap: square"/>
     </g>
     <g id="line2d_21">
      <defs>
       <path id="m496e9f1785" d="M 0 0 
L -2 0 
" style="stroke: #000000; stroke-width: 0.6"/>
      </defs>
      <g>
       <use xlink:href="#m496e9f1785" x="58.52" y="294.00864" style="stroke: #000000; stroke-width: 0.6"/>
      </g>
     </g>
    </g>
    <g id="ytick_8">
     <g id="line2d_22">
      <path d="M 58.52 282.43328 
L 349.2 282.43328 
" clip-path="url(#p33f93230ed)" style="fill: none; stroke: #999999; stroke-opacity: 0.2; stroke-width: 0.8; stroke-linecap: square"/>
     </g>
     <g id="line2d_23">
      <g>
       <use xlink:href="#m496e9f1785" x="58.52" y="282.43328" style="stroke: #000000; stroke-width: 0.6"/>
      </g>
     </g>
    </g>
    <g id="ytick_9">
     <g id="line2d_24">
      <path d="M 58.52 270.85792 
L 349.2 270.85792 
" clip-path="url(#p33f93230ed)" style="fill: none; stroke: #999999; stroke-opacity: 0.2; stroke-width: 0.8; stroke-linecap: square"/>
     </g>
     <g id="line2d_25">
      <g>
       <use xlink:href="#m496e9f1785" x="58.52" y="270.85792" style="stroke: #000000; stroke-width: 0.6"/>
      </g>
     </g>
    </g>
    <g id="ytick_10">
     <g id="line2d_26">
      <path d="M 58.52 259.28256 
L 349.2 259.28256 
" clip-path="url(#p33f93230ed)" style="fill: none; stroke: #999999; stroke-opacity: 0.2; stroke-width: 0.8; stroke-linecap: square"/>
     </g>
     <g id="line2d_27">
      <g>
       <use xlink:href="#m496e9f1785" x="58.52" y="259.28256" style="stroke: #000000; stroke-width: 0.6"/>
      </g>
     </g>
    </g>
    <g id="ytick_11">
     <g id="line2d_28">
      <path d="M 58.52 236.13184 
L 349.2 236.13184 
" clip-path="url(#p33f93230ed)" style="fill: none; stroke: #999999; stroke-opacity: 0.2; stroke-width: 0.8; stroke-linecap: square"/>
     </g>
     <g id="line2d_29">
      <g>
       <use xlink:href="#m496e9f1785" x="58.52" y="236.13184" style="stroke: #000000; stroke-width: 0.6"/>
      </g>
     </g>
    </g>
    <g id="ytick_12">
     <g id="line2d_30">
      <path d="M 58.52 224.55648 
L 349.2 224.55648 
" clip-path="url(#p33f93230ed)" style="fill: none; stroke: #999999; stroke-opacity: 0.2; stroke-width: 0.8; stroke-linecap: square"/>
     </g>
     <g id="line2d_31">
      <g>
       <use xlink:href="#m496e9f1785" x="58.52" y="224.55648" style="stroke: #000000; stroke-width: 0.6"/>
      </g>
     </g>
    </g>
    <g id="ytick_13">
     <g id="line2d_32">
      <path d="M 58.52 212.98112 
L 349.2 212.98112 
" clip-path="url(#p33f93230ed)" style="fill: none; stroke: #999999; stroke-opacity: 0.2; stroke-width: 0.8; stroke-linecap: square"/>
     </g>
     <g id="line2d_33">
      <g>
       <use xlink:href="#m496e9f1785" x="58.52" y="212.98112" style="stroke: #000000; stroke-width: 0.6"/>
      </g>
     </g>
    </g>
    <g id="ytick_14">
     <g id="line2d_34">
      <path d="M 58.52 201.40576 
L 349.2 201.40576 
" clip-path="url(#p33f93230ed)" style="fill: none; stroke: #999999; stroke-opacity: 0.2; stroke-width: 0.8; stroke-linecap: square"/>
     </g>
     <g id="line2d_35">
      <g>
       <use xlink:href="#m496e9f1785" x="58.52" y="201.40576" style="stroke: #000000; stroke-width: 0.6"/>
      </g>
     </g>
    </g>
    <g id="ytick_15">
     <g id="line2d_36">
      <path d="M 58.52 178.25504 
L 349.2 178.25504 
" clip-path="url(#p33f93230ed)" style="fill: none; stroke: #999999; stroke-opacity: 0.2; stroke-width: 0.8; stroke-linecap: square"/>
     </g>
     <g id="line2d_37">
      <g>
       <use xlink:href="#m496e9f1785" x="58.52" y="178.25504" style="stroke: #000000; stroke-width: 0.6"/>
      </g>
     </g>
    </g>
    <g id="ytick_16">
     <g id="line2d_38">
      <path d="M 58.52 166.67968 
L 349.2 166.67968 
" clip-path="url(#p33f93230ed)" style="fill: none; stroke: #999999; stroke-opacity: 0.2; stroke-width: 0.8; stroke-linecap: square"/>
     </g>
     <g id="line2d_39">
      <g>
       <use xlink:href="#m496e9f1785" x="58.52" y="166.67968" style="stroke: #000000; stroke-width: 0.6"/>
      </g>
     </g>
    </g>
    <g id="ytick_17">
     <g id="line2d_40">
      <path d="M 58.52 155.10432 
L 349.2 155.10432 
" clip-path="url(#p33f93230ed)" style="fill: none; stroke: #999999; stroke-opacity: 0.2; stroke-width: 0.8; stroke-linecap: square"/>
     </g>
     <g id="line2d_41">
      <g>
       <use xlink:href="#m496e9f1785" x="58.52" y="155.10432" style="stroke: #000000; stroke-width: 0.6"/>
      </g>
     </g>
    </g>
    <g id="ytick_18">
     <g id="line2d_42">
      <path d="M 58.52 143.52896 
L 349.2 143.52896 
" clip-path="url(#p33f93230ed)" style="fill: none; stroke: #999999; stroke-opacity: 0.2; stroke-width: 0.8; stroke-linecap: square"/>
     </g>
     <g id="line2d_43">
      <g>
       <use xlink:href="#m496e9f1785" x="58.52" y="143.52896" style="stroke: #000000; stroke-width: 0.6"/>
      </g>
     </g>
    </g>
    <g id="ytick_19">
     <g id="line2d_44">
      <path d="M 58.52 120.37824 
L 349.2 120.37824 
" clip-path="url(#p33f93230ed)" style="fill: none; stroke: #999999; stroke-opacity: 0.2; stroke-width: 0.8; stroke-linecap: square"/>
     </g>
     <g id="line2d_45">
      <g>
       <use xlink:href="#m496e9f1785" x="58.52" y="120.37824" style="stroke: #000000; stroke-width: 0.6"/>
      </g>
     </g>
    </g>
    <g id="ytick_20">
     <g id="line2d_46">
      <path d="M 58.52 108.80288 
L 349.2 108.80288 
" clip-path="url(#p33f93230ed)" style="fill: none; stroke: #999999; stroke-opacity: 0.2; stroke-width: 0.8; stroke-linecap: square"/>
     </g>
     <g id="line2d_47">
      <g>
       <use xlink:href="#m496e9f1785" x="58.52" y="108.80288" style="stroke: #000000; stroke-width: 0.6"/>
      </g>
     </g>
    </g>
    <g id="ytick_21">
     <g id="line2d_48">
      <path d="M 58.52 97.22752 
L 349.2 97.22752 
" clip-path="url(#p33f93230ed)" style="fill: none; stroke: #999999; stroke-opacity: 0.2; stroke-width: 0.8; stroke-linecap: square"/>
     </g>
     <g id="line2d_49">
      <g>
       <use xlink:href="#m496e9f1785" x="58.52" y="97.22752" style="stroke: #000000; stroke-width: 0.6"/>
      </g>
     </g>
    </g>
    <g id="ytick_22">
     <g id="line2d_50">
      <path d="M 58.52 85.65216 
L 349.2 85.65216 
" clip-path="url(#p33f93230ed)" style="fill: none; stroke: #999999; stroke-opacity: 0.2; stroke-width: 0.8; stroke-linecap: square"/>
     </g>
     <g id="line2d_51">
      <g>
       <use xlink:href="#m496e9f1785" x="58.52" y="85.65216" style="stroke: #000000; stroke-width: 0.6"/>
      </g>
     </g>
    </g>
    <g id="ytick_23">
     <g id="line2d_52">
      <path d="M 58.52 62.50144 
L 349.2 62.50144 
" clip-path="url(#p33f93230ed)" style="fill: none; stroke: #999999; stroke-opacity: 0.2; stroke-width: 0.8; stroke-linecap: square"/>
     </g>
     <g id="line2d_53">
      <g>
       <use xlink:href="#m496e9f1785" x="58.52" y="62.50144" style="stroke: #000000; stroke-width: 0.6"/>
      </g>
     </g>
    </g>
    <g id="ytick_24">
     <g id="line2d_54">
      <path d="M 58.52 50.92608 
L 349.2 50.92608 
" clip-path="url(#p33f93230ed)" style="fill: none; stroke: #999999; stroke-opacity: 0.2; stroke-width: 0.8; stroke-linecap: square"/>
     </g>
     <g id="line2d_55">
      <g>
       <use xlink:href="#m496e9f1785" x="58.52" y="50.92608" style="stroke: #000000; stroke-width: 0.6"/>
      </g>
     </g>
    </g>
    <g id="ytick_25">
     <g id="line2d_56">
      <path d="M 58.52 39.35072 
L 349.2 39.35072 
" clip-path="url(#p33f93230ed)" style="fill: none; stroke: #999999; stroke-opacity: 0.2; stroke-width: 0.8; stroke-linecap: square"/>
     </g>
     <g id="line2d_57">
      <g>
       <use xlink:href="#m496e9f1785" x="58.52" y="39.35072" style="stroke: #000000; stroke-width: 0.6"/>
      </g>
     </g>
    </g>
    <g id="ytick_26">
     <g id="line2d_58">
      <path d="M 58.52 27.77536 
L 349.2 27.77536 
" clip-path="url(#p33f93230ed)" style="fill: none; stroke: #999999; stroke-opacity: 0.2; stroke-width: 0.8; stroke-linecap: square"/>
     </g>
     <g id="line2d_59">
      <g>
       <use xlink:href="#m496e9f1785" x="58.52" y="27.77536" style="stroke: #000000; stroke-width: 0.6"/>
      </g>
     </g>
    </g>
    <g id="text_15">
     <!-- AUC-ROC -->
     <g transform="translate(21.928125 198.1345)rotate(-90)scale(0.16 -0.16)">
      <defs>
       <path id="DejaVuSans-41" d="M 2188 4044 
L 1331 1722 
L 3047 1722 
L 2188 4044 
z
M 1831 4666 
L 2547 4666 
L 4325 0 
L 3669 0 
L 3244 1197 
L 1141 1197 
L 716 0 
L 50 0 
L 1831 4666 
z
" transform="scale(0.015625)"/>
       <path id="DejaVuSans-55" d="M 556 4666 
L 1191 4666 
L 1191 1831 
Q 1191 1081 1462 751 
Q 1734 422 2344 422 
Q 2950 422 3222 751 
Q 3494 1081 3494 1831 
L 3494 4666 
L 4128 4666 
L 4128 1753 
Q 4128 841 3676 375 
Q 3225 -91 2344 -91 
Q 1459 -91 1007 375 
Q 556 841 556 1753 
L 556 4666 
z
" transform="scale(0.015625)"/>
       <path id="DejaVuSans-43" d="M 4122 4306 
L 4122 3641 
Q 3803 3938 3442 4084 
Q 3081 4231 2675 4231 
Q 1875 4231 1450 3742 
Q 1025 3253 1025 2328 
Q 1025 1406 1450 917 
Q 1875 428 2675 428 
Q 3081 428 3442 575 
Q 3803 722 4122 1019 
L 4122 359 
Q 3791 134 3420 21 
Q 3050 -91 2638 -91 
Q 1578 -91 968 557 
Q 359 1206 359 2328 
Q 359 3453 968 4101 
Q 1578 4750 2638 4750 
Q 3056 4750 3426 4639 
Q 3797 4528 4122 4306 
z
" transform="scale(0.015625)"/>
       <path id="DejaVuSans-2d" d="M 313 2009 
L 1997 2009 
L 1997 1497 
L 313 1497 
L 313 2009 
z
" transform="scale(0.015625)"/>
       <path id="DejaVuSans-52" d="M 2841 2188 
Q 3044 2119 3236 1894 
Q 3428 1669 3622 1275 
L 4263 0 
L 3584 0 
L 2988 1197 
Q 2756 1666 2539 1819 
Q 2322 1972 1947 1972 
L 1259 1972 
L 1259 0 
L 628 0 
L 628 4666 
L 2053 4666 
Q 2853 4666 3247 4331 
Q 3641 3997 3641 3322 
Q 3641 2881 3436 2590 
Q 3231 2300 2841 2188 
z
M 1259 4147 
L 1259 2491 
L 2053 2491 
Q 2509 2491 2742 2702 
Q 2975 2913 2975 3322 
Q 2975 3731 2742 3939 
Q 2509 4147 2053 4147 
L 1259 4147 
z
" transform="scale(0.015625)"/>
       <path id="DejaVuSans-4f" d="M 2522 4238 
Q 1834 4238 1429 3725 
Q 1025 3213 1025 2328 
Q 1025 1447 1429 934 
Q 1834 422 2522 422 
Q 3209 422 3611 934 
Q 4013 1447 4013 2328 
Q 4013 3213 3611 3725 
Q 3209 4238 2522 4238 
z
M 2522 4750 
Q 3503 4750 4090 4092 
Q 4678 3434 4678 2328 
Q 4678 1225 4090 567 
Q 3503 -91 2522 -91 
Q 1538 -91 948 565 
Q 359 1222 359 2328 
Q 359 3434 948 4092 
Q 1538 4750 2522 4750 
z
" transform="scale(0.015625)"/>
      </defs>
      <use xlink:href="#DejaVuSans-41"/>
      <use xlink:href="#DejaVuSans-55" x="68.408203"/>
      <use xlink:href="#DejaVuSans-43" x="141.601562"/>
      <use xlink:href="#DejaVuSans-2d" x="211.425781"/>
      <use xlink:href="#DejaVuSans-52" x="247.509766"/>
      <use xlink:href="#DejaVuSans-4f" x="316.992188"/>
      <use xlink:href="#DejaVuSans-43" x="395.703125"/>
     </g>
    </g>
   </g>
   <g id="PolyCollection_1">
    <defs>
     <path id="ma07c2124b2" d="M 89.923777 -178.139235 
L 85.252223 -178.139235 
L 85.070831 -178.711105 
L 84.892322 -179.282974 
L 84.717825 -179.854844 
L 84.548114 -180.426714 
L 84.383576 -180.998583 
L 84.224186 -181.570453 
L 84.069519 -182.142322 
L 83.918776 -182.714192 
L 83.770838 -183.286061 
L 83.624329 -183.857931 
L 83.477706 -184.4298 
L 83.329349 -185.00167 
L 83.177659 -185.57354 
L 83.021162 -186.145409 
L 82.858596 -186.717279 
L 82.688999 -187.289148 
L 82.511776 -187.861018 
L 82.326749 -188.432887 
L 82.134181 -189.004757 
L 81.934789 -189.576626 
L 81.729715 -190.148496 
L 81.520491 -190.720366 
L 81.308974 -191.292235 
L 81.097263 -191.864105 
L 80.887609 -192.435974 
L 80.682313 -193.007844 
L 80.483624 -193.579713 
L 80.29364 -194.151583 
L 80.114223 -194.723452 
L 79.946923 -195.295322 
L 79.792924 -195.867192 
L 79.653009 -196.439061 
L 79.527545 -197.010931 
L 79.416486 -197.5828 
L 79.319402 -198.15467 
L 79.235507 -198.726539 
L 79.163713 -199.298409 
L 79.102679 -199.870278 
L 79.050872 -200.442148 
L 79.006617 -201.014017 
L 78.968154 -201.585887 
L 78.933683 -202.157757 
L 78.901414 -202.729626 
L 78.869603 -203.301496 
L 78.836597 -203.873365 
L 78.800877 -204.445235 
L 78.761101 -205.017104 
L 78.716156 -205.588974 
L 78.665215 -206.160843 
L 78.607798 -206.732713 
L 78.543836 -207.304583 
L 78.473732 -207.876452 
L 78.398415 -208.448322 
L 78.319381 -209.020191 
L 78.238703 -209.592061 
L 78.159026 -210.16393 
L 78.083512 -210.7358 
L 78.015758 -211.307669 
L 77.959669 -211.879539 
L 77.9193 -212.451409 
L 77.898667 -213.023278 
L 77.901544 -213.595148 
L 77.931257 -214.167017 
L 77.99048 -214.738887 
L 78.081075 -215.310756 
L 78.203956 -215.882626 
L 78.359014 -216.454495 
L 78.545106 -217.026365 
L 78.760094 -217.598235 
L 79.000959 -218.170104 
L 79.263959 -218.741974 
L 79.544831 -219.313843 
L 79.83902 -219.885713 
L 80.141915 -220.457582 
L 80.44908 -221.029452 
L 80.756454 -221.601321 
L 81.060525 -222.173191 
L 81.35844 -222.745061 
L 81.648079 -223.31693 
L 81.928067 -223.8888 
L 82.197732 -224.460669 
L 82.457036 -225.032539 
L 82.706456 -225.604408 
L 82.946858 -226.176278 
L 83.179353 -226.748147 
L 83.405163 -227.320017 
L 83.625492 -227.891886 
L 83.841423 -228.463756 
L 84.053836 -229.035626 
L 84.263352 -229.607495 
L 84.470308 -230.179365 
L 84.674754 -230.751234 
L 84.876472 -231.323104 
L 85.075006 -231.894973 
L 85.269714 -232.466843 
L 85.459818 -233.038712 
L 85.644456 -233.610582 
L 85.822737 -234.182452 
L 85.993788 -234.754321 
L 89.182212 -234.754321 
L 89.182212 -234.754321 
L 89.353263 -234.182452 
L 89.531544 -233.610582 
L 89.716182 -233.038712 
L 89.906286 -232.466843 
L 90.100994 -231.894973 
L 90.299528 -231.323104 
L 90.501246 -230.751234 
L 90.705692 -230.179365 
L 90.912648 -229.607495 
L 91.122164 -229.035626 
L 91.334577 -228.463756 
L 91.550508 -227.891886 
L 91.770837 -227.320017 
L 91.996647 -226.748147 
L 92.229142 -226.176278 
L 92.469544 -225.604408 
L 92.718964 -225.032539 
L 92.978268 -224.460669 
L 93.247933 -223.8888 
L 93.527921 -223.31693 
L 93.81756 -222.745061 
L 94.115475 -222.173191 
L 94.419546 -221.601321 
L 94.72692 -221.029452 
L 95.034085 -220.457582 
L 95.33698 -219.885713 
L 95.631169 -219.313843 
L 95.912041 -218.741974 
L 96.175041 -218.170104 
L 96.415906 -217.598235 
L 96.630894 -217.026365 
L 96.816986 -216.454495 
L 96.972044 -215.882626 
L 97.094925 -215.310756 
L 97.18552 -214.738887 
L 97.244743 -214.167017 
L 97.274456 -213.595148 
L 97.277333 -213.023278 
L 97.2567 -212.451409 
L 97.216331 -211.879539 
L 97.160242 -211.307669 
L 97.092488 -210.7358 
L 97.016974 -210.16393 
L 96.937297 -209.592061 
L 96.856619 -209.020191 
L 96.777585 -208.448322 
L 96.702268 -207.876452 
L 96.632164 -207.304583 
L 96.568202 -206.732713 
L 96.510785 -206.160843 
L 96.459844 -205.588974 
L 96.414899 -205.017104 
L 96.375123 -204.445235 
L 96.339403 -203.873365 
L 96.306397 -203.301496 
L 96.274586 -202.729626 
L 96.242317 -202.157757 
L 96.207846 -201.585887 
L 96.169383 -201.014017 
L 96.125128 -200.442148 
L 96.073321 -199.870278 
L 96.012287 -199.298409 
L 95.940493 -198.726539 
L 95.856598 -198.15467 
L 95.759514 -197.5828 
L 95.648455 -197.010931 
L 95.522991 -196.439061 
L 95.383076 -195.867192 
L 95.229077 -195.295322 
L 95.061777 -194.723452 
L 94.88236 -194.151583 
L 94.692376 -193.579713 
L 94.493687 -193.007844 
L 94.288391 -192.435974 
L 94.078737 -191.864105 
L 93.867026 -191.292235 
L 93.655509 -190.720366 
L 93.446285 -190.148496 
L 93.241211 -189.576626 
L 93.041819 -189.004757 
L 92.849251 -188.432887 
L 92.664224 -187.861018 
L 92.487001 -187.289148 
L 92.317404 -186.717279 
L 92.154838 -186.145409 
L 91.998341 -185.57354 
L 91.846651 -185.00167 
L 91.698294 -184.4298 
L 91.551671 -183.857931 
L 91.405162 -183.286061 
L 91.257224 -182.714192 
L 91.106481 -182.142322 
L 90.951814 -181.570453 
L 90.792424 -180.998583 
L 90.627886 -180.426714 
L 90.458175 -179.854844 
L 90.283678 -179.282974 
L 90.105169 -178.711105 
L 89.923777 -178.139235 
z
" style="stroke: #000000"/>
    </defs>
    <g clip-path="url(#p33f93230ed)">
     <use xlink:href="#ma07c2124b2" x="0" y="360" style="fill: #deebf7; stroke: #000000"/>
    </g>
   </g>
   <g id="PolyCollection_2">
    <defs>
     <path id="m5108b8dcce" d="M 127.022476 -206.932943 
L 125.668191 -206.932943 
L 125.602439 -207.531997 
L 125.539269 -208.131052 
L 125.479417 -208.730106 
L 125.423129 -209.32916 
L 125.37004 -209.928214 
L 125.319088 -210.527268 
L 125.268473 -211.126322 
L 125.215692 -211.725376 
L 125.15763 -212.32443 
L 125.090718 -212.923484 
L 125.011144 -213.522539 
L 124.915103 -214.121593 
L 124.799049 -214.720647 
L 124.659939 -215.319701 
L 124.495435 -215.918755 
L 124.304045 -216.517809 
L 124.085208 -217.116863 
L 123.839297 -217.715917 
L 123.567574 -218.314971 
L 123.272094 -218.914026 
L 122.955577 -219.51308 
L 122.621272 -220.112134 
L 122.27282 -220.711188 
L 121.91412 -221.310242 
L 121.549204 -221.909296 
L 121.18212 -222.50835 
L 120.816809 -223.107404 
L 120.456985 -223.706458 
L 120.106 -224.305513 
L 119.766731 -224.904567 
L 119.441472 -225.503621 
L 119.131867 -226.102675 
L 118.838905 -226.701729 
L 118.562976 -227.300783 
L 118.304008 -227.899837 
L 118.061669 -228.498891 
L 117.835607 -229.097945 
L 117.625702 -229.697 
L 117.432278 -230.296054 
L 117.256236 -230.895108 
L 117.099064 -231.494162 
L 116.962721 -232.093216 
L 116.84938 -232.69227 
L 116.761072 -233.291324 
L 116.699272 -233.890378 
L 116.664498 -234.489432 
L 116.656 -235.088487 
L 116.671588 -235.687541 
L 116.707668 -236.286595 
L 116.759485 -236.885649 
L 116.821572 -237.484703 
L 116.888348 -238.083757 
L 116.954791 -238.682811 
L 117.017092 -239.281865 
L 117.073196 -239.880919 
L 117.123138 -240.479974 
L 117.169137 -241.079028 
L 117.215408 -241.678082 
L 117.267729 -242.277136 
L 117.332811 -242.87619 
L 117.417569 -243.475244 
L 117.528375 -244.074298 
L 117.670411 -244.673352 
L 117.847179 -245.272406 
L 118.060242 -245.871461 
L 118.309183 -246.470515 
L 118.591788 -247.069569 
L 118.904389 -247.668623 
L 119.242307 -248.267677 
L 119.600312 -248.866731 
L 119.973055 -249.465785 
L 120.355395 -250.064839 
L 120.742617 -250.663893 
L 121.130533 -251.262948 
L 121.51548 -251.862002 
L 121.894248 -252.461056 
L 122.263981 -253.06011 
L 122.622091 -253.659164 
L 122.96619 -254.258218 
L 123.294082 -254.857272 
L 123.603788 -255.456326 
L 123.893607 -256.05538 
L 124.162196 -256.654435 
L 124.408632 -257.253489 
L 124.632462 -257.852543 
L 124.833718 -258.451597 
L 125.012891 -259.050651 
L 125.170888 -259.649705 
L 125.308963 -260.248759 
L 125.428634 -260.847813 
L 125.531619 -261.446867 
L 125.619757 -262.045922 
L 125.694954 -262.644976 
L 125.759127 -263.24403 
L 125.814159 -263.843084 
L 125.861846 -264.442138 
L 125.903847 -265.041192 
L 125.941638 -265.640246 
L 125.976464 -266.2393 
L 126.714203 -266.2393 
L 126.714203 -266.2393 
L 126.749028 -265.640246 
L 126.786819 -265.041192 
L 126.828821 -264.442138 
L 126.876507 -263.843084 
L 126.93154 -263.24403 
L 126.995713 -262.644976 
L 127.07091 -262.045922 
L 127.159048 -261.446867 
L 127.262032 -260.847813 
L 127.381704 -260.248759 
L 127.519778 -259.649705 
L 127.677776 -259.050651 
L 127.856949 -258.451597 
L 128.058204 -257.852543 
L 128.282035 -257.253489 
L 128.528471 -256.654435 
L 128.79706 -256.05538 
L 129.086879 -255.456326 
L 129.396584 -254.857272 
L 129.724476 -254.258218 
L 130.068576 -253.659164 
L 130.426685 -253.06011 
L 130.796419 -252.461056 
L 131.175186 -251.862002 
L 131.560133 -251.262948 
L 131.94805 -250.663893 
L 132.335272 -250.064839 
L 132.717611 -249.465785 
L 133.090354 -248.866731 
L 133.44836 -248.267677 
L 133.786278 -247.668623 
L 134.098879 -247.069569 
L 134.381484 -246.470515 
L 134.630424 -245.871461 
L 134.843487 -245.272406 
L 135.020256 -244.673352 
L 135.162292 -244.074298 
L 135.273098 -243.475244 
L 135.357855 -242.87619 
L 135.422938 -242.277136 
L 135.475258 -241.678082 
L 135.521529 -241.079028 
L 135.567529 -240.479974 
L 135.617471 -239.880919 
L 135.673574 -239.281865 
L 135.735876 -238.682811 
L 135.802319 -238.083757 
L 135.869095 -237.484703 
L 135.931182 -236.885649 
L 135.982999 -236.286595 
L 136.019079 -235.687541 
L 136.034667 -235.088487 
L 136.026168 -234.489432 
L 135.991395 -233.890378 
L 135.929594 -233.291324 
L 135.841286 -232.69227 
L 135.727946 -232.093216 
L 135.591603 -231.494162 
L 135.434431 -230.895108 
L 135.258388 -230.296054 
L 135.064965 -229.697 
L 134.85506 -229.097945 
L 134.628998 -228.498891 
L 134.386658 -227.899837 
L 134.127691 -227.300783 
L 133.851762 -226.701729 
L 133.5588 -226.102675 
L 133.249195 -225.503621 
L 132.923935 -224.904567 
L 132.584667 -224.305513 
L 132.233682 -223.706458 
L 131.873857 -223.107404 
L 131.508547 -222.50835 
L 131.141463 -221.909296 
L 130.776547 -221.310242 
L 130.417846 -220.711188 
L 130.069395 -220.112134 
L 129.73509 -219.51308 
L 129.418573 -218.914026 
L 129.123093 -218.314971 
L 128.85137 -217.715917 
L 128.605459 -217.116863 
L 128.386621 -216.517809 
L 128.195232 -215.918755 
L 128.030727 -215.319701 
L 127.891618 -214.720647 
L 127.775564 -214.121593 
L 127.679523 -213.522539 
L 127.599949 -212.923484 
L 127.533036 -212.32443 
L 127.474974 -211.725376 
L 127.422194 -211.126322 
L 127.371579 -210.527268 
L 127.320626 -209.928214 
L 127.267538 -209.32916 
L 127.21125 -208.730106 
L 127.151398 -208.131052 
L 127.088227 -207.531997 
L 127.022476 -206.932943 
z
" style="stroke: #000000"/>
    </defs>
    <g clip-path="url(#p33f93230ed)">
     <use xlink:href="#m5108b8dcce" x="0" y="360" style="fill: #deebf7; stroke: #000000"/>
    </g>
   </g>
   <g id="PolyCollection_3">
    <defs>
     <path id="mfa957f512e" d="M 165.55501 -213.131549 
L 164.650323 -213.131549 
L 164.590958 -213.710083 
L 164.524932 -214.288617 
L 164.451664 -214.867151 
L 164.370746 -215.445685 
L 164.282026 -216.024219 
L 164.185678 -216.602754 
L 164.082252 -217.181288 
L 163.972686 -217.759822 
L 163.858289 -218.338356 
L 163.740669 -218.91689 
L 163.621627 -219.495424 
L 163.503022 -220.073958 
L 163.3866 -220.652493 
L 163.273833 -221.231027 
L 163.165752 -221.809561 
L 163.062826 -222.388095 
L 162.964866 -222.966629 
L 162.870995 -223.545163 
L 162.779676 -224.123698 
L 162.688791 -224.702232 
L 162.595777 -225.280766 
L 162.497802 -225.8593 
L 162.391947 -226.437834 
L 162.27541 -227.016368 
L 162.145675 -227.594902 
L 162.00066 -228.173437 
L 161.838817 -228.751971 
L 161.659188 -229.330505 
L 161.46141 -229.909039 
L 161.245681 -230.487573 
L 161.012691 -231.066107 
L 160.763539 -231.644642 
L 160.499636 -232.223176 
L 160.222622 -232.80171 
L 159.934289 -233.380244 
L 159.636533 -233.958778 
L 159.33132 -234.537312 
L 159.02068 -235.115847 
L 158.706719 -235.694381 
L 158.391636 -236.272915 
L 158.077758 -236.851449 
L 157.767558 -237.429983 
L 157.46368 -238.008517 
L 157.16894 -238.587051 
L 156.886324 -239.165586 
L 156.618961 -239.74412 
L 156.370085 -240.322654 
L 156.142988 -240.901188 
L 155.940957 -241.479722 
L 155.767216 -242.058256 
L 155.624852 -242.636791 
L 155.516746 -243.215325 
L 155.445496 -243.793859 
L 155.413333 -244.372393 
L 155.422025 -244.950927 
L 155.472761 -245.529461 
L 155.566031 -246.107995 
L 155.70149 -246.68653 
L 155.877829 -247.265064 
L 156.092662 -247.843598 
L 156.342462 -248.422132 
L 156.622558 -249.000666 
L 156.927219 -249.5792 
L 157.249835 -250.157735 
L 157.583194 -250.736269 
L 157.919848 -251.314803 
L 158.252529 -251.893337 
L 158.574595 -252.471871 
L 158.880432 -253.050405 
L 159.165799 -253.628939 
L 159.428051 -254.207474 
L 159.666225 -254.786008 
L 159.880983 -255.364542 
L 160.074412 -255.943076 
L 160.249711 -256.52161 
L 160.410807 -257.100144 
L 160.561944 -257.678679 
L 160.707282 -258.257213 
L 160.850561 -258.835747 
L 160.994849 -259.414281 
L 161.142388 -259.992815 
L 161.294548 -260.571349 
L 161.451866 -261.149883 
L 161.614166 -261.728418 
L 161.780718 -262.306952 
L 161.95042 -262.885486 
L 162.121978 -263.46402 
L 162.294064 -264.042554 
L 162.465435 -264.621088 
L 162.635014 -265.199623 
L 162.801931 -265.778157 
L 162.965522 -266.356691 
L 163.125304 -266.935225 
L 163.280927 -267.513759 
L 163.432121 -268.092293 
L 163.578637 -268.670827 
L 163.720203 -269.249362 
L 163.856494 -269.827896 
L 163.987111 -270.40643 
L 166.218223 -270.40643 
L 166.218223 -270.40643 
L 166.348839 -269.827896 
L 166.48513 -269.249362 
L 166.626697 -268.670827 
L 166.773213 -268.092293 
L 166.924406 -267.513759 
L 167.080029 -266.935225 
L 167.239811 -266.356691 
L 167.403403 -265.778157 
L 167.570319 -265.199623 
L 167.739898 -264.621088 
L 167.911269 -264.042554 
L 168.083355 -263.46402 
L 168.254913 -262.885486 
L 168.424615 -262.306952 
L 168.591167 -261.728418 
L 168.753468 -261.149883 
L 168.910786 -260.571349 
L 169.062945 -259.992815 
L 169.210485 -259.414281 
L 169.354773 -258.835747 
L 169.498052 -258.257213 
L 169.64339 -257.678679 
L 169.794526 -257.100144 
L 169.955623 -256.52161 
L 170.130922 -255.943076 
L 170.32435 -255.364542 
L 170.539108 -254.786008 
L 170.777282 -254.207474 
L 171.039534 -253.628939 
L 171.324901 -253.050405 
L 171.630738 -252.471871 
L 171.952804 -251.893337 
L 172.285486 -251.314803 
L 172.622139 -250.736269 
L 172.955498 -250.157735 
L 173.278114 -249.5792 
L 173.582775 -249.000666 
L 173.862872 -248.422132 
L 174.112672 -247.843598 
L 174.327504 -247.265064 
L 174.503843 -246.68653 
L 174.639302 -246.107995 
L 174.732573 -245.529461 
L 174.783309 -244.950927 
L 174.792 -244.372393 
L 174.759838 -243.793859 
L 174.688588 -243.215325 
L 174.580481 -242.636791 
L 174.438117 -242.058256 
L 174.264376 -241.479722 
L 174.062346 -240.901188 
L 173.835248 -240.322654 
L 173.586372 -239.74412 
L 173.319009 -239.165586 
L 173.036394 -238.587051 
L 172.741654 -238.008517 
L 172.437775 -237.429983 
L 172.127575 -236.851449 
L 171.813697 -236.272915 
L 171.498615 -235.694381 
L 171.184653 -235.115847 
L 170.874013 -234.537312 
L 170.5688 -233.958778 
L 170.271044 -233.380244 
L 169.982712 -232.80171 
L 169.705697 -232.223176 
L 169.441795 -231.644642 
L 169.192642 -231.066107 
L 168.959652 -230.487573 
L 168.743923 -229.909039 
L 168.546146 -229.330505 
L 168.366517 -228.751971 
L 168.204673 -228.173437 
L 168.059658 -227.594902 
L 167.929923 -227.016368 
L 167.813386 -226.437834 
L 167.707532 -225.8593 
L 167.609556 -225.280766 
L 167.516543 -224.702232 
L 167.425657 -224.123698 
L 167.334338 -223.545163 
L 167.240467 -222.966629 
L 167.142507 -222.388095 
L 167.039581 -221.809561 
L 166.931501 -221.231027 
L 166.818733 -220.652493 
L 166.702311 -220.073958 
L 166.583706 -219.495424 
L 166.464665 -218.91689 
L 166.347044 -218.338356 
L 166.232647 -217.759822 
L 166.123081 -217.181288 
L 166.019655 -216.602754 
L 165.923307 -216.024219 
L 165.834587 -215.445685 
L 165.753669 -214.867151 
L 165.680401 -214.288617 
L 165.614375 -213.710083 
L 165.55501 -213.131549 
z
" style="stroke: #000000"/>
    </defs>
    <g clip-path="url(#p33f93230ed)">
     <use xlink:href="#mfa957f512e" x="0" y="360" style="fill: #f8cbad; stroke: #000000"/>
    </g>
   </g>
   <g id="PolyCollection_4">
    <defs>
     <path id="m4fe6a33d61" d="M 204.470384 -236.855249 
L 203.249616 -236.855249 
L 203.190415 -237.40426 
L 203.132229 -237.953271 
L 203.07554 -238.502282 
L 203.020632 -239.051294 
L 202.967563 -239.600305 
L 202.916161 -240.149316 
L 202.866017 -240.698327 
L 202.816489 -241.247338 
L 202.766701 -241.796349 
L 202.715542 -242.34536 
L 202.661661 -242.894372 
L 202.603462 -243.443383 
L 202.539108 -243.992394 
L 202.466538 -244.541405 
L 202.383513 -245.090416 
L 202.287694 -245.639427 
L 202.176758 -246.188438 
L 202.04856 -246.737449 
L 201.901318 -247.286461 
L 201.733827 -247.835472 
L 201.545658 -248.384483 
L 201.337338 -248.933494 
L 201.110458 -249.482505 
L 200.8677 -250.031516 
L 200.612753 -250.580527 
L 200.350112 -251.129539 
L 200.084763 -251.67855 
L 199.821776 -252.227561 
L 199.565841 -252.776572 
L 199.320794 -253.325583 
L 199.089198 -253.874594 
L 198.872014 -254.423605 
L 198.668428 -254.972617 
L 198.475861 -255.521628 
L 198.290169 -256.070639 
L 198.106033 -256.61965 
L 197.917499 -257.168661 
L 197.718621 -257.717672 
L 197.504143 -258.266683 
L 197.270136 -258.815695 
L 197.014545 -259.364706 
L 196.737559 -259.913717 
L 196.441795 -260.462728 
L 196.132244 -261.011739 
L 195.816024 -261.56075 
L 195.501935 -262.109761 
L 195.199879 -262.658773 
L 194.920206 -263.207784 
L 194.673037 -263.756795 
L 194.467622 -264.305806 
L 194.311794 -264.854817 
L 194.211531 -265.403828 
L 194.170667 -265.952839 
L 194.190744 -266.501851 
L 194.271009 -267.050862 
L 194.408537 -267.599873 
L 194.598475 -268.148884 
L 194.834379 -268.697895 
L 195.108632 -269.246906 
L 195.412907 -269.795917 
L 195.738663 -270.344929 
L 196.077636 -270.89394 
L 196.422287 -271.442951 
L 196.766186 -271.991962 
L 197.104287 -272.540973 
L 197.433091 -273.089984 
L 197.750664 -273.638995 
L 198.056533 -274.188006 
L 198.35146 -274.737018 
L 198.637132 -275.286029 
L 198.915792 -275.83504 
L 199.189858 -276.384051 
L 199.46156 -276.933062 
L 199.732626 -277.482073 
L 200.00405 -278.031084 
L 200.275937 -278.580096 
L 200.547456 -279.129107 
L 200.816872 -279.678118 
L 201.081667 -280.227129 
L 201.33873 -280.77614 
L 201.584595 -281.325151 
L 201.81571 -281.874162 
L 202.02872 -282.423174 
L 202.220744 -282.972185 
L 202.389607 -283.521196 
L 202.534037 -284.070207 
L 202.653788 -284.619218 
L 202.749691 -285.168229 
L 202.823611 -285.71724 
L 202.878337 -286.266252 
L 202.917388 -286.815263 
L 202.944761 -287.364274 
L 202.964653 -287.913285 
L 202.981158 -288.462296 
L 202.997994 -289.011307 
L 203.018263 -289.560318 
L 203.044279 -290.10933 
L 203.07747 -290.658341 
L 203.118362 -291.207352 
L 204.601638 -291.207352 
L 204.601638 -291.207352 
L 204.64253 -290.658341 
L 204.675721 -290.10933 
L 204.701737 -289.560318 
L 204.722006 -289.011307 
L 204.738842 -288.462296 
L 204.755347 -287.913285 
L 204.775239 -287.364274 
L 204.802612 -286.815263 
L 204.841663 -286.266252 
L 204.896389 -285.71724 
L 204.970309 -285.168229 
L 205.066212 -284.619218 
L 205.185963 -284.070207 
L 205.330393 -283.521196 
L 205.499256 -282.972185 
L 205.69128 -282.423174 
L 205.90429 -281.874162 
L 206.135405 -281.325151 
L 206.38127 -280.77614 
L 206.638333 -280.227129 
L 206.903128 -279.678118 
L 207.172544 -279.129107 
L 207.444063 -278.580096 
L 207.71595 -278.031084 
L 207.987374 -277.482073 
L 208.25844 -276.933062 
L 208.530142 -276.384051 
L 208.804208 -275.83504 
L 209.082868 -275.286029 
L 209.36854 -274.737018 
L 209.663467 -274.188006 
L 209.969336 -273.638995 
L 210.286909 -273.089984 
L 210.615713 -272.540973 
L 210.953814 -271.991962 
L 211.297713 -271.442951 
L 211.642364 -270.89394 
L 211.981337 -270.344929 
L 212.307093 -269.795917 
L 212.611368 -269.246906 
L 212.885621 -268.697895 
L 213.121525 -268.148884 
L 213.311463 -267.599873 
L 213.448991 -267.050862 
L 213.529256 -266.501851 
L 213.549333 -265.952839 
L 213.508469 -265.403828 
L 213.408206 -264.854817 
L 213.252378 -264.305806 
L 213.046963 -263.756795 
L 212.799794 -263.207784 
L 212.520121 -262.658773 
L 212.218065 -262.109761 
L 211.903976 -261.56075 
L 211.587756 -261.011739 
L 211.278205 -260.462728 
L 210.982441 -259.913717 
L 210.705455 -259.364706 
L 210.449864 -258.815695 
L 210.215857 -258.266683 
L 210.001379 -257.717672 
L 209.802501 -257.168661 
L 209.613967 -256.61965 
L 209.429831 -256.070639 
L 209.244139 -255.521628 
L 209.051572 -254.972617 
L 208.847986 -254.423605 
L 208.630802 -253.874594 
L 208.399206 -253.325583 
L 208.154159 -252.776572 
L 207.898224 -252.227561 
L 207.635237 -251.67855 
L 207.369888 -251.129539 
L 207.107247 -250.580527 
L 206.8523 -250.031516 
L 206.609542 -249.482505 
L 206.382662 -248.933494 
L 206.174342 -248.384483 
L 205.986173 -247.835472 
L 205.818682 -247.286461 
L 205.67144 -246.737449 
L 205.543242 -246.188438 
L 205.432306 -245.639427 
L 205.336487 -245.090416 
L 205.253462 -244.541405 
L 205.180892 -243.992394 
L 205.116538 -243.443383 
L 205.058339 -242.894372 
L 205.004458 -242.34536 
L 204.953299 -241.796349 
L 204.903511 -241.247338 
L 204.853983 -240.698327 
L 204.803839 -240.149316 
L 204.752437 -239.600305 
L 204.699368 -239.051294 
L 204.64446 -238.502282 
L 204.587771 -237.953271 
L 204.529585 -237.40426 
L 204.470384 -236.855249 
z
" style="stroke: #000000"/>
    </defs>
    <g clip-path="url(#p33f93230ed)">
     <use xlink:href="#m4fe6a33d61" x="0" y="360" style="fill: #deebf7; stroke: #000000"/>
    </g>
   </g>
   <g id="PolyCollection_5">
    <defs>
     <path id="me377233769" d="M 243.361177 -250.062735 
L 241.873489 -250.062735 
L 241.792283 -250.552817 
L 241.707785 -251.042899 
L 241.619868 -251.532981 
L 241.528229 -252.023063 
L 241.432393 -252.513145 
L 241.331744 -253.003227 
L 241.225553 -253.493309 
L 241.113031 -253.983391 
L 240.993373 -254.473473 
L 240.865806 -254.963555 
L 240.729626 -255.453637 
L 240.584214 -255.943719 
L 240.429051 -256.433801 
L 240.263706 -256.923883 
L 240.08783 -257.413965 
L 239.90114 -257.904047 
L 239.703414 -258.394129 
L 239.494502 -258.884211 
L 239.274361 -259.374293 
L 239.043104 -259.864375 
L 238.801073 -260.354457 
L 238.54892 -260.844539 
L 238.287676 -261.334622 
L 238.018809 -261.824704 
L 237.744229 -262.314786 
L 237.466253 -262.804868 
L 237.187511 -263.29495 
L 236.9108 -263.785032 
L 236.638891 -264.275114 
L 236.374333 -264.765196 
L 236.119248 -265.255278 
L 235.875173 -265.74536 
L 235.642968 -266.235442 
L 235.422789 -266.725524 
L 235.214163 -267.215606 
L 235.016122 -267.705688 
L 234.827412 -268.19577 
L 234.646712 -268.685852 
L 234.472862 -269.175934 
L 234.305046 -269.666016 
L 234.142914 -270.156098 
L 233.986632 -270.64618 
L 233.836847 -271.136262 
L 233.694587 -271.626344 
L 233.561124 -272.116426 
L 233.437801 -272.606508 
L 233.325894 -273.09659 
L 233.226488 -273.586672 
L 233.140424 -274.076754 
L 233.068304 -274.566836 
L 233.010562 -275.056918 
L 232.967576 -275.547001 
L 232.939818 -276.037083 
L 232.928 -276.527165 
L 232.933193 -277.017247 
L 232.956899 -277.507329 
L 233.001039 -277.997411 
L 233.067869 -278.487493 
L 233.159797 -278.977575 
L 233.279132 -279.467657 
L 233.427782 -279.957739 
L 233.606928 -280.447821 
L 233.816724 -280.937903 
L 234.05606 -281.427985 
L 234.322421 -281.918067 
L 234.61188 -282.408149 
L 234.919236 -282.898231 
L 235.23829 -283.388313 
L 235.562255 -283.878395 
L 235.884238 -284.368477 
L 236.197774 -284.858559 
L 236.497333 -285.348641 
L 236.778753 -285.838723 
L 237.039558 -286.328805 
L 237.279105 -286.818887 
L 237.498566 -287.308969 
L 237.70073 -287.799051 
L 237.889657 -288.289133 
L 238.070221 -288.779215 
L 238.247591 -289.269297 
L 238.426705 -289.75938 
L 238.611799 -290.249462 
L 238.806029 -290.739544 
L 239.011218 -291.229626 
L 239.227752 -291.719708 
L 239.454623 -292.20979 
L 239.689597 -292.699872 
L 239.929488 -293.189954 
L 240.170491 -293.680036 
L 240.408545 -294.170118 
L 240.639681 -294.6602 
L 240.860316 -295.150282 
L 241.067491 -295.640364 
L 241.259014 -296.130446 
L 241.433519 -296.620528 
L 241.590452 -297.11061 
L 241.729979 -297.600692 
L 241.852864 -298.090774 
L 241.960305 -298.580856 
L 243.274362 -298.580856 
L 243.274362 -298.580856 
L 243.381802 -298.090774 
L 243.504687 -297.600692 
L 243.644215 -297.11061 
L 243.801147 -296.620528 
L 243.975653 -296.130446 
L 244.167176 -295.640364 
L 244.374351 -295.150282 
L 244.594986 -294.6602 
L 244.826121 -294.170118 
L 245.064176 -293.680036 
L 245.305179 -293.189954 
L 245.54507 -292.699872 
L 245.780044 -292.20979 
L 246.006915 -291.719708 
L 246.223449 -291.229626 
L 246.428637 -290.739544 
L 246.622867 -290.249462 
L 246.807962 -289.75938 
L 246.987076 -289.269297 
L 247.164446 -288.779215 
L 247.34501 -288.289133 
L 247.533937 -287.799051 
L 247.736101 -287.308969 
L 247.955562 -286.818887 
L 248.195109 -286.328805 
L 248.455913 -285.838723 
L 248.737334 -285.348641 
L 249.036892 -284.858559 
L 249.350429 -284.368477 
L 249.672412 -283.878395 
L 249.996376 -283.388313 
L 250.315431 -282.898231 
L 250.622786 -282.408149 
L 250.912245 -281.918067 
L 251.178606 -281.427985 
L 251.417942 -280.937903 
L 251.627739 -280.447821 
L 251.806885 -279.957739 
L 251.955535 -279.467657 
L 252.07487 -278.977575 
L 252.166798 -278.487493 
L 252.233627 -277.997411 
L 252.277768 -277.507329 
L 252.301473 -277.017247 
L 252.306667 -276.527165 
L 252.294848 -276.037083 
L 252.267091 -275.547001 
L 252.224105 -275.056918 
L 252.166362 -274.566836 
L 252.094243 -274.076754 
L 252.008179 -273.586672 
L 251.908772 -273.09659 
L 251.796865 -272.606508 
L 251.673543 -272.116426 
L 251.540079 -271.626344 
L 251.39782 -271.136262 
L 251.248034 -270.64618 
L 251.091752 -270.156098 
L 250.929621 -269.666016 
L 250.761804 -269.175934 
L 250.587954 -268.685852 
L 250.407254 -268.19577 
L 250.218544 -267.705688 
L 250.020504 -267.215606 
L 249.811878 -266.725524 
L 249.591699 -266.235442 
L 249.359493 -265.74536 
L 249.115419 -265.255278 
L 248.860333 -264.765196 
L 248.595775 -264.275114 
L 248.323867 -263.785032 
L 248.047155 -263.29495 
L 247.768414 -262.804868 
L 247.490438 -262.314786 
L 247.215857 -261.824704 
L 246.94699 -261.334622 
L 246.685747 -260.844539 
L 246.433593 -260.354457 
L 246.191562 -259.864375 
L 245.960305 -259.374293 
L 245.740164 -258.884211 
L 245.531253 -258.394129 
L 245.333527 -257.904047 
L 245.146837 -257.413965 
L 244.970961 -256.923883 
L 244.805616 -256.433801 
L 244.650452 -255.943719 
L 244.50504 -255.453637 
L 244.36886 -254.963555 
L 244.241294 -254.473473 
L 244.121636 -253.983391 
L 244.009114 -253.493309 
L 243.902923 -253.003227 
L 243.802273 -252.513145 
L 243.706438 -252.023063 
L 243.614799 -251.532981 
L 243.526881 -251.042899 
L 243.442383 -250.552817 
L 243.361177 -250.062735 
z
" style="stroke: #000000"/>
    </defs>
    <g clip-path="url(#p33f93230ed)">
     <use xlink:href="#me377233769" x="0" y="360" style="fill: #deebf7; stroke: #000000"/>
    </g>
   </g>
   <g id="PolyCollection_6">
    <defs>
     <path id="mc261ebc947" d="M 283.169697 -258.518535 
L 279.579637 -258.518535 
L 279.354016 -258.970734 
L 279.121783 -259.422933 
L 278.886672 -259.875132 
L 278.652762 -260.327331 
L 278.424301 -260.77953 
L 278.205503 -261.231729 
L 278.000318 -261.683928 
L 277.812217 -262.136128 
L 277.643978 -262.588327 
L 277.497514 -263.040526 
L 277.37375 -263.492725 
L 277.272552 -263.944924 
L 277.192738 -264.397123 
L 277.13215 -264.849322 
L 277.087791 -265.301521 
L 277.056026 -265.75372 
L 277.032815 -266.205919 
L 277.013965 -266.658118 
L 276.99539 -267.110317 
L 276.973337 -267.562516 
L 276.944578 -268.014715 
L 276.906547 -268.466914 
L 276.857413 -268.919113 
L 276.796086 -269.371312 
L 276.722168 -269.823511 
L 276.635856 -270.27571 
L 276.537802 -270.727909 
L 276.428972 -271.180108 
L 276.310494 -271.632307 
L 276.183527 -272.084506 
L 276.049152 -272.536705 
L 275.908308 -272.988904 
L 275.761746 -273.441103 
L 275.610027 -273.893303 
L 275.453536 -274.345502 
L 275.292513 -274.797701 
L 275.127086 -275.2499 
L 274.957307 -275.702099 
L 274.783181 -276.154298 
L 274.604682 -276.606497 
L 274.421781 -277.058696 
L 274.234459 -277.510895 
L 274.042749 -277.963094 
L 273.846784 -278.415293 
L 273.64687 -278.867492 
L 273.443581 -279.319691 
L 273.237872 -279.77189 
L 273.031197 -280.224089 
L 272.825619 -280.676288 
L 272.623902 -281.128487 
L 272.429548 -281.580686 
L 272.246786 -282.032885 
L 272.080485 -282.485084 
L 271.935996 -282.937283 
L 271.818914 -283.389482 
L 271.734787 -283.841681 
L 271.688782 -284.29388 
L 271.685333 -284.746079 
L 271.72781 -285.198278 
L 271.818233 -285.650478 
L 271.957063 -286.102677 
L 272.143092 -286.554876 
L 272.373448 -287.007075 
L 272.643713 -287.459274 
L 272.948156 -287.911473 
L 273.280055 -288.363672 
L 273.632085 -288.815871 
L 273.996738 -289.26807 
L 274.366745 -289.720269 
L 274.735453 -290.172468 
L 275.097145 -290.624667 
L 275.447268 -291.076866 
L 275.78256 -291.529065 
L 276.101072 -291.981264 
L 276.402095 -292.433463 
L 276.685999 -292.885662 
L 276.954017 -293.337861 
L 277.207979 -293.79006 
L 277.450044 -294.242259 
L 277.682436 -294.694458 
L 277.907221 -295.146657 
L 278.126114 -295.598856 
L 278.340365 -296.051055 
L 278.550683 -296.503254 
L 278.757238 -296.955453 
L 278.959702 -297.407653 
L 279.157334 -297.859852 
L 279.349097 -298.312051 
L 279.533784 -298.76425 
L 279.710151 -299.216449 
L 279.877032 -299.668648 
L 280.033443 -300.120847 
L 280.178651 -300.573046 
L 280.312221 -301.025245 
L 280.434029 -301.477444 
L 280.544247 -301.929643 
L 280.64331 -302.381842 
L 280.731865 -302.834041 
L 280.810708 -303.28624 
L 281.938625 -303.28624 
L 281.938625 -303.28624 
L 282.017468 -302.834041 
L 282.106023 -302.381842 
L 282.205086 -301.929643 
L 282.315304 -301.477444 
L 282.437112 -301.025245 
L 282.570683 -300.573046 
L 282.715891 -300.120847 
L 282.872301 -299.668648 
L 283.039182 -299.216449 
L 283.215549 -298.76425 
L 283.400236 -298.312051 
L 283.591999 -297.859852 
L 283.789631 -297.407653 
L 283.992095 -296.955453 
L 284.19865 -296.503254 
L 284.408969 -296.051055 
L 284.623219 -295.598856 
L 284.842113 -295.146657 
L 285.066897 -294.694458 
L 285.29929 -294.242259 
L 285.541354 -293.79006 
L 285.795316 -293.337861 
L 286.063334 -292.885662 
L 286.347239 -292.433463 
L 286.648262 -291.981264 
L 286.966774 -291.529065 
L 287.302065 -291.076866 
L 287.652189 -290.624667 
L 288.013881 -290.172468 
L 288.382588 -289.720269 
L 288.752595 -289.26807 
L 289.117249 -288.815871 
L 289.469278 -288.363672 
L 289.801177 -287.911473 
L 290.10562 -287.459274 
L 290.375885 -287.007075 
L 290.606241 -286.554876 
L 290.79227 -286.102677 
L 290.9311 -285.650478 
L 291.021523 -285.198278 
L 291.064 -284.746079 
L 291.060551 -284.29388 
L 291.014546 -283.841681 
L 290.930419 -283.389482 
L 290.813337 -282.937283 
L 290.668848 -282.485084 
L 290.502547 -282.032885 
L 290.319785 -281.580686 
L 290.125431 -281.128487 
L 289.923714 -280.676288 
L 289.718137 -280.224089 
L 289.511461 -279.77189 
L 289.305752 -279.319691 
L 289.102463 -278.867492 
L 288.902549 -278.415293 
L 288.706584 -277.963094 
L 288.514875 -277.510895 
L 288.327553 -277.058696 
L 288.144651 -276.606497 
L 287.966153 -276.154298 
L 287.792026 -275.702099 
L 287.622248 -275.2499 
L 287.456821 -274.797701 
L 287.295797 -274.345502 
L 287.139306 -273.893303 
L 286.987587 -273.441103 
L 286.841025 -272.988904 
L 286.700181 -272.536705 
L 286.565807 -272.084506 
L 286.438839 -271.632307 
L 286.320361 -271.180108 
L 286.211532 -270.727909 
L 286.113478 -270.27571 
L 286.027165 -269.823511 
L 285.953248 -269.371312 
L 285.891921 -268.919113 
L 285.842786 -268.466914 
L 285.804756 -268.014715 
L 285.775997 -267.562516 
L 285.753943 -267.110317 
L 285.735368 -266.658118 
L 285.716519 -266.205919 
L 285.693307 -265.75372 
L 285.661543 -265.301521 
L 285.617184 -264.849322 
L 285.556595 -264.397123 
L 285.476781 -263.944924 
L 285.375584 -263.492725 
L 285.251819 -263.040526 
L 285.105356 -262.588327 
L 284.937116 -262.136128 
L 284.749015 -261.683928 
L 284.543831 -261.231729 
L 284.325032 -260.77953 
L 284.096571 -260.327331 
L 283.862661 -259.875132 
L 283.62755 -259.422933 
L 283.395317 -258.970734 
L 283.169697 -258.518535 
z
" style="stroke: #000000"/>
    </defs>
    <g clip-path="url(#p33f93230ed)">
     <use xlink:href="#mc261ebc947" x="0" y="360" style="fill: #deebf7; stroke: #000000"/>
    </g>
   </g>
   <g id="PolyCollection_7">
    <defs>
     <path id="m1edb4fabb0" d="M 321.461855 -268.542797 
L 318.802145 -268.542797 
L 318.60639 -268.977399 
L 318.397692 -269.412001 
L 318.178438 -269.846603 
L 317.951629 -270.281206 
L 317.720787 -270.715808 
L 317.489811 -271.15041 
L 317.262775 -271.585012 
L 317.043696 -272.019614 
L 316.836266 -272.454216 
L 316.6436 -272.888818 
L 316.467993 -273.323421 
L 316.310727 -273.758023 
L 316.171947 -274.192625 
L 316.050613 -274.627227 
L 315.944537 -275.061829 
L 315.850506 -275.496431 
L 315.764481 -275.931034 
L 315.681847 -276.365636 
L 315.597709 -276.800238 
L 315.507185 -277.23484 
L 315.405702 -277.669442 
L 315.28924 -278.104044 
L 315.15454 -278.538646 
L 314.999239 -278.973249 
L 314.821942 -279.407851 
L 314.622229 -279.842453 
L 314.400615 -280.277055 
L 314.15846 -280.711657 
L 313.897867 -281.146259 
L 313.621569 -281.580862 
L 313.332823 -282.015464 
L 313.035322 -282.450066 
L 312.73313 -282.884668 
L 312.430632 -283.31927 
L 312.132493 -283.753872 
L 311.843616 -284.188474 
L 311.569074 -284.623077 
L 311.314019 -285.057679 
L 311.08354 -285.492281 
L 310.882485 -285.926883 
L 310.715245 -286.361485 
L 310.585507 -286.796087 
L 310.49601 -287.23069 
L 310.448324 -287.665292 
L 310.442667 -288.099894 
L 310.477804 -288.534496 
L 310.551029 -288.969098 
L 310.658246 -289.4037 
L 310.794158 -289.838302 
L 310.952537 -290.272905 
L 311.126572 -290.707507 
L 311.309275 -291.142109 
L 311.493888 -291.576711 
L 311.674295 -292.011313 
L 311.845385 -292.445915 
L 312.003347 -292.880518 
L 312.145874 -293.31512 
L 312.272267 -293.749722 
L 312.383428 -294.184324 
L 312.48174 -294.618926 
L 312.570859 -295.053528 
L 312.65542 -295.48813 
L 312.740692 -295.922733 
L 312.832205 -296.357335 
L 312.935374 -296.791937 
L 313.055157 -297.226539 
L 313.195763 -297.661141 
L 313.360424 -298.095743 
L 313.551257 -298.530345 
L 313.769197 -298.964948 
L 314.014006 -299.39955 
L 314.284355 -299.834152 
L 314.577944 -300.268754 
L 314.891661 -300.703356 
L 315.22175 -301.137958 
L 315.563993 -301.572561 
L 315.913869 -302.007163 
L 316.26672 -302.441765 
L 316.617884 -302.876367 
L 316.962832 -303.310969 
L 317.297284 -303.745571 
L 317.617318 -304.180173 
L 317.919469 -304.614776 
L 318.20082 -305.049378 
L 318.459074 -305.48398 
L 318.692614 -305.918582 
L 318.900536 -306.353184 
L 319.082652 -306.787786 
L 319.239469 -307.222389 
L 319.372134 -307.656991 
L 319.482354 -308.091593 
L 319.572286 -308.526195 
L 319.644416 -308.960797 
L 319.701422 -309.395399 
L 319.746044 -309.830001 
L 319.780947 -310.264604 
L 319.808616 -310.699206 
L 319.83126 -311.133808 
L 319.850743 -311.56841 
L 320.413257 -311.56841 
L 320.413257 -311.56841 
L 320.43274 -311.133808 
L 320.455384 -310.699206 
L 320.483053 -310.264604 
L 320.517956 -309.830001 
L 320.562578 -309.395399 
L 320.619584 -308.960797 
L 320.691714 -308.526195 
L 320.781646 -308.091593 
L 320.891866 -307.656991 
L 321.024531 -307.222389 
L 321.181348 -306.787786 
L 321.363464 -306.353184 
L 321.571386 -305.918582 
L 321.804926 -305.48398 
L 322.06318 -305.049378 
L 322.344531 -304.614776 
L 322.646682 -304.180173 
L 322.966716 -303.745571 
L 323.301168 -303.310969 
L 323.646116 -302.876367 
L 323.99728 -302.441765 
L 324.350131 -302.007163 
L 324.700007 -301.572561 
L 325.04225 -301.137958 
L 325.372339 -300.703356 
L 325.686056 -300.268754 
L 325.979645 -299.834152 
L 326.249994 -299.39955 
L 326.494803 -298.964948 
L 326.712743 -298.530345 
L 326.903576 -298.095743 
L 327.068237 -297.661141 
L 327.208843 -297.226539 
L 327.328626 -296.791937 
L 327.431795 -296.357335 
L 327.523308 -295.922733 
L 327.60858 -295.48813 
L 327.693141 -295.053528 
L 327.78226 -294.618926 
L 327.880572 -294.184324 
L 327.991733 -293.749722 
L 328.118126 -293.31512 
L 328.260653 -292.880518 
L 328.418615 -292.445915 
L 328.589705 -292.011313 
L 328.770112 -291.576711 
L 328.954725 -291.142109 
L 329.137428 -290.707507 
L 329.311463 -290.272905 
L 329.469842 -289.838302 
L 329.605754 -289.4037 
L 329.712971 -288.969098 
L 329.786196 -288.534496 
L 329.821333 -288.099894 
L 329.815676 -287.665292 
L 329.76799 -287.23069 
L 329.678493 -286.796087 
L 329.548755 -286.361485 
L 329.381515 -285.926883 
L 329.18046 -285.492281 
L 328.949981 -285.057679 
L 328.694926 -284.623077 
L 328.420384 -284.188474 
L 328.131507 -283.753872 
L 327.833368 -283.31927 
L 327.53087 -282.884668 
L 327.228678 -282.450066 
L 326.931177 -282.015464 
L 326.642431 -281.580862 
L 326.366133 -281.146259 
L 326.10554 -280.711657 
L 325.863385 -280.277055 
L 325.641771 -279.842453 
L 325.442058 -279.407851 
L 325.264761 -278.973249 
L 325.10946 -278.538646 
L 324.97476 -278.104044 
L 324.858298 -277.669442 
L 324.756815 -277.23484 
L 324.666291 -276.800238 
L 324.582153 -276.365636 
L 324.499519 -275.931034 
L 324.413494 -275.496431 
L 324.319463 -275.061829 
L 324.213387 -274.627227 
L 324.092053 -274.192625 
L 323.953273 -273.758023 
L 323.796007 -273.323421 
L 323.6204 -272.888818 
L 323.427734 -272.454216 
L 323.220304 -272.019614 
L 323.001225 -271.585012 
L 322.774189 -271.15041 
L 322.543213 -270.715808 
L 322.312371 -270.281206 
L 322.085562 -269.846603 
L 321.866308 -269.412001 
L 321.65761 -268.977399 
L 321.461855 -268.542797 
z
" style="stroke: #000000"/>
    </defs>
    <g clip-path="url(#p33f93230ed)">
     <use xlink:href="#m1edb4fabb0" x="0" y="360" style="fill: #deebf7; stroke: #000000"/>
    </g>
   </g>
   <g id="LineCollection_1">
    <path d="M 87.588 164.237279 
L 87.588 143.751786 
" clip-path="url(#p33f93230ed)" style="fill: none; stroke: #000000; stroke-width: 5"/>
    <path d="M 126.345333 131.612127 
L 126.345333 115.253249 
" clip-path="url(#p33f93230ed)" style="fill: none; stroke: #000000; stroke-width: 5"/>
    <path d="M 165.102667 122.195572 
L 165.102667 109.163163 
" clip-path="url(#p33f93230ed)" style="fill: none; stroke: #000000; stroke-width: 5"/>
    <path d="M 203.86 101.508956 
L 203.86 89.432962 
" clip-path="url(#p33f93230ed)" style="fill: none; stroke: #000000; stroke-width: 5"/>
    <path d="M 242.617333 92.621974 
L 242.617333 78.411772 
" clip-path="url(#p33f93230ed)" style="fill: none; stroke: #000000; stroke-width: 5"/>
    <path d="M 281.374667 87.42319 
L 281.374667 73.050934 
" clip-path="url(#p33f93230ed)" style="fill: none; stroke: #000000; stroke-width: 5"/>
    <path d="M 320.132 77.439442 
L 320.132 64.612496 
" clip-path="url(#p33f93230ed)" style="fill: none; stroke: #000000; stroke-width: 5"/>
   </g>
   <g id="LineCollection_2">
    <path d="M 87.588 164.237279 
L 87.588 168.410196 
" clip-path="url(#p33f93230ed)" style="fill: none; stroke: #000000"/>
    <path d="M 126.345333 131.612127 
L 126.345333 135.599838 
" clip-path="url(#p33f93230ed)" style="fill: none; stroke: #000000"/>
    <path d="M 165.102667 122.195572 
L 165.102667 108.646613 
" clip-path="url(#p33f93230ed)" style="fill: none; stroke: #000000"/>
    <path d="M 203.86 101.508956 
L 203.86 117.08505 
" clip-path="url(#p33f93230ed)" style="fill: none; stroke: #000000"/>
    <path d="M 242.617333 92.621974 
L 242.617333 96.191525 
" clip-path="url(#p33f93230ed)" style="fill: none; stroke: #000000"/>
    <path d="M 281.374667 87.42319 
L 281.374667 96.017895 
" clip-path="url(#p33f93230ed)" style="fill: none; stroke: #000000"/>
    <path d="M 320.132 77.439442 
L 320.132 84.124212 
" clip-path="url(#p33f93230ed)" style="fill: none; stroke: #000000"/>
   </g>
   <g id="patch_3">
    <path d="M 58.52 305.584 
L 58.52 16.2 
" style="fill: none; stroke: #000000; stroke-width: 0.8; stroke-linejoin: miter; stroke-linecap: square"/>
   </g>
   <g id="patch_4">
    <path d="M 349.2 305.584 
L 349.2 16.2 
" style="fill: none; stroke: #000000; stroke-width: 0.8; stroke-linejoin: miter; stroke-linecap: square"/>
   </g>
   <g id="patch_5">
    <path d="M 58.52 305.584 
L 349.2 305.584 
" style="fill: none; stroke: #000000; stroke-width: 0.8; stroke-linejoin: miter; stroke-linecap: square"/>
   </g>
   <g id="patch_6">
    <path d="M 58.52 16.2 
L 349.2 16.2 
" style="fill: none; stroke: #000000; stroke-width: 0.8; stroke-linejoin: miter; stroke-linecap: square"/>
   </g>
   <g id="PathCollection_1">
    <defs>
     <path id="m9bf7b0c0f7" d="M 0 2.738613 
C 0.726289 2.738613 1.422928 2.450055 1.936492 1.936492 
C 2.450055 1.422928 2.738613 0.726289 2.738613 0 
C 2.738613 -0.726289 2.450055 -1.422928 1.936492 -1.936492 
C 1.422928 -2.450055 0.726289 -2.738613 0 -2.738613 
C -0.726289 -2.738613 -1.422928 -2.450055 -1.936492 -1.936492 
C -2.450055 -1.422928 -2.738613 -0.726289 -2.738613 0 
C -2.738613 0.726289 -2.450055 1.422928 -1.936492 1.936492 
C -1.422928 2.450055 -0.726289 2.738613 0 2.738613 
z
" style="stroke: #ffffff"/>
    </defs>
    <g clip-path="url(#p33f93230ed)">
     <use xlink:href="#m9bf7b0c0f7" x="87.588" y="153.038118" style="fill: #ffffff; stroke: #ffffff"/>
     <use xlink:href="#m9bf7b0c0f7" x="126.345333" y="123.981071" style="fill: #ffffff; stroke: #ffffff"/>
     <use xlink:href="#m9bf7b0c0f7" x="165.102667" y="115.71337" style="fill: #ffffff; stroke: #ffffff"/>
     <use xlink:href="#m9bf7b0c0f7" x="203.86" y="94.712773" style="fill: #ffffff; stroke: #ffffff"/>
     <use xlink:href="#m9bf7b0c0f7" x="242.617333" y="84.653785" style="fill: #ffffff; stroke: #ffffff"/>
     <use xlink:href="#m9bf7b0c0f7" x="281.374667" y="78.371259" style="fill: #ffffff; stroke: #ffffff"/>
     <use xlink:href="#m9bf7b0c0f7" x="320.132" y="71.509964" style="fill: #ffffff; stroke: #ffffff"/>
    </g>
   </g>
  </g>
 </g>
 <defs>
  <clipPath id="p33f93230ed">
   <rect x="58.52" y="16.2" width="290.68" height="289.384"/>
  </clipPath>
 </defs>
</svg>
