<?xml version="1.0" encoding="utf-8" standalone="no"?>
<!DOCTYPE svg PUBLIC "-//W3C//DTD SVG 1.1//EN"
  "http://www.w3.org/Graphics/SVG/1.1/DTD/svg11.dtd">
<svg xmlns:xlink="http://www.w3.org/1999/xlink" width="360pt" height="360pt" viewBox="0 0 360 360" xmlns="http://www.w3.org/2000/svg" version="1.1">
 <metadata>
  <rdf:RDF xmlns:dc="http://purl.org/dc/elements/1.1/" xmlns:cc="http://creativecommons.org/ns#" xmlns:rdf="http://www.w3.org/1999/02/22-rdf-syntax-ns#">
   <cc:Work>
    <dc:type rdf:resource="http://purl.org/dc/dcmitype/StillImage"/>
    <dc:date>2022-07-06T10:29:08.647146</dc:date>
    <dc:format>image/svg+xml</dc:format>
    <dc:creator>
     <cc:Agent>
      <dc:title>Matplotlib v3.5.1, https://matplotlib.org/</dc:title>
     </cc:Agent>
    </dc:creator>
   </cc:Work>
  </rdf:RDF>
 </metadata>
 <defs>
  <style type="text/css">*{stroke-linejoin: round; stroke-linecap: butt}</style>
 </defs>
 <g id="figure_1">
  <g id="patch_1">
   <path d="M 0 360 
L 360 360 
L 360 0 
L 0 0 
L 0 360 
z
" style="fill: none"/>
  </g>
  <g id="axes_1">
   <g id="patch_2">
    <path d="M 63.2 305.584 
L 349.2 305.584 
L 349.2 16.2 
L 63.2 16.2 
L 63.2 305.584 
z
" style="fill: none"/>
   </g>
   <g id="matplotlib.axis_1">
    <g id="xtick_1">
     <g id="line2d_1">
      <defs>
       <path id="mfb15359e98" d="M 0 0 
L 0 3.5 
" style="stroke: #000000; stroke-width: 0.8"/>
      </defs>
      <g>
       <use xlink:href="#mfb15359e98" x="96.2" y="305.584" style="stroke: #000000; stroke-width: 0.8"/>
      </g>
     </g>
     <g id="text_1">
      <!-- 10 -->
      <g transform="translate(87.2925 323.221812)scale(0.14 -0.14)">
       <defs>
        <path id="DejaVuSans-31" d="M 794 531 
L 1825 531 
L 1825 4091 
L 703 3866 
L 703 4441 
L 1819 4666 
L 2450 4666 
L 2450 531 
L 3481 531 
L 3481 0 
L 794 0 
L 794 531 
z
" transform="scale(0.015625)"/>
        <path id="DejaVuSans-30" d="M 2034 4250 
Q 1547 4250 1301 3770 
Q 1056 3291 1056 2328 
Q 1056 1369 1301 889 
Q 1547 409 2034 409 
Q 2525 409 2770 889 
Q 3016 1369 3016 2328 
Q 3016 3291 2770 3770 
Q 2525 4250 2034 4250 
z
M 2034 4750 
Q 2819 4750 3233 4129 
Q 3647 3509 3647 2328 
Q 3647 1150 3233 529 
Q 2819 -91 2034 -91 
Q 1250 -91 836 529 
Q 422 1150 422 2328 
Q 422 3509 836 4129 
Q 1250 4750 2034 4750 
z
" transform="scale(0.015625)"/>
       </defs>
       <use xlink:href="#DejaVuSans-31"/>
       <use xlink:href="#DejaVuSans-30" x="63.623047"/>
      </g>
     </g>
    </g>
    <g id="xtick_2">
     <g id="line2d_2">
      <g>
       <use xlink:href="#mfb15359e98" x="140.2" y="305.584" style="stroke: #000000; stroke-width: 0.8"/>
      </g>
     </g>
     <g id="text_2">
      <!-- 20 -->
      <g transform="translate(131.2925 323.221812)scale(0.14 -0.14)">
       <defs>
        <path id="DejaVuSans-32" d="M 1228 531 
L 3431 531 
L 3431 0 
L 469 0 
L 469 531 
Q 828 903 1448 1529 
Q 2069 2156 2228 2338 
Q 2531 2678 2651 2914 
Q 2772 3150 2772 3378 
Q 2772 3750 2511 3984 
Q 2250 4219 1831 4219 
Q 1534 4219 1204 4116 
Q 875 4013 500 3803 
L 500 4441 
Q 881 4594 1212 4672 
Q 1544 4750 1819 4750 
Q 2544 4750 2975 4387 
Q 3406 4025 3406 3419 
Q 3406 3131 3298 2873 
Q 3191 2616 2906 2266 
Q 2828 2175 2409 1742 
Q 1991 1309 1228 531 
z
" transform="scale(0.015625)"/>
       </defs>
       <use xlink:href="#DejaVuSans-32"/>
       <use xlink:href="#DejaVuSans-30" x="63.623047"/>
      </g>
     </g>
    </g>
    <g id="xtick_3">
     <g id="line2d_3">
      <g>
       <use xlink:href="#mfb15359e98" x="184.2" y="305.584" style="stroke: #000000; stroke-width: 0.8"/>
      </g>
     </g>
     <g id="text_3">
      <!-- 30 -->
      <g transform="translate(175.2925 323.221812)scale(0.14 -0.14)">
       <defs>
        <path id="DejaVuSans-33" d="M 2597 2516 
Q 3050 2419 3304 2112 
Q 3559 1806 3559 1356 
Q 3559 666 3084 287 
Q 2609 -91 1734 -91 
Q 1441 -91 1130 -33 
Q 819 25 488 141 
L 488 750 
Q 750 597 1062 519 
Q 1375 441 1716 441 
Q 2309 441 2620 675 
Q 2931 909 2931 1356 
Q 2931 1769 2642 2001 
Q 2353 2234 1838 2234 
L 1294 2234 
L 1294 2753 
L 1863 2753 
Q 2328 2753 2575 2939 
Q 2822 3125 2822 3475 
Q 2822 3834 2567 4026 
Q 2313 4219 1838 4219 
Q 1578 4219 1281 4162 
Q 984 4106 628 3988 
L 628 4550 
Q 988 4650 1302 4700 
Q 1616 4750 1894 4750 
Q 2613 4750 3031 4423 
Q 3450 4097 3450 3541 
Q 3450 3153 3228 2886 
Q 3006 2619 2597 2516 
z
" transform="scale(0.015625)"/>
       </defs>
       <use xlink:href="#DejaVuSans-33"/>
       <use xlink:href="#DejaVuSans-30" x="63.623047"/>
      </g>
     </g>
    </g>
    <g id="xtick_4">
     <g id="line2d_4">
      <g>
       <use xlink:href="#mfb15359e98" x="228.2" y="305.584" style="stroke: #000000; stroke-width: 0.8"/>
      </g>
     </g>
     <g id="text_4">
      <!-- 50 -->
      <g transform="translate(219.2925 323.221812)scale(0.14 -0.14)">
       <defs>
        <path id="DejaVuSans-35" d="M 691 4666 
L 3169 4666 
L 3169 4134 
L 1269 4134 
L 1269 2991 
Q 1406 3038 1543 3061 
Q 1681 3084 1819 3084 
Q 2600 3084 3056 2656 
Q 3513 2228 3513 1497 
Q 3513 744 3044 326 
Q 2575 -91 1722 -91 
Q 1428 -91 1123 -41 
Q 819 9 494 109 
L 494 744 
Q 775 591 1075 516 
Q 1375 441 1709 441 
Q 2250 441 2565 725 
Q 2881 1009 2881 1497 
Q 2881 1984 2565 2268 
Q 2250 2553 1709 2553 
Q 1456 2553 1204 2497 
Q 953 2441 691 2322 
L 691 4666 
z
" transform="scale(0.015625)"/>
       </defs>
       <use xlink:href="#DejaVuSans-35"/>
       <use xlink:href="#DejaVuSans-30" x="63.623047"/>
      </g>
     </g>
    </g>
    <g id="xtick_5">
     <g id="line2d_5">
      <g>
       <use xlink:href="#mfb15359e98" x="272.2" y="305.584" style="stroke: #000000; stroke-width: 0.8"/>
      </g>
     </g>
     <g id="text_5">
      <!-- 64 -->
      <g transform="translate(263.2925 323.221812)scale(0.14 -0.14)">
       <defs>
        <path id="DejaVuSans-36" d="M 2113 2584 
Q 1688 2584 1439 2293 
Q 1191 2003 1191 1497 
Q 1191 994 1439 701 
Q 1688 409 2113 409 
Q 2538 409 2786 701 
Q 3034 994 3034 1497 
Q 3034 2003 2786 2293 
Q 2538 2584 2113 2584 
z
M 3366 4563 
L 3366 3988 
Q 3128 4100 2886 4159 
Q 2644 4219 2406 4219 
Q 1781 4219 1451 3797 
Q 1122 3375 1075 2522 
Q 1259 2794 1537 2939 
Q 1816 3084 2150 3084 
Q 2853 3084 3261 2657 
Q 3669 2231 3669 1497 
Q 3669 778 3244 343 
Q 2819 -91 2113 -91 
Q 1303 -91 875 529 
Q 447 1150 447 2328 
Q 447 3434 972 4092 
Q 1497 4750 2381 4750 
Q 2619 4750 2861 4703 
Q 3103 4656 3366 4563 
z
" transform="scale(0.015625)"/>
        <path id="DejaVuSans-34" d="M 2419 4116 
L 825 1625 
L 2419 1625 
L 2419 4116 
z
M 2253 4666 
L 3047 4666 
L 3047 1625 
L 3713 1625 
L 3713 1100 
L 3047 1100 
L 3047 0 
L 2419 0 
L 2419 1100 
L 313 1100 
L 313 1709 
L 2253 4666 
z
" transform="scale(0.015625)"/>
       </defs>
       <use xlink:href="#DejaVuSans-36"/>
       <use xlink:href="#DejaVuSans-34" x="63.623047"/>
      </g>
     </g>
    </g>
    <g id="xtick_6">
     <g id="line2d_6">
      <g>
       <use xlink:href="#mfb15359e98" x="316.2" y="305.584" style="stroke: #000000; stroke-width: 0.8"/>
      </g>
     </g>
     <g id="text_6">
      <!-- $\bf{10_{3T}}$ -->
      <g transform="translate(299.4 323.221812)scale(0.14 -0.14)">
       <defs>
        <path id="DejaVuSans-Bold-31" d="M 750 831 
L 1813 831 
L 1813 3847 
L 722 3622 
L 722 4441 
L 1806 4666 
L 2950 4666 
L 2950 831 
L 4013 831 
L 4013 0 
L 750 0 
L 750 831 
z
" transform="scale(0.015625)"/>
        <path id="DejaVuSans-Bold-30" d="M 2944 2338 
Q 2944 3213 2780 3570 
Q 2616 3928 2228 3928 
Q 1841 3928 1675 3570 
Q 1509 3213 1509 2338 
Q 1509 1453 1675 1090 
Q 1841 728 2228 728 
Q 2613 728 2778 1090 
Q 2944 1453 2944 2338 
z
M 4147 2328 
Q 4147 1169 3647 539 
Q 3147 -91 2228 -91 
Q 1306 -91 806 539 
Q 306 1169 306 2328 
Q 306 3491 806 4120 
Q 1306 4750 2228 4750 
Q 3147 4750 3647 4120 
Q 4147 3491 4147 2328 
z
" transform="scale(0.015625)"/>
        <path id="DejaVuSans-Bold-33" d="M 2981 2516 
Q 3453 2394 3698 2092 
Q 3944 1791 3944 1325 
Q 3944 631 3412 270 
Q 2881 -91 1863 -91 
Q 1503 -91 1142 -33 
Q 781 25 428 141 
L 428 1069 
Q 766 900 1098 814 
Q 1431 728 1753 728 
Q 2231 728 2486 893 
Q 2741 1059 2741 1369 
Q 2741 1688 2480 1852 
Q 2219 2016 1709 2016 
L 1228 2016 
L 1228 2791 
L 1734 2791 
Q 2188 2791 2409 2933 
Q 2631 3075 2631 3366 
Q 2631 3634 2415 3781 
Q 2200 3928 1806 3928 
Q 1516 3928 1219 3862 
Q 922 3797 628 3669 
L 628 4550 
Q 984 4650 1334 4700 
Q 1684 4750 2022 4750 
Q 2931 4750 3382 4451 
Q 3834 4153 3834 3553 
Q 3834 3144 3618 2883 
Q 3403 2622 2981 2516 
z
" transform="scale(0.015625)"/>
        <path id="DejaVuSans-Bold-54" d="M 31 4666 
L 4331 4666 
L 4331 3756 
L 2784 3756 
L 2784 0 
L 1581 0 
L 1581 3756 
L 31 3756 
L 31 4666 
z
" transform="scale(0.015625)"/>
       </defs>
       <use xlink:href="#DejaVuSans-Bold-31" transform="translate(0 0.78125)"/>
       <use xlink:href="#DejaVuSans-Bold-30" transform="translate(69.580078 0.78125)"/>
       <use xlink:href="#DejaVuSans-Bold-33" transform="translate(140.117188 -15.625)scale(0.7)"/>
       <use xlink:href="#DejaVuSans-Bold-54" transform="translate(188.823242 -15.625)scale(0.7)"/>
      </g>
     </g>
    </g>
    <g id="xtick_7"/>
    <g id="xtick_8"/>
    <g id="xtick_9"/>
    <g id="xtick_10"/>
    <g id="xtick_11"/>
    <g id="xtick_12"/>
    <g id="xtick_13"/>
    <g id="xtick_14"/>
    <g id="xtick_15"/>
    <g id="xtick_16"/>
    <g id="xtick_17"/>
    <g id="xtick_18"/>
    <g id="xtick_19"/>
    <g id="xtick_20"/>
    <g id="xtick_21"/>
    <g id="xtick_22"/>
    <g id="xtick_23"/>
    <g id="xtick_24"/>
    <g id="xtick_25"/>
    <g id="xtick_26"/>
    <g id="xtick_27"/>
    <g id="xtick_28"/>
    <g id="xtick_29"/>
    <g id="xtick_30"/>
    <g id="xtick_31"/>
    <g id="xtick_32"/>
    <g id="text_7">
     <!-- $n_{conf}$ -->
     <g transform="translate(186.67 343.810563)scale(0.18 -0.18)">
      <defs>
       <path id="DejaVuSans-Oblique-6e" d="M 3566 2113 
L 3156 0 
L 2578 0 
L 2988 2091 
Q 3016 2238 3031 2350 
Q 3047 2463 3047 2528 
Q 3047 2791 2881 2937 
Q 2716 3084 2419 3084 
Q 1956 3084 1622 2776 
Q 1288 2469 1184 1941 
L 800 0 
L 225 0 
L 903 3500 
L 1478 3500 
L 1363 2950 
Q 1603 3253 1940 3418 
Q 2278 3584 2650 3584 
Q 3113 3584 3367 3334 
Q 3622 3084 3622 2631 
Q 3622 2519 3608 2391 
Q 3594 2263 3566 2113 
z
" transform="scale(0.015625)"/>
       <path id="DejaVuSans-Oblique-63" d="M 3431 3366 
L 3316 2797 
Q 3109 2947 2876 3022 
Q 2644 3097 2394 3097 
Q 2119 3097 1870 3000 
Q 1622 2903 1453 2725 
Q 1184 2453 1037 2087 
Q 891 1722 891 1331 
Q 891 859 1127 628 
Q 1363 397 1844 397 
Q 2081 397 2348 469 
Q 2616 541 2906 684 
L 2797 116 
Q 2547 13 2283 -39 
Q 2019 -91 1741 -91 
Q 1044 -91 669 257 
Q 294 606 294 1253 
Q 294 1797 489 2255 
Q 684 2713 1069 3078 
Q 1331 3328 1684 3456 
Q 2038 3584 2456 3584 
Q 2700 3584 2940 3529 
Q 3181 3475 3431 3366 
z
" transform="scale(0.015625)"/>
       <path id="DejaVuSans-Oblique-6f" d="M 1625 -91 
Q 1009 -91 651 289 
Q 294 669 294 1325 
Q 294 1706 417 2101 
Q 541 2497 738 2766 
Q 1047 3184 1428 3384 
Q 1809 3584 2291 3584 
Q 2888 3584 3255 3212 
Q 3622 2841 3622 2241 
Q 3622 1825 3500 1412 
Q 3378 1000 3181 728 
Q 2875 309 2494 109 
Q 2113 -91 1625 -91 
z
M 891 1344 
Q 891 869 1089 633 
Q 1288 397 1691 397 
Q 2269 397 2648 901 
Q 3028 1406 3028 2181 
Q 3028 2634 2825 2865 
Q 2622 3097 2228 3097 
Q 1903 3097 1650 2945 
Q 1397 2794 1197 2484 
Q 1050 2253 970 1956 
Q 891 1659 891 1344 
z
" transform="scale(0.015625)"/>
       <path id="DejaVuSans-Oblique-66" d="M 3059 4863 
L 2969 4384 
L 2419 4384 
Q 2106 4384 1964 4261 
Q 1822 4138 1753 3809 
L 1691 3500 
L 2638 3500 
L 2553 3053 
L 1606 3053 
L 1013 0 
L 434 0 
L 1031 3053 
L 481 3053 
L 563 3500 
L 1113 3500 
L 1159 3744 
Q 1278 4363 1576 4613 
Q 1875 4863 2516 4863 
L 3059 4863 
z
" transform="scale(0.015625)"/>
      </defs>
      <use xlink:href="#DejaVuSans-Oblique-6e"/>
      <use xlink:href="#DejaVuSans-Oblique-63" transform="translate(63.378906 -16.40625)scale(0.7)"/>
      <use xlink:href="#DejaVuSans-Oblique-6f" transform="translate(101.865234 -16.40625)scale(0.7)"/>
      <use xlink:href="#DejaVuSans-Oblique-6e" transform="translate(144.692383 -16.40625)scale(0.7)"/>
      <use xlink:href="#DejaVuSans-Oblique-66" transform="translate(189.057617 -16.40625)scale(0.7)"/>
     </g>
    </g>
   </g>
   <g id="matplotlib.axis_2">
    <g id="ytick_1">
     <g id="line2d_7">
      <path d="M 63.2 305.584 
L 349.2 305.584 
" clip-path="url(#pb8f2d051c1)" style="fill: none; stroke: #666666; stroke-width: 0.8; stroke-linecap: square"/>
     </g>
     <g id="line2d_8">
      <defs>
       <path id="m4debe84ebf" d="M 0 0 
L -3.5 0 
" style="stroke: #000000; stroke-width: 0.8"/>
      </defs>
      <g>
       <use xlink:href="#m4debe84ebf" x="63.2" y="305.584" style="stroke: #000000; stroke-width: 0.8"/>
      </g>
     </g>
     <g id="text_8">
      <!-- 0.1 -->
      <g transform="translate(33.935625 310.902906)scale(0.14 -0.14)">
       <defs>
        <path id="DejaVuSans-2e" d="M 684 794 
L 1344 794 
L 1344 0 
L 684 0 
L 684 794 
z
" transform="scale(0.015625)"/>
       </defs>
       <use xlink:href="#DejaVuSans-30"/>
       <use xlink:href="#DejaVuSans-2e" x="63.623047"/>
       <use xlink:href="#DejaVuSans-31" x="95.410156"/>
      </g>
     </g>
    </g>
    <g id="ytick_2">
     <g id="line2d_9">
      <path d="M 63.2 273.430222 
L 349.2 273.430222 
" clip-path="url(#pb8f2d051c1)" style="fill: none; stroke: #666666; stroke-width: 0.8; stroke-linecap: square"/>
     </g>
     <g id="line2d_10">
      <g>
       <use xlink:href="#m4debe84ebf" x="63.2" y="273.430222" style="stroke: #000000; stroke-width: 0.8"/>
      </g>
     </g>
     <g id="text_9">
      <!-- 0.2 -->
      <g transform="translate(33.935625 278.749128)scale(0.14 -0.14)">
       <use xlink:href="#DejaVuSans-30"/>
       <use xlink:href="#DejaVuSans-2e" x="63.623047"/>
       <use xlink:href="#DejaVuSans-32" x="95.410156"/>
      </g>
     </g>
    </g>
    <g id="ytick_3">
     <g id="line2d_11">
      <path d="M 63.2 241.276444 
L 349.2 241.276444 
" clip-path="url(#pb8f2d051c1)" style="fill: none; stroke: #666666; stroke-width: 0.8; stroke-linecap: square"/>
     </g>
     <g id="line2d_12">
      <g>
       <use xlink:href="#m4debe84ebf" x="63.2" y="241.276444" style="stroke: #000000; stroke-width: 0.8"/>
      </g>
     </g>
     <g id="text_10">
      <!-- 0.3 -->
      <g transform="translate(33.935625 246.595351)scale(0.14 -0.14)">
       <use xlink:href="#DejaVuSans-30"/>
       <use xlink:href="#DejaVuSans-2e" x="63.623047"/>
       <use xlink:href="#DejaVuSans-33" x="95.410156"/>
      </g>
     </g>
    </g>
    <g id="ytick_4">
     <g id="line2d_13">
      <path d="M 63.2 209.122667 
L 349.2 209.122667 
" clip-path="url(#pb8f2d051c1)" style="fill: none; stroke: #666666; stroke-width: 0.8; stroke-linecap: square"/>
     </g>
     <g id="line2d_14">
      <g>
       <use xlink:href="#m4debe84ebf" x="63.2" y="209.122667" style="stroke: #000000; stroke-width: 0.8"/>
      </g>
     </g>
     <g id="text_11">
      <!-- 0.4 -->
      <g transform="translate(33.935625 214.441573)scale(0.14 -0.14)">
       <use xlink:href="#DejaVuSans-30"/>
       <use xlink:href="#DejaVuSans-2e" x="63.623047"/>
       <use xlink:href="#DejaVuSans-34" x="95.410156"/>
      </g>
     </g>
    </g>
    <g id="ytick_5">
     <g id="line2d_15">
      <path d="M 63.2 176.968889 
L 349.2 176.968889 
" clip-path="url(#pb8f2d051c1)" style="fill: none; stroke: #666666; stroke-width: 0.8; stroke-linecap: square"/>
     </g>
     <g id="line2d_16">
      <g>
       <use xlink:href="#m4debe84ebf" x="63.2" y="176.968889" style="stroke: #000000; stroke-width: 0.8"/>
      </g>
     </g>
     <g id="text_12">
      <!-- 0.5 -->
      <g transform="translate(33.935625 182.287795)scale(0.14 -0.14)">
       <use xlink:href="#DejaVuSans-30"/>
       <use xlink:href="#DejaVuSans-2e" x="63.623047"/>
       <use xlink:href="#DejaVuSans-35" x="95.410156"/>
      </g>
     </g>
    </g>
    <g id="ytick_6">
     <g id="line2d_17">
      <path d="M 63.2 144.815111 
L 349.2 144.815111 
" clip-path="url(#pb8f2d051c1)" style="fill: none; stroke: #666666; stroke-width: 0.8; stroke-linecap: square"/>
     </g>
     <g id="line2d_18">
      <g>
       <use xlink:href="#m4debe84ebf" x="63.2" y="144.815111" style="stroke: #000000; stroke-width: 0.8"/>
      </g>
     </g>
     <g id="text_13">
      <!-- 0.6 -->
      <g transform="translate(33.935625 150.134017)scale(0.14 -0.14)">
       <use xlink:href="#DejaVuSans-30"/>
       <use xlink:href="#DejaVuSans-2e" x="63.623047"/>
       <use xlink:href="#DejaVuSans-36" x="95.410156"/>
      </g>
     </g>
    </g>
    <g id="ytick_7">
     <g id="line2d_19">
      <path d="M 63.2 112.661333 
L 349.2 112.661333 
" clip-path="url(#pb8f2d051c1)" style="fill: none; stroke: #666666; stroke-width: 0.8; stroke-linecap: square"/>
     </g>
     <g id="line2d_20">
      <g>
       <use xlink:href="#m4debe84ebf" x="63.2" y="112.661333" style="stroke: #000000; stroke-width: 0.8"/>
      </g>
     </g>
     <g id="text_14">
      <!-- 0.7 -->
      <g transform="translate(33.935625 117.98024)scale(0.14 -0.14)">
       <defs>
        <path id="DejaVuSans-37" d="M 525 4666 
L 3525 4666 
L 3525 4397 
L 1831 0 
L 1172 0 
L 2766 4134 
L 525 4134 
L 525 4666 
z
" transform="scale(0.015625)"/>
       </defs>
       <use xlink:href="#DejaVuSans-30"/>
       <use xlink:href="#DejaVuSans-2e" x="63.623047"/>
       <use xlink:href="#DejaVuSans-37" x="95.410156"/>
      </g>
     </g>
    </g>
    <g id="ytick_8">
     <g id="line2d_21">
      <path d="M 63.2 80.507556 
L 349.2 80.507556 
" clip-path="url(#pb8f2d051c1)" style="fill: none; stroke: #666666; stroke-width: 0.8; stroke-linecap: square"/>
     </g>
     <g id="line2d_22">
      <g>
       <use xlink:href="#m4debe84ebf" x="63.2" y="80.507556" style="stroke: #000000; stroke-width: 0.8"/>
      </g>
     </g>
     <g id="text_15">
      <!-- 0.8 -->
      <g transform="translate(33.935625 85.826462)scale(0.14 -0.14)">
       <defs>
        <path id="DejaVuSans-38" d="M 2034 2216 
Q 1584 2216 1326 1975 
Q 1069 1734 1069 1313 
Q 1069 891 1326 650 
Q 1584 409 2034 409 
Q 2484 409 2743 651 
Q 3003 894 3003 1313 
Q 3003 1734 2745 1975 
Q 2488 2216 2034 2216 
z
M 1403 2484 
Q 997 2584 770 2862 
Q 544 3141 544 3541 
Q 544 4100 942 4425 
Q 1341 4750 2034 4750 
Q 2731 4750 3128 4425 
Q 3525 4100 3525 3541 
Q 3525 3141 3298 2862 
Q 3072 2584 2669 2484 
Q 3125 2378 3379 2068 
Q 3634 1759 3634 1313 
Q 3634 634 3220 271 
Q 2806 -91 2034 -91 
Q 1263 -91 848 271 
Q 434 634 434 1313 
Q 434 1759 690 2068 
Q 947 2378 1403 2484 
z
M 1172 3481 
Q 1172 3119 1398 2916 
Q 1625 2713 2034 2713 
Q 2441 2713 2670 2916 
Q 2900 3119 2900 3481 
Q 2900 3844 2670 4047 
Q 2441 4250 2034 4250 
Q 1625 4250 1398 4047 
Q 1172 3844 1172 3481 
z
" transform="scale(0.015625)"/>
       </defs>
       <use xlink:href="#DejaVuSans-30"/>
       <use xlink:href="#DejaVuSans-2e" x="63.623047"/>
       <use xlink:href="#DejaVuSans-38" x="95.410156"/>
      </g>
     </g>
    </g>
    <g id="ytick_9">
     <g id="line2d_23">
      <path d="M 63.2 48.353778 
L 349.2 48.353778 
" clip-path="url(#pb8f2d051c1)" style="fill: none; stroke: #666666; stroke-width: 0.8; stroke-linecap: square"/>
     </g>
     <g id="line2d_24">
      <g>
       <use xlink:href="#m4debe84ebf" x="63.2" y="48.353778" style="stroke: #000000; stroke-width: 0.8"/>
      </g>
     </g>
     <g id="text_16">
      <!-- 0.9 -->
      <g transform="translate(33.935625 53.672684)scale(0.14 -0.14)">
       <defs>
        <path id="DejaVuSans-39" d="M 703 97 
L 703 672 
Q 941 559 1184 500 
Q 1428 441 1663 441 
Q 2288 441 2617 861 
Q 2947 1281 2994 2138 
Q 2813 1869 2534 1725 
Q 2256 1581 1919 1581 
Q 1219 1581 811 2004 
Q 403 2428 403 3163 
Q 403 3881 828 4315 
Q 1253 4750 1959 4750 
Q 2769 4750 3195 4129 
Q 3622 3509 3622 2328 
Q 3622 1225 3098 567 
Q 2575 -91 1691 -91 
Q 1453 -91 1209 -44 
Q 966 3 703 97 
z
M 1959 2075 
Q 2384 2075 2632 2365 
Q 2881 2656 2881 3163 
Q 2881 3666 2632 3958 
Q 2384 4250 1959 4250 
Q 1534 4250 1286 3958 
Q 1038 3666 1038 3163 
Q 1038 2656 1286 2365 
Q 1534 2075 1959 2075 
z
" transform="scale(0.015625)"/>
       </defs>
       <use xlink:href="#DejaVuSans-30"/>
       <use xlink:href="#DejaVuSans-2e" x="63.623047"/>
       <use xlink:href="#DejaVuSans-39" x="95.410156"/>
      </g>
     </g>
    </g>
    <g id="ytick_10">
     <g id="line2d_25">
      <path d="M 63.2 16.2 
L 349.2 16.2 
" clip-path="url(#pb8f2d051c1)" style="fill: none; stroke: #666666; stroke-width: 0.8; stroke-linecap: square"/>
     </g>
     <g id="line2d_26">
      <g>
       <use xlink:href="#m4debe84ebf" x="63.2" y="16.2" style="stroke: #000000; stroke-width: 0.8"/>
      </g>
     </g>
     <g id="text_17">
      <!-- 1.0 -->
      <g transform="translate(33.935625 21.518906)scale(0.14 -0.14)">
       <use xlink:href="#DejaVuSans-31"/>
       <use xlink:href="#DejaVuSans-2e" x="63.623047"/>
       <use xlink:href="#DejaVuSans-30" x="95.410156"/>
      </g>
     </g>
    </g>
    <g id="ytick_11">
     <g id="line2d_27">
      <path d="M 63.2 299.153244 
L 349.2 299.153244 
" clip-path="url(#pb8f2d051c1)" style="fill: none; stroke: #999999; stroke-opacity: 0.2; stroke-width: 0.8; stroke-linecap: square"/>
     </g>
     <g id="line2d_28">
      <defs>
       <path id="m2947ab84e9" d="M 0 0 
L -2 0 
" style="stroke: #000000; stroke-width: 0.6"/>
      </defs>
      <g>
       <use xlink:href="#m2947ab84e9" x="63.2" y="299.153244" style="stroke: #000000; stroke-width: 0.6"/>
      </g>
     </g>
    </g>
    <g id="ytick_12">
     <g id="line2d_29">
      <path d="M 63.2 292.722489 
L 349.2 292.722489 
" clip-path="url(#pb8f2d051c1)" style="fill: none; stroke: #999999; stroke-opacity: 0.2; stroke-width: 0.8; stroke-linecap: square"/>
     </g>
     <g id="line2d_30">
      <g>
       <use xlink:href="#m2947ab84e9" x="63.2" y="292.722489" style="stroke: #000000; stroke-width: 0.6"/>
      </g>
     </g>
    </g>
    <g id="ytick_13">
     <g id="line2d_31">
      <path d="M 63.2 286.291733 
L 349.2 286.291733 
" clip-path="url(#pb8f2d051c1)" style="fill: none; stroke: #999999; stroke-opacity: 0.2; stroke-width: 0.8; stroke-linecap: square"/>
     </g>
     <g id="line2d_32">
      <g>
       <use xlink:href="#m2947ab84e9" x="63.2" y="286.291733" style="stroke: #000000; stroke-width: 0.6"/>
      </g>
     </g>
    </g>
    <g id="ytick_14">
     <g id="line2d_33">
      <path d="M 63.2 279.860978 
L 349.2 279.860978 
" clip-path="url(#pb8f2d051c1)" style="fill: none; stroke: #999999; stroke-opacity: 0.2; stroke-width: 0.8; stroke-linecap: square"/>
     </g>
     <g id="line2d_34">
      <g>
       <use xlink:href="#m2947ab84e9" x="63.2" y="279.860978" style="stroke: #000000; stroke-width: 0.6"/>
      </g>
     </g>
    </g>
    <g id="ytick_15">
     <g id="line2d_35">
      <path d="M 63.2 266.999467 
L 349.2 266.999467 
" clip-path="url(#pb8f2d051c1)" style="fill: none; stroke: #999999; stroke-opacity: 0.2; stroke-width: 0.8; stroke-linecap: square"/>
     </g>
     <g id="line2d_36">
      <g>
       <use xlink:href="#m2947ab84e9" x="63.2" y="266.999467" style="stroke: #000000; stroke-width: 0.6"/>
      </g>
     </g>
    </g>
    <g id="ytick_16">
     <g id="line2d_37">
      <path d="M 63.2 260.568711 
L 349.2 260.568711 
" clip-path="url(#pb8f2d051c1)" style="fill: none; stroke: #999999; stroke-opacity: 0.2; stroke-width: 0.8; stroke-linecap: square"/>
     </g>
     <g id="line2d_38">
      <g>
       <use xlink:href="#m2947ab84e9" x="63.2" y="260.568711" style="stroke: #000000; stroke-width: 0.6"/>
      </g>
     </g>
    </g>
    <g id="ytick_17">
     <g id="line2d_39">
      <path d="M 63.2 254.137956 
L 349.2 254.137956 
" clip-path="url(#pb8f2d051c1)" style="fill: none; stroke: #999999; stroke-opacity: 0.2; stroke-width: 0.8; stroke-linecap: square"/>
     </g>
     <g id="line2d_40">
      <g>
       <use xlink:href="#m2947ab84e9" x="63.2" y="254.137956" style="stroke: #000000; stroke-width: 0.6"/>
      </g>
     </g>
    </g>
    <g id="ytick_18">
     <g id="line2d_41">
      <path d="M 63.2 247.7072 
L 349.2 247.7072 
" clip-path="url(#pb8f2d051c1)" style="fill: none; stroke: #999999; stroke-opacity: 0.2; stroke-width: 0.8; stroke-linecap: square"/>
     </g>
     <g id="line2d_42">
      <g>
       <use xlink:href="#m2947ab84e9" x="63.2" y="247.7072" style="stroke: #000000; stroke-width: 0.6"/>
      </g>
     </g>
    </g>
    <g id="ytick_19">
     <g id="line2d_43">
      <path d="M 63.2 234.845689 
L 349.2 234.845689 
" clip-path="url(#pb8f2d051c1)" style="fill: none; stroke: #999999; stroke-opacity: 0.2; stroke-width: 0.8; stroke-linecap: square"/>
     </g>
     <g id="line2d_44">
      <g>
       <use xlink:href="#m2947ab84e9" x="63.2" y="234.845689" style="stroke: #000000; stroke-width: 0.6"/>
      </g>
     </g>
    </g>
    <g id="ytick_20">
     <g id="line2d_45">
      <path d="M 63.2 228.414933 
L 349.2 228.414933 
" clip-path="url(#pb8f2d051c1)" style="fill: none; stroke: #999999; stroke-opacity: 0.2; stroke-width: 0.8; stroke-linecap: square"/>
     </g>
     <g id="line2d_46">
      <g>
       <use xlink:href="#m2947ab84e9" x="63.2" y="228.414933" style="stroke: #000000; stroke-width: 0.6"/>
      </g>
     </g>
    </g>
    <g id="ytick_21">
     <g id="line2d_47">
      <path d="M 63.2 221.984178 
L 349.2 221.984178 
" clip-path="url(#pb8f2d051c1)" style="fill: none; stroke: #999999; stroke-opacity: 0.2; stroke-width: 0.8; stroke-linecap: square"/>
     </g>
     <g id="line2d_48">
      <g>
       <use xlink:href="#m2947ab84e9" x="63.2" y="221.984178" style="stroke: #000000; stroke-width: 0.6"/>
      </g>
     </g>
    </g>
    <g id="ytick_22">
     <g id="line2d_49">
      <path d="M 63.2 215.553422 
L 349.2 215.553422 
" clip-path="url(#pb8f2d051c1)" style="fill: none; stroke: #999999; stroke-opacity: 0.2; stroke-width: 0.8; stroke-linecap: square"/>
     </g>
     <g id="line2d_50">
      <g>
       <use xlink:href="#m2947ab84e9" x="63.2" y="215.553422" style="stroke: #000000; stroke-width: 0.6"/>
      </g>
     </g>
    </g>
    <g id="ytick_23">
     <g id="line2d_51">
      <path d="M 63.2 202.691911 
L 349.2 202.691911 
" clip-path="url(#pb8f2d051c1)" style="fill: none; stroke: #999999; stroke-opacity: 0.2; stroke-width: 0.8; stroke-linecap: square"/>
     </g>
     <g id="line2d_52">
      <g>
       <use xlink:href="#m2947ab84e9" x="63.2" y="202.691911" style="stroke: #000000; stroke-width: 0.6"/>
      </g>
     </g>
    </g>
    <g id="ytick_24">
     <g id="line2d_53">
      <path d="M 63.2 196.261156 
L 349.2 196.261156 
" clip-path="url(#pb8f2d051c1)" style="fill: none; stroke: #999999; stroke-opacity: 0.2; stroke-width: 0.8; stroke-linecap: square"/>
     </g>
     <g id="line2d_54">
      <g>
       <use xlink:href="#m2947ab84e9" x="63.2" y="196.261156" style="stroke: #000000; stroke-width: 0.6"/>
      </g>
     </g>
    </g>
    <g id="ytick_25">
     <g id="line2d_55">
      <path d="M 63.2 189.8304 
L 349.2 189.8304 
" clip-path="url(#pb8f2d051c1)" style="fill: none; stroke: #999999; stroke-opacity: 0.2; stroke-width: 0.8; stroke-linecap: square"/>
     </g>
     <g id="line2d_56">
      <g>
       <use xlink:href="#m2947ab84e9" x="63.2" y="189.8304" style="stroke: #000000; stroke-width: 0.6"/>
      </g>
     </g>
    </g>
    <g id="ytick_26">
     <g id="line2d_57">
      <path d="M 63.2 183.399644 
L 349.2 183.399644 
" clip-path="url(#pb8f2d051c1)" style="fill: none; stroke: #999999; stroke-opacity: 0.2; stroke-width: 0.8; stroke-linecap: square"/>
     </g>
     <g id="line2d_58">
      <g>
       <use xlink:href="#m2947ab84e9" x="63.2" y="183.399644" style="stroke: #000000; stroke-width: 0.6"/>
      </g>
     </g>
    </g>
    <g id="ytick_27">
     <g id="line2d_59">
      <path d="M 63.2 170.538133 
L 349.2 170.538133 
" clip-path="url(#pb8f2d051c1)" style="fill: none; stroke: #999999; stroke-opacity: 0.2; stroke-width: 0.8; stroke-linecap: square"/>
     </g>
     <g id="line2d_60">
      <g>
       <use xlink:href="#m2947ab84e9" x="63.2" y="170.538133" style="stroke: #000000; stroke-width: 0.6"/>
      </g>
     </g>
    </g>
    <g id="ytick_28">
     <g id="line2d_61">
      <path d="M 63.2 164.107378 
L 349.2 164.107378 
" clip-path="url(#pb8f2d051c1)" style="fill: none; stroke: #999999; stroke-opacity: 0.2; stroke-width: 0.8; stroke-linecap: square"/>
     </g>
     <g id="line2d_62">
      <g>
       <use xlink:href="#m2947ab84e9" x="63.2" y="164.107378" style="stroke: #000000; stroke-width: 0.6"/>
      </g>
     </g>
    </g>
    <g id="ytick_29">
     <g id="line2d_63">
      <path d="M 63.2 157.676622 
L 349.2 157.676622 
" clip-path="url(#pb8f2d051c1)" style="fill: none; stroke: #999999; stroke-opacity: 0.2; stroke-width: 0.8; stroke-linecap: square"/>
     </g>
     <g id="line2d_64">
      <g>
       <use xlink:href="#m2947ab84e9" x="63.2" y="157.676622" style="stroke: #000000; stroke-width: 0.6"/>
      </g>
     </g>
    </g>
    <g id="ytick_30">
     <g id="line2d_65">
      <path d="M 63.2 151.245867 
L 349.2 151.245867 
" clip-path="url(#pb8f2d051c1)" style="fill: none; stroke: #999999; stroke-opacity: 0.2; stroke-width: 0.8; stroke-linecap: square"/>
     </g>
     <g id="line2d_66">
      <g>
       <use xlink:href="#m2947ab84e9" x="63.2" y="151.245867" style="stroke: #000000; stroke-width: 0.6"/>
      </g>
     </g>
    </g>
    <g id="ytick_31">
     <g id="line2d_67">
      <path d="M 63.2 138.384356 
L 349.2 138.384356 
" clip-path="url(#pb8f2d051c1)" style="fill: none; stroke: #999999; stroke-opacity: 0.2; stroke-width: 0.8; stroke-linecap: square"/>
     </g>
     <g id="line2d_68">
      <g>
       <use xlink:href="#m2947ab84e9" x="63.2" y="138.384356" style="stroke: #000000; stroke-width: 0.6"/>
      </g>
     </g>
    </g>
    <g id="ytick_32">
     <g id="line2d_69">
      <path d="M 63.2 131.9536 
L 349.2 131.9536 
" clip-path="url(#pb8f2d051c1)" style="fill: none; stroke: #999999; stroke-opacity: 0.2; stroke-width: 0.8; stroke-linecap: square"/>
     </g>
     <g id="line2d_70">
      <g>
       <use xlink:href="#m2947ab84e9" x="63.2" y="131.9536" style="stroke: #000000; stroke-width: 0.6"/>
      </g>
     </g>
    </g>
    <g id="ytick_33">
     <g id="line2d_71">
      <path d="M 63.2 125.522844 
L 349.2 125.522844 
" clip-path="url(#pb8f2d051c1)" style="fill: none; stroke: #999999; stroke-opacity: 0.2; stroke-width: 0.8; stroke-linecap: square"/>
     </g>
     <g id="line2d_72">
      <g>
       <use xlink:href="#m2947ab84e9" x="63.2" y="125.522844" style="stroke: #000000; stroke-width: 0.6"/>
      </g>
     </g>
    </g>
    <g id="ytick_34">
     <g id="line2d_73">
      <path d="M 63.2 119.092089 
L 349.2 119.092089 
" clip-path="url(#pb8f2d051c1)" style="fill: none; stroke: #999999; stroke-opacity: 0.2; stroke-width: 0.8; stroke-linecap: square"/>
     </g>
     <g id="line2d_74">
      <g>
       <use xlink:href="#m2947ab84e9" x="63.2" y="119.092089" style="stroke: #000000; stroke-width: 0.6"/>
      </g>
     </g>
    </g>
    <g id="ytick_35">
     <g id="line2d_75">
      <path d="M 63.2 106.230578 
L 349.2 106.230578 
" clip-path="url(#pb8f2d051c1)" style="fill: none; stroke: #999999; stroke-opacity: 0.2; stroke-width: 0.8; stroke-linecap: square"/>
     </g>
     <g id="line2d_76">
      <g>
       <use xlink:href="#m2947ab84e9" x="63.2" y="106.230578" style="stroke: #000000; stroke-width: 0.6"/>
      </g>
     </g>
    </g>
    <g id="ytick_36">
     <g id="line2d_77">
      <path d="M 63.2 99.799822 
L 349.2 99.799822 
" clip-path="url(#pb8f2d051c1)" style="fill: none; stroke: #999999; stroke-opacity: 0.2; stroke-width: 0.8; stroke-linecap: square"/>
     </g>
     <g id="line2d_78">
      <g>
       <use xlink:href="#m2947ab84e9" x="63.2" y="99.799822" style="stroke: #000000; stroke-width: 0.6"/>
      </g>
     </g>
    </g>
    <g id="ytick_37">
     <g id="line2d_79">
      <path d="M 63.2 93.369067 
L 349.2 93.369067 
" clip-path="url(#pb8f2d051c1)" style="fill: none; stroke: #999999; stroke-opacity: 0.2; stroke-width: 0.8; stroke-linecap: square"/>
     </g>
     <g id="line2d_80">
      <g>
       <use xlink:href="#m2947ab84e9" x="63.2" y="93.369067" style="stroke: #000000; stroke-width: 0.6"/>
      </g>
     </g>
    </g>
    <g id="ytick_38">
     <g id="line2d_81">
      <path d="M 63.2 86.938311 
L 349.2 86.938311 
" clip-path="url(#pb8f2d051c1)" style="fill: none; stroke: #999999; stroke-opacity: 0.2; stroke-width: 0.8; stroke-linecap: square"/>
     </g>
     <g id="line2d_82">
      <g>
       <use xlink:href="#m2947ab84e9" x="63.2" y="86.938311" style="stroke: #000000; stroke-width: 0.6"/>
      </g>
     </g>
    </g>
    <g id="ytick_39">
     <g id="line2d_83">
      <path d="M 63.2 74.0768 
L 349.2 74.0768 
" clip-path="url(#pb8f2d051c1)" style="fill: none; stroke: #999999; stroke-opacity: 0.2; stroke-width: 0.8; stroke-linecap: square"/>
     </g>
     <g id="line2d_84">
      <g>
       <use xlink:href="#m2947ab84e9" x="63.2" y="74.0768" style="stroke: #000000; stroke-width: 0.6"/>
      </g>
     </g>
    </g>
    <g id="ytick_40">
     <g id="line2d_85">
      <path d="M 63.2 67.646044 
L 349.2 67.646044 
" clip-path="url(#pb8f2d051c1)" style="fill: none; stroke: #999999; stroke-opacity: 0.2; stroke-width: 0.8; stroke-linecap: square"/>
     </g>
     <g id="line2d_86">
      <g>
       <use xlink:href="#m2947ab84e9" x="63.2" y="67.646044" style="stroke: #000000; stroke-width: 0.6"/>
      </g>
     </g>
    </g>
    <g id="ytick_41">
     <g id="line2d_87">
      <path d="M 63.2 61.215289 
L 349.2 61.215289 
" clip-path="url(#pb8f2d051c1)" style="fill: none; stroke: #999999; stroke-opacity: 0.2; stroke-width: 0.8; stroke-linecap: square"/>
     </g>
     <g id="line2d_88">
      <g>
       <use xlink:href="#m2947ab84e9" x="63.2" y="61.215289" style="stroke: #000000; stroke-width: 0.6"/>
      </g>
     </g>
    </g>
    <g id="ytick_42">
     <g id="line2d_89">
      <path d="M 63.2 54.784533 
L 349.2 54.784533 
" clip-path="url(#pb8f2d051c1)" style="fill: none; stroke: #999999; stroke-opacity: 0.2; stroke-width: 0.8; stroke-linecap: square"/>
     </g>
     <g id="line2d_90">
      <g>
       <use xlink:href="#m2947ab84e9" x="63.2" y="54.784533" style="stroke: #000000; stroke-width: 0.6"/>
      </g>
     </g>
    </g>
    <g id="ytick_43">
     <g id="line2d_91">
      <path d="M 63.2 41.923022 
L 349.2 41.923022 
" clip-path="url(#pb8f2d051c1)" style="fill: none; stroke: #999999; stroke-opacity: 0.2; stroke-width: 0.8; stroke-linecap: square"/>
     </g>
     <g id="line2d_92">
      <g>
       <use xlink:href="#m2947ab84e9" x="63.2" y="41.923022" style="stroke: #000000; stroke-width: 0.6"/>
      </g>
     </g>
    </g>
    <g id="ytick_44">
     <g id="line2d_93">
      <path d="M 63.2 35.492267 
L 349.2 35.492267 
" clip-path="url(#pb8f2d051c1)" style="fill: none; stroke: #999999; stroke-opacity: 0.2; stroke-width: 0.8; stroke-linecap: square"/>
     </g>
     <g id="line2d_94">
      <g>
       <use xlink:href="#m2947ab84e9" x="63.2" y="35.492267" style="stroke: #000000; stroke-width: 0.6"/>
      </g>
     </g>
    </g>
    <g id="ytick_45">
     <g id="line2d_95">
      <path d="M 63.2 29.061511 
L 349.2 29.061511 
" clip-path="url(#pb8f2d051c1)" style="fill: none; stroke: #999999; stroke-opacity: 0.2; stroke-width: 0.8; stroke-linecap: square"/>
     </g>
     <g id="line2d_96">
      <g>
       <use xlink:href="#m2947ab84e9" x="63.2" y="29.061511" style="stroke: #000000; stroke-width: 0.6"/>
      </g>
     </g>
    </g>
    <g id="ytick_46">
     <g id="line2d_97">
      <path d="M 63.2 22.630756 
L 349.2 22.630756 
" clip-path="url(#pb8f2d051c1)" style="fill: none; stroke: #999999; stroke-opacity: 0.2; stroke-width: 0.8; stroke-linecap: square"/>
     </g>
     <g id="line2d_98">
      <g>
       <use xlink:href="#m2947ab84e9" x="63.2" y="22.630756" style="stroke: #000000; stroke-width: 0.6"/>
      </g>
     </g>
    </g>
    <g id="text_18">
     <!-- NEF$_{(Ra)}$ -->
     <g transform="translate(25.775625 188.572)rotate(-90)scale(0.16 -0.16)">
      <defs>
       <path id="DejaVuSans-4e" d="M 628 4666 
L 1478 4666 
L 3547 763 
L 3547 4666 
L 4159 4666 
L 4159 0 
L 3309 0 
L 1241 3903 
L 1241 0 
L 628 0 
L 628 4666 
z
" transform="scale(0.015625)"/>
       <path id="DejaVuSans-45" d="M 628 4666 
L 3578 4666 
L 3578 4134 
L 1259 4134 
L 1259 2753 
L 3481 2753 
L 3481 2222 
L 1259 2222 
L 1259 531 
L 3634 531 
L 3634 0 
L 628 0 
L 628 4666 
z
" transform="scale(0.015625)"/>
       <path id="DejaVuSans-46" d="M 628 4666 
L 3309 4666 
L 3309 4134 
L 1259 4134 
L 1259 2759 
L 3109 2759 
L 3109 2228 
L 1259 2228 
L 1259 0 
L 628 0 
L 628 4666 
z
" transform="scale(0.015625)"/>
       <path id="DejaVuSans-28" d="M 1984 4856 
Q 1566 4138 1362 3434 
Q 1159 2731 1159 2009 
Q 1159 1288 1364 580 
Q 1569 -128 1984 -844 
L 1484 -844 
Q 1016 -109 783 600 
Q 550 1309 550 2009 
Q 550 2706 781 3412 
Q 1013 4119 1484 4856 
L 1984 4856 
z
" transform="scale(0.015625)"/>
       <path id="DejaVuSans-Oblique-52" d="M 1613 4147 
L 1294 2491 
L 2106 2491 
Q 2584 2491 2879 2755 
Q 3175 3019 3175 3444 
Q 3175 3784 2976 3965 
Q 2778 4147 2406 4147 
L 1613 4147 
z
M 2772 2241 
Q 2972 2194 3105 2009 
Q 3238 1825 3413 1275 
L 3809 0 
L 3144 0 
L 2778 1197 
Q 2638 1659 2453 1815 
Q 2269 1972 1888 1972 
L 1191 1972 
L 806 0 
L 172 0 
L 1081 4666 
L 2503 4666 
Q 3150 4666 3495 4373 
Q 3841 4081 3841 3531 
Q 3841 3044 3547 2687 
Q 3253 2331 2772 2241 
z
" transform="scale(0.015625)"/>
       <path id="DejaVuSans-Oblique-61" d="M 3438 1997 
L 3047 0 
L 2472 0 
L 2578 531 
Q 2325 219 2001 64 
Q 1678 -91 1281 -91 
Q 834 -91 548 182 
Q 263 456 263 884 
Q 263 1497 752 1853 
Q 1241 2209 2100 2209 
L 2900 2209 
L 2931 2363 
Q 2938 2388 2941 2417 
Q 2944 2447 2944 2509 
Q 2944 2788 2717 2942 
Q 2491 3097 2081 3097 
Q 1800 3097 1504 3025 
Q 1209 2953 897 2809 
L 997 3341 
Q 1322 3463 1633 3523 
Q 1944 3584 2234 3584 
Q 2853 3584 3176 3315 
Q 3500 3047 3500 2534 
Q 3500 2431 3484 2292 
Q 3469 2153 3438 1997 
z
M 2816 1759 
L 2241 1759 
Q 1534 1759 1195 1570 
Q 856 1381 856 984 
Q 856 709 1029 553 
Q 1203 397 1509 397 
Q 1978 397 2328 733 
Q 2678 1069 2791 1631 
L 2816 1759 
z
" transform="scale(0.015625)"/>
       <path id="DejaVuSans-29" d="M 513 4856 
L 1013 4856 
Q 1481 4119 1714 3412 
Q 1947 2706 1947 2009 
Q 1947 1309 1714 600 
Q 1481 -109 1013 -844 
L 513 -844 
Q 928 -128 1133 580 
Q 1338 1288 1338 2009 
Q 1338 2731 1133 3434 
Q 928 4138 513 4856 
z
" transform="scale(0.015625)"/>
      </defs>
      <use xlink:href="#DejaVuSans-4e" transform="translate(0 0.09375)"/>
      <use xlink:href="#DejaVuSans-45" transform="translate(74.804688 0.09375)"/>
      <use xlink:href="#DejaVuSans-46" transform="translate(137.988281 0.09375)"/>
      <use xlink:href="#DejaVuSans-28" transform="translate(196.464844 -16.3125)scale(0.7)"/>
      <use xlink:href="#DejaVuSans-Oblique-52" transform="translate(223.774414 -16.3125)scale(0.7)"/>
      <use xlink:href="#DejaVuSans-Oblique-61" transform="translate(272.412109 -16.3125)scale(0.7)"/>
      <use xlink:href="#DejaVuSans-29" transform="translate(315.307617 -16.3125)scale(0.7)"/>
     </g>
    </g>
   </g>
   <g id="PolyCollection_1">
    <defs>
     <path id="mab78343916" d="M 96.5915 -72.5025 
L 95.8085 -72.5025 
L 95.78869 -73.2637 
L 95.77359 -74.0249 
L 95.763368 -74.7861 
L 95.757856 -75.5473 
L 95.756538 -76.3085 
L 95.758555 -77.069701 
L 95.762739 -77.830901 
L 95.767657 -78.592101 
L 95.771683 -79.353301 
L 95.773071 -80.114501 
L 95.770033 -80.875701 
L 95.760812 -81.636901 
L 95.743746 -82.398101 
L 95.717305 -83.159301 
L 95.680123 -83.920501 
L 95.630996 -84.681701 
L 95.568877 -85.442902 
L 95.492854 -86.204102 
L 95.402135 -86.965302 
L 95.296032 -87.726502 
L 95.173961 -88.487702 
L 95.035464 -89.248902 
L 94.880235 -90.010102 
L 94.708165 -90.771302 
L 94.519385 -91.532502 
L 94.314297 -92.293702 
L 94.093594 -93.054902 
L 93.858239 -93.816103 
L 93.609426 -94.577303 
L 93.348488 -95.338503 
L 93.076785 -96.099703 
L 92.795571 -96.860903 
L 92.505846 -97.622103 
L 92.208233 -98.383303 
L 91.902875 -99.144503 
L 91.589394 -99.905703 
L 91.266911 -100.666903 
L 90.934156 -101.428103 
L 90.58966 -102.189304 
L 90.232023 -102.950504 
L 89.860248 -103.711704 
L 89.474101 -104.472904 
L 89.074457 -105.234104 
L 88.663592 -105.995304 
L 88.245358 -106.756504 
L 87.825221 -107.517704 
L 87.410112 -108.278904 
L 87.008114 -109.040104 
L 86.627992 -109.801304 
L 86.278616 -110.562505 
L 85.96835 -111.323705 
L 85.704478 -112.084905 
L 85.492747 -112.846105 
L 85.337071 -113.607305 
L 85.239437 -114.368505 
L 85.2 -115.129705 
L 85.21733 -115.890905 
L 85.288749 -116.652105 
L 85.410678 -117.413305 
L 85.578928 -118.174505 
L 85.788881 -118.935706 
L 86.035537 -119.696906 
L 86.31345 -120.458106 
L 86.616597 -121.219306 
L 86.938258 -121.980506 
L 87.270985 -122.741706 
L 87.606718 -123.502906 
L 87.937096 -124.264106 
L 88.253954 -125.025306 
L 88.549949 -125.786506 
L 88.819241 -126.547706 
L 89.058109 -127.308907 
L 89.265399 -128.070107 
L 89.442714 -128.831307 
L 89.594286 -129.592507 
L 89.726545 -130.353707 
L 89.847417 -131.114907 
L 89.965463 -131.876107 
L 90.088971 -132.637307 
L 90.225118 -133.398507 
L 90.379324 -134.159707 
L 90.554871 -134.920907 
L 90.752799 -135.682108 
L 90.972085 -136.443308 
L 91.210034 -137.204508 
L 91.462805 -137.965708 
L 91.725984 -138.726908 
L 91.995113 -139.488108 
L 92.266116 -140.249308 
L 92.53558 -141.010508 
L 92.800884 -141.771708 
L 93.060186 -142.532908 
L 93.312311 -143.294108 
L 93.556567 -144.055309 
L 93.792549 -144.816509 
L 94.019955 -145.577709 
L 94.238441 -146.338909 
L 94.447536 -147.100109 
L 94.646613 -147.861309 
L 97.753387 -147.861309 
L 97.753387 -147.861309 
L 97.952464 -147.100109 
L 98.161559 -146.338909 
L 98.380045 -145.577709 
L 98.607451 -144.816509 
L 98.843433 -144.055309 
L 99.087689 -143.294108 
L 99.339814 -142.532908 
L 99.599116 -141.771708 
L 99.86442 -141.010508 
L 100.133884 -140.249308 
L 100.404887 -139.488108 
L 100.674016 -138.726908 
L 100.937195 -137.965708 
L 101.189966 -137.204508 
L 101.427915 -136.443308 
L 101.647201 -135.682108 
L 101.845129 -134.920907 
L 102.020676 -134.159707 
L 102.174882 -133.398507 
L 102.311029 -132.637307 
L 102.434537 -131.876107 
L 102.552583 -131.114907 
L 102.673455 -130.353707 
L 102.805714 -129.592507 
L 102.957286 -128.831307 
L 103.134601 -128.070107 
L 103.341891 -127.308907 
L 103.580759 -126.547706 
L 103.850051 -125.786506 
L 104.146046 -125.025306 
L 104.462904 -124.264106 
L 104.793282 -123.502906 
L 105.129015 -122.741706 
L 105.461742 -121.980506 
L 105.783403 -121.219306 
L 106.08655 -120.458106 
L 106.364463 -119.696906 
L 106.611119 -118.935706 
L 106.821072 -118.174505 
L 106.989322 -117.413305 
L 107.111251 -116.652105 
L 107.18267 -115.890905 
L 107.2 -115.129705 
L 107.160563 -114.368505 
L 107.062929 -113.607305 
L 106.907253 -112.846105 
L 106.695522 -112.084905 
L 106.43165 -111.323705 
L 106.121384 -110.562505 
L 105.772008 -109.801304 
L 105.391886 -109.040104 
L 104.989888 -108.278904 
L 104.574779 -107.517704 
L 104.154642 -106.756504 
L 103.736408 -105.995304 
L 103.325543 -105.234104 
L 102.925899 -104.472904 
L 102.539752 -103.711704 
L 102.167977 -102.950504 
L 101.81034 -102.189304 
L 101.465844 -101.428103 
L 101.133089 -100.666903 
L 100.810606 -99.905703 
L 100.497125 -99.144503 
L 100.191767 -98.383303 
L 99.894154 -97.622103 
L 99.604429 -96.860903 
L 99.323215 -96.099703 
L 99.051512 -95.338503 
L 98.790574 -94.577303 
L 98.541761 -93.816103 
L 98.306406 -93.054902 
L 98.085703 -92.293702 
L 97.880615 -91.532502 
L 97.691835 -90.771302 
L 97.519765 -90.010102 
L 97.364536 -89.248902 
L 97.226039 -88.487702 
L 97.103968 -87.726502 
L 96.997865 -86.965302 
L 96.907146 -86.204102 
L 96.831123 -85.442902 
L 96.769004 -84.681701 
L 96.719877 -83.920501 
L 96.682695 -83.159301 
L 96.656254 -82.398101 
L 96.639188 -81.636901 
L 96.629967 -80.875701 
L 96.626929 -80.114501 
L 96.628317 -79.353301 
L 96.632343 -78.592101 
L 96.637261 -77.830901 
L 96.641445 -77.069701 
L 96.643462 -76.3085 
L 96.642144 -75.5473 
L 96.636632 -74.7861 
L 96.62641 -74.0249 
L 96.61131 -73.2637 
L 96.5915 -72.5025 
z
" style="stroke: #000000"/>
    </defs>
    <g clip-path="url(#pb8f2d051c1)">
     <use xlink:href="#mab78343916" x="0" y="360" style="fill: #deebf7; stroke: #000000"/>
    </g>
   </g>
   <g id="PolyCollection_2">
    <defs>
     <path id="m978dea346b" d="M 140.840266 -132.790833 
L 139.559734 -132.790833 
L 139.524585 -133.552033 
L 139.489651 -134.313234 
L 139.453277 -135.074434 
L 139.413475 -135.835634 
L 139.368031 -136.596834 
L 139.314626 -137.358034 
L 139.250956 -138.119234 
L 139.174843 -138.880434 
L 139.084321 -139.641634 
L 138.977711 -140.402834 
L 138.853663 -141.164034 
L 138.711197 -141.925234 
L 138.549731 -142.686435 
L 138.369112 -143.447635 
L 138.169649 -144.208835 
L 137.952151 -144.970035 
L 137.71796 -145.731235 
L 137.46897 -146.492435 
L 137.207618 -147.253635 
L 136.936833 -148.014835 
L 136.659933 -148.776035 
L 136.380463 -149.537235 
L 136.101974 -150.298435 
L 135.827762 -151.059636 
L 135.560577 -151.820836 
L 135.302341 -152.582036 
L 135.05389 -153.343236 
L 134.814801 -154.104436 
L 134.583307 -154.865636 
L 134.356345 -155.626836 
L 134.129746 -156.388036 
L 133.898566 -157.149236 
L 133.657539 -157.910436 
L 133.401639 -158.671636 
L 133.126674 -159.432837 
L 132.829885 -160.194037 
L 132.51046 -160.955237 
L 132.169905 -161.716437 
L 131.812225 -162.477637 
L 131.443859 -163.238837 
L 131.073368 -164.000037 
L 130.710884 -164.761237 
L 130.367364 -165.522437 
L 130.053722 -166.283637 
L 129.779924 -167.044837 
L 129.554143 -167.806038 
L 129.38207 -168.567238 
L 129.26645 -169.328438 
L 129.206895 -170.089638 
L 129.2 -170.850838 
L 129.239729 -171.612038 
L 129.31804 -172.373238 
L 129.425673 -173.134438 
L 129.553014 -173.895638 
L 129.690946 -174.656838 
L 129.831612 -175.418038 
L 129.96901 -176.179239 
L 130.09937 -176.940439 
L 130.221308 -177.701639 
L 130.33573 -178.462839 
L 130.44553 -179.224039 
L 130.555123 -179.985239 
L 130.66986 -180.746439 
L 130.795411 -181.507639 
L 130.937165 -182.268839 
L 131.099718 -183.030039 
L 131.286485 -183.791239 
L 131.49948 -184.552439 
L 131.739241 -185.31364 
L 132.004919 -186.07484 
L 132.294478 -186.83604 
L 132.604963 -187.59724 
L 132.932811 -188.35844 
L 133.274137 -189.11964 
L 133.624979 -189.88084 
L 133.981476 -190.64204 
L 134.339973 -191.40324 
L 134.697074 -192.16444 
L 135.049644 -192.92564 
L 135.3948 -193.686841 
L 135.729901 -194.448041 
L 136.052563 -195.209241 
L 136.360696 -195.970441 
L 136.652569 -196.731641 
L 136.926888 -197.492841 
L 137.182869 -198.254041 
L 137.420289 -199.015241 
L 137.639501 -199.776441 
L 137.841401 -200.537641 
L 138.027348 -201.298841 
L 138.199038 -202.060042 
L 138.358354 -202.821242 
L 138.507207 -203.582442 
L 138.647375 -204.343642 
L 138.780378 -205.104842 
L 138.907389 -205.866042 
L 139.029184 -206.627242 
L 139.146141 -207.388442 
L 139.258282 -208.149642 
L 141.141718 -208.149642 
L 141.141718 -208.149642 
L 141.253859 -207.388442 
L 141.370816 -206.627242 
L 141.492611 -205.866042 
L 141.619622 -205.104842 
L 141.752625 -204.343642 
L 141.892793 -203.582442 
L 142.041646 -202.821242 
L 142.200962 -202.060042 
L 142.372652 -201.298841 
L 142.558599 -200.537641 
L 142.760499 -199.776441 
L 142.979711 -199.015241 
L 143.217131 -198.254041 
L 143.473112 -197.492841 
L 143.747431 -196.731641 
L 144.039304 -195.970441 
L 144.347437 -195.209241 
L 144.670099 -194.448041 
L 145.0052 -193.686841 
L 145.350356 -192.92564 
L 145.702926 -192.16444 
L 146.060027 -191.40324 
L 146.418524 -190.64204 
L 146.775021 -189.88084 
L 147.125863 -189.11964 
L 147.467189 -188.35844 
L 147.795037 -187.59724 
L 148.105522 -186.83604 
L 148.395081 -186.07484 
L 148.660759 -185.31364 
L 148.90052 -184.552439 
L 149.113515 -183.791239 
L 149.300282 -183.030039 
L 149.462835 -182.268839 
L 149.604589 -181.507639 
L 149.73014 -180.746439 
L 149.844877 -179.985239 
L 149.95447 -179.224039 
L 150.06427 -178.462839 
L 150.178692 -177.701639 
L 150.30063 -176.940439 
L 150.43099 -176.179239 
L 150.568388 -175.418038 
L 150.709054 -174.656838 
L 150.846986 -173.895638 
L 150.974327 -173.134438 
L 151.08196 -172.373238 
L 151.160271 -171.612038 
L 151.2 -170.850838 
L 151.193105 -170.089638 
L 151.13355 -169.328438 
L 151.01793 -168.567238 
L 150.845857 -167.806038 
L 150.620076 -167.044837 
L 150.346278 -166.283637 
L 150.032636 -165.522437 
L 149.689116 -164.761237 
L 149.326632 -164.000037 
L 148.956141 -163.238837 
L 148.587775 -162.477637 
L 148.230095 -161.716437 
L 147.88954 -160.955237 
L 147.570115 -160.194037 
L 147.273326 -159.432837 
L 146.998361 -158.671636 
L 146.742461 -157.910436 
L 146.501434 -157.149236 
L 146.270254 -156.388036 
L 146.043655 -155.626836 
L 145.816693 -154.865636 
L 145.585199 -154.104436 
L 145.34611 -153.343236 
L 145.097659 -152.582036 
L 144.839423 -151.820836 
L 144.572238 -151.059636 
L 144.298026 -150.298435 
L 144.019537 -149.537235 
L 143.740067 -148.776035 
L 143.463167 -148.014835 
L 143.192382 -147.253635 
L 142.93103 -146.492435 
L 142.68204 -145.731235 
L 142.447849 -144.970035 
L 142.230351 -144.208835 
L 142.030888 -143.447635 
L 141.850269 -142.686435 
L 141.688803 -141.925234 
L 141.546337 -141.164034 
L 141.422289 -140.402834 
L 141.315679 -139.641634 
L 141.225157 -138.880434 
L 141.149044 -138.119234 
L 141.085374 -137.358034 
L 141.031969 -136.596834 
L 140.986525 -135.835634 
L 140.946723 -135.074434 
L 140.910349 -134.313234 
L 140.875415 -133.552033 
L 140.840266 -132.790833 
z
" style="stroke: #000000"/>
    </defs>
    <g clip-path="url(#pb8f2d051c1)">
     <use xlink:href="#m978dea346b" x="0" y="360" style="fill: #deebf7; stroke: #000000"/>
    </g>
   </g>
   <g id="PolyCollection_3">
    <defs>
     <path id="mb7566fccd6" d="M 184.878734 -137.816469 
L 183.521266 -137.816469 
L 183.454336 -138.577669 
L 183.390067 -139.338869 
L 183.329873 -140.100069 
L 183.275026 -140.861269 
L 183.226561 -141.622469 
L 183.185172 -142.383669 
L 183.151101 -143.144869 
L 183.124035 -143.90607 
L 183.103012 -144.66727 
L 183.086359 -145.42847 
L 183.071651 -146.18967 
L 183.055733 -146.95087 
L 183.034785 -147.71207 
L 183.00445 -148.47327 
L 182.96002 -149.23447 
L 182.89667 -149.99567 
L 182.809722 -150.75687 
L 182.694922 -151.51807 
L 182.548704 -152.279271 
L 182.368411 -153.040471 
L 182.152466 -153.801671 
L 181.900466 -154.562871 
L 181.613201 -155.324071 
L 181.292603 -156.085271 
L 180.941634 -156.846471 
L 180.564134 -157.607671 
L 180.164642 -158.368871 
L 179.748216 -159.130071 
L 179.320254 -159.891271 
L 178.886334 -160.652472 
L 178.452066 -161.413672 
L 178.022952 -162.174872 
L 177.604252 -162.936072 
L 177.200843 -163.697272 
L 176.817075 -164.458472 
L 176.45662 -165.219672 
L 176.122324 -165.980872 
L 175.816077 -166.742072 
L 175.538715 -167.503272 
L 175.289975 -168.264472 
L 175.068513 -169.025673 
L 174.872002 -169.786873 
L 174.697303 -170.548073 
L 174.540711 -171.309273 
L 174.398255 -172.070473 
L 174.266032 -172.831673 
L 174.14055 -173.592873 
L 174.019042 -174.354073 
L 173.899741 -175.115273 
L 173.782066 -175.876473 
L 173.666721 -176.637673 
L 173.555683 -177.398874 
L 173.452078 -178.160074 
L 173.359956 -178.921274 
L 173.283981 -179.682474 
L 173.229069 -180.443674 
L 173.2 -181.204874 
L 173.201058 -181.966074 
L 173.23572 -182.727274 
L 173.306445 -183.488474 
L 173.414559 -184.249674 
L 173.560266 -185.010874 
L 173.742756 -185.772075 
L 173.960385 -186.533275 
L 174.21091 -187.294475 
L 174.491711 -188.055675 
L 174.79999 -188.816875 
L 175.132902 -189.578075 
L 175.487617 -190.339275 
L 175.861307 -191.100475 
L 176.251081 -191.861675 
L 176.653888 -192.622875 
L 177.066434 -193.384075 
L 177.485118 -194.145276 
L 177.90604 -194.906476 
L 178.32506 -195.667676 
L 178.737932 -196.428876 
L 179.140476 -197.190076 
L 179.528784 -197.951276 
L 179.899419 -198.712476 
L 180.249584 -199.473676 
L 180.577253 -200.234876 
L 180.881224 -200.996076 
L 181.161124 -201.757276 
L 181.417342 -202.518477 
L 181.650924 -203.279677 
L 181.863425 -204.040877 
L 182.056761 -204.802077 
L 182.233042 -205.563277 
L 182.394438 -206.324477 
L 182.54305 -207.085677 
L 182.680811 -207.846877 
L 182.809424 -208.608077 
L 182.93031 -209.369277 
L 183.044589 -210.130477 
L 183.153085 -210.891678 
L 183.256332 -211.652878 
L 183.354613 -212.414078 
L 183.44799 -213.175278 
L 184.95201 -213.175278 
L 184.95201 -213.175278 
L 185.045387 -212.414078 
L 185.143668 -211.652878 
L 185.246915 -210.891678 
L 185.355411 -210.130477 
L 185.46969 -209.369277 
L 185.590576 -208.608077 
L 185.719189 -207.846877 
L 185.85695 -207.085677 
L 186.005562 -206.324477 
L 186.166958 -205.563277 
L 186.343239 -204.802077 
L 186.536575 -204.040877 
L 186.749076 -203.279677 
L 186.982658 -202.518477 
L 187.238876 -201.757276 
L 187.518776 -200.996076 
L 187.822747 -200.234876 
L 188.150416 -199.473676 
L 188.500581 -198.712476 
L 188.871216 -197.951276 
L 189.259524 -197.190076 
L 189.662068 -196.428876 
L 190.07494 -195.667676 
L 190.49396 -194.906476 
L 190.914882 -194.145276 
L 191.333566 -193.384075 
L 191.746112 -192.622875 
L 192.148919 -191.861675 
L 192.538693 -191.100475 
L 192.912383 -190.339275 
L 193.267098 -189.578075 
L 193.60001 -188.816875 
L 193.908289 -188.055675 
L 194.18909 -187.294475 
L 194.439615 -186.533275 
L 194.657244 -185.772075 
L 194.839734 -185.010874 
L 194.985441 -184.249674 
L 195.093555 -183.488474 
L 195.16428 -182.727274 
L 195.198942 -181.966074 
L 195.2 -181.204874 
L 195.170931 -180.443674 
L 195.116019 -179.682474 
L 195.040044 -178.921274 
L 194.947922 -178.160074 
L 194.844317 -177.398874 
L 194.733279 -176.637673 
L 194.617934 -175.876473 
L 194.500259 -175.115273 
L 194.380958 -174.354073 
L 194.25945 -173.592873 
L 194.133968 -172.831673 
L 194.001745 -172.070473 
L 193.859289 -171.309273 
L 193.702697 -170.548073 
L 193.527998 -169.786873 
L 193.331487 -169.025673 
L 193.110025 -168.264472 
L 192.861285 -167.503272 
L 192.583923 -166.742072 
L 192.277676 -165.980872 
L 191.94338 -165.219672 
L 191.582925 -164.458472 
L 191.199157 -163.697272 
L 190.795748 -162.936072 
L 190.377048 -162.174872 
L 189.947934 -161.413672 
L 189.513666 -160.652472 
L 189.079746 -159.891271 
L 188.651784 -159.130071 
L 188.235358 -158.368871 
L 187.835866 -157.607671 
L 187.458366 -156.846471 
L 187.107397 -156.085271 
L 186.786799 -155.324071 
L 186.499534 -154.562871 
L 186.247534 -153.801671 
L 186.031589 -153.040471 
L 185.851296 -152.279271 
L 185.705078 -151.51807 
L 185.590278 -150.75687 
L 185.50333 -149.99567 
L 185.43998 -149.23447 
L 185.39555 -148.47327 
L 185.365215 -147.71207 
L 185.344267 -146.95087 
L 185.328349 -146.18967 
L 185.313641 -145.42847 
L 185.296988 -144.66727 
L 185.275965 -143.90607 
L 185.248899 -143.144869 
L 185.214828 -142.383669 
L 185.173439 -141.622469 
L 185.124974 -140.861269 
L 185.070127 -140.100069 
L 185.009933 -139.338869 
L 184.945664 -138.577669 
L 184.878734 -137.816469 
z
" style="stroke: #000000"/>
    </defs>
    <g clip-path="url(#pb8f2d051c1)">
     <use xlink:href="#mb7566fccd6" x="0" y="360" style="fill: #deebf7; stroke: #000000"/>
    </g>
   </g>
   <g id="PolyCollection_4">
    <defs>
     <path id="m1ca8cee32b" d="M 228.852363 -142.838889 
L 227.547637 -142.838889 
L 227.467762 -143.549357 
L 227.37976 -144.259826 
L 227.282496 -144.970295 
L 227.174772 -145.680763 
L 227.055398 -146.391232 
L 226.923281 -147.1017 
L 226.777508 -147.812169 
L 226.617439 -148.522637 
L 226.442787 -149.233106 
L 226.253678 -149.943575 
L 226.050689 -150.654043 
L 225.834853 -151.364512 
L 225.607632 -152.07498 
L 225.370853 -152.785449 
L 225.12661 -153.495918 
L 224.877155 -154.206386 
L 224.624756 -154.916855 
L 224.371575 -155.627323 
L 224.119548 -156.337792 
L 223.870294 -157.04826 
L 223.625068 -157.758729 
L 223.384748 -158.469198 
L 223.149869 -159.179666 
L 222.920693 -159.890135 
L 222.697295 -160.600603 
L 222.479655 -161.311072 
L 222.267743 -162.02154 
L 222.061561 -162.732009 
L 221.861155 -163.442478 
L 221.666569 -164.152946 
L 221.477768 -164.863415 
L 221.294532 -165.573883 
L 221.116337 -166.284352 
L 220.942273 -166.99482 
L 220.770988 -167.705289 
L 220.600715 -168.415758 
L 220.429363 -169.126226 
L 220.25469 -169.836695 
L 220.074534 -170.547163 
L 219.887078 -171.257632 
L 219.69112 -171.9681 
L 219.486302 -172.678569 
L 219.273271 -173.389038 
L 219.053745 -174.099506 
L 218.830464 -174.809975 
L 218.607034 -175.520443 
L 218.387681 -176.230912 
L 218.176928 -176.94138 
L 217.979264 -177.651849 
L 217.798807 -178.362318 
L 217.639032 -179.072786 
L 217.502575 -179.783255 
L 217.391137 -180.493723 
L 217.305494 -181.204192 
L 217.245605 -181.91466 
L 217.210797 -182.625129 
L 217.2 -183.335598 
L 217.212003 -184.046066 
L 217.245695 -184.756535 
L 217.300269 -185.467003 
L 217.37536 -186.177472 
L 217.471111 -186.887941 
L 217.588161 -187.598409 
L 217.727552 -188.308878 
L 217.89058 -189.019346 
L 218.078595 -189.729815 
L 218.29278 -190.440283 
L 218.533925 -191.150752 
L 218.802231 -191.861221 
L 219.097144 -192.571689 
L 219.417258 -193.282158 
L 219.760283 -193.992626 
L 220.123078 -194.703095 
L 220.50176 -195.413563 
L 220.891865 -196.124032 
L 221.288556 -196.834501 
L 221.686853 -197.544969 
L 222.081865 -198.255438 
L 222.469018 -198.965906 
L 222.844242 -199.676375 
L 223.204124 -200.386843 
L 223.546006 -201.097312 
L 223.868034 -201.807781 
L 224.16916 -202.518249 
L 224.449095 -203.228718 
L 224.708231 -203.939186 
L 224.947535 -204.649655 
L 225.168427 -205.360123 
L 225.372653 -206.070592 
L 225.562155 -206.781061 
L 225.738949 -207.491529 
L 225.905021 -208.201998 
L 226.062223 -208.912466 
L 226.212204 -209.622935 
L 226.356344 -210.333403 
L 226.495718 -211.043872 
L 226.631074 -211.754341 
L 226.762829 -212.464809 
L 226.891092 -213.175278 
L 229.508908 -213.175278 
L 229.508908 -213.175278 
L 229.637171 -212.464809 
L 229.768926 -211.754341 
L 229.904282 -211.043872 
L 230.043656 -210.333403 
L 230.187796 -209.622935 
L 230.337777 -208.912466 
L 230.494979 -208.201998 
L 230.661051 -207.491529 
L 230.837845 -206.781061 
L 231.027347 -206.070592 
L 231.231573 -205.360123 
L 231.452465 -204.649655 
L 231.691769 -203.939186 
L 231.950905 -203.228718 
L 232.23084 -202.518249 
L 232.531966 -201.807781 
L 232.853994 -201.097312 
L 233.195876 -200.386843 
L 233.555758 -199.676375 
L 233.930982 -198.965906 
L 234.318135 -198.255438 
L 234.713147 -197.544969 
L 235.111444 -196.834501 
L 235.508135 -196.124032 
L 235.89824 -195.413563 
L 236.276922 -194.703095 
L 236.639717 -193.992626 
L 236.982742 -193.282158 
L 237.302856 -192.571689 
L 237.597769 -191.861221 
L 237.866075 -191.150752 
L 238.10722 -190.440283 
L 238.321405 -189.729815 
L 238.50942 -189.019346 
L 238.672448 -188.308878 
L 238.811839 -187.598409 
L 238.928889 -186.887941 
L 239.02464 -186.177472 
L 239.099731 -185.467003 
L 239.154305 -184.756535 
L 239.187997 -184.046066 
L 239.2 -183.335598 
L 239.189203 -182.625129 
L 239.154395 -181.91466 
L 239.094506 -181.204192 
L 239.008863 -180.493723 
L 238.897425 -179.783255 
L 238.760968 -179.072786 
L 238.601193 -178.362318 
L 238.420736 -177.651849 
L 238.223072 -176.94138 
L 238.012319 -176.230912 
L 237.792966 -175.520443 
L 237.569536 -174.809975 
L 237.346255 -174.099506 
L 237.126729 -173.389038 
L 236.913698 -172.678569 
L 236.70888 -171.9681 
L 236.512922 -171.257632 
L 236.325466 -170.547163 
L 236.14531 -169.836695 
L 235.970637 -169.126226 
L 235.799285 -168.415758 
L 235.629012 -167.705289 
L 235.457727 -166.99482 
L 235.283663 -166.284352 
L 235.105468 -165.573883 
L 234.922232 -164.863415 
L 234.733431 -164.152946 
L 234.538845 -163.442478 
L 234.338439 -162.732009 
L 234.132257 -162.02154 
L 233.920345 -161.311072 
L 233.702705 -160.600603 
L 233.479307 -159.890135 
L 233.250131 -159.179666 
L 233.015252 -158.469198 
L 232.774932 -157.758729 
L 232.529706 -157.04826 
L 232.280452 -156.337792 
L 232.028425 -155.627323 
L 231.775244 -154.916855 
L 231.522845 -154.206386 
L 231.27339 -153.495918 
L 231.029147 -152.785449 
L 230.792368 -152.07498 
L 230.565147 -151.364512 
L 230.349311 -150.654043 
L 230.146322 -149.943575 
L 229.957213 -149.233106 
L 229.782561 -148.522637 
L 229.622492 -147.812169 
L 229.476719 -147.1017 
L 229.344602 -146.391232 
L 229.225228 -145.680763 
L 229.117504 -144.970295 
L 229.02024 -144.259826 
L 228.932238 -143.549357 
L 228.852363 -142.838889 
z
" style="stroke: #000000"/>
    </defs>
    <g clip-path="url(#pb8f2d051c1)">
     <use xlink:href="#m1ca8cee32b" x="0" y="360" style="fill: #deebf7; stroke: #000000"/>
    </g>
   </g>
   <g id="PolyCollection_5">
    <defs>
     <path id="mdffd437bff" d="M 273.218439 -147.861309 
L 271.181561 -147.861309 
L 271.079978 -148.673273 
L 270.975994 -149.485237 
L 270.868897 -150.297201 
L 270.757634 -151.109165 
L 270.640917 -151.921129 
L 270.517374 -152.733093 
L 270.38572 -153.545058 
L 270.244935 -154.357022 
L 270.094419 -155.168986 
L 269.934103 -155.98095 
L 269.764505 -156.792914 
L 269.586711 -157.604878 
L 269.402277 -158.416842 
L 269.213059 -159.228806 
L 269.020984 -160.04077 
L 268.827795 -160.852734 
L 268.634783 -161.664698 
L 268.442565 -162.476663 
L 268.250908 -163.288627 
L 268.05866 -164.100591 
L 267.863773 -164.912555 
L 267.663433 -165.724519 
L 267.45429 -166.536483 
L 267.232759 -167.348447 
L 266.995362 -168.160411 
L 266.739079 -168.972375 
L 266.461677 -169.784339 
L 266.161979 -170.596303 
L 265.84006 -171.408267 
L 265.497344 -172.220232 
L 265.136617 -173.032196 
L 264.761929 -173.84416 
L 264.378428 -174.656124 
L 263.992116 -175.468088 
L 263.609556 -176.280052 
L 263.237548 -177.092016 
L 262.882803 -177.90398 
L 262.551622 -178.715944 
L 262.24961 -179.527908 
L 261.98144 -180.339872 
L 261.750682 -181.151836 
L 261.559702 -181.963801 
L 261.409648 -182.775765 
L 261.300508 -183.587729 
L 261.231245 -184.399693 
L 261.2 -185.211657 
L 261.204329 -186.023621 
L 261.241474 -186.835585 
L 261.308625 -187.647549 
L 261.403167 -188.459513 
L 261.522874 -189.271477 
L 261.666043 -190.083441 
L 261.83156 -190.895405 
L 262.018879 -191.70737 
L 262.22794 -192.519334 
L 262.459023 -193.331298 
L 262.712552 -194.143262 
L 262.988887 -194.955226 
L 263.288111 -195.76719 
L 263.609844 -196.579154 
L 263.953104 -197.391118 
L 264.316219 -198.203082 
L 264.696821 -199.015046 
L 265.091898 -199.82701 
L 265.497907 -200.638975 
L 265.910937 -201.450939 
L 266.326891 -202.262903 
L 266.741673 -203.074867 
L 267.151359 -203.886831 
L 267.552332 -204.698795 
L 267.941376 -205.510759 
L 268.315729 -206.322723 
L 268.673094 -207.134687 
L 269.011628 -207.946651 
L 269.329908 -208.758615 
L 269.626902 -209.570579 
L 269.901938 -210.382544 
L 270.154684 -211.194508 
L 270.385133 -212.006472 
L 270.593591 -212.818436 
L 270.780659 -213.6304 
L 270.947207 -214.442364 
L 271.094329 -215.254328 
L 271.223294 -216.066292 
L 271.335479 -216.878256 
L 271.432311 -217.69022 
L 271.515214 -218.502184 
L 271.585574 -219.314148 
L 271.64472 -220.126113 
L 271.693934 -220.938077 
L 271.734466 -221.750041 
L 271.767562 -222.562005 
L 271.794484 -223.373969 
L 271.81652 -224.185933 
L 271.834972 -224.997897 
L 271.851119 -225.809861 
L 271.866163 -226.621825 
L 271.881171 -227.433789 
L 271.897002 -228.245753 
L 272.502998 -228.245753 
L 272.502998 -228.245753 
L 272.518829 -227.433789 
L 272.533837 -226.621825 
L 272.548881 -225.809861 
L 272.565028 -224.997897 
L 272.58348 -224.185933 
L 272.605516 -223.373969 
L 272.632438 -222.562005 
L 272.665534 -221.750041 
L 272.706066 -220.938077 
L 272.75528 -220.126113 
L 272.814426 -219.314148 
L 272.884786 -218.502184 
L 272.967689 -217.69022 
L 273.064521 -216.878256 
L 273.176706 -216.066292 
L 273.305671 -215.254328 
L 273.452793 -214.442364 
L 273.619341 -213.6304 
L 273.806409 -212.818436 
L 274.014867 -212.006472 
L 274.245316 -211.194508 
L 274.498062 -210.382544 
L 274.773098 -209.570579 
L 275.070092 -208.758615 
L 275.388372 -207.946651 
L 275.726906 -207.134687 
L 276.084271 -206.322723 
L 276.458624 -205.510759 
L 276.847668 -204.698795 
L 277.248641 -203.886831 
L 277.658327 -203.074867 
L 278.073109 -202.262903 
L 278.489063 -201.450939 
L 278.902093 -200.638975 
L 279.308102 -199.82701 
L 279.703179 -199.015046 
L 280.083781 -198.203082 
L 280.446896 -197.391118 
L 280.790156 -196.579154 
L 281.111889 -195.76719 
L 281.411113 -194.955226 
L 281.687448 -194.143262 
L 281.940977 -193.331298 
L 282.17206 -192.519334 
L 282.381121 -191.70737 
L 282.56844 -190.895405 
L 282.733957 -190.083441 
L 282.877126 -189.271477 
L 282.996833 -188.459513 
L 283.091375 -187.647549 
L 283.158526 -186.835585 
L 283.195671 -186.023621 
L 283.2 -185.211657 
L 283.168755 -184.399693 
L 283.099492 -183.587729 
L 282.990352 -182.775765 
L 282.840298 -181.963801 
L 282.649318 -181.151836 
L 282.41856 -180.339872 
L 282.15039 -179.527908 
L 281.848378 -178.715944 
L 281.517197 -177.90398 
L 281.162452 -177.092016 
L 280.790444 -176.280052 
L 280.407884 -175.468088 
L 280.021572 -174.656124 
L 279.638071 -173.84416 
L 279.263383 -173.032196 
L 278.902656 -172.220232 
L 278.55994 -171.408267 
L 278.238021 -170.596303 
L 277.938323 -169.784339 
L 277.660921 -168.972375 
L 277.404638 -168.160411 
L 277.167241 -167.348447 
L 276.94571 -166.536483 
L 276.736567 -165.724519 
L 276.536227 -164.912555 
L 276.34134 -164.100591 
L 276.149092 -163.288627 
L 275.957435 -162.476663 
L 275.765217 -161.664698 
L 275.572205 -160.852734 
L 275.379016 -160.04077 
L 275.186941 -159.228806 
L 274.997723 -158.416842 
L 274.813289 -157.604878 
L 274.635495 -156.792914 
L 274.465897 -155.98095 
L 274.305581 -155.168986 
L 274.155065 -154.357022 
L 274.01428 -153.545058 
L 273.882626 -152.733093 
L 273.759083 -151.921129 
L 273.642366 -151.109165 
L 273.531103 -150.297201 
L 273.424006 -149.485237 
L 273.320022 -148.673273 
L 273.218439 -147.861309 
z
" style="stroke: #000000"/>
    </defs>
    <g clip-path="url(#pb8f2d051c1)">
     <use xlink:href="#mdffd437bff" x="0" y="360" style="fill: #deebf7; stroke: #000000"/>
    </g>
   </g>
   <g id="PolyCollection_6">
    <defs>
     <path id="m5b0774c83e" d="M 317.027102 -156.960828 
L 315.372898 -156.960828 
L 315.27609 -157.63557 
L 315.173809 -158.310312 
L 315.065793 -158.985055 
L 314.951629 -159.659797 
L 314.830774 -160.334539 
L 314.7026 -161.009281 
L 314.566441 -161.684023 
L 314.42167 -162.358765 
L 314.267775 -163.033507 
L 314.104424 -163.70825 
L 313.931525 -164.382992 
L 313.749263 -165.057734 
L 313.558101 -165.732476 
L 313.35876 -166.407218 
L 313.152153 -167.08196 
L 312.93931 -167.756703 
L 312.721272 -168.431445 
L 312.49899 -169.106187 
L 312.273227 -169.780929 
L 312.044476 -170.455671 
L 311.812906 -171.130413 
L 311.578344 -171.805155 
L 311.34028 -172.479898 
L 311.097906 -173.15464 
L 310.850178 -173.829382 
L 310.595898 -174.504124 
L 310.333803 -175.178866 
L 310.062673 -175.853608 
L 309.781444 -176.528351 
L 309.48933 -177.203093 
L 309.18596 -177.877835 
L 308.871517 -178.552577 
L 308.546879 -179.227319 
L 308.213753 -179.902061 
L 307.874775 -180.576804 
L 307.533568 -181.251546 
L 307.19473 -181.926288 
L 306.863735 -182.60103 
L 306.546744 -183.275772 
L 306.250312 -183.950514 
L 305.981024 -184.625256 
L 305.745056 -185.299999 
L 305.547737 -185.974741 
L 305.393113 -186.649483 
L 305.283594 -187.324225 
L 305.219708 -187.998967 
L 305.2 -188.673709 
L 305.221104 -189.348452 
L 305.277976 -190.023194 
L 305.364278 -190.697936 
L 305.472891 -191.372678 
L 305.596491 -192.04742 
L 305.728143 -192.722162 
L 305.861856 -193.396904 
L 305.993042 -194.071647 
L 306.11884 -194.746389 
L 306.238278 -195.421131 
L 306.352257 -196.095873 
L 306.46337 -196.770615 
L 306.575583 -197.445357 
L 306.693801 -198.1201 
L 306.823379 -198.794842 
L 306.969604 -199.469584 
L 307.137217 -200.144326 
L 307.329985 -200.819068 
L 307.550381 -201.49381 
L 307.799367 -202.168552 
L 308.076314 -202.843295 
L 308.379035 -203.518037 
L 308.703945 -204.192779 
L 309.046315 -204.867521 
L 309.4006 -205.542263 
L 309.760822 -206.217005 
L 310.120966 -206.891748 
L 310.475361 -207.56649 
L 310.81902 -208.241232 
L 311.147907 -208.915974 
L 311.45912 -209.590716 
L 311.750967 -210.265458 
L 312.022946 -210.9402 
L 312.275631 -211.614943 
L 312.510479 -212.289685 
L 312.729587 -212.964427 
L 312.935419 -213.639169 
L 313.130539 -214.313911 
L 313.317366 -214.988653 
L 313.497982 -215.663396 
L 313.673995 -216.338138 
L 313.846469 -217.01288 
L 314.015921 -217.687622 
L 314.182371 -218.362364 
L 314.345427 -219.037106 
L 314.504405 -219.711848 
L 314.658444 -220.386591 
L 314.806629 -221.061333 
L 314.94808 -221.736075 
L 315.082032 -222.410817 
L 315.20788 -223.085559 
L 315.325195 -223.760301 
L 317.074805 -223.760301 
L 317.074805 -223.760301 
L 317.19212 -223.085559 
L 317.317968 -222.410817 
L 317.45192 -221.736075 
L 317.593371 -221.061333 
L 317.741556 -220.386591 
L 317.895595 -219.711848 
L 318.054573 -219.037106 
L 318.217629 -218.362364 
L 318.384079 -217.687622 
L 318.553531 -217.01288 
L 318.726005 -216.338138 
L 318.902018 -215.663396 
L 319.082634 -214.988653 
L 319.269461 -214.313911 
L 319.464581 -213.639169 
L 319.670413 -212.964427 
L 319.889521 -212.289685 
L 320.124369 -211.614943 
L 320.377054 -210.9402 
L 320.649033 -210.265458 
L 320.94088 -209.590716 
L 321.252093 -208.915974 
L 321.58098 -208.241232 
L 321.924639 -207.56649 
L 322.279034 -206.891748 
L 322.639178 -206.217005 
L 322.9994 -205.542263 
L 323.353685 -204.867521 
L 323.696055 -204.192779 
L 324.020965 -203.518037 
L 324.323686 -202.843295 
L 324.600633 -202.168552 
L 324.849619 -201.49381 
L 325.070015 -200.819068 
L 325.262783 -200.144326 
L 325.430396 -199.469584 
L 325.576621 -198.794842 
L 325.706199 -198.1201 
L 325.824417 -197.445357 
L 325.93663 -196.770615 
L 326.047743 -196.095873 
L 326.161722 -195.421131 
L 326.28116 -194.746389 
L 326.406958 -194.071647 
L 326.538144 -193.396904 
L 326.671857 -192.722162 
L 326.803509 -192.04742 
L 326.927109 -191.372678 
L 327.035722 -190.697936 
L 327.122024 -190.023194 
L 327.178896 -189.348452 
L 327.2 -188.673709 
L 327.180292 -187.998967 
L 327.116406 -187.324225 
L 327.006887 -186.649483 
L 326.852263 -185.974741 
L 326.654944 -185.299999 
L 326.418976 -184.625256 
L 326.149688 -183.950514 
L 325.853256 -183.275772 
L 325.536265 -182.60103 
L 325.20527 -181.926288 
L 324.866432 -181.251546 
L 324.525225 -180.576804 
L 324.186247 -179.902061 
L 323.853121 -179.227319 
L 323.528483 -178.552577 
L 323.21404 -177.877835 
L 322.91067 -177.203093 
L 322.618556 -176.528351 
L 322.337327 -175.853608 
L 322.066197 -175.178866 
L 321.804102 -174.504124 
L 321.549822 -173.829382 
L 321.302094 -173.15464 
L 321.05972 -172.479898 
L 320.821656 -171.805155 
L 320.587094 -171.130413 
L 320.355524 -170.455671 
L 320.126773 -169.780929 
L 319.90101 -169.106187 
L 319.678728 -168.431445 
L 319.46069 -167.756703 
L 319.247847 -167.08196 
L 319.04124 -166.407218 
L 318.841899 -165.732476 
L 318.650737 -165.057734 
L 318.468475 -164.382992 
L 318.295576 -163.70825 
L 318.132225 -163.033507 
L 317.97833 -162.358765 
L 317.833559 -161.684023 
L 317.6974 -161.009281 
L 317.569226 -160.334539 
L 317.448371 -159.659797 
L 317.334207 -158.985055 
L 317.226191 -158.310312 
L 317.12391 -157.63557 
L 317.027102 -156.960828 
z
" style="stroke: #000000"/>
    </defs>
    <g clip-path="url(#pb8f2d051c1)">
     <use xlink:href="#m5b0774c83e" x="0" y="360" style="fill: #f8cbad; stroke: #000000"/>
    </g>
   </g>
   <g id="LineCollection_1">
    <path d="M 96.2 252.330913 
L 96.2 232.234802 
" clip-path="url(#pb8f2d051c1)" style="fill: none; stroke: #000000; stroke-width: 5"/>
    <path d="M 140.2 197.065 
L 140.2 176.968889 
" clip-path="url(#pb8f2d051c1)" style="fill: none; stroke: #000000; stroke-width: 5"/>
    <path d="M 184.2 192.04258 
L 184.2 171.946469 
" clip-path="url(#pb8f2d051c1)" style="fill: none; stroke: #000000; stroke-width: 5"/>
    <path d="M 228.2 192.04258 
L 228.2 166.920833 
" clip-path="url(#pb8f2d051c1)" style="fill: none; stroke: #000000; stroke-width: 5"/>
    <path d="M 272.2 181.991309 
L 272.2 166.920833 
" clip-path="url(#pb8f2d051c1)" style="fill: none; stroke: #000000; stroke-width: 5"/>
    <path d="M 316.2 176.968889 
L 316.2 159.589772 
" clip-path="url(#pb8f2d051c1)" style="fill: none; stroke: #000000; stroke-width: 5"/>
   </g>
   <g id="LineCollection_2">
    <path d="M 96.2 252.330913 
L 96.2 247.305278 
" clip-path="url(#pb8f2d051c1)" style="fill: none; stroke: #000000"/>
    <path d="M 140.2 197.065 
L 140.2 171.946469 
" clip-path="url(#pb8f2d051c1)" style="fill: none; stroke: #000000"/>
    <path d="M 184.2 192.04258 
L 184.2 176.968889 
" clip-path="url(#pb8f2d051c1)" style="fill: none; stroke: #000000"/>
    <path d="M 228.2 192.04258 
L 228.2 161.895198 
" clip-path="url(#pb8f2d051c1)" style="fill: none; stroke: #000000"/>
    <path d="M 272.2 181.991309 
L 272.2 171.946469 
" clip-path="url(#pb8f2d051c1)" style="fill: none; stroke: #000000"/>
    <path d="M 316.2 176.968889 
L 316.2 168.277723 
" clip-path="url(#pb8f2d051c1)" style="fill: none; stroke: #000000"/>
   </g>
   <g id="patch_3">
    <path d="M 63.2 305.584 
L 63.2 16.2 
" style="fill: none; stroke: #000000; stroke-width: 0.8; stroke-linejoin: miter; stroke-linecap: square"/>
   </g>
   <g id="patch_4">
    <path d="M 349.2 305.584 
L 349.2 16.2 
" style="fill: none; stroke: #000000; stroke-width: 0.8; stroke-linejoin: miter; stroke-linecap: square"/>
   </g>
   <g id="patch_5">
    <path d="M 63.2 305.584 
L 349.2 305.584 
" style="fill: none; stroke: #000000; stroke-width: 0.8; stroke-linejoin: miter; stroke-linecap: square"/>
   </g>
   <g id="patch_6">
    <path d="M 63.2 16.2 
L 349.2 16.2 
" style="fill: none; stroke: #000000; stroke-width: 0.8; stroke-linejoin: miter; stroke-linecap: square"/>
   </g>
   <g id="PathCollection_1">
    <defs>
     <path id="m65458f9509" d="M 0 2.738613 
C 0.726289 2.738613 1.422928 2.450055 1.936492 1.936492 
C 2.450055 1.422928 2.738613 0.726289 2.738613 0 
C 2.738613 -0.726289 2.450055 -1.422928 1.936492 -1.936492 
C 1.422928 -2.450055 0.726289 -2.738613 0 -2.738613 
C -0.726289 -2.738613 -1.422928 -2.450055 -1.936492 -1.936492 
C -2.450055 -1.422928 -2.738613 -0.726289 -2.738613 0 
C -2.738613 0.726289 -2.450055 1.422928 -1.936492 1.936492 
C -1.422928 2.450055 -0.726289 2.738613 0 2.738613 
z
" style="stroke: #ffffff"/>
    </defs>
    <g clip-path="url(#pb8f2d051c1)">
     <use xlink:href="#m65458f9509" x="96.2" y="242.279642" style="fill: #ffffff; stroke: #ffffff"/>
     <use xlink:href="#m65458f9509" x="140.2" y="187.016944" style="fill: #ffffff; stroke: #ffffff"/>
     <use xlink:href="#m65458f9509" x="184.2" y="181.991309" style="fill: #ffffff; stroke: #ffffff"/>
     <use xlink:href="#m65458f9509" x="228.2" y="176.968889" style="fill: #ffffff; stroke: #ffffff"/>
     <use xlink:href="#m65458f9509" x="272.2" y="176.968889" style="fill: #ffffff; stroke: #ffffff"/>
     <use xlink:href="#m65458f9509" x="316.2" y="170.538133" style="fill: #ffffff; stroke: #ffffff"/>
    </g>
   </g>
  </g>
 </g>
 <defs>
  <clipPath id="pb8f2d051c1">
   <rect x="63.2" y="16.2" width="286" height="289.384"/>
  </clipPath>
 </defs>
</svg>
