<?xml version="1.0" encoding="utf-8" standalone="no"?>
<!DOCTYPE svg PUBLIC "-//W3C//DTD SVG 1.1//EN"
  "http://www.w3.org/Graphics/SVG/1.1/DTD/svg11.dtd">
<svg xmlns:xlink="http://www.w3.org/1999/xlink" width="360pt" height="360pt" viewBox="0 0 360 360" xmlns="http://www.w3.org/2000/svg" version="1.1">
 <metadata>
  <rdf:RDF xmlns:dc="http://purl.org/dc/elements/1.1/" xmlns:cc="http://creativecommons.org/ns#" xmlns:rdf="http://www.w3.org/1999/02/22-rdf-syntax-ns#">
   <cc:Work>
    <dc:type rdf:resource="http://purl.org/dc/dcmitype/StillImage"/>
    <dc:date>2022-07-06T10:28:54.487453</dc:date>
    <dc:format>image/svg+xml</dc:format>
    <dc:creator>
     <cc:Agent>
      <dc:title>Matplotlib v3.5.1, https://matplotlib.org/</dc:title>
     </cc:Agent>
    </dc:creator>
   </cc:Work>
  </rdf:RDF>
 </metadata>
 <defs>
  <style type="text/css">*{stroke-linejoin: round; stroke-linecap: butt}</style>
 </defs>
 <g id="figure_1">
  <g id="patch_1">
   <path d="M 0 360 
L 360 360 
L 360 0 
L 0 0 
L 0 360 
z
" style="fill: none"/>
  </g>
  <g id="axes_1">
   <g id="patch_2">
    <path d="M 58.52 305.584 
L 349.2 305.584 
L 349.2 16.2 
L 58.52 16.2 
L 58.52 305.584 
z
" style="fill: none"/>
   </g>
   <g id="matplotlib.axis_1">
    <g id="xtick_1">
     <g id="line2d_1">
      <defs>
       <path id="me0bce15786" d="M 0 0 
L 0 3.5 
" style="stroke: #000000; stroke-width: 0.8"/>
      </defs>
      <g>
       <use xlink:href="#me0bce15786" x="87.588" y="305.584" style="stroke: #000000; stroke-width: 0.8"/>
      </g>
     </g>
     <g id="text_1">
      <!-- 10 -->
      <g transform="translate(78.6805 323.221812)scale(0.14 -0.14)">
       <defs>
        <path id="DejaVuSans-31" d="M 794 531 
L 1825 531 
L 1825 4091 
L 703 3866 
L 703 4441 
L 1819 4666 
L 2450 4666 
L 2450 531 
L 3481 531 
L 3481 0 
L 794 0 
L 794 531 
z
" transform="scale(0.015625)"/>
        <path id="DejaVuSans-30" d="M 2034 4250 
Q 1547 4250 1301 3770 
Q 1056 3291 1056 2328 
Q 1056 1369 1301 889 
Q 1547 409 2034 409 
Q 2525 409 2770 889 
Q 3016 1369 3016 2328 
Q 3016 3291 2770 3770 
Q 2525 4250 2034 4250 
z
M 2034 4750 
Q 2819 4750 3233 4129 
Q 3647 3509 3647 2328 
Q 3647 1150 3233 529 
Q 2819 -91 2034 -91 
Q 1250 -91 836 529 
Q 422 1150 422 2328 
Q 422 3509 836 4129 
Q 1250 4750 2034 4750 
z
" transform="scale(0.015625)"/>
       </defs>
       <use xlink:href="#DejaVuSans-31"/>
       <use xlink:href="#DejaVuSans-30" x="63.623047"/>
      </g>
     </g>
    </g>
    <g id="xtick_2">
     <g id="line2d_2">
      <g>
       <use xlink:href="#me0bce15786" x="126.345333" y="305.584" style="stroke: #000000; stroke-width: 0.8"/>
      </g>
     </g>
     <g id="text_2">
      <!-- 20 -->
      <g transform="translate(117.437833 323.221812)scale(0.14 -0.14)">
       <defs>
        <path id="DejaVuSans-32" d="M 1228 531 
L 3431 531 
L 3431 0 
L 469 0 
L 469 531 
Q 828 903 1448 1529 
Q 2069 2156 2228 2338 
Q 2531 2678 2651 2914 
Q 2772 3150 2772 3378 
Q 2772 3750 2511 3984 
Q 2250 4219 1831 4219 
Q 1534 4219 1204 4116 
Q 875 4013 500 3803 
L 500 4441 
Q 881 4594 1212 4672 
Q 1544 4750 1819 4750 
Q 2544 4750 2975 4387 
Q 3406 4025 3406 3419 
Q 3406 3131 3298 2873 
Q 3191 2616 2906 2266 
Q 2828 2175 2409 1742 
Q 1991 1309 1228 531 
z
" transform="scale(0.015625)"/>
       </defs>
       <use xlink:href="#DejaVuSans-32"/>
       <use xlink:href="#DejaVuSans-30" x="63.623047"/>
      </g>
     </g>
    </g>
    <g id="xtick_3">
     <g id="line2d_3">
      <g>
       <use xlink:href="#me0bce15786" x="165.102667" y="305.584" style="stroke: #000000; stroke-width: 0.8"/>
      </g>
     </g>
     <g id="text_3">
      <!-- 50 -->
      <g transform="translate(156.195167 323.221812)scale(0.14 -0.14)">
       <defs>
        <path id="DejaVuSans-35" d="M 691 4666 
L 3169 4666 
L 3169 4134 
L 1269 4134 
L 1269 2991 
Q 1406 3038 1543 3061 
Q 1681 3084 1819 3084 
Q 2600 3084 3056 2656 
Q 3513 2228 3513 1497 
Q 3513 744 3044 326 
Q 2575 -91 1722 -91 
Q 1428 -91 1123 -41 
Q 819 9 494 109 
L 494 744 
Q 775 591 1075 516 
Q 1375 441 1709 441 
Q 2250 441 2565 725 
Q 2881 1009 2881 1497 
Q 2881 1984 2565 2268 
Q 2250 2553 1709 2553 
Q 1456 2553 1204 2497 
Q 953 2441 691 2322 
L 691 4666 
z
" transform="scale(0.015625)"/>
       </defs>
       <use xlink:href="#DejaVuSans-35"/>
       <use xlink:href="#DejaVuSans-30" x="63.623047"/>
      </g>
     </g>
    </g>
    <g id="xtick_4">
     <g id="line2d_4">
      <g>
       <use xlink:href="#me0bce15786" x="203.86" y="305.584" style="stroke: #000000; stroke-width: 0.8"/>
      </g>
     </g>
     <g id="text_4">
      <!-- 100 -->
      <g transform="translate(190.49875 323.221812)scale(0.14 -0.14)">
       <use xlink:href="#DejaVuSans-31"/>
       <use xlink:href="#DejaVuSans-30" x="63.623047"/>
       <use xlink:href="#DejaVuSans-30" x="127.246094"/>
      </g>
     </g>
    </g>
    <g id="xtick_5">
     <g id="line2d_5">
      <g>
       <use xlink:href="#me0bce15786" x="242.617333" y="305.584" style="stroke: #000000; stroke-width: 0.8"/>
      </g>
     </g>
     <g id="text_5">
      <!-- 200 -->
      <g transform="translate(229.256083 323.221812)scale(0.14 -0.14)">
       <use xlink:href="#DejaVuSans-32"/>
       <use xlink:href="#DejaVuSans-30" x="63.623047"/>
       <use xlink:href="#DejaVuSans-30" x="127.246094"/>
      </g>
     </g>
    </g>
    <g id="xtick_6">
     <g id="line2d_6">
      <g>
       <use xlink:href="#me0bce15786" x="281.374667" y="305.584" style="stroke: #000000; stroke-width: 0.8"/>
      </g>
     </g>
     <g id="text_6">
      <!-- 402 -->
      <g transform="translate(268.013417 323.221812)scale(0.14 -0.14)">
       <defs>
        <path id="DejaVuSans-34" d="M 2419 4116 
L 825 1625 
L 2419 1625 
L 2419 4116 
z
M 2253 4666 
L 3047 4666 
L 3047 1625 
L 3713 1625 
L 3713 1100 
L 3047 1100 
L 3047 0 
L 2419 0 
L 2419 1100 
L 313 1100 
L 313 1709 
L 2253 4666 
z
" transform="scale(0.015625)"/>
       </defs>
       <use xlink:href="#DejaVuSans-34"/>
       <use xlink:href="#DejaVuSans-30" x="63.623047"/>
       <use xlink:href="#DejaVuSans-32" x="127.246094"/>
      </g>
     </g>
    </g>
    <g id="xtick_7">
     <g id="line2d_7">
      <g>
       <use xlink:href="#me0bce15786" x="320.132" y="305.584" style="stroke: #000000; stroke-width: 0.8"/>
      </g>
     </g>
     <g id="text_7">
      <!-- $\bf{10_{3T}}$ -->
      <g transform="translate(303.332 323.221812)scale(0.14 -0.14)">
       <defs>
        <path id="DejaVuSans-Bold-31" d="M 750 831 
L 1813 831 
L 1813 3847 
L 722 3622 
L 722 4441 
L 1806 4666 
L 2950 4666 
L 2950 831 
L 4013 831 
L 4013 0 
L 750 0 
L 750 831 
z
" transform="scale(0.015625)"/>
        <path id="DejaVuSans-Bold-30" d="M 2944 2338 
Q 2944 3213 2780 3570 
Q 2616 3928 2228 3928 
Q 1841 3928 1675 3570 
Q 1509 3213 1509 2338 
Q 1509 1453 1675 1090 
Q 1841 728 2228 728 
Q 2613 728 2778 1090 
Q 2944 1453 2944 2338 
z
M 4147 2328 
Q 4147 1169 3647 539 
Q 3147 -91 2228 -91 
Q 1306 -91 806 539 
Q 306 1169 306 2328 
Q 306 3491 806 4120 
Q 1306 4750 2228 4750 
Q 3147 4750 3647 4120 
Q 4147 3491 4147 2328 
z
" transform="scale(0.015625)"/>
        <path id="DejaVuSans-Bold-33" d="M 2981 2516 
Q 3453 2394 3698 2092 
Q 3944 1791 3944 1325 
Q 3944 631 3412 270 
Q 2881 -91 1863 -91 
Q 1503 -91 1142 -33 
Q 781 25 428 141 
L 428 1069 
Q 766 900 1098 814 
Q 1431 728 1753 728 
Q 2231 728 2486 893 
Q 2741 1059 2741 1369 
Q 2741 1688 2480 1852 
Q 2219 2016 1709 2016 
L 1228 2016 
L 1228 2791 
L 1734 2791 
Q 2188 2791 2409 2933 
Q 2631 3075 2631 3366 
Q 2631 3634 2415 3781 
Q 2200 3928 1806 3928 
Q 1516 3928 1219 3862 
Q 922 3797 628 3669 
L 628 4550 
Q 984 4650 1334 4700 
Q 1684 4750 2022 4750 
Q 2931 4750 3382 4451 
Q 3834 4153 3834 3553 
Q 3834 3144 3618 2883 
Q 3403 2622 2981 2516 
z
" transform="scale(0.015625)"/>
        <path id="DejaVuSans-Bold-54" d="M 31 4666 
L 4331 4666 
L 4331 3756 
L 2784 3756 
L 2784 0 
L 1581 0 
L 1581 3756 
L 31 3756 
L 31 4666 
z
" transform="scale(0.015625)"/>
       </defs>
       <use xlink:href="#DejaVuSans-Bold-31" transform="translate(0 0.78125)"/>
       <use xlink:href="#DejaVuSans-Bold-30" transform="translate(69.580078 0.78125)"/>
       <use xlink:href="#DejaVuSans-Bold-33" transform="translate(140.117188 -15.625)scale(0.7)"/>
       <use xlink:href="#DejaVuSans-Bold-54" transform="translate(188.823242 -15.625)scale(0.7)"/>
      </g>
     </g>
    </g>
    <g id="xtick_8"/>
    <g id="xtick_9"/>
    <g id="xtick_10"/>
    <g id="xtick_11"/>
    <g id="xtick_12"/>
    <g id="xtick_13"/>
    <g id="xtick_14"/>
    <g id="xtick_15"/>
    <g id="xtick_16"/>
    <g id="xtick_17"/>
    <g id="xtick_18"/>
    <g id="xtick_19"/>
    <g id="xtick_20"/>
    <g id="xtick_21"/>
    <g id="xtick_22"/>
    <g id="xtick_23"/>
    <g id="xtick_24"/>
    <g id="xtick_25"/>
    <g id="xtick_26"/>
    <g id="xtick_27"/>
    <g id="xtick_28"/>
    <g id="xtick_29"/>
    <g id="xtick_30"/>
    <g id="xtick_31"/>
    <g id="xtick_32"/>
    <g id="xtick_33"/>
    <g id="xtick_34"/>
    <g id="xtick_35"/>
    <g id="xtick_36"/>
    <g id="xtick_37"/>
    <g id="text_8">
     <!-- $n_{conf}$ -->
     <g transform="translate(184.33 343.810563)scale(0.18 -0.18)">
      <defs>
       <path id="DejaVuSans-Oblique-6e" d="M 3566 2113 
L 3156 0 
L 2578 0 
L 2988 2091 
Q 3016 2238 3031 2350 
Q 3047 2463 3047 2528 
Q 3047 2791 2881 2937 
Q 2716 3084 2419 3084 
Q 1956 3084 1622 2776 
Q 1288 2469 1184 1941 
L 800 0 
L 225 0 
L 903 3500 
L 1478 3500 
L 1363 2950 
Q 1603 3253 1940 3418 
Q 2278 3584 2650 3584 
Q 3113 3584 3367 3334 
Q 3622 3084 3622 2631 
Q 3622 2519 3608 2391 
Q 3594 2263 3566 2113 
z
" transform="scale(0.015625)"/>
       <path id="DejaVuSans-Oblique-63" d="M 3431 3366 
L 3316 2797 
Q 3109 2947 2876 3022 
Q 2644 3097 2394 3097 
Q 2119 3097 1870 3000 
Q 1622 2903 1453 2725 
Q 1184 2453 1037 2087 
Q 891 1722 891 1331 
Q 891 859 1127 628 
Q 1363 397 1844 397 
Q 2081 397 2348 469 
Q 2616 541 2906 684 
L 2797 116 
Q 2547 13 2283 -39 
Q 2019 -91 1741 -91 
Q 1044 -91 669 257 
Q 294 606 294 1253 
Q 294 1797 489 2255 
Q 684 2713 1069 3078 
Q 1331 3328 1684 3456 
Q 2038 3584 2456 3584 
Q 2700 3584 2940 3529 
Q 3181 3475 3431 3366 
z
" transform="scale(0.015625)"/>
       <path id="DejaVuSans-Oblique-6f" d="M 1625 -91 
Q 1009 -91 651 289 
Q 294 669 294 1325 
Q 294 1706 417 2101 
Q 541 2497 738 2766 
Q 1047 3184 1428 3384 
Q 1809 3584 2291 3584 
Q 2888 3584 3255 3212 
Q 3622 2841 3622 2241 
Q 3622 1825 3500 1412 
Q 3378 1000 3181 728 
Q 2875 309 2494 109 
Q 2113 -91 1625 -91 
z
M 891 1344 
Q 891 869 1089 633 
Q 1288 397 1691 397 
Q 2269 397 2648 901 
Q 3028 1406 3028 2181 
Q 3028 2634 2825 2865 
Q 2622 3097 2228 3097 
Q 1903 3097 1650 2945 
Q 1397 2794 1197 2484 
Q 1050 2253 970 1956 
Q 891 1659 891 1344 
z
" transform="scale(0.015625)"/>
       <path id="DejaVuSans-Oblique-66" d="M 3059 4863 
L 2969 4384 
L 2419 4384 
Q 2106 4384 1964 4261 
Q 1822 4138 1753 3809 
L 1691 3500 
L 2638 3500 
L 2553 3053 
L 1606 3053 
L 1013 0 
L 434 0 
L 1031 3053 
L 481 3053 
L 563 3500 
L 1113 3500 
L 1159 3744 
Q 1278 4363 1576 4613 
Q 1875 4863 2516 4863 
L 3059 4863 
z
" transform="scale(0.015625)"/>
      </defs>
      <use xlink:href="#DejaVuSans-Oblique-6e"/>
      <use xlink:href="#DejaVuSans-Oblique-63" transform="translate(63.378906 -16.40625)scale(0.7)"/>
      <use xlink:href="#DejaVuSans-Oblique-6f" transform="translate(101.865234 -16.40625)scale(0.7)"/>
      <use xlink:href="#DejaVuSans-Oblique-6e" transform="translate(144.692383 -16.40625)scale(0.7)"/>
      <use xlink:href="#DejaVuSans-Oblique-66" transform="translate(189.057617 -16.40625)scale(0.7)"/>
     </g>
    </g>
   </g>
   <g id="matplotlib.axis_2">
    <g id="ytick_1">
     <g id="line2d_8">
      <path d="M 58.52 305.584 
L 349.2 305.584 
" clip-path="url(#p97f33bd284)" style="fill: none; stroke: #666666; stroke-width: 0.8; stroke-linecap: square"/>
     </g>
     <g id="line2d_9">
      <defs>
       <path id="me5c604c3f4" d="M 0 0 
L -3.5 0 
" style="stroke: #000000; stroke-width: 0.8"/>
      </defs>
      <g>
       <use xlink:href="#me5c604c3f4" x="58.52" y="305.584" style="stroke: #000000; stroke-width: 0.8"/>
      </g>
     </g>
     <g id="text_9">
      <!-- 0.5 -->
      <g transform="translate(29.255625 310.902906)scale(0.14 -0.14)">
       <defs>
        <path id="DejaVuSans-2e" d="M 684 794 
L 1344 794 
L 1344 0 
L 684 0 
L 684 794 
z
" transform="scale(0.015625)"/>
       </defs>
       <use xlink:href="#DejaVuSans-30"/>
       <use xlink:href="#DejaVuSans-2e" x="63.623047"/>
       <use xlink:href="#DejaVuSans-35" x="95.410156"/>
      </g>
     </g>
    </g>
    <g id="ytick_2">
     <g id="line2d_10">
      <path d="M 58.52 247.7072 
L 349.2 247.7072 
" clip-path="url(#p97f33bd284)" style="fill: none; stroke: #666666; stroke-width: 0.8; stroke-linecap: square"/>
     </g>
     <g id="line2d_11">
      <g>
       <use xlink:href="#me5c604c3f4" x="58.52" y="247.7072" style="stroke: #000000; stroke-width: 0.8"/>
      </g>
     </g>
     <g id="text_10">
      <!-- 0.6 -->
      <g transform="translate(29.255625 253.026106)scale(0.14 -0.14)">
       <defs>
        <path id="DejaVuSans-36" d="M 2113 2584 
Q 1688 2584 1439 2293 
Q 1191 2003 1191 1497 
Q 1191 994 1439 701 
Q 1688 409 2113 409 
Q 2538 409 2786 701 
Q 3034 994 3034 1497 
Q 3034 2003 2786 2293 
Q 2538 2584 2113 2584 
z
M 3366 4563 
L 3366 3988 
Q 3128 4100 2886 4159 
Q 2644 4219 2406 4219 
Q 1781 4219 1451 3797 
Q 1122 3375 1075 2522 
Q 1259 2794 1537 2939 
Q 1816 3084 2150 3084 
Q 2853 3084 3261 2657 
Q 3669 2231 3669 1497 
Q 3669 778 3244 343 
Q 2819 -91 2113 -91 
Q 1303 -91 875 529 
Q 447 1150 447 2328 
Q 447 3434 972 4092 
Q 1497 4750 2381 4750 
Q 2619 4750 2861 4703 
Q 3103 4656 3366 4563 
z
" transform="scale(0.015625)"/>
       </defs>
       <use xlink:href="#DejaVuSans-30"/>
       <use xlink:href="#DejaVuSans-2e" x="63.623047"/>
       <use xlink:href="#DejaVuSans-36" x="95.410156"/>
      </g>
     </g>
    </g>
    <g id="ytick_3">
     <g id="line2d_12">
      <path d="M 58.52 189.8304 
L 349.2 189.8304 
" clip-path="url(#p97f33bd284)" style="fill: none; stroke: #666666; stroke-width: 0.8; stroke-linecap: square"/>
     </g>
     <g id="line2d_13">
      <g>
       <use xlink:href="#me5c604c3f4" x="58.52" y="189.8304" style="stroke: #000000; stroke-width: 0.8"/>
      </g>
     </g>
     <g id="text_11">
      <!-- 0.7 -->
      <g transform="translate(29.255625 195.149306)scale(0.14 -0.14)">
       <defs>
        <path id="DejaVuSans-37" d="M 525 4666 
L 3525 4666 
L 3525 4397 
L 1831 0 
L 1172 0 
L 2766 4134 
L 525 4134 
L 525 4666 
z
" transform="scale(0.015625)"/>
       </defs>
       <use xlink:href="#DejaVuSans-30"/>
       <use xlink:href="#DejaVuSans-2e" x="63.623047"/>
       <use xlink:href="#DejaVuSans-37" x="95.410156"/>
      </g>
     </g>
    </g>
    <g id="ytick_4">
     <g id="line2d_14">
      <path d="M 58.52 131.9536 
L 349.2 131.9536 
" clip-path="url(#p97f33bd284)" style="fill: none; stroke: #666666; stroke-width: 0.8; stroke-linecap: square"/>
     </g>
     <g id="line2d_15">
      <g>
       <use xlink:href="#me5c604c3f4" x="58.52" y="131.9536" style="stroke: #000000; stroke-width: 0.8"/>
      </g>
     </g>
     <g id="text_12">
      <!-- 0.8 -->
      <g transform="translate(29.255625 137.272506)scale(0.14 -0.14)">
       <defs>
        <path id="DejaVuSans-38" d="M 2034 2216 
Q 1584 2216 1326 1975 
Q 1069 1734 1069 1313 
Q 1069 891 1326 650 
Q 1584 409 2034 409 
Q 2484 409 2743 651 
Q 3003 894 3003 1313 
Q 3003 1734 2745 1975 
Q 2488 2216 2034 2216 
z
M 1403 2484 
Q 997 2584 770 2862 
Q 544 3141 544 3541 
Q 544 4100 942 4425 
Q 1341 4750 2034 4750 
Q 2731 4750 3128 4425 
Q 3525 4100 3525 3541 
Q 3525 3141 3298 2862 
Q 3072 2584 2669 2484 
Q 3125 2378 3379 2068 
Q 3634 1759 3634 1313 
Q 3634 634 3220 271 
Q 2806 -91 2034 -91 
Q 1263 -91 848 271 
Q 434 634 434 1313 
Q 434 1759 690 2068 
Q 947 2378 1403 2484 
z
M 1172 3481 
Q 1172 3119 1398 2916 
Q 1625 2713 2034 2713 
Q 2441 2713 2670 2916 
Q 2900 3119 2900 3481 
Q 2900 3844 2670 4047 
Q 2441 4250 2034 4250 
Q 1625 4250 1398 4047 
Q 1172 3844 1172 3481 
z
" transform="scale(0.015625)"/>
       </defs>
       <use xlink:href="#DejaVuSans-30"/>
       <use xlink:href="#DejaVuSans-2e" x="63.623047"/>
       <use xlink:href="#DejaVuSans-38" x="95.410156"/>
      </g>
     </g>
    </g>
    <g id="ytick_5">
     <g id="line2d_16">
      <path d="M 58.52 74.0768 
L 349.2 74.0768 
" clip-path="url(#p97f33bd284)" style="fill: none; stroke: #666666; stroke-width: 0.8; stroke-linecap: square"/>
     </g>
     <g id="line2d_17">
      <g>
       <use xlink:href="#me5c604c3f4" x="58.52" y="74.0768" style="stroke: #000000; stroke-width: 0.8"/>
      </g>
     </g>
     <g id="text_13">
      <!-- 0.9 -->
      <g transform="translate(29.255625 79.395706)scale(0.14 -0.14)">
       <defs>
        <path id="DejaVuSans-39" d="M 703 97 
L 703 672 
Q 941 559 1184 500 
Q 1428 441 1663 441 
Q 2288 441 2617 861 
Q 2947 1281 2994 2138 
Q 2813 1869 2534 1725 
Q 2256 1581 1919 1581 
Q 1219 1581 811 2004 
Q 403 2428 403 3163 
Q 403 3881 828 4315 
Q 1253 4750 1959 4750 
Q 2769 4750 3195 4129 
Q 3622 3509 3622 2328 
Q 3622 1225 3098 567 
Q 2575 -91 1691 -91 
Q 1453 -91 1209 -44 
Q 966 3 703 97 
z
M 1959 2075 
Q 2384 2075 2632 2365 
Q 2881 2656 2881 3163 
Q 2881 3666 2632 3958 
Q 2384 4250 1959 4250 
Q 1534 4250 1286 3958 
Q 1038 3666 1038 3163 
Q 1038 2656 1286 2365 
Q 1534 2075 1959 2075 
z
" transform="scale(0.015625)"/>
       </defs>
       <use xlink:href="#DejaVuSans-30"/>
       <use xlink:href="#DejaVuSans-2e" x="63.623047"/>
       <use xlink:href="#DejaVuSans-39" x="95.410156"/>
      </g>
     </g>
    </g>
    <g id="ytick_6">
     <g id="line2d_18">
      <path d="M 58.52 16.2 
L 349.2 16.2 
" clip-path="url(#p97f33bd284)" style="fill: none; stroke: #666666; stroke-width: 0.8; stroke-linecap: square"/>
     </g>
     <g id="line2d_19">
      <g>
       <use xlink:href="#me5c604c3f4" x="58.52" y="16.2" style="stroke: #000000; stroke-width: 0.8"/>
      </g>
     </g>
     <g id="text_14">
      <!-- 1.0 -->
      <g transform="translate(29.255625 21.518906)scale(0.14 -0.14)">
       <use xlink:href="#DejaVuSans-31"/>
       <use xlink:href="#DejaVuSans-2e" x="63.623047"/>
       <use xlink:href="#DejaVuSans-30" x="95.410156"/>
      </g>
     </g>
    </g>
    <g id="ytick_7">
     <g id="line2d_20">
      <path d="M 58.52 294.00864 
L 349.2 294.00864 
" clip-path="url(#p97f33bd284)" style="fill: none; stroke: #999999; stroke-opacity: 0.2; stroke-width: 0.8; stroke-linecap: square"/>
     </g>
     <g id="line2d_21">
      <defs>
       <path id="m4ada68fd1c" d="M 0 0 
L -2 0 
" style="stroke: #000000; stroke-width: 0.6"/>
      </defs>
      <g>
       <use xlink:href="#m4ada68fd1c" x="58.52" y="294.00864" style="stroke: #000000; stroke-width: 0.6"/>
      </g>
     </g>
    </g>
    <g id="ytick_8">
     <g id="line2d_22">
      <path d="M 58.52 282.43328 
L 349.2 282.43328 
" clip-path="url(#p97f33bd284)" style="fill: none; stroke: #999999; stroke-opacity: 0.2; stroke-width: 0.8; stroke-linecap: square"/>
     </g>
     <g id="line2d_23">
      <g>
       <use xlink:href="#m4ada68fd1c" x="58.52" y="282.43328" style="stroke: #000000; stroke-width: 0.6"/>
      </g>
     </g>
    </g>
    <g id="ytick_9">
     <g id="line2d_24">
      <path d="M 58.52 270.85792 
L 349.2 270.85792 
" clip-path="url(#p97f33bd284)" style="fill: none; stroke: #999999; stroke-opacity: 0.2; stroke-width: 0.8; stroke-linecap: square"/>
     </g>
     <g id="line2d_25">
      <g>
       <use xlink:href="#m4ada68fd1c" x="58.52" y="270.85792" style="stroke: #000000; stroke-width: 0.6"/>
      </g>
     </g>
    </g>
    <g id="ytick_10">
     <g id="line2d_26">
      <path d="M 58.52 259.28256 
L 349.2 259.28256 
" clip-path="url(#p97f33bd284)" style="fill: none; stroke: #999999; stroke-opacity: 0.2; stroke-width: 0.8; stroke-linecap: square"/>
     </g>
     <g id="line2d_27">
      <g>
       <use xlink:href="#m4ada68fd1c" x="58.52" y="259.28256" style="stroke: #000000; stroke-width: 0.6"/>
      </g>
     </g>
    </g>
    <g id="ytick_11">
     <g id="line2d_28">
      <path d="M 58.52 236.13184 
L 349.2 236.13184 
" clip-path="url(#p97f33bd284)" style="fill: none; stroke: #999999; stroke-opacity: 0.2; stroke-width: 0.8; stroke-linecap: square"/>
     </g>
     <g id="line2d_29">
      <g>
       <use xlink:href="#m4ada68fd1c" x="58.52" y="236.13184" style="stroke: #000000; stroke-width: 0.6"/>
      </g>
     </g>
    </g>
    <g id="ytick_12">
     <g id="line2d_30">
      <path d="M 58.52 224.55648 
L 349.2 224.55648 
" clip-path="url(#p97f33bd284)" style="fill: none; stroke: #999999; stroke-opacity: 0.2; stroke-width: 0.8; stroke-linecap: square"/>
     </g>
     <g id="line2d_31">
      <g>
       <use xlink:href="#m4ada68fd1c" x="58.52" y="224.55648" style="stroke: #000000; stroke-width: 0.6"/>
      </g>
     </g>
    </g>
    <g id="ytick_13">
     <g id="line2d_32">
      <path d="M 58.52 212.98112 
L 349.2 212.98112 
" clip-path="url(#p97f33bd284)" style="fill: none; stroke: #999999; stroke-opacity: 0.2; stroke-width: 0.8; stroke-linecap: square"/>
     </g>
     <g id="line2d_33">
      <g>
       <use xlink:href="#m4ada68fd1c" x="58.52" y="212.98112" style="stroke: #000000; stroke-width: 0.6"/>
      </g>
     </g>
    </g>
    <g id="ytick_14">
     <g id="line2d_34">
      <path d="M 58.52 201.40576 
L 349.2 201.40576 
" clip-path="url(#p97f33bd284)" style="fill: none; stroke: #999999; stroke-opacity: 0.2; stroke-width: 0.8; stroke-linecap: square"/>
     </g>
     <g id="line2d_35">
      <g>
       <use xlink:href="#m4ada68fd1c" x="58.52" y="201.40576" style="stroke: #000000; stroke-width: 0.6"/>
      </g>
     </g>
    </g>
    <g id="ytick_15">
     <g id="line2d_36">
      <path d="M 58.52 178.25504 
L 349.2 178.25504 
" clip-path="url(#p97f33bd284)" style="fill: none; stroke: #999999; stroke-opacity: 0.2; stroke-width: 0.8; stroke-linecap: square"/>
     </g>
     <g id="line2d_37">
      <g>
       <use xlink:href="#m4ada68fd1c" x="58.52" y="178.25504" style="stroke: #000000; stroke-width: 0.6"/>
      </g>
     </g>
    </g>
    <g id="ytick_16">
     <g id="line2d_38">
      <path d="M 58.52 166.67968 
L 349.2 166.67968 
" clip-path="url(#p97f33bd284)" style="fill: none; stroke: #999999; stroke-opacity: 0.2; stroke-width: 0.8; stroke-linecap: square"/>
     </g>
     <g id="line2d_39">
      <g>
       <use xlink:href="#m4ada68fd1c" x="58.52" y="166.67968" style="stroke: #000000; stroke-width: 0.6"/>
      </g>
     </g>
    </g>
    <g id="ytick_17">
     <g id="line2d_40">
      <path d="M 58.52 155.10432 
L 349.2 155.10432 
" clip-path="url(#p97f33bd284)" style="fill: none; stroke: #999999; stroke-opacity: 0.2; stroke-width: 0.8; stroke-linecap: square"/>
     </g>
     <g id="line2d_41">
      <g>
       <use xlink:href="#m4ada68fd1c" x="58.52" y="155.10432" style="stroke: #000000; stroke-width: 0.6"/>
      </g>
     </g>
    </g>
    <g id="ytick_18">
     <g id="line2d_42">
      <path d="M 58.52 143.52896 
L 349.2 143.52896 
" clip-path="url(#p97f33bd284)" style="fill: none; stroke: #999999; stroke-opacity: 0.2; stroke-width: 0.8; stroke-linecap: square"/>
     </g>
     <g id="line2d_43">
      <g>
       <use xlink:href="#m4ada68fd1c" x="58.52" y="143.52896" style="stroke: #000000; stroke-width: 0.6"/>
      </g>
     </g>
    </g>
    <g id="ytick_19">
     <g id="line2d_44">
      <path d="M 58.52 120.37824 
L 349.2 120.37824 
" clip-path="url(#p97f33bd284)" style="fill: none; stroke: #999999; stroke-opacity: 0.2; stroke-width: 0.8; stroke-linecap: square"/>
     </g>
     <g id="line2d_45">
      <g>
       <use xlink:href="#m4ada68fd1c" x="58.52" y="120.37824" style="stroke: #000000; stroke-width: 0.6"/>
      </g>
     </g>
    </g>
    <g id="ytick_20">
     <g id="line2d_46">
      <path d="M 58.52 108.80288 
L 349.2 108.80288 
" clip-path="url(#p97f33bd284)" style="fill: none; stroke: #999999; stroke-opacity: 0.2; stroke-width: 0.8; stroke-linecap: square"/>
     </g>
     <g id="line2d_47">
      <g>
       <use xlink:href="#m4ada68fd1c" x="58.52" y="108.80288" style="stroke: #000000; stroke-width: 0.6"/>
      </g>
     </g>
    </g>
    <g id="ytick_21">
     <g id="line2d_48">
      <path d="M 58.52 97.22752 
L 349.2 97.22752 
" clip-path="url(#p97f33bd284)" style="fill: none; stroke: #999999; stroke-opacity: 0.2; stroke-width: 0.8; stroke-linecap: square"/>
     </g>
     <g id="line2d_49">
      <g>
       <use xlink:href="#m4ada68fd1c" x="58.52" y="97.22752" style="stroke: #000000; stroke-width: 0.6"/>
      </g>
     </g>
    </g>
    <g id="ytick_22">
     <g id="line2d_50">
      <path d="M 58.52 85.65216 
L 349.2 85.65216 
" clip-path="url(#p97f33bd284)" style="fill: none; stroke: #999999; stroke-opacity: 0.2; stroke-width: 0.8; stroke-linecap: square"/>
     </g>
     <g id="line2d_51">
      <g>
       <use xlink:href="#m4ada68fd1c" x="58.52" y="85.65216" style="stroke: #000000; stroke-width: 0.6"/>
      </g>
     </g>
    </g>
    <g id="ytick_23">
     <g id="line2d_52">
      <path d="M 58.52 62.50144 
L 349.2 62.50144 
" clip-path="url(#p97f33bd284)" style="fill: none; stroke: #999999; stroke-opacity: 0.2; stroke-width: 0.8; stroke-linecap: square"/>
     </g>
     <g id="line2d_53">
      <g>
       <use xlink:href="#m4ada68fd1c" x="58.52" y="62.50144" style="stroke: #000000; stroke-width: 0.6"/>
      </g>
     </g>
    </g>
    <g id="ytick_24">
     <g id="line2d_54">
      <path d="M 58.52 50.92608 
L 349.2 50.92608 
" clip-path="url(#p97f33bd284)" style="fill: none; stroke: #999999; stroke-opacity: 0.2; stroke-width: 0.8; stroke-linecap: square"/>
     </g>
     <g id="line2d_55">
      <g>
       <use xlink:href="#m4ada68fd1c" x="58.52" y="50.92608" style="stroke: #000000; stroke-width: 0.6"/>
      </g>
     </g>
    </g>
    <g id="ytick_25">
     <g id="line2d_56">
      <path d="M 58.52 39.35072 
L 349.2 39.35072 
" clip-path="url(#p97f33bd284)" style="fill: none; stroke: #999999; stroke-opacity: 0.2; stroke-width: 0.8; stroke-linecap: square"/>
     </g>
     <g id="line2d_57">
      <g>
       <use xlink:href="#m4ada68fd1c" x="58.52" y="39.35072" style="stroke: #000000; stroke-width: 0.6"/>
      </g>
     </g>
    </g>
    <g id="ytick_26">
     <g id="line2d_58">
      <path d="M 58.52 27.77536 
L 349.2 27.77536 
" clip-path="url(#p97f33bd284)" style="fill: none; stroke: #999999; stroke-opacity: 0.2; stroke-width: 0.8; stroke-linecap: square"/>
     </g>
     <g id="line2d_59">
      <g>
       <use xlink:href="#m4ada68fd1c" x="58.52" y="27.77536" style="stroke: #000000; stroke-width: 0.6"/>
      </g>
     </g>
    </g>
    <g id="text_15">
     <!-- AUC-ROC -->
     <g transform="translate(21.928125 198.1345)rotate(-90)scale(0.16 -0.16)">
      <defs>
       <path id="DejaVuSans-41" d="M 2188 4044 
L 1331 1722 
L 3047 1722 
L 2188 4044 
z
M 1831 4666 
L 2547 4666 
L 4325 0 
L 3669 0 
L 3244 1197 
L 1141 1197 
L 716 0 
L 50 0 
L 1831 4666 
z
" transform="scale(0.015625)"/>
       <path id="DejaVuSans-55" d="M 556 4666 
L 1191 4666 
L 1191 1831 
Q 1191 1081 1462 751 
Q 1734 422 2344 422 
Q 2950 422 3222 751 
Q 3494 1081 3494 1831 
L 3494 4666 
L 4128 4666 
L 4128 1753 
Q 4128 841 3676 375 
Q 3225 -91 2344 -91 
Q 1459 -91 1007 375 
Q 556 841 556 1753 
L 556 4666 
z
" transform="scale(0.015625)"/>
       <path id="DejaVuSans-43" d="M 4122 4306 
L 4122 3641 
Q 3803 3938 3442 4084 
Q 3081 4231 2675 4231 
Q 1875 4231 1450 3742 
Q 1025 3253 1025 2328 
Q 1025 1406 1450 917 
Q 1875 428 2675 428 
Q 3081 428 3442 575 
Q 3803 722 4122 1019 
L 4122 359 
Q 3791 134 3420 21 
Q 3050 -91 2638 -91 
Q 1578 -91 968 557 
Q 359 1206 359 2328 
Q 359 3453 968 4101 
Q 1578 4750 2638 4750 
Q 3056 4750 3426 4639 
Q 3797 4528 4122 4306 
z
" transform="scale(0.015625)"/>
       <path id="DejaVuSans-2d" d="M 313 2009 
L 1997 2009 
L 1997 1497 
L 313 1497 
L 313 2009 
z
" transform="scale(0.015625)"/>
       <path id="DejaVuSans-52" d="M 2841 2188 
Q 3044 2119 3236 1894 
Q 3428 1669 3622 1275 
L 4263 0 
L 3584 0 
L 2988 1197 
Q 2756 1666 2539 1819 
Q 2322 1972 1947 1972 
L 1259 1972 
L 1259 0 
L 628 0 
L 628 4666 
L 2053 4666 
Q 2853 4666 3247 4331 
Q 3641 3997 3641 3322 
Q 3641 2881 3436 2590 
Q 3231 2300 2841 2188 
z
M 1259 4147 
L 1259 2491 
L 2053 2491 
Q 2509 2491 2742 2702 
Q 2975 2913 2975 3322 
Q 2975 3731 2742 3939 
Q 2509 4147 2053 4147 
L 1259 4147 
z
" transform="scale(0.015625)"/>
       <path id="DejaVuSans-4f" d="M 2522 4238 
Q 1834 4238 1429 3725 
Q 1025 3213 1025 2328 
Q 1025 1447 1429 934 
Q 1834 422 2522 422 
Q 3209 422 3611 934 
Q 4013 1447 4013 2328 
Q 4013 3213 3611 3725 
Q 3209 4238 2522 4238 
z
M 2522 4750 
Q 3503 4750 4090 4092 
Q 4678 3434 4678 2328 
Q 4678 1225 4090 567 
Q 3503 -91 2522 -91 
Q 1538 -91 948 565 
Q 359 1222 359 2328 
Q 359 3434 948 4092 
Q 1538 4750 2522 4750 
z
" transform="scale(0.015625)"/>
      </defs>
      <use xlink:href="#DejaVuSans-41"/>
      <use xlink:href="#DejaVuSans-55" x="68.408203"/>
      <use xlink:href="#DejaVuSans-43" x="141.601562"/>
      <use xlink:href="#DejaVuSans-2d" x="211.425781"/>
      <use xlink:href="#DejaVuSans-52" x="247.509766"/>
      <use xlink:href="#DejaVuSans-4f" x="316.992188"/>
      <use xlink:href="#DejaVuSans-43" x="395.703125"/>
     </g>
    </g>
   </g>
   <g id="PolyCollection_1">
    <defs>
     <path id="mb0a16af86b" d="M 89.923777 -178.139235 
L 85.252223 -178.139235 
L 85.070831 -178.711105 
L 84.892322 -179.282974 
L 84.717825 -179.854844 
L 84.548114 -180.426714 
L 84.383576 -180.998583 
L 84.224186 -181.570453 
L 84.069519 -182.142322 
L 83.918776 -182.714192 
L 83.770838 -183.286061 
L 83.624329 -183.857931 
L 83.477706 -184.4298 
L 83.329349 -185.00167 
L 83.177659 -185.57354 
L 83.021162 -186.145409 
L 82.858596 -186.717279 
L 82.688999 -187.289148 
L 82.511776 -187.861018 
L 82.326749 -188.432887 
L 82.134181 -189.004757 
L 81.934789 -189.576626 
L 81.729715 -190.148496 
L 81.520491 -190.720366 
L 81.308974 -191.292235 
L 81.097263 -191.864105 
L 80.887609 -192.435974 
L 80.682313 -193.007844 
L 80.483624 -193.579713 
L 80.29364 -194.151583 
L 80.114223 -194.723452 
L 79.946923 -195.295322 
L 79.792924 -195.867192 
L 79.653009 -196.439061 
L 79.527545 -197.010931 
L 79.416486 -197.5828 
L 79.319402 -198.15467 
L 79.235507 -198.726539 
L 79.163713 -199.298409 
L 79.102679 -199.870278 
L 79.050872 -200.442148 
L 79.006617 -201.014017 
L 78.968154 -201.585887 
L 78.933683 -202.157757 
L 78.901414 -202.729626 
L 78.869603 -203.301496 
L 78.836597 -203.873365 
L 78.800877 -204.445235 
L 78.761101 -205.017104 
L 78.716156 -205.588974 
L 78.665215 -206.160843 
L 78.607798 -206.732713 
L 78.543836 -207.304583 
L 78.473732 -207.876452 
L 78.398415 -208.448322 
L 78.319381 -209.020191 
L 78.238703 -209.592061 
L 78.159026 -210.16393 
L 78.083512 -210.7358 
L 78.015758 -211.307669 
L 77.959669 -211.879539 
L 77.9193 -212.451409 
L 77.898667 -213.023278 
L 77.901544 -213.595148 
L 77.931257 -214.167017 
L 77.99048 -214.738887 
L 78.081075 -215.310756 
L 78.203956 -215.882626 
L 78.359014 -216.454495 
L 78.545106 -217.026365 
L 78.760094 -217.598235 
L 79.000959 -218.170104 
L 79.263959 -218.741974 
L 79.544831 -219.313843 
L 79.83902 -219.885713 
L 80.141915 -220.457582 
L 80.44908 -221.029452 
L 80.756454 -221.601321 
L 81.060525 -222.173191 
L 81.35844 -222.745061 
L 81.648079 -223.31693 
L 81.928067 -223.8888 
L 82.197732 -224.460669 
L 82.457036 -225.032539 
L 82.706456 -225.604408 
L 82.946858 -226.176278 
L 83.179353 -226.748147 
L 83.405163 -227.320017 
L 83.625492 -227.891886 
L 83.841423 -228.463756 
L 84.053836 -229.035626 
L 84.263352 -229.607495 
L 84.470308 -230.179365 
L 84.674754 -230.751234 
L 84.876472 -231.323104 
L 85.075006 -231.894973 
L 85.269714 -232.466843 
L 85.459818 -233.038712 
L 85.644456 -233.610582 
L 85.822737 -234.182452 
L 85.993788 -234.754321 
L 89.182212 -234.754321 
L 89.182212 -234.754321 
L 89.353263 -234.182452 
L 89.531544 -233.610582 
L 89.716182 -233.038712 
L 89.906286 -232.466843 
L 90.100994 -231.894973 
L 90.299528 -231.323104 
L 90.501246 -230.751234 
L 90.705692 -230.179365 
L 90.912648 -229.607495 
L 91.122164 -229.035626 
L 91.334577 -228.463756 
L 91.550508 -227.891886 
L 91.770837 -227.320017 
L 91.996647 -226.748147 
L 92.229142 -226.176278 
L 92.469544 -225.604408 
L 92.718964 -225.032539 
L 92.978268 -224.460669 
L 93.247933 -223.8888 
L 93.527921 -223.31693 
L 93.81756 -222.745061 
L 94.115475 -222.173191 
L 94.419546 -221.601321 
L 94.72692 -221.029452 
L 95.034085 -220.457582 
L 95.33698 -219.885713 
L 95.631169 -219.313843 
L 95.912041 -218.741974 
L 96.175041 -218.170104 
L 96.415906 -217.598235 
L 96.630894 -217.026365 
L 96.816986 -216.454495 
L 96.972044 -215.882626 
L 97.094925 -215.310756 
L 97.18552 -214.738887 
L 97.244743 -214.167017 
L 97.274456 -213.595148 
L 97.277333 -213.023278 
L 97.2567 -212.451409 
L 97.216331 -211.879539 
L 97.160242 -211.307669 
L 97.092488 -210.7358 
L 97.016974 -210.16393 
L 96.937297 -209.592061 
L 96.856619 -209.020191 
L 96.777585 -208.448322 
L 96.702268 -207.876452 
L 96.632164 -207.304583 
L 96.568202 -206.732713 
L 96.510785 -206.160843 
L 96.459844 -205.588974 
L 96.414899 -205.017104 
L 96.375123 -204.445235 
L 96.339403 -203.873365 
L 96.306397 -203.301496 
L 96.274586 -202.729626 
L 96.242317 -202.157757 
L 96.207846 -201.585887 
L 96.169383 -201.014017 
L 96.125128 -200.442148 
L 96.073321 -199.870278 
L 96.012287 -199.298409 
L 95.940493 -198.726539 
L 95.856598 -198.15467 
L 95.759514 -197.5828 
L 95.648455 -197.010931 
L 95.522991 -196.439061 
L 95.383076 -195.867192 
L 95.229077 -195.295322 
L 95.061777 -194.723452 
L 94.88236 -194.151583 
L 94.692376 -193.579713 
L 94.493687 -193.007844 
L 94.288391 -192.435974 
L 94.078737 -191.864105 
L 93.867026 -191.292235 
L 93.655509 -190.720366 
L 93.446285 -190.148496 
L 93.241211 -189.576626 
L 93.041819 -189.004757 
L 92.849251 -188.432887 
L 92.664224 -187.861018 
L 92.487001 -187.289148 
L 92.317404 -186.717279 
L 92.154838 -186.145409 
L 91.998341 -185.57354 
L 91.846651 -185.00167 
L 91.698294 -184.4298 
L 91.551671 -183.857931 
L 91.405162 -183.286061 
L 91.257224 -182.714192 
L 91.106481 -182.142322 
L 90.951814 -181.570453 
L 90.792424 -180.998583 
L 90.627886 -180.426714 
L 90.458175 -179.854844 
L 90.283678 -179.282974 
L 90.105169 -178.711105 
L 89.923777 -178.139235 
z
" style="stroke: #000000"/>
    </defs>
    <g clip-path="url(#p97f33bd284)">
     <use xlink:href="#mb0a16af86b" x="0" y="360" style="fill: #deebf7; stroke: #000000"/>
    </g>
   </g>
   <g id="PolyCollection_2">
    <defs>
     <path id="m90afe649cb" d="M 127.022476 -206.932943 
L 125.668191 -206.932943 
L 125.602439 -207.531997 
L 125.539269 -208.131052 
L 125.479417 -208.730106 
L 125.423129 -209.32916 
L 125.37004 -209.928214 
L 125.319088 -210.527268 
L 125.268473 -211.126322 
L 125.215692 -211.725376 
L 125.15763 -212.32443 
L 125.090718 -212.923484 
L 125.011144 -213.522539 
L 124.915103 -214.121593 
L 124.799049 -214.720647 
L 124.659939 -215.319701 
L 124.495435 -215.918755 
L 124.304045 -216.517809 
L 124.085208 -217.116863 
L 123.839297 -217.715917 
L 123.567574 -218.314971 
L 123.272094 -218.914026 
L 122.955577 -219.51308 
L 122.621272 -220.112134 
L 122.27282 -220.711188 
L 121.91412 -221.310242 
L 121.549204 -221.909296 
L 121.18212 -222.50835 
L 120.816809 -223.107404 
L 120.456985 -223.706458 
L 120.106 -224.305513 
L 119.766731 -224.904567 
L 119.441472 -225.503621 
L 119.131867 -226.102675 
L 118.838905 -226.701729 
L 118.562976 -227.300783 
L 118.304008 -227.899837 
L 118.061669 -228.498891 
L 117.835607 -229.097945 
L 117.625702 -229.697 
L 117.432278 -230.296054 
L 117.256236 -230.895108 
L 117.099064 -231.494162 
L 116.962721 -232.093216 
L 116.84938 -232.69227 
L 116.761072 -233.291324 
L 116.699272 -233.890378 
L 116.664498 -234.489432 
L 116.656 -235.088487 
L 116.671588 -235.687541 
L 116.707668 -236.286595 
L 116.759485 -236.885649 
L 116.821572 -237.484703 
L 116.888348 -238.083757 
L 116.954791 -238.682811 
L 117.017092 -239.281865 
L 117.073196 -239.880919 
L 117.123138 -240.479974 
L 117.169137 -241.079028 
L 117.215408 -241.678082 
L 117.267729 -242.277136 
L 117.332811 -242.87619 
L 117.417569 -243.475244 
L 117.528375 -244.074298 
L 117.670411 -244.673352 
L 117.847179 -245.272406 
L 118.060242 -245.871461 
L 118.309183 -246.470515 
L 118.591788 -247.069569 
L 118.904389 -247.668623 
L 119.242307 -248.267677 
L 119.600312 -248.866731 
L 119.973055 -249.465785 
L 120.355395 -250.064839 
L 120.742617 -250.663893 
L 121.130533 -251.262948 
L 121.51548 -251.862002 
L 121.894248 -252.461056 
L 122.263981 -253.06011 
L 122.622091 -253.659164 
L 122.96619 -254.258218 
L 123.294082 -254.857272 
L 123.603788 -255.456326 
L 123.893607 -256.05538 
L 124.162196 -256.654435 
L 124.408632 -257.253489 
L 124.632462 -257.852543 
L 124.833718 -258.451597 
L 125.012891 -259.050651 
L 125.170888 -259.649705 
L 125.308963 -260.248759 
L 125.428634 -260.847813 
L 125.531619 -261.446867 
L 125.619757 -262.045922 
L 125.694954 -262.644976 
L 125.759127 -263.24403 
L 125.814159 -263.843084 
L 125.861846 -264.442138 
L 125.903847 -265.041192 
L 125.941638 -265.640246 
L 125.976464 -266.2393 
L 126.714203 -266.2393 
L 126.714203 -266.2393 
L 126.749028 -265.640246 
L 126.786819 -265.041192 
L 126.828821 -264.442138 
L 126.876507 -263.843084 
L 126.93154 -263.24403 
L 126.995713 -262.644976 
L 127.07091 -262.045922 
L 127.159048 -261.446867 
L 127.262032 -260.847813 
L 127.381704 -260.248759 
L 127.519778 -259.649705 
L 127.677776 -259.050651 
L 127.856949 -258.451597 
L 128.058204 -257.852543 
L 128.282035 -257.253489 
L 128.528471 -256.654435 
L 128.79706 -256.05538 
L 129.086879 -255.456326 
L 129.396584 -254.857272 
L 129.724476 -254.258218 
L 130.068576 -253.659164 
L 130.426685 -253.06011 
L 130.796419 -252.461056 
L 131.175186 -251.862002 
L 131.560133 -251.262948 
L 131.94805 -250.663893 
L 132.335272 -250.064839 
L 132.717611 -249.465785 
L 133.090354 -248.866731 
L 133.44836 -248.267677 
L 133.786278 -247.668623 
L 134.098879 -247.069569 
L 134.381484 -246.470515 
L 134.630424 -245.871461 
L 134.843487 -245.272406 
L 135.020256 -244.673352 
L 135.162292 -244.074298 
L 135.273098 -243.475244 
L 135.357855 -242.87619 
L 135.422938 -242.277136 
L 135.475258 -241.678082 
L 135.521529 -241.079028 
L 135.567529 -240.479974 
L 135.617471 -239.880919 
L 135.673574 -239.281865 
L 135.735876 -238.682811 
L 135.802319 -238.083757 
L 135.869095 -237.484703 
L 135.931182 -236.885649 
L 135.982999 -236.286595 
L 136.019079 -235.687541 
L 136.034667 -235.088487 
L 136.026168 -234.489432 
L 135.991395 -233.890378 
L 135.929594 -233.291324 
L 135.841286 -232.69227 
L 135.727946 -232.093216 
L 135.591603 -231.494162 
L 135.434431 -230.895108 
L 135.258388 -230.296054 
L 135.064965 -229.697 
L 134.85506 -229.097945 
L 134.628998 -228.498891 
L 134.386658 -227.899837 
L 134.127691 -227.300783 
L 133.851762 -226.701729 
L 133.5588 -226.102675 
L 133.249195 -225.503621 
L 132.923935 -224.904567 
L 132.584667 -224.305513 
L 132.233682 -223.706458 
L 131.873857 -223.107404 
L 131.508547 -222.50835 
L 131.141463 -221.909296 
L 130.776547 -221.310242 
L 130.417846 -220.711188 
L 130.069395 -220.112134 
L 129.73509 -219.51308 
L 129.418573 -218.914026 
L 129.123093 -218.314971 
L 128.85137 -217.715917 
L 128.605459 -217.116863 
L 128.386621 -216.517809 
L 128.195232 -215.918755 
L 128.030727 -215.319701 
L 127.891618 -214.720647 
L 127.775564 -214.121593 
L 127.679523 -213.522539 
L 127.599949 -212.923484 
L 127.533036 -212.32443 
L 127.474974 -211.725376 
L 127.422194 -211.126322 
L 127.371579 -210.527268 
L 127.320626 -209.928214 
L 127.267538 -209.32916 
L 127.21125 -208.730106 
L 127.151398 -208.131052 
L 127.088227 -207.531997 
L 127.022476 -206.932943 
z
" style="stroke: #000000"/>
    </defs>
    <g clip-path="url(#p97f33bd284)">
     <use xlink:href="#m90afe649cb" x="0" y="360" style="fill: #deebf7; stroke: #000000"/>
    </g>
   </g>
   <g id="PolyCollection_3">
    <defs>
     <path id="m87e25f0ee4" d="M 165.713051 -236.855249 
L 164.492283 -236.855249 
L 164.433082 -237.40426 
L 164.374895 -237.953271 
L 164.318207 -238.502282 
L 164.263299 -239.051294 
L 164.21023 -239.600305 
L 164.158828 -240.149316 
L 164.108684 -240.698327 
L 164.059156 -241.247338 
L 164.009368 -241.796349 
L 163.958209 -242.34536 
L 163.904328 -242.894372 
L 163.846129 -243.443383 
L 163.781775 -243.992394 
L 163.709204 -244.541405 
L 163.626179 -245.090416 
L 163.53036 -245.639427 
L 163.419425 -246.188438 
L 163.291227 -246.737449 
L 163.143985 -247.286461 
L 162.976493 -247.835472 
L 162.788325 -248.384483 
L 162.580005 -248.933494 
L 162.353125 -249.482505 
L 162.110367 -250.031516 
L 161.85542 -250.580527 
L 161.592779 -251.129539 
L 161.32743 -251.67855 
L 161.064443 -252.227561 
L 160.808507 -252.776572 
L 160.563461 -253.325583 
L 160.331865 -253.874594 
L 160.114681 -254.423605 
L 159.911095 -254.972617 
L 159.718528 -255.521628 
L 159.532836 -256.070639 
L 159.348699 -256.61965 
L 159.160165 -257.168661 
L 158.961288 -257.717672 
L 158.746809 -258.266683 
L 158.512803 -258.815695 
L 158.257211 -259.364706 
L 157.980226 -259.913717 
L 157.684461 -260.462728 
L 157.374911 -261.011739 
L 157.058691 -261.56075 
L 156.744602 -262.109761 
L 156.442545 -262.658773 
L 156.162873 -263.207784 
L 155.915703 -263.756795 
L 155.710289 -264.305806 
L 155.55446 -264.854817 
L 155.454197 -265.403828 
L 155.413333 -265.952839 
L 155.433411 -266.501851 
L 155.513676 -267.050862 
L 155.651203 -267.599873 
L 155.841141 -268.148884 
L 156.077046 -268.697895 
L 156.351299 -269.246906 
L 156.655573 -269.795917 
L 156.981329 -270.344929 
L 157.320302 -270.89394 
L 157.664954 -271.442951 
L 158.008852 -271.991962 
L 158.346954 -272.540973 
L 158.675758 -273.089984 
L 158.993331 -273.638995 
L 159.2992 -274.188006 
L 159.594127 -274.737018 
L 159.879798 -275.286029 
L 160.158458 -275.83504 
L 160.432524 -276.384051 
L 160.704226 -276.933062 
L 160.975293 -277.482073 
L 161.246716 -278.031084 
L 161.518604 -278.580096 
L 161.790123 -279.129107 
L 162.059538 -279.678118 
L 162.324334 -280.227129 
L 162.581397 -280.77614 
L 162.827262 -281.325151 
L 163.058376 -281.874162 
L 163.271387 -282.423174 
L 163.463411 -282.972185 
L 163.632273 -283.521196 
L 163.776703 -284.070207 
L 163.896455 -284.619218 
L 163.992357 -285.168229 
L 164.066278 -285.71724 
L 164.121004 -286.266252 
L 164.160055 -286.815263 
L 164.187428 -287.364274 
L 164.20732 -287.913285 
L 164.223825 -288.462296 
L 164.240661 -289.011307 
L 164.26093 -289.560318 
L 164.286946 -290.10933 
L 164.320137 -290.658341 
L 164.361029 -291.207352 
L 165.844304 -291.207352 
L 165.844304 -291.207352 
L 165.885197 -290.658341 
L 165.918388 -290.10933 
L 165.944404 -289.560318 
L 165.964673 -289.011307 
L 165.981509 -288.462296 
L 165.998014 -287.913285 
L 166.017905 -287.364274 
L 166.045279 -286.815263 
L 166.084329 -286.266252 
L 166.139056 -285.71724 
L 166.212976 -285.168229 
L 166.308878 -284.619218 
L 166.42863 -284.070207 
L 166.57306 -283.521196 
L 166.741923 -282.972185 
L 166.933946 -282.423174 
L 167.146957 -281.874162 
L 167.378072 -281.325151 
L 167.623936 -280.77614 
L 167.881 -280.227129 
L 168.145795 -279.678118 
L 168.415211 -279.129107 
L 168.68673 -278.580096 
L 168.958617 -278.031084 
L 169.230041 -277.482073 
L 169.501107 -276.933062 
L 169.772809 -276.384051 
L 170.046875 -275.83504 
L 170.325535 -275.286029 
L 170.611207 -274.737018 
L 170.906134 -274.188006 
L 171.212002 -273.638995 
L 171.529576 -273.089984 
L 171.858379 -272.540973 
L 172.196481 -271.991962 
L 172.54038 -271.442951 
L 172.885031 -270.89394 
L 173.224004 -270.344929 
L 173.54976 -269.795917 
L 173.854035 -269.246906 
L 174.128288 -268.697895 
L 174.364192 -268.148884 
L 174.55413 -267.599873 
L 174.691658 -267.050862 
L 174.771922 -266.501851 
L 174.792 -265.952839 
L 174.751136 -265.403828 
L 174.650873 -264.854817 
L 174.495045 -264.305806 
L 174.28963 -263.756795 
L 174.042461 -263.207784 
L 173.762788 -262.658773 
L 173.460732 -262.109761 
L 173.146642 -261.56075 
L 172.830423 -261.011739 
L 172.520872 -260.462728 
L 172.225107 -259.913717 
L 171.948122 -259.364706 
L 171.692531 -258.815695 
L 171.458524 -258.266683 
L 171.244045 -257.717672 
L 171.045168 -257.168661 
L 170.856634 -256.61965 
L 170.672498 -256.070639 
L 170.486806 -255.521628 
L 170.294239 -254.972617 
L 170.090653 -254.423605 
L 169.873468 -253.874594 
L 169.641872 -253.325583 
L 169.396826 -252.776572 
L 169.14089 -252.227561 
L 168.877903 -251.67855 
L 168.612555 -251.129539 
L 168.349914 -250.580527 
L 168.094967 -250.031516 
L 167.852208 -249.482505 
L 167.625328 -248.933494 
L 167.417008 -248.384483 
L 167.22884 -247.835472 
L 167.061348 -247.286461 
L 166.914107 -246.737449 
L 166.785909 -246.188438 
L 166.674973 -245.639427 
L 166.579154 -245.090416 
L 166.496129 -244.541405 
L 166.423559 -243.992394 
L 166.359204 -243.443383 
L 166.301005 -242.894372 
L 166.247124 -242.34536 
L 166.195966 -241.796349 
L 166.146178 -241.247338 
L 166.09665 -240.698327 
L 166.046505 -240.149316 
L 165.995103 -239.600305 
L 165.942035 -239.051294 
L 165.887126 -238.502282 
L 165.830438 -237.953271 
L 165.772251 -237.40426 
L 165.713051 -236.855249 
z
" style="stroke: #000000"/>
    </defs>
    <g clip-path="url(#p97f33bd284)">
     <use xlink:href="#m87e25f0ee4" x="0" y="360" style="fill: #deebf7; stroke: #000000"/>
    </g>
   </g>
   <g id="PolyCollection_4">
    <defs>
     <path id="md2eaaf77e6" d="M 204.603844 -250.062735 
L 203.116156 -250.062735 
L 203.03495 -250.552817 
L 202.950452 -251.042899 
L 202.862535 -251.532981 
L 202.770895 -252.023063 
L 202.67506 -252.513145 
L 202.574411 -253.003227 
L 202.46822 -253.493309 
L 202.355697 -253.983391 
L 202.236039 -254.473473 
L 202.108473 -254.963555 
L 201.972293 -255.453637 
L 201.826881 -255.943719 
L 201.671717 -256.433801 
L 201.506372 -256.923883 
L 201.330496 -257.413965 
L 201.143806 -257.904047 
L 200.94608 -258.394129 
L 200.737169 -258.884211 
L 200.517028 -259.374293 
L 200.285771 -259.864375 
L 200.04374 -260.354457 
L 199.791586 -260.844539 
L 199.530343 -261.334622 
L 199.261476 -261.824704 
L 198.986896 -262.314786 
L 198.70892 -262.804868 
L 198.430178 -263.29495 
L 198.153466 -263.785032 
L 197.881558 -264.275114 
L 197.617 -264.765196 
L 197.361914 -265.255278 
L 197.11784 -265.74536 
L 196.885634 -266.235442 
L 196.665456 -266.725524 
L 196.456829 -267.215606 
L 196.258789 -267.705688 
L 196.070079 -268.19577 
L 195.889379 -268.685852 
L 195.715529 -269.175934 
L 195.547713 -269.666016 
L 195.385581 -270.156098 
L 195.229299 -270.64618 
L 195.079513 -271.136262 
L 194.937254 -271.626344 
L 194.80379 -272.116426 
L 194.680468 -272.606508 
L 194.568561 -273.09659 
L 194.469155 -273.586672 
L 194.38309 -274.076754 
L 194.310971 -274.566836 
L 194.253229 -275.056918 
L 194.210243 -275.547001 
L 194.182485 -276.037083 
L 194.170667 -276.527165 
L 194.17586 -277.017247 
L 194.199565 -277.507329 
L 194.243706 -277.997411 
L 194.310536 -278.487493 
L 194.402463 -278.977575 
L 194.521798 -279.467657 
L 194.670448 -279.957739 
L 194.849594 -280.447821 
L 195.059391 -280.937903 
L 195.298727 -281.427985 
L 195.565088 -281.918067 
L 195.854547 -282.408149 
L 196.161902 -282.898231 
L 196.480957 -283.388313 
L 196.804921 -283.878395 
L 197.126905 -284.368477 
L 197.440441 -284.858559 
L 197.739999 -285.348641 
L 198.02142 -285.838723 
L 198.282225 -286.328805 
L 198.521772 -286.818887 
L 198.741232 -287.308969 
L 198.943396 -287.799051 
L 199.132324 -288.289133 
L 199.312888 -288.779215 
L 199.490257 -289.269297 
L 199.669371 -289.75938 
L 199.854466 -290.249462 
L 200.048696 -290.739544 
L 200.253885 -291.229626 
L 200.470419 -291.719708 
L 200.697289 -292.20979 
L 200.932264 -292.699872 
L 201.172154 -293.189954 
L 201.413157 -293.680036 
L 201.651212 -294.170118 
L 201.882347 -294.6602 
L 202.102983 -295.150282 
L 202.310158 -295.640364 
L 202.501681 -296.130446 
L 202.676186 -296.620528 
L 202.833118 -297.11061 
L 202.972646 -297.600692 
L 203.095531 -298.090774 
L 203.202972 -298.580856 
L 204.517028 -298.580856 
L 204.517028 -298.580856 
L 204.624469 -298.090774 
L 204.747354 -297.600692 
L 204.886882 -297.11061 
L 205.043814 -296.620528 
L 205.218319 -296.130446 
L 205.409842 -295.640364 
L 205.617017 -295.150282 
L 205.837653 -294.6602 
L 206.068788 -294.170118 
L 206.306843 -293.680036 
L 206.547846 -293.189954 
L 206.787736 -292.699872 
L 207.022711 -292.20979 
L 207.249581 -291.719708 
L 207.466115 -291.229626 
L 207.671304 -290.739544 
L 207.865534 -290.249462 
L 208.050629 -289.75938 
L 208.229743 -289.269297 
L 208.407112 -288.779215 
L 208.587676 -288.289133 
L 208.776604 -287.799051 
L 208.978768 -287.308969 
L 209.198228 -286.818887 
L 209.437775 -286.328805 
L 209.69858 -285.838723 
L 209.980001 -285.348641 
L 210.279559 -284.858559 
L 210.593095 -284.368477 
L 210.915079 -283.878395 
L 211.239043 -283.388313 
L 211.558098 -282.898231 
L 211.865453 -282.408149 
L 212.154912 -281.918067 
L 212.421273 -281.427985 
L 212.660609 -280.937903 
L 212.870406 -280.447821 
L 213.049552 -279.957739 
L 213.198202 -279.467657 
L 213.317537 -278.977575 
L 213.409464 -278.487493 
L 213.476294 -277.997411 
L 213.520435 -277.507329 
L 213.54414 -277.017247 
L 213.549333 -276.527165 
L 213.537515 -276.037083 
L 213.509757 -275.547001 
L 213.466771 -275.056918 
L 213.409029 -274.566836 
L 213.33691 -274.076754 
L 213.250845 -273.586672 
L 213.151439 -273.09659 
L 213.039532 -272.606508 
L 212.91621 -272.116426 
L 212.782746 -271.626344 
L 212.640487 -271.136262 
L 212.490701 -270.64618 
L 212.334419 -270.156098 
L 212.172287 -269.666016 
L 212.004471 -269.175934 
L 211.830621 -268.685852 
L 211.649921 -268.19577 
L 211.461211 -267.705688 
L 211.263171 -267.215606 
L 211.054544 -266.725524 
L 210.834366 -266.235442 
L 210.60216 -265.74536 
L 210.358086 -265.255278 
L 210.103 -264.765196 
L 209.838442 -264.275114 
L 209.566534 -263.785032 
L 209.289822 -263.29495 
L 209.01108 -262.804868 
L 208.733104 -262.314786 
L 208.458524 -261.824704 
L 208.189657 -261.334622 
L 207.928414 -260.844539 
L 207.67626 -260.354457 
L 207.434229 -259.864375 
L 207.202972 -259.374293 
L 206.982831 -258.884211 
L 206.77392 -258.394129 
L 206.576194 -257.904047 
L 206.389504 -257.413965 
L 206.213628 -256.923883 
L 206.048283 -256.433801 
L 205.893119 -255.943719 
L 205.747707 -255.453637 
L 205.611527 -254.963555 
L 205.483961 -254.473473 
L 205.364303 -253.983391 
L 205.25178 -253.493309 
L 205.145589 -253.003227 
L 205.04494 -252.513145 
L 204.949105 -252.023063 
L 204.857465 -251.532981 
L 204.769548 -251.042899 
L 204.68505 -250.552817 
L 204.603844 -250.062735 
z
" style="stroke: #000000"/>
    </defs>
    <g clip-path="url(#p97f33bd284)">
     <use xlink:href="#md2eaaf77e6" x="0" y="360" style="fill: #deebf7; stroke: #000000"/>
    </g>
   </g>
   <g id="PolyCollection_5">
    <defs>
     <path id="m6c38b08676" d="M 244.412363 -258.518535 
L 240.822303 -258.518535 
L 240.596683 -258.970734 
L 240.36445 -259.422933 
L 240.129339 -259.875132 
L 239.895429 -260.327331 
L 239.666968 -260.77953 
L 239.448169 -261.231729 
L 239.242985 -261.683928 
L 239.054884 -262.136128 
L 238.886644 -262.588327 
L 238.740181 -263.040526 
L 238.616416 -263.492725 
L 238.515219 -263.944924 
L 238.435405 -264.397123 
L 238.374816 -264.849322 
L 238.330457 -265.301521 
L 238.298693 -265.75372 
L 238.275481 -266.205919 
L 238.256632 -266.658118 
L 238.238057 -267.110317 
L 238.216003 -267.562516 
L 238.187244 -268.014715 
L 238.149214 -268.466914 
L 238.100079 -268.919113 
L 238.038752 -269.371312 
L 237.964835 -269.823511 
L 237.878522 -270.27571 
L 237.780468 -270.727909 
L 237.671639 -271.180108 
L 237.553161 -271.632307 
L 237.426193 -272.084506 
L 237.291819 -272.536705 
L 237.150975 -272.988904 
L 237.004413 -273.441103 
L 236.852694 -273.893303 
L 236.696203 -274.345502 
L 236.535179 -274.797701 
L 236.369752 -275.2499 
L 236.199974 -275.702099 
L 236.025847 -276.154298 
L 235.847349 -276.606497 
L 235.664447 -277.058696 
L 235.477125 -277.510895 
L 235.285416 -277.963094 
L 235.089451 -278.415293 
L 234.889537 -278.867492 
L 234.686248 -279.319691 
L 234.480539 -279.77189 
L 234.273863 -280.224089 
L 234.068286 -280.676288 
L 233.866569 -281.128487 
L 233.672215 -281.580686 
L 233.489453 -282.032885 
L 233.323152 -282.485084 
L 233.178663 -282.937283 
L 233.061581 -283.389482 
L 232.977454 -283.841681 
L 232.931449 -284.29388 
L 232.928 -284.746079 
L 232.970477 -285.198278 
L 233.0609 -285.650478 
L 233.19973 -286.102677 
L 233.385759 -286.554876 
L 233.616115 -287.007075 
L 233.88638 -287.459274 
L 234.190823 -287.911473 
L 234.522722 -288.363672 
L 234.874751 -288.815871 
L 235.239405 -289.26807 
L 235.609412 -289.720269 
L 235.978119 -290.172468 
L 236.339811 -290.624667 
L 236.689935 -291.076866 
L 237.025226 -291.529065 
L 237.343738 -291.981264 
L 237.644761 -292.433463 
L 237.928666 -292.885662 
L 238.196684 -293.337861 
L 238.450646 -293.79006 
L 238.69271 -294.242259 
L 238.925103 -294.694458 
L 239.149887 -295.146657 
L 239.368781 -295.598856 
L 239.583031 -296.051055 
L 239.79335 -296.503254 
L 239.999905 -296.955453 
L 240.202369 -297.407653 
L 240.400001 -297.859852 
L 240.591764 -298.312051 
L 240.776451 -298.76425 
L 240.952818 -299.216449 
L 241.119699 -299.668648 
L 241.276109 -300.120847 
L 241.421317 -300.573046 
L 241.554888 -301.025245 
L 241.676696 -301.477444 
L 241.786914 -301.929643 
L 241.885977 -302.381842 
L 241.974532 -302.834041 
L 242.053375 -303.28624 
L 243.181292 -303.28624 
L 243.181292 -303.28624 
L 243.260135 -302.834041 
L 243.34869 -302.381842 
L 243.447753 -301.929643 
L 243.557971 -301.477444 
L 243.679779 -301.025245 
L 243.813349 -300.573046 
L 243.958557 -300.120847 
L 244.114968 -299.668648 
L 244.281849 -299.216449 
L 244.458216 -298.76425 
L 244.642903 -298.312051 
L 244.834666 -297.859852 
L 245.032298 -297.407653 
L 245.234762 -296.955453 
L 245.441317 -296.503254 
L 245.651635 -296.051055 
L 245.865886 -295.598856 
L 246.084779 -295.146657 
L 246.309564 -294.694458 
L 246.541956 -294.242259 
L 246.784021 -293.79006 
L 247.037983 -293.337861 
L 247.306001 -292.885662 
L 247.589905 -292.433463 
L 247.890928 -291.981264 
L 248.20944 -291.529065 
L 248.544732 -291.076866 
L 248.894855 -290.624667 
L 249.256547 -290.172468 
L 249.625255 -289.720269 
L 249.995262 -289.26807 
L 250.359915 -288.815871 
L 250.711945 -288.363672 
L 251.043844 -287.911473 
L 251.348287 -287.459274 
L 251.618552 -287.007075 
L 251.848908 -286.554876 
L 252.034937 -286.102677 
L 252.173767 -285.650478 
L 252.26419 -285.198278 
L 252.306667 -284.746079 
L 252.303218 -284.29388 
L 252.257213 -283.841681 
L 252.173086 -283.389482 
L 252.056004 -282.937283 
L 251.911515 -282.485084 
L 251.745214 -282.032885 
L 251.562452 -281.580686 
L 251.368098 -281.128487 
L 251.166381 -280.676288 
L 250.960803 -280.224089 
L 250.754128 -279.77189 
L 250.548419 -279.319691 
L 250.34513 -278.867492 
L 250.145216 -278.415293 
L 249.949251 -277.963094 
L 249.757541 -277.510895 
L 249.570219 -277.058696 
L 249.387318 -276.606497 
L 249.208819 -276.154298 
L 249.034693 -275.702099 
L 248.864914 -275.2499 
L 248.699487 -274.797701 
L 248.538464 -274.345502 
L 248.381973 -273.893303 
L 248.230254 -273.441103 
L 248.083692 -272.988904 
L 247.942848 -272.536705 
L 247.808473 -272.084506 
L 247.681506 -271.632307 
L 247.563028 -271.180108 
L 247.454198 -270.727909 
L 247.356144 -270.27571 
L 247.269832 -269.823511 
L 247.195914 -269.371312 
L 247.134587 -268.919113 
L 247.085453 -268.466914 
L 247.047422 -268.014715 
L 247.018663 -267.562516 
L 246.99661 -267.110317 
L 246.978035 -266.658118 
L 246.959185 -266.205919 
L 246.935974 -265.75372 
L 246.904209 -265.301521 
L 246.85985 -264.849322 
L 246.799262 -264.397123 
L 246.719448 -263.944924 
L 246.61825 -263.492725 
L 246.494486 -263.040526 
L 246.348022 -262.588327 
L 246.179783 -262.136128 
L 245.991682 -261.683928 
L 245.786497 -261.231729 
L 245.567699 -260.77953 
L 245.339238 -260.327331 
L 245.105328 -259.875132 
L 244.870217 -259.422933 
L 244.637984 -258.970734 
L 244.412363 -258.518535 
z
" style="stroke: #000000"/>
    </defs>
    <g clip-path="url(#p97f33bd284)">
     <use xlink:href="#m6c38b08676" x="0" y="360" style="fill: #deebf7; stroke: #000000"/>
    </g>
   </g>
   <g id="PolyCollection_6">
    <defs>
     <path id="me8b6d071f8" d="M 282.704521 -268.542797 
L 280.044812 -268.542797 
L 279.849057 -268.977399 
L 279.640359 -269.412001 
L 279.421105 -269.846603 
L 279.194296 -270.281206 
L 278.963454 -270.715808 
L 278.732478 -271.15041 
L 278.505442 -271.585012 
L 278.286362 -272.019614 
L 278.078933 -272.454216 
L 277.886267 -272.888818 
L 277.710659 -273.323421 
L 277.553394 -273.758023 
L 277.414614 -274.192625 
L 277.29328 -274.627227 
L 277.187204 -275.061829 
L 277.093173 -275.496431 
L 277.007147 -275.931034 
L 276.924514 -276.365636 
L 276.840376 -276.800238 
L 276.749852 -277.23484 
L 276.648368 -277.669442 
L 276.531906 -278.104044 
L 276.397207 -278.538646 
L 276.241906 -278.973249 
L 276.064609 -279.407851 
L 275.864896 -279.842453 
L 275.643281 -280.277055 
L 275.401126 -280.711657 
L 275.140534 -281.146259 
L 274.864236 -281.580862 
L 274.57549 -282.015464 
L 274.277989 -282.450066 
L 273.975797 -282.884668 
L 273.673298 -283.31927 
L 273.37516 -283.753872 
L 273.086282 -284.188474 
L 272.811741 -284.623077 
L 272.556686 -285.057679 
L 272.326206 -285.492281 
L 272.125152 -285.926883 
L 271.957912 -286.361485 
L 271.828173 -286.796087 
L 271.738677 -287.23069 
L 271.69099 -287.665292 
L 271.685333 -288.099894 
L 271.72047 -288.534496 
L 271.793695 -288.969098 
L 271.900913 -289.4037 
L 272.036825 -289.838302 
L 272.195203 -290.272905 
L 272.369239 -290.707507 
L 272.551942 -291.142109 
L 272.736555 -291.576711 
L 272.916962 -292.011313 
L 273.088052 -292.445915 
L 273.246014 -292.880518 
L 273.388541 -293.31512 
L 273.514934 -293.749722 
L 273.626095 -294.184324 
L 273.724407 -294.618926 
L 273.813526 -295.053528 
L 273.898087 -295.48813 
L 273.983359 -295.922733 
L 274.074872 -296.357335 
L 274.178041 -296.791937 
L 274.297824 -297.226539 
L 274.438429 -297.661141 
L 274.603091 -298.095743 
L 274.793924 -298.530345 
L 275.011863 -298.964948 
L 275.256672 -299.39955 
L 275.527021 -299.834152 
L 275.820611 -300.268754 
L 276.134327 -300.703356 
L 276.464417 -301.137958 
L 276.806659 -301.572561 
L 277.156536 -302.007163 
L 277.509386 -302.441765 
L 277.86055 -302.876367 
L 278.205499 -303.310969 
L 278.539951 -303.745571 
L 278.859985 -304.180173 
L 279.162136 -304.614776 
L 279.443486 -305.049378 
L 279.70174 -305.48398 
L 279.935281 -305.918582 
L 280.143203 -306.353184 
L 280.325319 -306.787786 
L 280.482135 -307.222389 
L 280.614801 -307.656991 
L 280.725021 -308.091593 
L 280.814953 -308.526195 
L 280.887083 -308.960797 
L 280.944089 -309.395399 
L 280.98871 -309.830001 
L 281.023613 -310.264604 
L 281.051283 -310.699206 
L 281.073926 -311.133808 
L 281.093409 -311.56841 
L 281.655924 -311.56841 
L 281.655924 -311.56841 
L 281.675407 -311.133808 
L 281.698051 -310.699206 
L 281.72572 -310.264604 
L 281.760623 -309.830001 
L 281.805244 -309.395399 
L 281.862251 -308.960797 
L 281.934381 -308.526195 
L 282.024313 -308.091593 
L 282.134533 -307.656991 
L 282.267198 -307.222389 
L 282.424015 -306.787786 
L 282.60613 -306.353184 
L 282.814052 -305.918582 
L 283.047593 -305.48398 
L 283.305847 -305.049378 
L 283.587197 -304.614776 
L 283.889348 -304.180173 
L 284.209382 -303.745571 
L 284.543835 -303.310969 
L 284.888783 -302.876367 
L 285.239947 -302.441765 
L 285.592797 -302.007163 
L 285.942674 -301.572561 
L 286.284916 -301.137958 
L 286.615006 -300.703356 
L 286.928723 -300.268754 
L 287.222312 -299.834152 
L 287.492661 -299.39955 
L 287.73747 -298.964948 
L 287.955409 -298.530345 
L 288.146243 -298.095743 
L 288.310904 -297.661141 
L 288.451509 -297.226539 
L 288.571292 -296.791937 
L 288.674461 -296.357335 
L 288.765974 -295.922733 
L 288.851247 -295.48813 
L 288.935808 -295.053528 
L 289.024927 -294.618926 
L 289.123239 -294.184324 
L 289.234399 -293.749722 
L 289.360793 -293.31512 
L 289.50332 -292.880518 
L 289.661281 -292.445915 
L 289.832371 -292.011313 
L 290.012779 -291.576711 
L 290.197392 -291.142109 
L 290.380094 -290.707507 
L 290.55413 -290.272905 
L 290.712508 -289.838302 
L 290.84842 -289.4037 
L 290.955638 -288.969098 
L 291.028863 -288.534496 
L 291.064 -288.099894 
L 291.058343 -287.665292 
L 291.010657 -287.23069 
L 290.92116 -286.796087 
L 290.791422 -286.361485 
L 290.624181 -285.926883 
L 290.423127 -285.492281 
L 290.192648 -285.057679 
L 289.937592 -284.623077 
L 289.663051 -284.188474 
L 289.374174 -283.753872 
L 289.076035 -283.31927 
L 288.773537 -282.884668 
L 288.471344 -282.450066 
L 288.173843 -282.015464 
L 287.885097 -281.580862 
L 287.6088 -281.146259 
L 287.348207 -280.711657 
L 287.106052 -280.277055 
L 286.884437 -279.842453 
L 286.684725 -279.407851 
L 286.507428 -278.973249 
L 286.352127 -278.538646 
L 286.217427 -278.104044 
L 286.100965 -277.669442 
L 285.999481 -277.23484 
L 285.908958 -276.800238 
L 285.824819 -276.365636 
L 285.742186 -275.931034 
L 285.65616 -275.496431 
L 285.56213 -275.061829 
L 285.456053 -274.627227 
L 285.334719 -274.192625 
L 285.19594 -273.758023 
L 285.038674 -273.323421 
L 284.863067 -272.888818 
L 284.670401 -272.454216 
L 284.462971 -272.019614 
L 284.243891 -271.585012 
L 284.016856 -271.15041 
L 283.785879 -270.715808 
L 283.555038 -270.281206 
L 283.328229 -269.846603 
L 283.108975 -269.412001 
L 282.900277 -268.977399 
L 282.704521 -268.542797 
z
" style="stroke: #000000"/>
    </defs>
    <g clip-path="url(#p97f33bd284)">
     <use xlink:href="#me8b6d071f8" x="0" y="360" style="fill: #deebf7; stroke: #000000"/>
    </g>
   </g>
   <g id="PolyCollection_7">
    <defs>
     <path id="m5528acd956" d="M 321.406246 -287.202277 
L 318.857754 -287.202277 
L 318.702541 -287.565557 
L 318.539265 -287.928836 
L 318.369122 -288.292115 
L 318.193504 -288.655394 
L 318.013951 -289.018673 
L 317.832105 -289.381953 
L 317.649643 -289.745232 
L 317.468205 -290.108511 
L 317.289318 -290.47179 
L 317.114313 -290.83507 
L 316.94425 -291.198349 
L 316.779857 -291.561628 
L 316.621467 -291.924907 
L 316.468991 -292.288186 
L 316.321898 -292.651466 
L 316.179225 -293.014745 
L 316.039612 -293.378024 
L 315.901354 -293.741303 
L 315.762476 -294.104583 
L 315.620826 -294.467862 
L 315.474173 -294.831141 
L 315.320314 -295.19442 
L 315.157185 -295.5577 
L 314.98296 -295.920979 
L 314.796143 -296.284258 
L 314.595652 -296.647537 
L 314.380889 -297.010816 
L 314.151787 -297.374096 
L 313.908856 -297.737375 
L 313.6532 -298.100654 
L 313.386526 -298.463933 
L 313.111139 -298.827213 
L 312.829908 -299.190492 
L 312.546226 -299.553771 
L 312.263945 -299.91705 
L 311.98728 -300.280329 
L 311.720704 -300.643609 
L 311.46881 -301.006888 
L 311.236157 -301.370167 
L 311.027101 -301.733446 
L 310.845614 -302.096726 
L 310.695107 -302.460005 
L 310.57826 -302.823284 
L 310.496876 -303.186563 
L 310.451765 -303.549843 
L 310.442667 -303.913122 
L 310.468234 -304.276401 
L 310.526056 -304.63968 
L 310.612749 -305.002959 
L 310.724089 -305.366239 
L 310.855203 -305.729518 
L 311.000785 -306.092797 
L 311.155339 -306.456076 
L 311.313438 -306.819356 
L 311.469961 -307.182635 
L 311.620326 -307.545914 
L 311.760674 -307.909193 
L 311.888016 -308.272472 
L 312.000326 -308.635752 
L 312.09658 -308.999031 
L 312.176739 -309.36231 
L 312.241681 -309.725589 
L 312.293094 -310.088869 
L 312.333336 -310.452148 
L 312.365268 -310.815427 
L 312.392084 -311.178706 
L 312.417134 -311.541986 
L 312.44377 -311.905265 
L 312.475196 -312.268544 
L 312.514353 -312.631823 
L 312.563834 -312.995102 
L 312.625819 -313.358382 
L 312.702048 -313.721661 
L 312.793817 -314.08494 
L 312.901996 -314.448219 
L 313.027062 -314.811499 
L 313.169142 -315.174778 
L 313.328062 -315.538057 
L 313.503394 -315.901336 
L 313.694499 -316.264615 
L 313.900556 -316.627895 
L 314.120588 -316.991174 
L 314.353477 -317.354453 
L 314.597967 -317.717732 
L 314.852666 -318.081012 
L 315.116048 -318.444291 
L 315.386452 -318.80757 
L 315.66209 -319.170849 
L 315.941063 -319.534129 
L 316.221386 -319.897408 
L 316.501018 -320.260687 
L 316.777907 -320.623966 
L 317.050035 -320.987245 
L 317.315465 -321.350525 
L 317.572394 -321.713804 
L 317.819189 -322.077083 
L 318.054429 -322.440362 
L 318.276928 -322.803642 
L 318.485758 -323.166921 
L 321.778242 -323.166921 
L 321.778242 -323.166921 
L 321.987072 -322.803642 
L 322.209571 -322.440362 
L 322.444811 -322.077083 
L 322.691606 -321.713804 
L 322.948535 -321.350525 
L 323.213965 -320.987245 
L 323.486093 -320.623966 
L 323.762982 -320.260687 
L 324.042614 -319.897408 
L 324.322937 -319.534129 
L 324.60191 -319.170849 
L 324.877548 -318.80757 
L 325.147952 -318.444291 
L 325.411334 -318.081012 
L 325.666033 -317.717732 
L 325.910523 -317.354453 
L 326.143412 -316.991174 
L 326.363444 -316.627895 
L 326.569501 -316.264615 
L 326.760606 -315.901336 
L 326.935938 -315.538057 
L 327.094858 -315.174778 
L 327.236938 -314.811499 
L 327.362004 -314.448219 
L 327.470183 -314.08494 
L 327.561952 -313.721661 
L 327.638181 -313.358382 
L 327.700166 -312.995102 
L 327.749647 -312.631823 
L 327.788804 -312.268544 
L 327.82023 -311.905265 
L 327.846866 -311.541986 
L 327.871916 -311.178706 
L 327.898732 -310.815427 
L 327.930664 -310.452148 
L 327.970906 -310.088869 
L 328.022319 -309.725589 
L 328.087261 -309.36231 
L 328.16742 -308.999031 
L 328.263674 -308.635752 
L 328.375984 -308.272472 
L 328.503326 -307.909193 
L 328.643674 -307.545914 
L 328.794039 -307.182635 
L 328.950562 -306.819356 
L 329.108661 -306.456076 
L 329.263215 -306.092797 
L 329.408797 -305.729518 
L 329.539911 -305.366239 
L 329.651251 -305.002959 
L 329.737944 -304.63968 
L 329.795766 -304.276401 
L 329.821333 -303.913122 
L 329.812235 -303.549843 
L 329.767124 -303.186563 
L 329.68574 -302.823284 
L 329.568893 -302.460005 
L 329.418386 -302.096726 
L 329.236899 -301.733446 
L 329.027843 -301.370167 
L 328.79519 -301.006888 
L 328.543296 -300.643609 
L 328.27672 -300.280329 
L 328.000055 -299.91705 
L 327.717774 -299.553771 
L 327.434092 -299.190492 
L 327.152861 -298.827213 
L 326.877474 -298.463933 
L 326.6108 -298.100654 
L 326.355144 -297.737375 
L 326.112213 -297.374096 
L 325.883111 -297.010816 
L 325.668348 -296.647537 
L 325.467857 -296.284258 
L 325.28104 -295.920979 
L 325.106815 -295.5577 
L 324.943686 -295.19442 
L 324.789827 -294.831141 
L 324.643174 -294.467862 
L 324.501524 -294.104583 
L 324.362646 -293.741303 
L 324.224388 -293.378024 
L 324.084775 -293.014745 
L 323.942102 -292.651466 
L 323.795009 -292.288186 
L 323.642533 -291.924907 
L 323.484143 -291.561628 
L 323.31975 -291.198349 
L 323.149687 -290.83507 
L 322.974682 -290.47179 
L 322.795795 -290.108511 
L 322.614357 -289.745232 
L 322.431895 -289.381953 
L 322.250049 -289.018673 
L 322.070496 -288.655394 
L 321.894878 -288.292115 
L 321.724735 -287.928836 
L 321.561459 -287.565557 
L 321.406246 -287.202277 
z
" style="stroke: #000000"/>
    </defs>
    <g clip-path="url(#p97f33bd284)">
     <use xlink:href="#m5528acd956" x="0" y="360" style="fill: #f8cbad; stroke: #000000"/>
    </g>
   </g>
   <g id="LineCollection_1">
    <path d="M 87.588 164.237279 
L 87.588 143.751786 
" clip-path="url(#p97f33bd284)" style="fill: none; stroke: #000000; stroke-width: 5"/>
    <path d="M 126.345333 131.612127 
L 126.345333 115.253249 
" clip-path="url(#p97f33bd284)" style="fill: none; stroke: #000000; stroke-width: 5"/>
    <path d="M 165.102667 101.508956 
L 165.102667 89.432962 
" clip-path="url(#p97f33bd284)" style="fill: none; stroke: #000000; stroke-width: 5"/>
    <path d="M 203.86 92.621974 
L 203.86 78.411772 
" clip-path="url(#p97f33bd284)" style="fill: none; stroke: #000000; stroke-width: 5"/>
    <path d="M 242.617333 87.42319 
L 242.617333 73.050934 
" clip-path="url(#p97f33bd284)" style="fill: none; stroke: #000000; stroke-width: 5"/>
    <path d="M 281.374667 77.439442 
L 281.374667 64.612496 
" clip-path="url(#p97f33bd284)" style="fill: none; stroke: #000000; stroke-width: 5"/>
    <path d="M 320.132 59.407925 
L 320.132 47.10187 
" clip-path="url(#p97f33bd284)" style="fill: none; stroke: #000000; stroke-width: 5"/>
   </g>
   <g id="LineCollection_2">
    <path d="M 87.588 164.237279 
L 87.588 168.410196 
" clip-path="url(#p97f33bd284)" style="fill: none; stroke: #000000"/>
    <path d="M 126.345333 131.612127 
L 126.345333 135.599838 
" clip-path="url(#p97f33bd284)" style="fill: none; stroke: #000000"/>
    <path d="M 165.102667 101.508956 
L 165.102667 117.08505 
" clip-path="url(#p97f33bd284)" style="fill: none; stroke: #000000"/>
    <path d="M 203.86 92.621974 
L 203.86 96.191525 
" clip-path="url(#p97f33bd284)" style="fill: none; stroke: #000000"/>
    <path d="M 242.617333 87.42319 
L 242.617333 96.017895 
" clip-path="url(#p97f33bd284)" style="fill: none; stroke: #000000"/>
    <path d="M 281.374667 77.439442 
L 281.374667 84.124212 
" clip-path="url(#p97f33bd284)" style="fill: none; stroke: #000000"/>
    <path d="M 320.132 59.407925 
L 320.132 54.132455 
" clip-path="url(#p97f33bd284)" style="fill: none; stroke: #000000"/>
   </g>
   <g id="patch_3">
    <path d="M 58.52 305.584 
L 58.52 16.2 
" style="fill: none; stroke: #000000; stroke-width: 0.8; stroke-linejoin: miter; stroke-linecap: square"/>
   </g>
   <g id="patch_4">
    <path d="M 349.2 305.584 
L 349.2 16.2 
" style="fill: none; stroke: #000000; stroke-width: 0.8; stroke-linejoin: miter; stroke-linecap: square"/>
   </g>
   <g id="patch_5">
    <path d="M 58.52 305.584 
L 349.2 305.584 
" style="fill: none; stroke: #000000; stroke-width: 0.8; stroke-linejoin: miter; stroke-linecap: square"/>
   </g>
   <g id="patch_6">
    <path d="M 58.52 16.2 
L 349.2 16.2 
" style="fill: none; stroke: #000000; stroke-width: 0.8; stroke-linejoin: miter; stroke-linecap: square"/>
   </g>
   <g id="PathCollection_1">
    <defs>
     <path id="m56e43595fe" d="M 0 2.738613 
C 0.726289 2.738613 1.422928 2.450055 1.936492 1.936492 
C 2.450055 1.422928 2.738613 0.726289 2.738613 0 
C 2.738613 -0.726289 2.450055 -1.422928 1.936492 -1.936492 
C 1.422928 -2.450055 0.726289 -2.738613 0 -2.738613 
C -0.726289 -2.738613 -1.422928 -2.450055 -1.936492 -1.936492 
C -2.450055 -1.422928 -2.738613 -0.726289 -2.738613 0 
C -2.738613 0.726289 -2.450055 1.422928 -1.936492 1.936492 
C -1.422928 2.450055 -0.726289 2.738613 0 2.738613 
z
" style="stroke: #ffffff"/>
    </defs>
    <g clip-path="url(#p97f33bd284)">
     <use xlink:href="#m56e43595fe" x="87.588" y="153.038118" style="fill: #ffffff; stroke: #ffffff"/>
     <use xlink:href="#m56e43595fe" x="126.345333" y="123.981071" style="fill: #ffffff; stroke: #ffffff"/>
     <use xlink:href="#m56e43595fe" x="165.102667" y="94.712773" style="fill: #ffffff; stroke: #ffffff"/>
     <use xlink:href="#m56e43595fe" x="203.86" y="84.653785" style="fill: #ffffff; stroke: #ffffff"/>
     <use xlink:href="#m56e43595fe" x="242.617333" y="78.371259" style="fill: #ffffff; stroke: #ffffff"/>
     <use xlink:href="#m56e43595fe" x="281.374667" y="71.509964" style="fill: #ffffff; stroke: #ffffff"/>
     <use xlink:href="#m56e43595fe" x="320.132" y="54.508654" style="fill: #ffffff; stroke: #ffffff"/>
    </g>
   </g>
  </g>
 </g>
 <defs>
  <clipPath id="p97f33bd284">
   <rect x="58.52" y="16.2" width="290.68" height="289.384"/>
  </clipPath>
 </defs>
</svg>
